<?xml version="1.0" encoding="UTF-8"?><svg id="a" xmlns="http://www.w3.org/2000/svg" viewBox="0 0 15.26 28.53"><path d="M10.08,28.53H4.53v-12.48H.02c0-.11-.02-.2-.02-.28,0-1.53,0-3.06,0-4.58,0-.23,.06-.31,.3-.31,1.31,.01,2.63,0,3.94,.01,.23,0,.29-.06,.29-.29-.01-1.23-.01-2.46,0-3.69,0-1.36,.25-2.68,.91-3.89C6.3,1.45,7.67,.58,9.38,.19,10.58-.08,11.79,0,13.01,.07c.67,.04,1.33,.15,1.99,.23,.19,.02,.27,.07,.27,.29,0,1.29,0,2.58,0,3.87,0,.22-.07,.27-.28,.28-.88,.01-1.77,0-2.65,.08-1.45,.13-2.18,1.29-2.24,2.43-.06,1.18-.01,2.36-.01,3.54,0,.02,.01,.05,.03,.1h4.93l-.78,5.16h-4.17v12.49Z"/></svg>