<?xml version="1.0" encoding="UTF-8"?><svg id="a" xmlns="http://www.w3.org/2000/svg" viewBox="0 0 28.25 28.28"><path d="M13.91,28.28c-2.01-.06-4.25-.1-6.48-.22-3.65-.18-6.68-2.91-7.17-6.54-.2-1.52-.23-3.07-.25-4.61C-.01,14.49,0,12.07,.06,9.65c.03-1.3,0-2.62,.39-3.89C1.45,2.56,3.66,.7,6.91,.21,8.55-.04,10.24,.02,11.91,0c2.58-.02,5.17,.03,7.75,.04,2.01,0,3.88,.47,5.48,1.74,1.77,1.41,2.76,3.26,2.97,5.49,.13,1.33,.13,2.68,.13,4.03,0,2.95-.02,5.91-.06,8.86-.04,3.51-2.18,6.49-5.44,7.53-.78,.25-1.63,.35-2.46,.39-2.05,.1-4.1,.12-6.38,.18Zm4.84-2.6c.92-.03,1.86-.1,2.76-.27,2.03-.39,3.36-1.62,3.84-3.64,.21-.86,.31-1.76,.33-2.65,.06-2.74,.1-5.49,.07-8.24-.02-1.41-.12-2.83-.35-4.22-.33-2.04-1.87-3.51-3.91-3.86-.91-.15-1.84-.25-2.76-.27-2.26-.06-4.52-.09-6.78-.07-1.75,0-3.5,0-5.23,.34-1.97,.4-3.27,1.58-3.81,3.52-.19,.66-.28,1.37-.3,2.06-.07,2.34-.11,4.68-.1,7.02,0,1.72,.07,3.45,.18,5.17,.06,.87,.24,1.74,.71,2.52,.97,1.61,2.46,2.36,4.27,2.46,2.15,.12,4.3,.06,6.46,.14"/><path d="M14.45,21.33c-3.65,.29-7.18-2.77-7.53-6.43-.41-4.31,2.87-7.62,6.42-7.98,4.27-.43,7.81,2.82,8.03,6.81,.22,4.09-3.09,7.53-6.91,7.6Zm4.43-7.23c-.01-2.6-2.15-4.73-4.75-4.73-2.61,0-4.78,2.17-4.75,4.77,.03,2.62,2.15,4.74,4.75,4.73,2.62,0,4.76-2.16,4.75-4.77Z"/><path d="M21.7,4.92c1.06,.03,1.6,.67,1.67,1.59,.07,.9-.78,1.72-1.68,1.72-.96,0-1.68-.75-1.69-1.75,0-.86,.76-1.57,1.7-1.56Z"/></svg>