<?xml version="1.0" encoding="UTF-8"?><svg id="a" xmlns="http://www.w3.org/2000/svg" xmlns:xlink="http://www.w3.org/1999/xlink" viewBox="0 0 567.64 433.14"><defs><style>.t{fill:url(#e);}.u{fill:url(#d);}.v{fill:url(#g);}.w{fill:url(#f);}.x{fill:url(#p);}.y{fill:url(#o);}.a`{fill:url(#s);}.aa{fill:url(#q);}.ab{fill:url(#r);}.ac{fill:url(#i);}.ad{fill:url(#h);}.ae{fill:url(#k);}.af{fill:url(#j);}.ag{fill:url(#m);}.ah{fill:url(#l);}.ai{fill:url(#n);}.aj{fill:url(#c);}.ak{fill:url(#b);}.al{fill:#fff;}.am{fill:none;stroke:#000;stroke-dasharray:0 3;stroke-linecap:round;stroke-miterlimit:10;stroke-width:.5px;}</style><linearGradient id="b" x1="0" y1="67.63" x2="122.11" y2="67.63" gradientTransform="matrix(1, 0, 0, 1, 0, 0)" gradientUnits="userSpaceOnUse"><stop offset="0" stop-color="#fe8f90"/><stop offset=".52" stop-color="#946dc1"/><stop offset=".81" stop-color="#605dda"/><stop offset=".84" stop-color="#5c5ad4"/><stop offset=".87" stop-color="#5253c5"/><stop offset=".91" stop-color="#4247ac"/><stop offset=".95" stop-color="#2c368a"/><stop offset=".99" stop-color="#10205e"/><stop offset="1" stop-color="#06194e"/><stop offset="1" stop-color="#05184c"/><stop offset="1" stop-color="#011445"/><stop offset="1" stop-color="#001444"/></linearGradient><linearGradient id="c" y1="365.51" y2="365.51" xlink:href="#b"/><linearGradient id="d" x1="224.67" x2="346.78" xlink:href="#b"/><linearGradient id="e" x1="445.53" y1="67.63" x2="567.64" y2="67.63" xlink:href="#b"/><linearGradient id="f" x1="-5145.54" y1="-4389.06" x2="-4973.01" y2="-4003.55" gradientTransform="translate(4683.09 -4734.36) rotate(-90)" xlink:href="#b"/><linearGradient id="g" x1="224.67" y1="236.51" x2="346.78" y2="236.51" xlink:href="#b"/><linearGradient id="h" x1="224.92" y1="229.66" x2="346.53" y2="229.66" xlink:href="#b"/><linearGradient id="i" x1="285.48" y1="266.38" x2="285.98" y2="266.38" xlink:href="#b"/><linearGradient id="j" x1="-3450.32" y1="-445.42" x2="-3450.32" y2="-662.25" gradientTransform="translate(-308.33 3808.73) rotate(90)" xlink:href="#b"/><linearGradient id="k" x1="-3450.19" y1="-672.79" x2="-3450.33" y2="-660.62" gradientTransform="translate(-308.33 3808.73) rotate(90)" gradientUnits="userSpaceOnUse"><stop offset="0" stop-color="#fe8f90"/><stop offset=".24" stop-color="#946dc1"/><stop offset=".37" stop-color="#605dda"/><stop offset=".46" stop-color="#5c5ad4"/><stop offset=".57" stop-color="#5253c5"/><stop offset=".69" stop-color="#4247ac"/><stop offset=".82" stop-color="#2c368a"/><stop offset=".96" stop-color="#10205e"/><stop offset="1" stop-color="#06194e"/><stop offset="1" stop-color="#05184c"/><stop offset="1" stop-color="#011445"/><stop offset="1" stop-color="#001444"/></linearGradient><linearGradient id="l" x1="-341.49" y1="3328.67" x2="-341.49" y2="3111.84" gradientTransform="translate(-2971.31 38.53) rotate(-90)" xlink:href="#b"/><linearGradient id="m" x1="-341.35" y1="3101.3" x2="-341.49" y2="3113.46" gradientTransform="translate(-2971.31 38.53) rotate(-90)" xlink:href="#k"/><linearGradient id="n" x1="-2682.94" y1="-311.17" x2="-2682.94" y2="-385.73" gradientTransform="translate(-177.17 2750.57) rotate(90)" xlink:href="#b"/><linearGradient id="o" x1="-2682.8" y1="-396.27" x2="-2682.95" y2="-384.1" gradientTransform="translate(-177.17 2750.57) rotate(90)" xlink:href="#k"/><linearGradient id="p" x1="-2694.53" y1="-533.02" x2="-2694.53" y2="-607.57" gradientTransform="translate(-177.17 2750.57) rotate(90)" xlink:href="#b"/><linearGradient id="q" x1="-2694.4" y1="-618.11" x2="-2694.54" y2="-605.94" gradientTransform="translate(-177.17 2750.57) rotate(90)" xlink:href="#k"/><linearGradient id="r" x1="-104.17" y1="3000.02" x2="-104.17" y2="2925.47" gradientTransform="translate(-2566.18 -24.94) rotate(-90)" xlink:href="#b"/><linearGradient id="s" x1="-104.03" y1="2914.93" x2="-104.18" y2="2927.09" gradientTransform="translate(-2566.18 -24.94) rotate(-90)" xlink:href="#k"/></defs><path class="am" d="M222.67,249.11h-15.7c-2.39,0-4.34-1.94-4.34-4.34v-79.85c0-8.8,4.69-16.93,12.31-21.32l38.84-22.42"/><path class="am" d="M222.67,261.23h-23.84c-3.72,0-6.73-3.01-6.73-6.73v-93.93c0-9.69,5.17-18.65,13.56-23.49l37.58-21.7"/><g><g><path class="al" d="M61.06,135.01c-3.16,0-6.31-.81-9.13-2.44L9.38,108.01C3.75,104.76,.25,98.7,.25,92.2V43.06c0-6.5,3.5-12.56,9.13-15.81L51.93,2.69c5.63-3.25,12.63-3.25,18.26,0l42.55,24.57c5.63,3.25,9.13,9.31,9.13,15.81v49.13c0,6.5-3.5,12.56-9.13,15.81l-42.55,24.57c-2.81,1.63-5.97,2.44-9.13,2.44Z"/><path class="ak" d="M61.06,135.26c-3.25,0-6.45-.85-9.25-2.47L9.25,108.22c-5.71-3.29-9.25-9.44-9.25-16.03V43.06c0-6.59,3.55-12.73,9.25-16.03L51.8,2.47c5.71-3.3,12.8-3.3,18.51,0l42.55,24.57c5.71,3.3,9.25,9.44,9.25,16.03v49.13c0,6.59-3.54,12.73-9.25,16.03l-42.55,24.57c-2.8,1.62-6,2.47-9.25,2.47Zm0-134.76c-3.11,0-6.23,.8-9,2.4L9.5,27.47C3.95,30.68,.5,36.65,.5,43.06v49.13c0,6.41,3.45,12.39,9,15.59l42.55,24.57c2.72,1.57,5.84,2.4,9,2.4s6.28-.83,9-2.4l42.55-24.57c5.55-3.21,9-9.18,9-15.59V43.06c0-6.41-3.45-12.39-9-15.59L70.06,2.9c-2.78-1.6-5.89-2.4-9-2.4Z"/></g><g><path d="M34.94,62.85h3.15v1.52h-5.07v-9.56h1.92v8.04Z"/><path d="M39.45,55.56c-.22-.21-.34-.48-.34-.8s.11-.59,.34-.8c.22-.21,.5-.32,.84-.32s.62,.11,.84,.32c.22,.21,.34,.48,.34,.8s-.11,.59-.34,.8c-.22,.21-.5,.32-.84,.32s-.62-.11-.84-.32Zm1.79,1.23v7.59h-1.92v-7.59h1.92Z"/><path d="M43.1,58.54c.32-.59,.74-1.05,1.28-1.38,.54-.33,1.13-.49,1.78-.49,.54,0,1.02,.1,1.43,.31,.42,.21,.75,.47,1.01,.79v-.99h1.93v11.21h-1.93v-4.66c-.26,.33-.6,.6-1.03,.82-.43,.22-.91,.33-1.45,.33-.64,0-1.23-.17-1.76-.5-.53-.33-.96-.8-1.27-1.39-.31-.59-.47-1.27-.47-2.03s.16-1.43,.47-2.02Zm5.21,.83c-.19-.34-.44-.59-.75-.77-.31-.17-.63-.26-.98-.26s-.66,.09-.97,.26c-.31,.17-.55,.43-.75,.76-.19,.33-.29,.73-.29,1.2s.1,.87,.29,1.21c.19,.34,.44,.6,.75,.77,.31,.17,.63,.26,.97,.26s.67-.09,.98-.26c.31-.17,.55-.43,.75-.77,.19-.34,.29-.74,.29-1.21s-.1-.87-.29-1.21Z"/><path d="M59.58,56.78v7.59h-1.93v-.96c-.25,.33-.57,.59-.97,.77-.4,.19-.83,.28-1.29,.28-.59,0-1.12-.13-1.58-.38-.46-.25-.82-.62-1.08-1.11s-.39-1.07-.39-1.75v-4.45h1.92v4.18c0,.6,.15,1.07,.45,1.39,.3,.32,.71,.49,1.23,.49s.95-.16,1.25-.49c.3-.32,.45-.79,.45-1.39v-4.18h1.93Z"/><path d="M61.6,55.56c-.22-.21-.34-.48-.34-.8s.11-.59,.34-.8c.22-.21,.5-.32,.84-.32s.62,.11,.84,.32c.22,.21,.34,.48,.34,.8s-.11,.59-.34,.8c-.22,.21-.5,.32-.84,.32s-.62-.11-.84-.32Zm1.79,1.23v7.59h-1.92v-7.59h1.92Z"/><path d="M65.24,58.51c.31-.59,.72-1.05,1.25-1.37,.53-.32,1.12-.48,1.77-.48,.49,0,.96,.11,1.41,.32,.45,.21,.8,.5,1.07,.86v-3.6h1.95v10.14h-1.95v-1.12c-.24,.37-.57,.68-1,.9s-.93,.34-1.49,.34c-.64,0-1.22-.16-1.75-.49-.53-.33-.95-.79-1.25-1.39-.31-.6-.46-1.29-.46-2.06s.15-1.45,.46-2.04Zm5.24,.87c-.18-.33-.43-.59-.74-.77-.31-.18-.64-.27-1-.27s-.69,.09-.99,.26-.55,.43-.73,.76c-.19,.33-.28,.73-.28,1.19s.09,.86,.28,1.2c.19,.34,.43,.6,.74,.79,.31,.18,.63,.27,.98,.27s.69-.09,1-.27,.56-.43,.74-.77c.18-.33,.27-.73,.27-1.2s-.09-.87-.27-1.2Z"/><path d="M74.7,55.56c-.22-.21-.34-.48-.34-.8s.11-.59,.34-.8c.22-.21,.5-.32,.84-.32s.62,.11,.84,.32c.22,.21,.34,.48,.34,.8s-.11,.59-.34,.8c-.22,.21-.5,.32-.84,.32s-.62-.11-.84-.32Zm1.79,1.23v7.59h-1.92v-7.59h1.92Z"/><path d="M80.61,58.36v3.67c0,.26,.06,.44,.18,.56,.12,.11,.33,.17,.62,.17h.89v1.62h-1.21c-1.62,0-2.42-.79-2.42-2.36v-3.66h-.9v-1.58h.9v-1.88h1.93v1.88h1.7v1.58h-1.7Z"/><path d="M90.95,56.78l-4.7,11.18h-2.04l1.64-3.78-3.04-7.4h2.15l1.96,5.3,1.99-5.3h2.04Z"/><path d="M40.16,75.65c-.24,.45-.62,.81-1.14,1.08s-1.17,.41-1.95,.41h-1.6v3.67h-1.92v-9.56h3.52c.74,0,1.37,.13,1.89,.38,.52,.26,.91,.61,1.17,1.06,.26,.45,.39,.95,.39,1.52,0,.51-.12,.99-.36,1.44Zm-1.99-.42c.26-.24,.38-.58,.38-1.02,0-.93-.52-1.4-1.56-1.4h-1.52v2.78h1.52c.53,0,.92-.12,1.18-.36Z"/><path d="M44.77,73.46c.4-.23,.85-.34,1.36-.34v2.01h-.51c-.6,0-1.06,.14-1.36,.42-.31,.28-.46,.78-.46,1.48v3.78h-1.92v-7.59h1.92v1.18c.25-.4,.57-.72,.97-.95Z"/><path d="M48.82,80.45c-.58-.32-1.04-.78-1.38-1.38s-.5-1.28-.5-2.06,.17-1.46,.51-2.05,.81-1.05,1.4-1.38c.59-.32,1.26-.49,1.99-.49s1.39,.16,1.99,.49c.59,.32,1.06,.78,1.4,1.38s.51,1.28,.51,2.05-.18,1.46-.53,2.06c-.35,.59-.83,1.05-1.42,1.38s-1.27,.49-2.01,.49-1.39-.16-1.97-.49Zm2.95-1.44c.31-.17,.55-.42,.73-.76,.18-.34,.27-.75,.27-1.23,0-.72-.19-1.28-.57-1.66-.38-.39-.84-.58-1.39-.58s-1.01,.19-1.38,.58-.55,.94-.55,1.66,.18,1.28,.54,1.66c.36,.39,.82,.58,1.36,.58,.35,0,.67-.08,.98-.25Z"/><path d="M59.32,79.05l1.92-5.82h2.04l-2.81,7.59h-2.33l-2.8-7.59h2.06l1.92,5.82Z"/><path d="M64.5,72c-.22-.21-.34-.48-.34-.8s.11-.59,.34-.8c.22-.21,.5-.32,.84-.32s.62,.11,.84,.32c.22,.21,.34,.48,.34,.8s-.11,.59-.34,.8c-.22,.21-.5,.32-.84,.32s-.62-.11-.84-.32Zm1.79,1.23v7.59h-1.92v-7.59h1.92Z"/><path d="M68.14,74.95c.31-.59,.72-1.05,1.25-1.37,.53-.32,1.12-.48,1.77-.48,.49,0,.96,.11,1.41,.32,.45,.21,.8,.5,1.07,.86v-3.6h1.95v10.14h-1.95v-1.12c-.24,.37-.57,.68-1,.9s-.93,.34-1.49,.34c-.64,0-1.22-.16-1.75-.49-.53-.33-.95-.79-1.25-1.39-.31-.6-.46-1.29-.46-2.06s.15-1.45,.46-2.04Zm5.24,.87c-.18-.33-.43-.59-.74-.77-.31-.18-.64-.27-1-.27s-.69,.09-.99,.26-.55,.43-.73,.76c-.19,.33-.28,.73-.28,1.19s.09,.86,.28,1.2c.19,.34,.43,.6,.74,.79,.31,.18,.63,.27,.98,.27s.69-.09,1-.27,.56-.43,.74-.77c.18-.33,.27-.73,.27-1.2s-.09-.87-.27-1.2Z"/><path d="M84.46,77.59h-5.55c.05,.55,.24,.98,.58,1.29,.34,.31,.75,.47,1.25,.47,.71,0,1.22-.31,1.52-.92h2.07c-.22,.73-.64,1.33-1.26,1.8-.62,.47-1.38,.71-2.29,.71-.73,0-1.39-.16-1.97-.49s-1.03-.78-1.36-1.38-.49-1.28-.49-2.06,.16-1.47,.48-2.07c.32-.59,.77-1.05,1.34-1.37,.58-.32,1.24-.48,1.99-.48s1.37,.16,1.94,.47c.57,.31,1.01,.75,1.33,1.32s.47,1.23,.47,1.97c0,.27-.02,.52-.05,.74Zm-1.93-1.29c0-.49-.19-.89-.53-1.19-.35-.3-.77-.45-1.27-.45-.48,0-.87,.14-1.2,.43s-.52,.69-.6,1.2h3.6Z"/><path d="M88.8,73.46c.4-.23,.85-.34,1.36-.34v2.01h-.51c-.6,0-1.06,.14-1.36,.42-.31,.28-.46,.78-.46,1.48v3.78h-1.92v-7.59h1.92v1.18c.25-.4,.57-.72,.97-.95Z"/></g></g><g><g><path class="al" d="M61.06,432.89c-3.16,0-6.31-.81-9.13-2.44l-42.55-24.57c-5.63-3.25-9.13-9.31-9.13-15.81v-49.13c0-6.5,3.5-12.56,9.13-15.81l42.55-24.57c5.63-3.25,12.63-3.25,18.26,0l42.55,24.57c5.63,3.25,9.13,9.31,9.13,15.81v49.13c0,6.5-3.5,12.56-9.13,15.81l-42.55,24.57c-2.81,1.63-5.97,2.44-9.13,2.44Z"/><path class="aj" d="M61.06,433.14c-3.25,0-6.45-.85-9.25-2.47l-42.55-24.57c-5.71-3.29-9.25-9.44-9.25-16.03v-49.13c0-6.59,3.55-12.73,9.25-16.03l42.55-24.57c5.71-3.3,12.8-3.29,18.51,0l42.55,24.57c5.71,3.3,9.25,9.44,9.25,16.03v49.13c0,6.59-3.54,12.73-9.25,16.03l-42.55,24.57c-2.8,1.62-6,2.47-9.25,2.47Zm0-134.76c-3.11,0-6.23,.8-9,2.4l-42.55,24.57c-5.55,3.21-9,9.18-9,15.59v49.13c0,6.41,3.45,12.39,9,15.59l42.55,24.57c2.72,1.57,5.84,2.4,9,2.4s6.28-.83,9-2.4l42.55-24.57c5.55-3.21,9-9.18,9-15.59v-49.13c0-6.41-3.45-12.39-9-15.59l-42.55-24.57c-2.78-1.6-5.89-2.4-9-2.4Z"/></g><g><path d="M44.95,359.77v1.55h-2.55v8.01h-1.92v-8.01h-2.55v-1.55h7.01Z"/><path d="M49.24,361.97c.4-.23,.85-.34,1.36-.34v2.01h-.51c-.6,0-1.06,.14-1.36,.42-.31,.28-.46,.78-.46,1.48v3.78h-1.92v-7.59h1.92v1.18c.25-.4,.57-.72,.97-.95Z"/><path d="M51.85,363.46c.31-.59,.72-1.05,1.25-1.37,.53-.32,1.11-.48,1.76-.48,.57,0,1.06,.11,1.49,.34,.42,.23,.76,.52,1.02,.86v-1.08h1.93v7.59h-1.93v-1.11c-.25,.36-.59,.65-1.02,.88s-.93,.35-1.5,.35c-.64,0-1.22-.16-1.75-.49-.53-.33-.94-.79-1.25-1.39-.31-.6-.46-1.29-.46-2.06s.15-1.45,.46-2.04Zm5.24,.87c-.18-.33-.43-.59-.74-.77s-.64-.27-1-.27-.69,.09-.99,.26c-.3,.17-.55,.43-.73,.76-.19,.33-.28,.73-.28,1.19s.09,.86,.28,1.2c.19,.34,.43,.61,.74,.79,.31,.18,.63,.27,.98,.27s.69-.09,1-.27,.56-.43,.74-.77c.18-.33,.27-.73,.27-1.2s-.09-.87-.27-1.2Z"/><path d="M61.14,363.46c.31-.59,.72-1.05,1.25-1.37,.53-.32,1.12-.48,1.77-.48,.49,0,.96,.11,1.41,.32,.45,.21,.8,.5,1.07,.86v-3.6h1.95v10.14h-1.95v-1.12c-.24,.37-.57,.68-1,.9s-.93,.34-1.49,.34c-.64,0-1.22-.16-1.75-.49-.53-.33-.95-.79-1.25-1.39-.31-.6-.46-1.29-.46-2.06s.15-1.45,.46-2.04Zm5.24,.87c-.18-.33-.43-.59-.74-.77s-.64-.27-1-.27-.69,.09-.99,.26c-.3,.17-.55,.43-.73,.76-.19,.33-.28,.73-.28,1.19s.09,.86,.28,1.2c.19,.34,.43,.61,.74,.79,.31,.18,.63,.27,.98,.27s.69-.09,1-.27,.56-.43,.74-.77c.18-.33,.27-.73,.27-1.2s-.09-.87-.27-1.2Z"/><path d="M77.47,366.11h-5.55c.05,.55,.24,.98,.58,1.29,.34,.31,.75,.47,1.25,.47,.71,0,1.22-.31,1.52-.92h2.07c-.22,.73-.64,1.33-1.26,1.8-.62,.47-1.38,.71-2.29,.71-.73,0-1.39-.16-1.97-.49s-1.03-.78-1.36-1.38-.49-1.28-.49-2.05,.16-1.48,.48-2.07c.32-.59,.77-1.05,1.34-1.37,.58-.32,1.24-.48,1.99-.48s1.37,.16,1.94,.47,1.01,.75,1.33,1.32c.32,.57,.47,1.23,.47,1.97,0,.27-.02,.52-.05,.74Zm-1.93-1.29c0-.49-.19-.89-.53-1.19-.35-.3-.77-.45-1.27-.45-.48,0-.87,.14-1.2,.43s-.52,.69-.6,1.2h3.6Z"/><path d="M81.8,361.97c.4-.23,.85-.34,1.36-.34v2.01h-.51c-.6,0-1.06,.14-1.36,.42-.31,.28-.46,.78-.46,1.48v3.78h-1.92v-7.59h1.92v1.18c.25-.4,.57-.72,.97-.95Z"/></g></g><g><g><path class="al" d="M285.73,135.01c-3.16,0-6.31-.81-9.13-2.44l-42.55-24.57c-5.63-3.25-9.13-9.31-9.13-15.81V43.06c0-6.5,3.5-12.56,9.13-15.81L276.6,2.69c5.63-3.25,12.63-3.25,18.26,0l42.55,24.57c5.63,3.25,9.13,9.31,9.13,15.81v49.13c0,6.5-3.5,12.56-9.13,15.81l-42.55,24.57c-2.81,1.63-5.97,2.44-9.13,2.44Z"/><path class="u" d="M285.73,135.26c-3.25,0-6.45-.85-9.25-2.47l-42.55-24.57c-5.71-3.29-9.25-9.44-9.25-16.03V43.06c0-6.59,3.55-12.73,9.25-16.03L276.48,2.47c5.71-3.3,12.8-3.3,18.51,0l42.55,24.57c5.71,3.29,9.25,9.44,9.25,16.03v49.13c0,6.59-3.55,12.73-9.25,16.03l-42.55,24.57c-2.8,1.62-6,2.47-9.25,2.47Zm0-134.76c-3.11,0-6.23,.8-9,2.4l-42.55,24.57c-5.55,3.21-9,9.18-9,15.59v49.13c0,6.41,3.45,12.39,9,15.59l42.55,24.57c2.73,1.57,5.84,2.4,9,2.4s6.28-.83,9-2.4l42.55-24.57c5.55-3.21,9-9.18,9-15.59V43.06c0-6.41-3.45-12.39-9-15.59L294.73,2.9c-2.78-1.6-5.89-2.4-9-2.4Z"/></g><g><path d="M265.12,62.02c-.53-.23-.96-.56-1.27-.99-.31-.43-.47-.94-.48-1.52h2.06c.03,.39,.17,.7,.42,.93,.25,.23,.6,.34,1.03,.34s.8-.11,1.05-.32c.26-.21,.38-.5,.38-.84,0-.28-.09-.52-.26-.7-.17-.18-.39-.33-.65-.43-.26-.1-.62-.22-1.08-.35-.62-.18-1.13-.36-1.51-.54-.39-.18-.72-.45-1-.81-.28-.36-.42-.84-.42-1.45,0-.57,.14-1.06,.42-1.48,.28-.42,.68-.74,1.19-.97,.51-.22,1.1-.34,1.75-.34,.99,0,1.79,.24,2.4,.72s.96,1.15,1.02,2.01h-2.11c-.02-.33-.16-.6-.42-.81-.26-.21-.61-.32-1.03-.32-.37,0-.67,.1-.9,.29-.22,.19-.34,.47-.34,.84,0,.26,.08,.47,.25,.64,.17,.17,.38,.31,.63,.41,.25,.1,.6,.23,1.06,.36,.62,.18,1.13,.37,1.52,.55,.39,.18,.73,.46,1.01,.82,.28,.37,.42,.85,.42,1.44,0,.51-.13,.99-.4,1.42s-.65,.79-1.16,1.05c-.51,.26-1.12,.39-1.82,.39-.67,0-1.27-.11-1.8-.34Z"/><path d="M283.65,55.42c.57,.57,.86,1.37,.86,2.39v4.45h-1.92v-4.19c0-.59-.15-1.05-.45-1.36-.3-.31-.71-.47-1.23-.47s-.93,.16-1.24,.47c-.31,.32-.46,.77-.46,1.36v4.19h-1.92v-4.19c0-.59-.15-1.05-.45-1.36-.3-.31-.71-.47-1.23-.47s-.95,.16-1.25,.47c-.31,.32-.46,.77-.46,1.36v4.19h-1.92v-7.59h1.92v.92c.25-.32,.56-.57,.95-.75,.39-.18,.82-.27,1.28-.27,.59,0,1.12,.12,1.59,.38s.83,.61,1.08,1.08c.25-.44,.6-.79,1.08-1.06s.98-.4,1.53-.4c.93,0,1.68,.29,2.25,.86Z"/><path d="M286.29,56.4c.31-.59,.72-1.05,1.25-1.37,.53-.32,1.11-.48,1.76-.48,.57,0,1.06,.11,1.49,.34,.42,.23,.76,.52,1.02,.86v-1.08h1.93v7.59h-1.93v-1.11c-.25,.36-.59,.65-1.02,.88-.43,.23-.93,.35-1.5,.35-.64,0-1.22-.16-1.75-.49-.52-.33-.94-.79-1.25-1.39-.31-.6-.46-1.29-.46-2.06s.15-1.45,.46-2.04Zm5.24,.87c-.18-.33-.43-.59-.74-.77-.31-.18-.64-.27-1-.27s-.69,.09-.99,.26-.55,.43-.73,.76c-.19,.33-.28,.73-.28,1.19s.09,.86,.28,1.2c.19,.34,.43,.6,.74,.79,.31,.18,.63,.27,.98,.27s.69-.09,1-.27c.31-.18,.56-.43,.74-.77,.18-.33,.27-.73,.27-1.2s-.09-.87-.27-1.2Z"/><path d="M298.5,54.91c.4-.23,.85-.34,1.36-.34v2.01h-.51c-.6,0-1.06,.14-1.36,.42-.31,.28-.46,.78-.46,1.48v3.78h-1.92v-7.59h1.92v1.18c.25-.4,.57-.72,.97-.95Z"/><path d="M303.38,56.25v3.67c0,.26,.06,.44,.19,.56,.12,.11,.33,.17,.62,.17h.89v1.62h-1.21c-1.62,0-2.43-.79-2.43-2.36v-3.66h-.9v-1.58h.9v-1.88h1.93v1.88h1.7v1.58h-1.7Z"/><path d="M255.84,71.38c.42-.74,1-1.32,1.74-1.74,.74-.42,1.56-.62,2.47-.62,1.07,0,2,.27,2.81,.82s1.37,1.31,1.69,2.27h-2.21c-.22-.46-.53-.8-.92-1.03-.4-.23-.86-.34-1.38-.34-.56,0-1.05,.13-1.49,.39-.43,.26-.77,.63-1.01,1.1-.24,.48-.36,1.03-.36,1.67s.12,1.19,.36,1.66c.24,.48,.58,.85,1.01,1.11,.43,.26,.93,.39,1.49,.39,.52,0,.98-.12,1.38-.35,.4-.23,.71-.58,.92-1.03h2.21c-.32,.98-.88,1.74-1.68,2.28-.8,.54-1.74,.82-2.82,.82-.91,0-1.74-.21-2.47-.62-.74-.42-1.32-.99-1.74-1.73s-.64-1.58-.64-2.52,.21-1.78,.64-2.53Z"/><path d="M267.58,78.34c-.58-.32-1.04-.78-1.38-1.38s-.5-1.28-.5-2.06,.17-1.46,.51-2.05,.81-1.05,1.4-1.38c.59-.32,1.26-.49,1.99-.49s1.39,.16,1.99,.49c.59,.32,1.06,.78,1.4,1.38s.51,1.28,.51,2.05-.18,1.46-.53,2.06c-.35,.59-.83,1.05-1.42,1.38s-1.27,.49-2.01,.49-1.39-.16-1.97-.49Zm2.95-1.44c.31-.17,.55-.42,.73-.76,.18-.34,.27-.75,.27-1.23,0-.72-.19-1.28-.57-1.66-.38-.39-.84-.58-1.39-.58s-1.01,.19-1.38,.58-.55,.94-.55,1.66,.18,1.28,.54,1.66c.36,.39,.82,.58,1.36,.58,.35,0,.67-.08,.98-.25Z"/><path d="M281.33,71.86c.56,.57,.84,1.37,.84,2.39v4.45h-1.92v-4.19c0-.6-.15-1.07-.45-1.39-.3-.32-.71-.49-1.23-.49s-.95,.16-1.25,.49c-.31,.32-.46,.79-.46,1.39v4.19h-1.92v-7.59h1.92v.95c.26-.33,.58-.59,.98-.77,.4-.19,.83-.28,1.31-.28,.9,0,1.63,.29,2.19,.86Z"/><path d="M286.22,72.69v3.67c0,.26,.06,.44,.19,.56,.12,.11,.33,.17,.62,.17h.89v1.62h-1.21c-1.62,0-2.42-.79-2.42-2.36v-3.66h-.9v-1.58h.9v-1.88h1.93v1.88h1.7v1.58h-1.7Z"/><path d="M292.18,71.35c.4-.23,.85-.34,1.36-.34v2.01h-.51c-.6,0-1.06,.14-1.36,.42-.31,.28-.46,.78-.46,1.48v3.78h-1.92v-7.59h1.92v1.18c.25-.4,.57-.72,.97-.95Z"/><path d="M294.8,72.84c.31-.59,.72-1.05,1.25-1.37,.53-.32,1.11-.48,1.76-.48,.57,0,1.06,.11,1.49,.34,.42,.23,.76,.52,1.02,.86v-1.08h1.93v7.59h-1.93v-1.11c-.25,.36-.59,.65-1.02,.88-.43,.23-.93,.35-1.5,.35-.64,0-1.22-.16-1.75-.49-.52-.33-.94-.79-1.25-1.39-.31-.6-.46-1.29-.46-2.06s.15-1.45,.46-2.04Zm5.24,.87c-.18-.33-.43-.59-.74-.77-.31-.18-.64-.27-1-.27s-.69,.09-.99,.26-.55,.43-.73,.76c-.19,.33-.28,.73-.28,1.19s.09,.86,.28,1.2c.19,.34,.43,.6,.74,.79,.31,.18,.63,.27,.98,.27s.69-.09,1-.27c.31-.18,.56-.43,.74-.77,.18-.33,.27-.73,.27-1.2s-.09-.87-.27-1.2Z"/><path d="M304.11,72.85c.32-.59,.76-1.05,1.33-1.37s1.21-.49,1.95-.49c.94,0,1.72,.24,2.34,.71,.62,.47,1.03,1.13,1.24,1.98h-2.07c-.11-.33-.29-.59-.55-.77-.26-.19-.58-.28-.97-.28-.55,0-.98,.2-1.3,.6-.32,.4-.48,.96-.48,1.69s.16,1.28,.48,1.68c.32,.4,.75,.6,1.3,.6,.78,0,1.28-.35,1.52-1.04h2.07c-.21,.82-.63,1.48-1.25,1.96-.62,.48-1.4,.73-2.33,.73-.73,0-1.38-.16-1.95-.49s-1.01-.78-1.33-1.37c-.32-.59-.48-1.28-.48-2.06s.16-1.47,.48-2.06Z"/><path d="M314.6,72.69v3.67c0,.26,.06,.44,.19,.56,.12,.11,.33,.17,.62,.17h.89v1.62h-1.21c-1.62,0-2.43-.79-2.43-2.36v-3.66h-.9v-1.58h.9v-1.88h1.93v1.88h1.7v1.58h-1.7Z"/></g></g><g><path d="M142.5,61.11c-.43-.18-.77-.45-1.01-.79-.25-.34-.38-.75-.38-1.22h1.65c.02,.31,.13,.56,.33,.75s.48,.27,.83,.27,.64-.09,.84-.26c.2-.17,.31-.4,.31-.67,0-.23-.07-.41-.21-.56-.14-.15-.31-.26-.52-.35-.21-.08-.5-.18-.86-.28-.5-.15-.9-.29-1.21-.43s-.58-.36-.8-.65-.33-.67-.33-1.16c0-.45,.11-.85,.34-1.18,.23-.34,.54-.59,.95-.77s.88-.27,1.4-.27c.79,0,1.43,.19,1.93,.58,.49,.38,.77,.92,.82,1.61h-1.69c-.01-.26-.13-.48-.33-.65s-.48-.26-.83-.26c-.3,0-.54,.08-.72,.23-.18,.15-.27,.38-.27,.67,0,.21,.07,.37,.2,.51,.14,.13,.3,.25,.5,.33,.2,.08,.48,.18,.85,.29,.5,.15,.9,.29,1.22,.44,.31,.15,.59,.37,.81,.66,.23,.29,.34,.68,.34,1.15,0,.41-.11,.79-.32,1.14-.21,.35-.52,.63-.93,.84-.41,.21-.9,.31-1.46,.31-.53,0-1.02-.09-1.44-.27Z"/><path d="M153.19,53.65v1.24h-2.04v6.42h-1.54v-6.42h-2.04v-1.24h5.62Z"/><path d="M155.89,60.88c-.6-.34-1.08-.8-1.43-1.4-.35-.6-.53-1.27-.53-2.02s.18-1.42,.53-2.01c.35-.6,.83-1.06,1.43-1.4,.6-.34,1.26-.5,1.98-.5s1.38,.17,1.98,.5c.6,.34,1.07,.8,1.42,1.4,.35,.6,.52,1.27,.52,2.01s-.17,1.43-.52,2.02c-.35,.6-.82,1.06-1.42,1.4-.6,.34-1.26,.5-1.98,.5s-1.38-.17-1.98-.5Zm3.19-1.18c.35-.21,.63-.51,.82-.89s.3-.84,.3-1.35-.1-.96-.3-1.34c-.2-.38-.47-.68-.82-.88-.35-.21-.76-.31-1.22-.31s-.87,.1-1.22,.31c-.35,.2-.63,.5-.83,.88-.2,.38-.3,.83-.3,1.34s.1,.96,.3,1.35,.47,.69,.83,.89c.35,.21,.76,.31,1.22,.31s.87-.1,1.22-.31Z"/><path d="M169.65,50.92l-2.96,12.38h-1.5l2.96-12.38h1.5Z"/><path d="M178.7,53.65v1.24h-2.04v6.42h-1.54v-6.42h-2.04v-1.24h5.62Z"/><path d="M183.77,61.31l-1.69-2.98h-.72v2.98h-1.54v-7.66h2.88c.59,0,1.1,.1,1.51,.31,.42,.21,.73,.49,.94,.84,.21,.35,.31,.75,.31,1.19,0,.5-.15,.96-.44,1.37-.29,.41-.73,.69-1.31,.84l1.83,3.11h-1.78Zm-2.41-4.14h1.28c.42,0,.73-.1,.93-.3,.2-.2,.31-.48,.31-.84s-.1-.62-.31-.82c-.21-.19-.52-.29-.93-.29h-1.28v2.25Z"/><path d="M192.94,53.65l-2.59,4.99v2.67h-1.54v-2.67l-2.6-4.99h1.73l1.65,3.5,1.64-3.5h1.71Z"/><path d="M198.41,61.31l-1.66-2.58-1.5,2.58h-1.73l2.41-3.86-2.45-3.8h1.77l1.66,2.57,1.49-2.57h1.73l-2.4,3.85,2.45,3.81h-1.77Z"/></g><g><path d="M218.56,344.62v1.24h-2.04v6.42h-1.54v-6.42h-2.04v-1.24h5.62Z"/><path d="M223.63,352.28l-1.69-2.98h-.72v2.98h-1.54v-7.66h2.88c.59,0,1.1,.1,1.51,.31,.42,.21,.73,.49,.94,.85s.31,.75,.31,1.19c0,.5-.15,.96-.44,1.37-.29,.41-.73,.69-1.31,.84l1.83,3.11h-1.78Zm-2.41-4.14h1.28c.42,0,.73-.1,.93-.3,.2-.2,.31-.48,.31-.84s-.1-.62-.31-.82c-.21-.19-.52-.29-.93-.29h-1.28v2.25Z"/><path d="M232.8,344.62l-2.59,4.99v2.67h-1.54v-2.67l-2.6-4.99h1.73l1.65,3.5,1.64-3.5h1.71Z"/><path d="M238.28,352.28l-1.66-2.58-1.5,2.58h-1.73l2.41-3.86-2.45-3.8h1.77l1.66,2.57,1.49-2.57h1.73l-2.4,3.85,2.45,3.81h-1.77Z"/><path d="M249.57,349.05h-2.07v2.13h-1.45v-2.13h-2.07v-1.34h2.07v-2.13h1.45v2.13h2.07v1.34Z"/><path d="M258.57,344.62v1.24h-3.19v1.96h2.45v1.22h-2.45v3.24h-1.54v-7.66h4.73Z"/><path d="M265.26,349.7h-4.44c.04,.44,.19,.78,.46,1.03,.27,.25,.6,.37,1,.37,.57,0,.98-.25,1.22-.74h1.66c-.18,.59-.51,1.07-1.01,1.44s-1.11,.57-1.83,.57c-.59,0-1.11-.13-1.57-.39-.46-.26-.83-.63-1.09-1.1-.26-.48-.39-1.02-.39-1.65s.13-1.18,.38-1.66,.61-.84,1.08-1.1c.46-.26,.99-.38,1.59-.38s1.1,.12,1.55,.37c.46,.25,.81,.6,1.06,1.06,.25,.46,.38,.98,.38,1.57,0,.22-.01,.42-.04,.59Zm-1.55-1.03c0-.4-.15-.71-.43-.95-.28-.24-.62-.36-1.02-.36-.38,0-.7,.12-.96,.35-.26,.23-.42,.55-.48,.96h2.89Z"/><path d="M272.03,349.7h-4.44c.04,.44,.19,.78,.46,1.03,.27,.25,.6,.37,1,.37,.57,0,.98-.25,1.22-.74h1.66c-.18,.59-.51,1.07-1.01,1.44s-1.11,.57-1.83,.57c-.59,0-1.11-.13-1.57-.39-.46-.26-.83-.63-1.09-1.1-.26-.48-.39-1.02-.39-1.65s.13-1.18,.38-1.66,.61-.84,1.08-1.1c.46-.26,.99-.38,1.59-.38s1.1,.12,1.55,.37c.46,.25,.81,.6,1.06,1.06,.25,.46,.38,.98,.38,1.57,0,.22-.01,.42-.04,.59Zm-1.55-1.03c0-.4-.15-.71-.43-.95s-.62-.36-1.02-.36c-.38,0-.7,.12-.96,.35-.26,.23-.42,.55-.48,.96h2.89Z"/><path d="M274.18,352.11c-.4-.18-.71-.42-.94-.73-.23-.31-.36-.65-.38-1.02h1.55c.03,.23,.14,.43,.35,.58s.45,.23,.75,.23,.52-.06,.69-.18c.16-.12,.25-.27,.25-.45,0-.2-.1-.35-.3-.44-.2-.1-.52-.21-.96-.32-.45-.11-.82-.22-1.11-.34-.29-.12-.54-.3-.75-.54s-.31-.57-.31-.98c0-.34,.1-.64,.29-.92s.47-.5,.83-.66c.36-.16,.79-.24,1.28-.24,.72,0,1.3,.18,1.73,.54,.43,.36,.67,.85,.71,1.47h-1.47c-.02-.24-.12-.43-.3-.58s-.42-.21-.72-.21c-.28,0-.49,.05-.64,.15-.15,.1-.23,.25-.23,.43,0,.21,.1,.36,.31,.47,.2,.11,.52,.21,.95,.32,.44,.11,.8,.22,1.09,.34,.29,.12,.53,.3,.74,.54,.21,.25,.32,.57,.32,.97,0,.35-.1,.67-.29,.94s-.47,.5-.83,.65-.78,.24-1.27,.24-.94-.09-1.34-.27Z"/></g><g><path d="M239.24,393.53l-1.78,6.08h-1.66l-1.11-4.25-1.11,4.25h-1.67l-1.79-6.08h1.56l1.08,4.63,1.16-4.63h1.62l1.14,4.62,1.08-4.62h1.47Z"/><path d="M241.28,399.41c-.43-.18-.77-.45-1.01-.79-.25-.34-.38-.75-.38-1.22h1.65c.02,.31,.13,.56,.33,.75s.48,.27,.83,.27,.64-.09,.84-.26c.2-.17,.31-.4,.31-.67,0-.23-.07-.41-.21-.56-.14-.15-.31-.26-.52-.35-.21-.08-.5-.18-.86-.28-.5-.15-.9-.29-1.21-.43s-.58-.36-.8-.65-.33-.67-.33-1.16c0-.45,.11-.85,.34-1.18,.23-.34,.54-.59,.95-.77s.88-.27,1.4-.27c.79,0,1.43,.19,1.93,.58,.49,.38,.77,.92,.82,1.61h-1.69c-.01-.26-.13-.48-.33-.65s-.48-.26-.83-.26c-.3,0-.54,.08-.72,.23-.18,.15-.27,.38-.27,.67,0,.21,.07,.37,.2,.51,.14,.13,.3,.25,.5,.33,.2,.08,.48,.18,.85,.29,.5,.15,.9,.29,1.22,.44,.31,.15,.59,.37,.81,.66,.23,.29,.34,.68,.34,1.15,0,.41-.11,.79-.32,1.14-.21,.35-.52,.63-.93,.84-.41,.21-.9,.31-1.46,.31-.53,0-1.02-.09-1.44-.27Z"/><path d="M251.97,391.95v1.24h-2.04v6.42h-1.54v-6.42h-2.04v-1.24h5.62Z"/><path d="M254.67,399.18c-.6-.34-1.08-.8-1.43-1.4-.35-.6-.53-1.27-.53-2.02s.18-1.42,.53-2.01c.35-.6,.83-1.06,1.43-1.4,.6-.34,1.26-.5,1.98-.5s1.38,.17,1.98,.5c.6,.34,1.07,.8,1.42,1.4,.35,.6,.52,1.27,.52,2.01s-.17,1.43-.52,2.02c-.35,.6-.82,1.06-1.42,1.4-.6,.34-1.26,.5-1.98,.5s-1.38-.17-1.98-.5Zm3.19-1.18c.35-.21,.63-.51,.82-.89s.3-.84,.3-1.35-.1-.96-.3-1.34c-.2-.38-.47-.68-.82-.88-.35-.21-.76-.31-1.22-.31s-.87,.1-1.22,.31c-.35,.2-.63,.5-.83,.88-.2,.38-.3,.83-.3,1.34s.1,.96,.3,1.35,.47,.69,.83,.89c.35,.21,.76,.31,1.22,.31s.87-.1,1.22-.31Z"/></g><g><path d="M385.07,48.99c-.43-.18-.77-.45-1.02-.79-.25-.34-.38-.75-.38-1.22h1.65c.02,.31,.13,.56,.33,.75,.2,.18,.48,.27,.83,.27s.64-.09,.84-.26c.2-.17,.31-.4,.31-.67,0-.23-.07-.41-.21-.56-.14-.15-.31-.26-.52-.35s-.5-.18-.86-.28c-.5-.15-.9-.29-1.21-.43-.31-.14-.58-.36-.8-.65-.22-.29-.33-.67-.33-1.16,0-.45,.11-.85,.34-1.19,.23-.34,.54-.59,.95-.77,.41-.18,.88-.27,1.4-.27,.79,0,1.43,.19,1.93,.58,.49,.38,.77,.92,.82,1.61h-1.69c-.01-.26-.13-.48-.33-.65-.21-.17-.48-.26-.83-.26-.3,0-.54,.08-.72,.23-.18,.15-.27,.38-.27,.67,0,.2,.07,.37,.2,.51,.14,.14,.3,.25,.5,.33,.2,.08,.48,.18,.85,.29,.5,.15,.9,.29,1.22,.44,.31,.15,.59,.37,.81,.66,.23,.29,.34,.68,.34,1.15,0,.41-.11,.79-.32,1.14-.21,.35-.52,.63-.93,.84s-.9,.31-1.46,.31-1.02-.09-1.44-.27Z"/><path d="M395.76,41.53v1.24h-2.04v6.42h-1.54v-6.42h-2.04v-1.24h5.62Z"/><path d="M398.46,48.76c-.6-.34-1.08-.8-1.43-1.4-.35-.6-.53-1.27-.53-2.02s.18-1.42,.53-2.01c.35-.6,.83-1.06,1.43-1.4,.6-.34,1.26-.5,1.98-.5s1.38,.17,1.98,.5c.6,.34,1.07,.8,1.42,1.4,.35,.6,.52,1.27,.52,2.01s-.17,1.43-.52,2.02c-.35,.6-.82,1.06-1.42,1.4-.6,.34-1.26,.5-1.98,.5s-1.38-.17-1.98-.5Zm3.19-1.18c.35-.21,.63-.51,.82-.89,.2-.39,.3-.84,.3-1.35s-.1-.96-.3-1.34c-.2-.38-.47-.68-.82-.88-.35-.2-.76-.31-1.22-.31s-.87,.1-1.22,.31c-.35,.21-.63,.5-.83,.88-.2,.38-.3,.83-.3,1.34s.1,.96,.3,1.35c.2,.39,.47,.69,.83,.89,.35,.21,.76,.31,1.22,.31s.87-.1,1.22-.31Z"/></g><g><path d="M387.66,88.21l-1.78,6.08h-1.66l-1.11-4.25-1.11,4.25h-1.67l-1.79-6.08h1.56l1.08,4.63,1.16-4.63h1.62l1.14,4.62,1.08-4.62h1.47Z"/><path d="M389.7,94.09c-.43-.18-.77-.45-1.02-.79-.25-.34-.38-.75-.38-1.22h1.65c.02,.31,.13,.56,.33,.75,.2,.18,.48,.27,.83,.27s.64-.09,.84-.26c.2-.17,.31-.4,.31-.67,0-.23-.07-.41-.21-.56-.14-.15-.31-.26-.52-.35-.21-.08-.5-.18-.86-.28-.5-.15-.9-.29-1.21-.43s-.58-.36-.8-.65c-.22-.29-.33-.67-.33-1.16,0-.45,.11-.85,.34-1.18,.23-.34,.54-.59,.95-.77s.88-.27,1.4-.27c.79,0,1.43,.19,1.93,.58,.49,.38,.77,.92,.82,1.61h-1.69c-.01-.26-.13-.48-.33-.65s-.48-.26-.83-.26c-.3,0-.54,.08-.72,.23-.18,.15-.27,.38-.27,.67,0,.21,.07,.37,.2,.51,.14,.13,.3,.25,.5,.33s.48,.18,.85,.29c.5,.15,.9,.29,1.22,.44s.59,.37,.81,.66c.23,.29,.34,.68,.34,1.15,0,.41-.11,.79-.32,1.14-.21,.35-.52,.63-.93,.84s-.9,.31-1.46,.31-1.02-.09-1.44-.27Z"/><path d="M400.39,86.63v1.24h-2.04v6.42h-1.54v-6.42h-2.04v-1.24h5.62Z"/><path d="M403.09,93.86c-.6-.34-1.08-.8-1.43-1.4-.35-.6-.53-1.27-.53-2.02s.18-1.42,.53-2.01c.35-.6,.83-1.06,1.43-1.4,.6-.34,1.26-.5,1.98-.5s1.38,.17,1.98,.5c.6,.34,1.07,.8,1.42,1.4,.35,.6,.52,1.27,.52,2.01s-.17,1.43-.52,2.02c-.35,.6-.82,1.06-1.42,1.4-.6,.34-1.26,.5-1.98,.5s-1.38-.17-1.98-.5Zm3.19-1.18c.35-.21,.63-.51,.82-.89,.2-.39,.3-.84,.3-1.35s-.1-.96-.3-1.34c-.2-.38-.47-.68-.82-.88-.35-.21-.76-.31-1.22-.31s-.87,.1-1.22,.31c-.35,.2-.63,.5-.83,.88-.2,.38-.3,.83-.3,1.34s.1,.96,.3,1.35c.2,.39,.47,.69,.83,.89,.35,.21,.76,.31,1.22,.31s.87-.1,1.22-.31Z"/></g><g><g><path class="al" d="M506.58,135.01c-3.16,0-6.31-.81-9.13-2.44l-42.55-24.57c-5.63-3.25-9.13-9.31-9.13-15.81V43.06c0-6.5,3.5-12.56,9.13-15.81L497.46,2.69c5.63-3.25,12.63-3.25,18.26,0l42.55,24.57c5.63,3.25,9.13,9.31,9.13,15.81v49.13c0,6.5-3.5,12.56-9.13,15.81l-42.55,24.57c-2.81,1.63-5.97,2.44-9.13,2.44Z"/><path class="t" d="M506.58,135.26c-3.25,0-6.45-.85-9.25-2.47l-42.55-24.57c-5.71-3.29-9.25-9.44-9.25-16.03V43.06c0-6.59,3.55-12.73,9.25-16.03L497.33,2.47c5.71-3.29,12.8-3.3,18.5,0l42.55,24.57c5.71,3.3,9.25,9.44,9.25,16.03v49.13c0,6.59-3.55,12.73-9.25,16.03l-42.55,24.57c-2.8,1.62-6,2.47-9.25,2.47Zm0-134.76c-3.11,0-6.23,.8-9,2.4l-42.55,24.57c-5.55,3.21-9,9.18-9,15.59v49.13c0,6.41,3.45,12.39,9,15.59l42.55,24.57c2.73,1.57,5.84,2.4,9,2.4s6.28-.83,9-2.4l42.55-24.57c5.55-3.21,9-9.18,9-15.59V43.06c0-6.41-3.45-12.39-9-15.59l-42.55-24.57c-2.78-1.6-5.89-2.4-9-2.4Z"/></g><g><path d="M478.92,61.27h3.15v1.52h-5.07v-9.56h1.92v8.04Z"/><path d="M483.42,53.98c-.22-.21-.34-.48-.34-.8s.11-.59,.34-.8c.22-.21,.5-.32,.84-.32s.62,.11,.84,.32c.22,.21,.34,.48,.34,.8s-.11,.59-.34,.8c-.22,.21-.5,.32-.84,.32s-.62-.11-.84-.32Zm1.79,1.23v7.59h-1.92v-7.59h1.92Z"/><path d="M487.08,56.94c.32-.59,.76-1.05,1.33-1.37s1.21-.49,1.95-.49c.94,0,1.72,.24,2.34,.71,.62,.47,1.03,1.13,1.24,1.98h-2.07c-.11-.33-.29-.59-.55-.77-.26-.19-.58-.28-.97-.28-.55,0-.98,.2-1.3,.6-.32,.4-.48,.96-.48,1.69s.16,1.28,.48,1.68c.32,.4,.75,.6,1.3,.6,.78,0,1.28-.35,1.52-1.04h2.07c-.21,.82-.63,1.48-1.25,1.96-.62,.48-1.4,.73-2.33,.73-.73,0-1.38-.16-1.95-.49s-1.01-.78-1.33-1.37c-.32-.59-.48-1.28-.48-2.06s.16-1.47,.48-2.06Z"/><path d="M502.35,59.57h-5.55c.05,.55,.24,.98,.58,1.29s.75,.47,1.25,.47c.71,0,1.22-.31,1.52-.92h2.07c-.22,.73-.64,1.33-1.26,1.8-.62,.47-1.38,.71-2.29,.71-.73,0-1.39-.16-1.97-.49s-1.03-.78-1.36-1.38-.49-1.28-.49-2.05,.16-1.48,.48-2.07,.77-1.05,1.34-1.37c.58-.32,1.24-.48,1.99-.48s1.37,.16,1.94,.47,1.01,.75,1.33,1.32c.31,.57,.47,1.23,.47,1.97,0,.27-.02,.52-.05,.74Zm-1.93-1.29c0-.49-.19-.89-.53-1.19-.35-.3-.77-.45-1.27-.45-.47,0-.87,.14-1.2,.43s-.52,.69-.6,1.2h3.6Z"/><path d="M510.2,55.95c.56,.57,.84,1.37,.84,2.39v4.45h-1.92v-4.19c0-.6-.15-1.07-.45-1.39-.3-.32-.71-.49-1.23-.49s-.95,.16-1.25,.49c-.31,.32-.46,.79-.46,1.39v4.19h-1.92v-7.59h1.92v.95c.26-.33,.58-.59,.98-.77,.4-.19,.83-.28,1.31-.28,.9,0,1.63,.29,2.19,.86Z"/><path d="M514.09,62.58c-.49-.22-.88-.53-1.17-.91-.29-.38-.45-.81-.47-1.27h1.93c.04,.29,.18,.53,.43,.73,.25,.19,.56,.29,.94,.29s.65-.07,.86-.22c.21-.15,.31-.33,.31-.56,0-.25-.13-.43-.38-.55-.25-.12-.65-.26-1.2-.4-.57-.14-1.03-.28-1.39-.42-.36-.15-.67-.37-.93-.67-.26-.3-.39-.71-.39-1.22,0-.42,.12-.8,.36-1.15,.24-.35,.59-.62,1.04-.82,.45-.2,.98-.3,1.6-.3,.9,0,1.63,.23,2.16,.68,.54,.45,.84,1.06,.89,1.83h-1.84c-.03-.3-.15-.54-.38-.72-.22-.18-.52-.27-.9-.27-.35,0-.61,.06-.8,.19-.19,.13-.28,.31-.28,.53,0,.26,.13,.45,.38,.58,.26,.13,.65,.27,1.19,.4,.55,.14,1,.28,1.36,.42,.36,.15,.66,.37,.92,.68s.4,.71,.4,1.21c0,.44-.12,.83-.36,1.18s-.59,.62-1.04,.81c-.45,.2-.98,.29-1.58,.29s-1.18-.11-1.67-.34Z"/><path d="M527.32,59.57h-5.55c.05,.55,.24,.98,.58,1.29s.75,.47,1.25,.47c.71,0,1.22-.31,1.52-.92h2.07c-.22,.73-.64,1.33-1.26,1.8-.62,.47-1.38,.71-2.29,.71-.73,0-1.39-.16-1.97-.49s-1.03-.78-1.36-1.38-.49-1.28-.49-2.05,.16-1.48,.48-2.07,.77-1.05,1.34-1.37c.58-.32,1.24-.48,1.99-.48s1.37,.16,1.94,.47,1.01,.75,1.33,1.32c.31,.57,.47,1.23,.47,1.97,0,.27-.02,.52-.05,.74Zm-1.93-1.29c0-.49-.19-.89-.53-1.19-.35-.3-.77-.45-1.27-.45-.47,0-.87,.14-1.2,.43s-.52,.69-.6,1.2h3.6Z"/><path d="M528.74,56.93c.31-.59,.72-1.05,1.25-1.37,.53-.32,1.12-.48,1.77-.48,.49,0,.96,.11,1.41,.32,.45,.21,.8,.5,1.07,.86v-3.6h1.95v10.14h-1.95v-1.12c-.24,.37-.57,.68-1,.9-.43,.23-.93,.34-1.49,.34-.64,0-1.22-.16-1.75-.49-.53-.33-.95-.79-1.25-1.39-.31-.6-.46-1.29-.46-2.06s.15-1.45,.46-2.04Zm5.24,.87c-.18-.33-.43-.59-.74-.77-.31-.18-.64-.27-1-.27s-.69,.09-.99,.26c-.3,.17-.55,.43-.73,.76-.19,.33-.28,.73-.28,1.19s.09,.86,.28,1.2c.19,.34,.43,.61,.74,.79s.63,.27,.98,.27,.69-.09,1-.27c.31-.18,.56-.43,.74-.77,.18-.33,.27-.73,.27-1.2s-.09-.87-.27-1.2Z"/><path d="M471.43,71.91c.42-.74,1-1.32,1.74-1.74,.73-.42,1.56-.62,2.47-.62,1.07,0,2,.27,2.81,.82,.8,.55,1.37,1.31,1.68,2.27h-2.21c-.22-.46-.53-.8-.92-1.03-.4-.23-.86-.34-1.38-.34-.56,0-1.05,.13-1.49,.39-.43,.26-.77,.63-1.01,1.1-.24,.47-.36,1.03-.36,1.67s.12,1.19,.36,1.66,.58,.85,1.01,1.11c.43,.26,.93,.39,1.49,.39,.52,0,.98-.12,1.38-.35,.4-.23,.71-.58,.92-1.03h2.21c-.32,.98-.88,1.74-1.68,2.28-.8,.54-1.74,.81-2.82,.81-.91,0-1.74-.21-2.47-.62-.74-.42-1.32-.99-1.74-1.73-.42-.74-.64-1.58-.64-2.52s.21-1.78,.64-2.53Z"/><path d="M488.95,71.64v7.59h-1.93v-.96c-.25,.33-.57,.59-.97,.77s-.83,.28-1.29,.28c-.59,0-1.12-.12-1.58-.38s-.81-.62-1.08-1.11c-.26-.49-.39-1.07-.39-1.75v-4.45h1.92v4.18c0,.6,.15,1.07,.45,1.39,.3,.32,.71,.49,1.23,.49s.95-.16,1.25-.49c.3-.32,.45-.79,.45-1.39v-4.18h1.93Z"/><path d="M492.07,79.02c-.49-.22-.88-.53-1.17-.91-.29-.38-.45-.81-.47-1.27h1.93c.04,.29,.18,.53,.43,.73,.25,.19,.56,.29,.94,.29s.65-.07,.86-.22c.21-.15,.31-.33,.31-.56,0-.25-.13-.43-.38-.55-.25-.12-.65-.26-1.2-.4-.57-.14-1.03-.28-1.39-.42-.36-.15-.67-.37-.93-.67-.26-.3-.39-.71-.39-1.22,0-.42,.12-.8,.36-1.15,.24-.35,.59-.62,1.04-.82,.45-.2,.98-.3,1.6-.3,.9,0,1.63,.23,2.16,.68,.54,.45,.84,1.06,.89,1.83h-1.84c-.03-.3-.15-.54-.38-.72-.22-.18-.52-.27-.9-.27-.35,0-.61,.06-.8,.19-.19,.13-.28,.31-.28,.53,0,.26,.13,.45,.38,.58,.26,.13,.65,.27,1.19,.4,.55,.14,1,.28,1.36,.42,.36,.15,.66,.37,.92,.68s.4,.71,.4,1.21c0,.44-.12,.83-.36,1.18s-.59,.62-1.04,.81c-.45,.2-.98,.29-1.58,.29s-1.18-.11-1.67-.34Z"/><path d="M500.54,73.22v3.67c0,.26,.06,.44,.19,.55,.12,.11,.33,.17,.62,.17h.89v1.62h-1.21c-1.62,0-2.43-.79-2.43-2.36v-3.66h-.9v-1.58h.9v-1.88h1.93v1.88h1.7v1.58h-1.7Z"/><path d="M505.02,78.87c-.58-.32-1.04-.78-1.38-1.38s-.5-1.28-.5-2.05,.17-1.46,.51-2.06c.34-.59,.81-1.05,1.4-1.38s1.26-.49,1.99-.49,1.39,.16,1.99,.49,1.06,.78,1.4,1.38c.34,.59,.51,1.28,.51,2.06s-.18,1.46-.53,2.05-.83,1.05-1.42,1.38c-.6,.32-1.27,.49-2.01,.49s-1.39-.16-1.97-.49Zm2.95-1.44c.31-.17,.55-.42,.73-.76s.27-.75,.27-1.23c0-.72-.19-1.28-.57-1.66-.38-.39-.84-.58-1.39-.58s-1.01,.19-1.38,.58c-.37,.39-.55,.94-.55,1.66s.18,1.28,.54,1.66c.36,.39,.82,.58,1.36,.58,.35,0,.67-.08,.98-.25Z"/><path d="M512.33,73.37c.31-.59,.72-1.05,1.25-1.37,.53-.32,1.12-.48,1.77-.48,.49,0,.96,.11,1.41,.32,.45,.21,.8,.5,1.07,.86v-3.6h1.95v10.14h-1.95v-1.12c-.24,.37-.57,.68-1,.9-.43,.23-.93,.34-1.49,.34-.64,0-1.22-.16-1.75-.49-.53-.33-.95-.79-1.25-1.39-.31-.6-.46-1.29-.46-2.06s.15-1.45,.46-2.04Zm5.24,.87c-.18-.33-.43-.59-.74-.77-.31-.18-.64-.27-1-.27s-.69,.09-.99,.26c-.3,.17-.55,.43-.73,.76-.19,.33-.28,.73-.28,1.19s.09,.86,.28,1.2c.19,.34,.43,.61,.74,.79s.63,.27,.98,.27,.69-.09,1-.27c.31-.18,.56-.43,.74-.77,.18-.33,.27-.73,.27-1.2s-.09-.87-.27-1.2Z"/><path d="M521.78,70.42c-.22-.21-.34-.48-.34-.8s.11-.59,.34-.8c.22-.21,.5-.32,.84-.32s.62,.11,.84,.32c.22,.21,.34,.48,.34,.8s-.11,.59-.34,.8c-.22,.21-.5,.32-.84,.32s-.62-.11-.84-.32Zm1.79,1.23v7.59h-1.92v-7.59h1.92Z"/><path d="M525.42,73.37c.31-.59,.72-1.05,1.25-1.37,.53-.32,1.11-.48,1.76-.48,.57,0,1.06,.11,1.49,.34s.76,.52,1.02,.86v-1.08h1.93v7.59h-1.93v-1.11c-.25,.36-.59,.65-1.02,.88-.43,.23-.93,.35-1.5,.35-.64,0-1.22-.16-1.75-.49-.52-.33-.94-.79-1.25-1.39-.31-.6-.46-1.29-.46-2.06s.15-1.45,.46-2.04Zm5.24,.87c-.18-.33-.43-.59-.74-.77-.31-.18-.64-.27-1-.27s-.69,.09-.99,.26c-.3,.17-.55,.43-.73,.76-.19,.33-.28,.73-.28,1.19s.09,.86,.28,1.2c.19,.34,.43,.61,.74,.79s.63,.27,.98,.27,.69-.09,1-.27c.31-.18,.56-.43,.74-.77,.18-.33,.27-.73,.27-1.2s-.09-.87-.27-1.2Z"/><path d="M541.15,72.39c.56,.57,.84,1.37,.84,2.39v4.45h-1.92v-4.19c0-.6-.15-1.07-.45-1.39-.3-.32-.71-.49-1.23-.49s-.95,.16-1.25,.49c-.31,.32-.46,.79-.46,1.39v4.19h-1.92v-7.59h1.92v.95c.26-.33,.58-.59,.98-.77,.4-.19,.83-.28,1.31-.28,.9,0,1.63,.29,2.19,.86Z"/></g></g><g><circle class="w" cx="467.88" cy="333.38" r="99.51"/><g><path class="al" d="M394.5,325.91h4.46v2.15h-7.18v-13.54h2.72v11.39Z"/><path class="al" d="M400.87,315.57c-.32-.3-.48-.68-.48-1.14s.16-.83,.48-1.13c.32-.3,.71-.46,1.19-.46s.88,.15,1.19,.46c.32,.3,.48,.68,.48,1.13s-.16,.83-.48,1.14c-.32,.3-.71,.46-1.19,.46s-.88-.15-1.19-.46Zm2.53,1.74v10.75h-2.72v-10.75h2.72Z"/><path class="al" d="M406.06,319.77c.45-.83,1.08-1.48,1.88-1.94,.8-.46,1.72-.69,2.76-.69,1.33,0,2.43,.33,3.31,1,.87,.67,1.46,1.6,1.76,2.8h-2.93c-.16-.47-.42-.83-.79-1.1-.37-.26-.82-.4-1.37-.4-.78,0-1.39,.28-1.84,.84-.45,.56-.68,1.36-.68,2.4s.23,1.81,.68,2.38c.45,.56,1.07,.84,1.84,.84,1.1,0,1.82-.49,2.15-1.47h2.93c-.3,1.16-.89,2.09-1.77,2.77-.88,.69-1.98,1.03-3.3,1.03-1.04,0-1.95-.23-2.76-.69s-1.43-1.11-1.88-1.94c-.45-.83-.68-1.81-.68-2.92s.23-2.09,.68-2.92Z"/><path class="al" d="M427.68,323.5h-7.86c.06,.78,.34,1.38,.81,1.82,.48,.44,1.07,.66,1.77,.66,1.01,0,1.73-.43,2.15-1.3h2.93c-.31,1.04-.91,1.89-1.79,2.55-.88,.67-1.96,1-3.24,1-1.04,0-1.96-.23-2.78-.69-.82-.46-1.46-1.11-1.92-1.95-.46-.84-.69-1.81-.69-2.91s.23-2.09,.68-2.93c.45-.84,1.09-1.49,1.9-1.94,.81-.45,1.75-.68,2.81-.68s1.94,.22,2.75,.66,1.44,1.06,1.88,1.87c.45,.81,.67,1.74,.67,2.79,0,.39-.03,.74-.08,1.05Zm-2.74-1.82c-.01-.7-.27-1.26-.76-1.68-.49-.42-1.09-.63-1.8-.63-.67,0-1.24,.2-1.7,.61-.46,.41-.74,.97-.84,1.7h5.1Z"/><path class="al" d="M438.8,318.37c.79,.81,1.18,1.94,1.18,3.39v6.31h-2.72v-5.94c0-.85-.21-1.51-.64-1.97-.43-.46-1.01-.69-1.75-.69s-1.34,.23-1.78,.69c-.43,.46-.65,1.12-.65,1.97v5.94h-2.72v-10.75h2.72v1.34c.36-.47,.82-.83,1.39-1.1,.56-.27,1.18-.4,1.85-.4,1.28,0,2.32,.4,3.1,1.21Z"/><path class="al" d="M444.31,327.76c-.7-.32-1.25-.75-1.66-1.29-.41-.54-.63-1.14-.67-1.8h2.74c.05,.41,.26,.76,.61,1.03,.36,.27,.8,.41,1.33,.41s.92-.1,1.21-.31c.29-.21,.44-.47,.44-.8,0-.35-.18-.61-.53-.79-.36-.17-.92-.37-1.7-.57-.8-.19-1.46-.39-1.97-.6-.51-.21-.95-.52-1.32-.95-.37-.43-.55-1-.55-1.73,0-.6,.17-1.14,.51-1.63,.34-.49,.83-.88,1.47-1.16,.64-.28,1.39-.43,2.26-.43,1.28,0,2.3,.32,3.07,.96,.76,.64,1.18,1.5,1.26,2.59h-2.6c-.04-.43-.22-.77-.53-1.02-.32-.25-.74-.38-1.27-.38-.49,0-.87,.09-1.14,.27-.27,.18-.4,.43-.4,.76,0,.36,.18,.64,.54,.82,.36,.19,.92,.38,1.69,.57,.78,.19,1.42,.39,1.92,.6s.94,.53,1.31,.96c.37,.43,.56,1.01,.57,1.72,0,.62-.17,1.18-.51,1.67s-.83,.88-1.47,1.15c-.64,.28-1.39,.42-2.24,.42s-1.67-.16-2.37-.48Z"/><path class="al" d="M463.05,323.5h-7.86c.06,.78,.34,1.38,.81,1.82,.48,.44,1.07,.66,1.77,.66,1.01,0,1.73-.43,2.15-1.3h2.93c-.31,1.04-.91,1.89-1.79,2.55-.88,.67-1.96,1-3.24,1-1.04,0-1.96-.23-2.78-.69-.82-.46-1.46-1.11-1.92-1.95-.46-.84-.69-1.81-.69-2.91s.23-2.09,.68-2.93c.45-.84,1.09-1.49,1.9-1.94,.81-.45,1.75-.68,2.81-.68s1.94,.22,2.75,.66,1.44,1.06,1.88,1.87c.45,.81,.67,1.74,.67,2.79,0,.39-.03,.74-.08,1.05Zm-2.74-1.82c-.01-.7-.27-1.26-.76-1.68-.49-.42-1.09-.63-1.8-.63-.67,0-1.24,.2-1.7,.61-.46,.41-.74,.97-.84,1.7h5.1Z"/><path class="al" d="M465.06,319.76c.43-.84,1.02-1.49,1.78-1.94,.75-.45,1.58-.68,2.5-.68,.7,0,1.36,.15,2,.46,.63,.3,1.14,.71,1.51,1.21v-5.1h2.76v14.36h-2.76v-1.59c-.34,.53-.81,.96-1.42,1.28-.61,.32-1.31,.48-2.12,.48-.91,0-1.73-.23-2.48-.7-.75-.47-1.34-1.12-1.78-1.97-.43-.85-.65-1.82-.65-2.92s.22-2.05,.65-2.89Zm7.42,1.23c-.26-.47-.61-.83-1.05-1.09-.44-.25-.91-.38-1.42-.38s-.97,.12-1.4,.37c-.43,.25-.77,.6-1.04,1.08-.27,.47-.4,1.03-.4,1.68s.13,1.21,.4,1.7c.27,.49,.61,.86,1.05,1.12s.9,.39,1.39,.39,.98-.13,1.42-.38c.44-.25,.79-.61,1.05-1.09,.26-.47,.39-1.04,.39-1.7s-.13-1.23-.39-1.7Z"/><path class="al" d="M492.45,322.26c.49,.62,.74,1.33,.74,2.13,0,.72-.18,1.36-.53,1.91-.36,.55-.87,.98-1.54,1.29-.67,.31-1.47,.47-2.39,.47h-5.84v-13.54h5.59c.92,0,1.71,.15,2.38,.45,.67,.3,1.17,.71,1.51,1.24,.34,.53,.51,1.13,.51,1.8,0,.79-.21,1.45-.63,1.98-.42,.53-.98,.91-1.68,1.13,.76,.14,1.39,.52,1.88,1.14Zm-6.85-2.15h2.48c.65,0,1.14-.15,1.49-.44,.35-.29,.52-.71,.52-1.25s-.17-.96-.52-1.26c-.35-.3-.85-.45-1.49-.45h-2.48v3.4Zm4.28,5.28c.37-.31,.55-.75,.55-1.32s-.19-1.04-.58-1.37c-.39-.33-.91-.49-1.57-.49h-2.68v3.65h2.74c.66,0,1.17-.16,1.54-.47Z"/><path class="al" d="M499.44,317.64c.56-.32,1.21-.49,1.93-.49v2.85h-.72c-.85,0-1.5,.2-1.93,.6-.43,.4-.65,1.1-.65,2.1v5.36h-2.72v-10.75h2.72v1.67c.35-.57,.81-1.02,1.37-1.34Z"/><path class="al" d="M505.18,327.55c-.83-.46-1.48-1.11-1.95-1.95-.47-.84-.71-1.81-.71-2.91s.24-2.07,.73-2.91c.48-.84,1.15-1.49,1.99-1.95,.84-.46,1.78-.69,2.81-.69s1.97,.23,2.81,.69c.84,.46,1.5,1.11,1.99,1.95,.48,.84,.73,1.81,.73,2.91s-.25,2.07-.75,2.91-1.17,1.49-2.02,1.95c-.85,.46-1.79,.69-2.84,.69s-1.97-.23-2.79-.69Zm4.18-2.04c.43-.24,.78-.6,1.04-1.08s.39-1.06,.39-1.75c0-1.02-.27-1.81-.81-2.36-.54-.55-1.19-.82-1.97-.82s-1.43,.27-1.95,.82c-.52,.55-.79,1.34-.79,2.36s.25,1.81,.77,2.36c.51,.55,1.15,.82,1.93,.82,.49,0,.95-.12,1.39-.36Z"/><path class="al" d="M521.94,328.06l-3.65-4.58v4.58h-2.72v-14.36h2.72v8.17l3.61-4.56h3.53l-4.73,5.39,4.77,5.36h-3.53Z"/><path class="al" d="M536.83,323.5h-7.86c.06,.78,.34,1.38,.81,1.82,.48,.44,1.07,.66,1.77,.66,1.01,0,1.73-.43,2.15-1.3h2.93c-.31,1.04-.91,1.89-1.79,2.55-.88,.67-1.96,1-3.24,1-1.04,0-1.96-.23-2.78-.69-.82-.46-1.46-1.11-1.92-1.95-.46-.84-.69-1.81-.69-2.91s.23-2.09,.68-2.93c.45-.84,1.09-1.49,1.9-1.94,.81-.45,1.75-.68,2.81-.68s1.94,.22,2.75,.66,1.44,1.06,1.88,1.87c.45,.81,.67,1.74,.67,2.79,0,.39-.03,.74-.08,1.05Zm-2.74-1.82c-.01-.7-.27-1.26-.76-1.68-.49-.42-1.09-.63-1.8-.63-.67,0-1.24,.2-1.7,.61-.46,.41-.74,.97-.84,1.7h5.1Z"/><path class="al" d="M542.97,317.64c.56-.32,1.21-.49,1.93-.49v2.85h-.72c-.85,0-1.5,.2-1.93,.6-.43,.4-.65,1.1-.65,2.1v5.36h-2.72v-10.75h2.72v1.67c.35-.57,.81-1.02,1.37-1.34Z"/><path class="al" d="M415.2,343.04c.43-.84,1.02-1.49,1.77-1.94,.74-.45,1.58-.68,2.49-.68,.8,0,1.5,.16,2.11,.49s1.08,.73,1.45,1.22v-1.53h2.74v10.75h-2.74v-1.57c-.35,.5-.83,.92-1.45,1.25-.61,.33-1.32,.49-2.12,.49-.91,0-1.73-.23-2.47-.7s-1.33-1.12-1.77-1.97c-.43-.85-.65-1.82-.65-2.92s.22-2.05,.65-2.89Zm7.42,1.23c-.26-.47-.61-.83-1.05-1.09-.44-.25-.91-.38-1.42-.38s-.97,.12-1.4,.37c-.43,.25-.77,.6-1.04,1.08-.27,.47-.4,1.03-.4,1.68s.13,1.21,.4,1.7c.27,.49,.61,.86,1.05,1.12s.9,.39,1.39,.39,.98-.13,1.42-.38c.44-.25,.79-.61,1.05-1.09,.26-.47,.39-1.04,.39-1.7s-.13-1.23-.39-1.7Z"/><path class="al" d="M437.47,341.65c.79,.81,1.18,1.94,1.18,3.39v6.31h-2.72v-5.94c0-.85-.21-1.51-.64-1.97-.43-.46-1.01-.69-1.75-.69s-1.34,.23-1.78,.69c-.43,.46-.65,1.12-.65,1.97v5.94h-2.72v-10.75h2.72v1.34c.36-.47,.82-.83,1.39-1.1,.56-.27,1.18-.4,1.85-.4,1.28,0,2.32,.4,3.1,1.21Z"/><path class="al" d="M441.18,343.04c.43-.84,1.02-1.49,1.78-1.94,.75-.45,1.58-.68,2.5-.68,.7,0,1.36,.15,2,.46,.63,.3,1.14,.71,1.51,1.21v-5.1h2.76v14.36h-2.76v-1.59c-.34,.53-.81,.96-1.42,1.28-.61,.32-1.31,.48-2.12,.48-.91,0-1.73-.23-2.48-.7-.75-.47-1.34-1.12-1.78-1.97-.43-.85-.65-1.82-.65-2.92s.22-2.05,.65-2.89Zm7.42,1.23c-.26-.47-.61-.83-1.05-1.09-.44-.25-.91-.38-1.42-.38s-.97,.12-1.4,.37c-.43,.25-.77,.6-1.04,1.08-.27,.47-.4,1.03-.4,1.68s.13,1.21,.4,1.7c.27,.49,.61,.86,1.05,1.12s.9,.39,1.39,.39,.98-.13,1.42-.38c.44-.25,.79-.61,1.05-1.09,.26-.47,.39-1.04,.39-1.7s-.13-1.23-.39-1.7Z"/><path class="al" d="M467.5,338.64c1.08,.56,1.91,1.35,2.5,2.38,.59,1.03,.88,2.22,.88,3.58s-.29,2.55-.88,3.56c-.59,1.02-1.42,1.8-2.5,2.36-1.08,.56-2.33,.83-3.75,.83h-4.73v-13.54h4.73c1.42,0,2.67,.28,3.75,.83Zm-.55,9.24c.78-.78,1.16-1.87,1.16-3.28s-.39-2.51-1.16-3.31c-.78-.8-1.88-1.19-3.3-1.19h-1.92v8.95h1.92c1.42,0,2.52-.39,3.3-1.16Z"/><path class="al" d="M482.84,346.79h-7.86c.06,.78,.34,1.38,.81,1.82,.48,.44,1.07,.66,1.77,.66,1.01,0,1.73-.43,2.15-1.3h2.93c-.31,1.04-.91,1.89-1.79,2.55-.88,.67-1.96,1-3.24,1-1.04,0-1.96-.23-2.78-.69-.82-.46-1.46-1.11-1.92-1.95s-.69-1.81-.69-2.91,.23-2.09,.68-2.93c.45-.84,1.09-1.49,1.9-1.94,.81-.45,1.75-.68,2.81-.68s1.94,.22,2.75,.66,1.44,1.06,1.88,1.87c.45,.81,.67,1.74,.67,2.79,0,.39-.03,.74-.08,1.05Zm-2.74-1.82c-.01-.7-.27-1.26-.76-1.68-.49-.42-1.09-.63-1.8-.63-.67,0-1.24,.2-1.7,.61-.46,.41-.74,.97-.84,1.7h5.1Z"/><path class="al" d="M484.84,343.04c.43-.84,1.02-1.49,1.77-1.94,.74-.45,1.58-.68,2.49-.68,.8,0,1.5,.16,2.11,.49s1.08,.73,1.45,1.22v-1.53h2.74v10.75h-2.74v-1.57c-.35,.5-.83,.92-1.45,1.25-.61,.33-1.32,.49-2.12,.49-.91,0-1.73-.23-2.47-.7s-1.33-1.12-1.77-1.97c-.43-.85-.65-1.82-.65-2.92s.22-2.05,.65-2.89Zm7.42,1.23c-.26-.47-.61-.83-1.05-1.09-.44-.25-.91-.38-1.42-.38s-.97,.12-1.4,.37c-.43,.25-.77,.6-1.04,1.08-.27,.47-.4,1.03-.4,1.68s.13,1.21,.4,1.7c.27,.49,.61,.86,1.05,1.12s.9,.39,1.39,.39,.98-.13,1.42-.38c.44-.25,.79-.61,1.05-1.09,.26-.47,.39-1.04,.39-1.7s-.13-1.23-.39-1.7Z"/><path class="al" d="M500.77,336.99v14.36h-2.72v-14.36h2.72Z"/><path class="al" d="M513.36,346.79h-7.86c.06,.78,.34,1.38,.81,1.82,.48,.44,1.07,.66,1.77,.66,1.01,0,1.73-.43,2.15-1.3h2.93c-.31,1.04-.91,1.89-1.79,2.55-.88,.67-1.96,1-3.24,1-1.04,0-1.96-.23-2.78-.69-.82-.46-1.46-1.11-1.92-1.95-.46-.84-.69-1.81-.69-2.91s.23-2.09,.68-2.93c.45-.84,1.09-1.49,1.9-1.94,.81-.45,1.75-.68,2.81-.68s1.94,.22,2.75,.66,1.44,1.06,1.88,1.87c.45,.81,.67,1.74,.67,2.79,0,.39-.03,.74-.08,1.05Zm-2.74-1.82c-.01-.7-.27-1.26-.76-1.68-.49-.42-1.09-.63-1.8-.63-.67,0-1.24,.2-1.7,.61-.46,.41-.74,.97-.84,1.7h5.1Z"/><path class="al" d="M519.5,340.93c.56-.32,1.21-.49,1.93-.49v2.85h-.72c-.85,0-1.5,.2-1.93,.6-.43,.4-.65,1.1-.65,2.1v5.36h-2.72v-10.75h2.72v1.67c.35-.57,.81-1.02,1.37-1.34Z"/></g></g><g><g><path class="al" d="M285.73,303.89c-3.16,0-6.31-.81-9.13-2.44l-42.55-24.57c-5.63-3.25-9.13-9.31-9.13-15.81v-49.13c0-6.5,3.5-12.56,9.13-15.81l42.55-24.57c5.63-3.25,12.63-3.25,18.26,0l42.55,24.57c5.63,3.25,9.13,9.31,9.13,15.81v49.13c0,6.5-3.5,12.56-9.13,15.81l-42.55,24.57c-2.81,1.63-5.97,2.44-9.13,2.44Z"/><path class="v" d="M285.73,304.14c-3.25,0-6.45-.85-9.25-2.47l-42.55-24.57c-5.71-3.29-9.25-9.44-9.25-16.03v-49.13c0-6.59,3.55-12.73,9.25-16.03l42.55-24.57c5.71-3.3,12.8-3.29,18.51,0l42.55,24.57c5.71,3.29,9.25,9.44,9.25,16.03v49.13c0,6.59-3.55,12.73-9.25,16.03l-42.55,24.57c-2.8,1.62-6,2.47-9.25,2.47Zm0-134.76c-3.11,0-6.23,.8-9,2.4l-42.55,24.57c-5.55,3.21-9,9.18-9,15.59v49.13c0,6.41,3.45,12.39,9,15.59l42.55,24.57c2.72,1.57,5.84,2.4,9,2.4s6.28-.83,9-2.4l42.55-24.57c5.55-3.21,9-9.18,9-15.59v-49.13c0-6.41-3.45-12.39-9-15.59l-42.55-24.57c-2.78-1.6-5.89-2.4-9-2.4Z"/></g><g><path d="M255.58,212.2h3.15v1.52h-5.07v-9.56h1.92v8.04Z"/><path d="M266.56,208.56c-.24,.45-.62,.81-1.14,1.08s-1.17,.41-1.95,.41h-1.6v3.67h-1.92v-9.56h3.52c.74,0,1.37,.13,1.89,.38,.52,.26,.91,.61,1.17,1.06,.26,.45,.39,.95,.39,1.52,0,.51-.12,.99-.36,1.44Zm-1.99-.42c.26-.24,.38-.58,.38-1.02,0-.93-.52-1.4-1.56-1.4h-1.52v2.78h1.52c.53,0,.92-.12,1.18-.36Z"/><path d="M273.04,213.48c-.53-.23-.96-.56-1.27-.99-.31-.43-.47-.94-.48-1.52h2.06c.03,.39,.17,.7,.42,.93,.25,.23,.6,.34,1.03,.34s.8-.11,1.05-.32c.26-.21,.38-.5,.38-.84,0-.28-.09-.52-.26-.7-.17-.18-.39-.33-.65-.43-.26-.1-.62-.22-1.08-.35-.62-.18-1.13-.36-1.51-.54-.39-.18-.72-.45-1-.81-.28-.36-.42-.84-.42-1.45,0-.57,.14-1.06,.42-1.48,.28-.42,.68-.74,1.19-.97,.51-.22,1.1-.34,1.75-.34,.99,0,1.79,.24,2.4,.72,.62,.48,.96,1.15,1.02,2.01h-2.11c-.02-.33-.16-.6-.42-.81-.26-.21-.61-.32-1.03-.32-.37,0-.67,.1-.9,.29-.22,.19-.34,.47-.34,.84,0,.26,.08,.47,.25,.64,.17,.17,.38,.31,.63,.41,.25,.1,.6,.23,1.06,.36,.62,.18,1.13,.37,1.52,.55,.39,.18,.73,.46,1.01,.82,.28,.37,.42,.85,.42,1.44,0,.51-.13,.99-.4,1.42s-.65,.79-1.16,1.05c-.51,.26-1.12,.39-1.82,.39-.67,0-1.27-.11-1.8-.34Z"/><path d="M285.7,206.4c.45,.25,.8,.62,1.05,1.11,.25,.49,.38,1.08,.38,1.76v4.45h-1.92v-4.19c0-.6-.15-1.07-.45-1.39-.3-.32-.71-.49-1.23-.49s-.95,.16-1.25,.49c-.31,.32-.46,.79-.46,1.39v4.19h-1.92v-10.14h1.92v3.49c.25-.33,.58-.59,.99-.77,.41-.19,.87-.28,1.37-.28,.58,0,1.09,.12,1.53,.38Z"/><path d="M288.91,207.86c.31-.59,.72-1.05,1.25-1.37,.53-.32,1.11-.48,1.76-.48,.57,0,1.06,.11,1.49,.34,.42,.23,.76,.52,1.02,.86v-1.08h1.93v7.59h-1.93v-1.11c-.25,.36-.59,.65-1.02,.88-.43,.23-.93,.35-1.5,.35-.64,0-1.22-.16-1.75-.49-.52-.33-.94-.79-1.25-1.39-.31-.6-.46-1.29-.46-2.06s.15-1.45,.46-2.04Zm5.24,.87c-.18-.33-.43-.59-.74-.77-.31-.18-.64-.27-1-.27s-.69,.09-.99,.26-.55,.43-.73,.76c-.19,.33-.28,.73-.28,1.19s.09,.86,.28,1.2c.19,.34,.43,.6,.74,.79,.31,.18,.63,.27,.98,.27s.69-.09,1-.27c.31-.18,.56-.43,.74-.77,.18-.33,.27-.73,.27-1.2s-.09-.87-.27-1.2Z"/><path d="M301.12,206.37c.4-.23,.85-.34,1.36-.34v2.01h-.51c-.6,0-1.06,.14-1.36,.42-.31,.28-.46,.78-.46,1.48v3.78h-1.92v-7.59h1.92v1.18c.25-.4,.57-.72,.97-.95Z"/><path d="M310.77,210.5h-5.55c.05,.55,.24,.98,.58,1.29,.34,.31,.75,.47,1.25,.47,.71,0,1.22-.31,1.52-.92h2.07c-.22,.73-.64,1.33-1.26,1.8-.62,.47-1.38,.71-2.29,.71-.73,0-1.39-.16-1.97-.49s-1.03-.78-1.36-1.38-.49-1.28-.49-2.06,.16-1.47,.48-2.07,.77-1.05,1.34-1.37c.58-.32,1.24-.48,1.99-.48s1.37,.16,1.94,.47c.57,.31,1.01,.75,1.33,1.32s.47,1.23,.47,1.97c0,.27-.02,.52-.05,.74Zm-1.93-1.29c0-.49-.19-.89-.53-1.19s-.77-.45-1.27-.45c-.47,0-.87,.14-1.2,.43s-.52,.69-.6,1.2h3.6Z"/><path d="M313.45,213.51c-.49-.22-.88-.53-1.17-.91-.29-.38-.45-.81-.47-1.27h1.93c.04,.29,.18,.53,.43,.73,.25,.19,.56,.29,.94,.29s.65-.07,.86-.22c.21-.15,.31-.33,.31-.56,0-.25-.13-.43-.38-.56-.25-.12-.65-.26-1.2-.4-.57-.14-1.03-.28-1.39-.42-.36-.15-.67-.37-.93-.67-.26-.3-.39-.71-.39-1.22,0-.42,.12-.8,.36-1.15,.24-.35,.59-.62,1.04-.82,.45-.2,.98-.3,1.6-.3,.9,0,1.63,.23,2.16,.68,.54,.45,.84,1.06,.89,1.83h-1.84c-.03-.3-.15-.54-.38-.72-.22-.18-.52-.27-.9-.27-.35,0-.61,.06-.8,.19-.19,.13-.28,.31-.28,.53,0,.26,.13,.45,.38,.58,.26,.13,.65,.27,1.19,.4,.55,.14,1,.28,1.36,.42,.36,.15,.66,.37,.92,.68,.26,.31,.4,.71,.4,1.21,0,.44-.12,.83-.36,1.18-.24,.35-.59,.62-1.04,.82s-.98,.29-1.58,.29-1.18-.11-1.67-.34Z"/></g><g><path d="M247.85,255.12l-2.22,7.59h-2.07l-1.38-5.3-1.38,5.3h-2.08l-2.23-7.59h1.95l1.34,5.78,1.45-5.78h2.03l1.42,5.77,1.34-5.77h1.84Z"/><path d="M250.4,262.47c-.53-.23-.96-.56-1.27-.99-.31-.43-.47-.94-.48-1.52h2.06c.03,.39,.17,.7,.42,.93,.25,.23,.6,.34,1.03,.34s.8-.11,1.05-.32c.26-.21,.38-.5,.38-.84,0-.28-.09-.52-.26-.7-.17-.18-.39-.33-.65-.43-.26-.11-.62-.22-1.08-.35-.62-.18-1.13-.36-1.51-.54-.39-.18-.72-.45-1-.81-.28-.36-.42-.84-.42-1.45,0-.57,.14-1.06,.42-1.48,.28-.42,.68-.74,1.19-.97,.51-.22,1.1-.34,1.75-.34,.99,0,1.79,.24,2.4,.72,.62,.48,.96,1.15,1.02,2.01h-2.11c-.02-.33-.16-.6-.42-.82-.26-.21-.61-.32-1.03-.32-.37,0-.67,.1-.9,.29-.22,.19-.34,.47-.34,.84,0,.26,.08,.47,.25,.64,.17,.17,.38,.31,.63,.41,.25,.11,.6,.23,1.06,.36,.62,.18,1.13,.37,1.52,.55,.39,.18,.73,.46,1.01,.82,.28,.37,.42,.84,.42,1.44,0,.51-.13,.99-.4,1.42s-.65,.79-1.16,1.05c-.51,.26-1.12,.39-1.82,.39-.67,0-1.27-.11-1.8-.34Z"/><path d="M263.75,253.15v1.55h-2.55v8.01h-1.92v-8.01h-2.55v-1.55h7.01Z"/><path d="M267.12,262.18c-.75-.42-1.34-1-1.78-1.75-.44-.74-.66-1.59-.66-2.53s.22-1.77,.66-2.51c.44-.74,1.03-1.33,1.78-1.75,.75-.42,1.57-.63,2.47-.63s1.73,.21,2.47,.63c.74,.42,1.33,1,1.77,1.75,.43,.74,.65,1.58,.65,2.51s-.22,1.78-.65,2.53c-.43,.74-1.03,1.33-1.77,1.75-.75,.42-1.57,.63-2.47,.63s-1.72-.21-2.47-.63Zm3.99-1.47c.44-.26,.78-.63,1.03-1.12,.25-.48,.37-1.05,.37-1.68s-.12-1.2-.37-1.68c-.25-.48-.59-.85-1.03-1.1-.44-.26-.95-.38-1.52-.38s-1.08,.13-1.53,.38c-.44,.26-.79,.62-1.03,1.1s-.37,1.04-.37,1.68,.12,1.2,.37,1.68c.25,.48,.59,.86,1.03,1.12,.44,.26,.95,.39,1.53,.39s1.08-.13,1.52-.39Z"/></g><g><path d="M306.34,253.15v1.55h-2.55v8.01h-1.92v-8.01h-2.55v-1.55h7.01Z"/><path d="M312.67,262.71l-2.11-3.73h-.9v3.73h-1.92v-9.56h3.59c.74,0,1.37,.13,1.89,.39,.52,.26,.91,.61,1.17,1.05,.26,.44,.39,.94,.39,1.49,0,.63-.18,1.2-.55,1.71-.37,.51-.91,.86-1.63,1.05l2.29,3.88h-2.22Zm-3.01-5.16h1.6c.52,0,.91-.13,1.16-.38,.26-.25,.38-.6,.38-1.05s-.13-.78-.38-1.02c-.26-.24-.64-.36-1.16-.36h-1.6v2.81Z"/><path d="M324.12,253.15l-3.23,6.23v3.33h-1.92v-3.33l-3.25-6.23h2.16l2.06,4.37,2.04-4.37h2.14Z"/><path d="M330.96,262.71l-2.07-3.22-1.88,3.22h-2.16l3.01-4.82-3.06-4.74h2.21l2.07,3.21,1.86-3.21h2.16l-3,4.81,3.06,4.75h-2.21Z"/></g><rect class="ad" x="224.92" y="229.41" width="121.61" height=".5"/><rect class="ac" x="285.48" y="229.92" width=".5" height="72.91"/></g><g><rect class="af" x="137.09" y="358.16" width="216.83" height=".5"/><polygon class="ae" points="357.35 358.41 353.01 361.45 353.01 355.37 357.35 358.41"/></g><g><rect class="ah" x="140.52" y="379.76" width="216.83" height=".5"/><polygon class="ag" points="137.09 380.01 141.43 376.97 141.43 383.05 137.09 380.01"/></g><g><rect class="ai" x="134" y="67.38" width="74.55" height=".5"/><polygon class="y" points="211.99 67.63 207.65 70.67 207.65 64.59 211.99 67.63"/></g><g><rect class="x" x="355.85" y="55.79" width="74.55" height=".5"/><polygon class="aa" points="433.84 56.04 429.49 59.08 429.49 53 433.84 56.04"/></g><g><rect class="ab" x="359.28" y="78.97" width="74.55" height=".5"/><polygon class="a`" points="355.85 79.22 360.19 76.18 360.19 82.26 355.85 79.22"/></g><path class="am" d="M222.89,211.7H90.53c-16.33,0-29.57-9.75-29.57-26.08v-48.66"/><path class="am" d="M365.99,331.1h-50.68c-16.33,0-29.57-9.75-29.57-26.08"/><path class="am" d="M367.04,320.04h-43.83c-16.33,0-27.82-.76-27.82-16.14"/><polygon points="202.64 181.33 205.68 185.67 199.6 185.67 202.64 181.33"/><polygon points="192.14 182.26 189.1 177.92 195.18 177.92 192.14 182.26"/><polygon points="339.32 320.04 343.66 317 343.66 323.08 339.32 320.04"/><polygon points="339.32 331.1 334.97 334.14 334.97 328.06 339.32 331.1"/></svg>