<?xml version="1.0" encoding="UTF-8"?><svg id="a" xmlns="http://www.w3.org/2000/svg" xmlns:xlink="http://www.w3.org/1999/xlink" viewBox="0 0 414.27 451.94"><defs><style>.af{fill:url(#u);}.ag{fill:url(#t);}.ah{fill:url(#v);}.ai{fill:url(#e);}.aj{fill:url(#d);}.ak{fill:url(#g);}.al{fill:url(#f);}.am{fill:url(#p);}.an{fill:url(#o);}.ao{fill:url(#s);}.ap{fill:url(#q);}.aq{fill:url(#r);}.ar{fill:url(#i);}.as{fill:url(#h);}.at{fill:url(#k);}.au{fill:url(#j);}.av{fill:url(#m);}.aw{fill:url(#l);}.ax{fill:url(#n);}.ay{fill:url(#c);}.b`{fill:url(#b);}.ba{fill:url(#x);}.bb{fill:url(#w);}.bc{fill:url(#y);}.bd{fill:url(#aa);}.be{fill:url(#ab);}.bf{fill:url(#ad);}.bg{fill:url(#ae);}.bh{fill:url(#a`);}.bi{fill:url(#ac);}.bj{fill:#fff;}.bk,.bl{font-family:DarkerGrotesque-Bold, Darker Grotesque;font-size:16.53px;}.bm{fill:none;stroke:#000;stroke-dasharray:0 3.21;stroke-linecap:round;stroke-miterlimit:10;stroke-width:.54px;}.bn{letter-spacing:-.07em;}.bo{letter-spacing:-.02em;}.bl{isolation:isolate;}</style><linearGradient id="b" x1="1409.32" y1="2638.78" x2="1707.79" y2="2494.87" gradientTransform="translate(-2575.38 -1338.96) rotate(90) scale(1 -1)" gradientUnits="userSpaceOnUse"><stop offset="0" stop-color="#fe8f90"/><stop offset=".52" stop-color="#956ec1"/><stop offset=".81" stop-color="#605dda"/><stop offset=".84" stop-color="#5d5ad5"/><stop offset=".87" stop-color="#5353c6"/><stop offset=".91" stop-color="#4347ad"/><stop offset=".95" stop-color="#2d368a"/><stop offset=".99" stop-color="#10215e"/><stop offset="1" stop-color="#06194e"/><stop offset="1" stop-color="#05184d"/><stop offset="1" stop-color="#011546"/><stop offset="1" stop-color="#001444"/></linearGradient><linearGradient id="c" x1="1411.3" y1="2642.88" x2="1709.77" y2="2498.97" xlink:href="#b"/><linearGradient id="d" x1="1413.4" y1="2647.24" x2="1711.87" y2="2503.33" xlink:href="#b"/><linearGradient id="e" x1="1416.7" y1="2654.08" x2="1715.17" y2="2510.17" xlink:href="#b"/><linearGradient id="f" x1="1420.04" y1="2661.02" x2="1718.52" y2="2517.11" xlink:href="#b"/><linearGradient id="g" x1="1421.77" y1="2664.6" x2="1720.24" y2="2520.69" xlink:href="#b"/><linearGradient id="h" x1="1424.76" y1="2670.8" x2="1723.23" y2="2526.89" xlink:href="#b"/><linearGradient id="i" x1="1426.4" y1="2674.2" x2="1724.88" y2="2530.3" xlink:href="#b"/><linearGradient id="j" x1="1427.21" y1="2675.88" x2="1725.68" y2="2531.97" xlink:href="#b"/><linearGradient id="k" x1="1429.6" y1="2680.84" x2="1728.07" y2="2536.93" xlink:href="#b"/><linearGradient id="l" x1="-74.32" y1="653.94" x2="505.67" y2="561.78" gradientTransform="translate(0 974.68) scale(1 -1)" xlink:href="#b"/><linearGradient id="m" x1="523.51" y1="768.79" x2="65.43" y2="768.79" gradientTransform="translate(0 974.68) scale(1 -1)" xlink:href="#b"/><linearGradient id="n" x1="523.51" y1="768.81" x2="65.43" y2="768.81" gradientTransform="translate(0 974.68) scale(1 -1)" xlink:href="#b"/><linearGradient id="o" x1="523.51" y1="768.78" x2="65.43" y2="768.78" gradientTransform="translate(0 974.68) scale(1 -1)" xlink:href="#b"/><linearGradient id="p" x1="523.51" y1="768.78" x2="65.43" y2="768.78" gradientTransform="translate(0 974.68) scale(1 -1)" xlink:href="#b"/><linearGradient id="q" x1="523.51" y1="719.76" x2="65.43" y2="719.76" gradientTransform="translate(0 974.68) scale(1 -1)" xlink:href="#b"/><linearGradient id="r" x1="523.51" y1="719.76" x2="65.43" y2="719.76" gradientTransform="translate(0 974.68) scale(1 -1)" xlink:href="#b"/><linearGradient id="s" x1="523.51" y1="719.77" x2="65.43" y2="719.77" gradientTransform="translate(0 974.68) scale(1 -1)" xlink:href="#b"/><linearGradient id="t" x1="523.51" y1="719.76" x2="65.43" y2="719.76" gradientTransform="translate(0 974.68) scale(1 -1)" xlink:href="#b"/><linearGradient id="u" x1="-1.24" y1="859.08" x2="450.7" y2="859.08" gradientTransform="translate(0 974.68) scale(1 -1)" xlink:href="#b"/><linearGradient id="v" x1="-1.24" y1="908.12" x2="450.7" y2="908.12" gradientTransform="translate(0 974.68) scale(1 -1)" xlink:href="#b"/><linearGradient id="w" x1="4.82" y1="908.23" x2="456.75" y2="908.23" gradientTransform="translate(0 974.68) scale(1 -1)" xlink:href="#b"/><linearGradient id="x" x1="4.82" y1="859.22" x2="456.75" y2="859.22" gradientTransform="translate(0 974.68) scale(1 -1)" xlink:href="#b"/><linearGradient id="y" x1="10.87" y1="859.08" x2="462.81" y2="859.08" gradientTransform="translate(0 974.68) scale(1 -1)" xlink:href="#b"/><linearGradient id="a`" x1="10.87" y1="908.12" x2="462.81" y2="908.12" gradientTransform="translate(0 974.68) scale(1 -1)" xlink:href="#b"/><linearGradient id="aa" x1="16.92" y1="908.21" x2="468.86" y2="908.21" gradientTransform="translate(0 974.68) scale(1 -1)" xlink:href="#b"/><linearGradient id="ab" x1="16.92" y1="859.22" x2="468.86" y2="859.22" gradientTransform="translate(0 974.68) scale(1 -1)" xlink:href="#b"/><linearGradient id="ac" x1="18.85" y1="883.68" x2="484.79" y2="883.68" gradientTransform="translate(0 974.68) scale(1 -1)" xlink:href="#b"/><linearGradient id="ad" x1="339.92" y1="745.43" x2="76.58" y2="743.27" gradientTransform="translate(0 974.68) scale(1 -1)" xlink:href="#b"/><linearGradient id="ae" x1="323.43" y1="616.12" x2="412.78" y2="601.92" gradientTransform="translate(0 974.68) scale(1 -1)" xlink:href="#b"/></defs><path class="b`" d="M15.05,179.24c-.79-.44-1.43-1.11-1.83-1.92-.49-1.03-.73-2.16-.69-3.29v-2.71H6.33v-3.24H22.47v5.95c.03,1.11-.19,2.21-.65,3.21-.38,.81-1,1.49-1.77,1.95-.78,.45-1.67,.68-2.57,.66-.85,0-1.69-.21-2.44-.62Zm.72-3.37c.46,.45,1.08,.69,1.72,.65,1.57,0,2.36-.88,2.36-2.63v-2.57h-4.72v2.57c-.05,.72,.17,1.43,.63,1.99Z"/><path class="ay" d="M18.75,187.02c.39,.7,.59,1.5,.58,2.3h-3.4v-.86c.06-.83-.2-1.65-.72-2.3-.48-.54-1.31-.78-2.5-.78H6.33v-3.24h12.81v3.24h-1.99c.66,.4,1.21,.96,1.6,1.63Z"/><path class="aj" d="M11.76,203.32v-9.37c-.82,.03-1.6,.38-2.17,.97-.52,.58-.8,1.33-.78,2.11-.07,1.09,.55,2.11,1.55,2.56v3.5c-1.22-.36-2.29-1.12-3.04-2.14-.81-1.12-1.23-2.47-1.18-3.85-.02-1.16,.25-2.3,.8-3.31,.54-.97,1.34-1.77,2.32-2.29,1.07-.56,2.26-.85,3.47-.82,1.22-.03,2.42,.25,3.5,.81,.98,.51,1.78,1.3,2.31,2.26,1.06,2.08,1.06,4.55,0,6.63-.51,.95-1.29,1.73-2.23,2.24-1.02,.55-2.16,.82-3.32,.8-.41,0-.82-.03-1.23-.09Zm2.17-3.26c.77,.01,1.51-.33,2-.92,.5-.6,.77-1.36,.75-2.14,.02-.74-.24-1.47-.73-2.02-.53-.57-1.25-.93-2.02-1.01v6.09Z"/><path class="ai" d="M15.95,215.63h-2.73v-9.81h2.73v9.81Z"/><path class="al" d="M22.47,233.76l-16.15-5.92v-3.93l16.15-5.93v3.47l-12.85,4.44,12.85,4.42v3.45Z"/><path class="ak" d="M6.94,238.07c.54-.98,1.34-1.79,2.32-2.32,1.06-.58,2.26-.87,3.47-.85,1.21-.02,2.41,.28,3.48,.87,.98,.56,1.79,1.38,2.32,2.37,1.09,2.1,1.09,4.61,0,6.71-.54,.99-1.34,1.81-2.32,2.37-1.06,.59-2.26,.89-3.48,.87-1.22,.02-2.41-.29-3.47-.89-.98-.57-1.79-1.41-2.32-2.41-.55-1.04-.83-2.21-.8-3.39-.02-1.16,.25-2.31,.8-3.33Zm2.41,4.97c.3,.53,.74,.96,1.29,1.24,.64,.33,1.36,.49,2.08,.47,1.03,.07,2.04-.28,2.81-.96,.65-.6,1.02-1.46,1.01-2.35,.02-.88-.34-1.73-.99-2.32-.78-.67-1.79-1.01-2.81-.94-1.02-.07-2.03,.26-2.81,.91-.64,.59-1,1.43-.98,2.3-.01,.58,.13,1.15,.41,1.65Z"/><path class="as" d="M16.48,254.24h-6.21c-.34-.03-.68,.08-.94,.32-.23,.31-.33,.69-.29,1.07v1.5h-2.73v-2.03c0-2.73,1.33-4.1,3.98-4.1h6.18v-1.53h2.68v1.53h3.17v3.26h-3.19v2.87h-2.68l.02-2.89Z"/><path class="ar" d="M21.21,259.64c.74-.75,1.96-.75,2.7,0h0c.72,.82,.72,2.04,0,2.85-.74,.75-1.94,.76-2.69,.02l-.02-.02c-.72-.81-.72-2.04,0-2.85Zm-2.07,3.02H6.33v-3.24h12.81v3.24Z"/><path class="au" d="M17.88,276.68c-.96,.94-2.31,1.41-4.04,1.41H6.35v-3.24h7.06c.86,.06,1.71-.21,2.37-.75,.57-.54,.87-1.3,.82-2.08,.05-.8-.25-1.58-.82-2.14-.65-.55-1.49-.83-2.35-.77H6.33v-3.24h12.81v3.24h-1.61c.56,.44,1.01,1.01,1.31,1.65,.32,.69,.48,1.44,.48,2.21,.06,1.39-.46,2.74-1.43,3.72Z"/><path class="at" d="M18.78,288.71c-.34,.68-.84,1.27-1.47,1.71h1.83v3.26H6.23c-1.1,.02-2.19-.23-3.18-.72-.93-.48-1.71-1.23-2.22-2.14-.57-1.06-.86-2.26-.82-3.47-.07-1.59,.38-3.16,1.27-4.48,.81-1.14,2.08-1.86,3.47-1.98v3.21c-.59,.17-1.09,.57-1.4,1.1-.37,.62-.55,1.33-.54,2.05-.03,.85,.27,1.67,.85,2.29,.69,.63,1.62,.95,2.55,.88h2.01c-.63-.45-1.14-1.04-1.5-1.72-.41-.78-.61-1.65-.58-2.52,0-1.05,.28-2.07,.83-2.96,.57-.91,1.39-1.64,2.35-2.12,1.08-.53,2.27-.8,3.48-.78,1.2-.02,2.38,.24,3.45,.78,.95,.47,1.74,1.19,2.3,2.09,.54,.9,.82,1.93,.81,2.97,.02,.88-.17,1.75-.57,2.54Zm-4.03,1.25c.54-.29,.99-.72,1.3-1.25,.93-1.56,.42-3.58-1.14-4.51-.04-.03-.09-.05-.13-.07-.62-.33-1.31-.49-2-.48-.7-.02-1.4,.15-2.02,.48-.55,.29-1.01,.72-1.33,1.25-.31,.5-.47,1.07-.47,1.65,0,1.23,.66,2.36,1.75,2.94,.63,.32,1.32,.48,2.02,.46,.7,.02,1.4-.14,2.02-.46Z"/><path d="M57.22,225.83v1.35h-2.22v6.99h-1.67v-6.99h-2.22v-1.35h6.11Z"/><path d="M63.51,227.79c.39,.22,.71,.56,.91,.97,.23,.48,.35,1.01,.33,1.54v3.88h-1.68v-3.66c.03-.44-.11-.87-.39-1.22-.28-.29-.67-.44-1.07-.42-.4-.01-.79,.14-1.07,.42-.28,.34-.42,.77-.4,1.22v3.66h-1.68v-8.85h1.68v3.05c.22-.29,.52-.52,.86-.67,.38-.17,.79-.25,1.2-.25,.46,0,.91,.11,1.31,.33Z"/><path d="M68.86,227.75c.36-.2,.77-.31,1.19-.3v1.76h-.44c-.76-.13-1.48,.38-1.61,1.14-.03,.17-.03,.35,0,.52v3.3h-1.67v-6.62h1.67v1.03c.21-.35,.51-.63,.86-.83Z"/><path d="M77.28,231.37h-4.82c.02,.42,.2,.82,.5,1.12,.29,.27,.67,.41,1.07,.41,.56,.03,1.09-.28,1.33-.8h1.8c-.19,.63-.57,1.18-1.1,1.57-.58,.42-1.28,.64-2,.62-.6,.01-1.19-.14-1.71-.42-.5-.28-.91-.69-1.18-1.2-.29-.55-.44-1.17-.43-1.79-.01-.63,.13-1.25,.42-1.8,.27-.5,.68-.92,1.17-1.2,1.08-.55,2.35-.55,3.43,0,.49,.26,.89,.67,1.16,1.16,.29,.52,.43,1.11,.42,1.71,0,.22-.03,.43-.06,.64Zm-1.69-1.12c0-.4-.17-.77-.47-1.03-.31-.26-.71-.4-1.11-.39-.38-.01-.76,.12-1.04,.37-.31,.28-.5,.66-.54,1.07l3.16-.02Z"/><path d="M79.62,233.99c-.4-.18-.75-.45-1.02-.8-.25-.32-.39-.71-.41-1.11h1.69c.03,.26,.17,.49,.37,.64,.24,.17,.53,.26,.82,.25,.26,.02,.53-.05,.75-.19,.17-.11,.27-.29,.27-.49,0-.21-.13-.4-.33-.48-.35-.15-.7-.27-1.07-.35-.41-.09-.82-.22-1.21-.37-.31-.13-.59-.33-.81-.58-.24-.3-.36-.68-.34-1.07,0-.36,.11-.71,.32-1.01,.23-.32,.55-.57,.91-.72,.44-.18,.92-.27,1.39-.26,.68-.03,1.35,.18,1.89,.59,.48,.4,.76,.98,.78,1.61h-1.61c-.02-.25-.14-.47-.33-.63-.44-.29-1.01-.31-1.48-.07-.16,.1-.25,.28-.25,.47-.02,.23,.12,.45,.33,.54,.33,.16,.68,.27,1.04,.35,.4,.1,.8,.22,1.18,.37,.31,.13,.59,.33,.8,.59,.24,.3,.37,.68,.35,1.07,0,.37-.11,.73-.32,1.03-.23,.32-.54,.57-.91,.71-.44,.18-.91,.27-1.38,.26-.49-.01-.98-.13-1.43-.34Z"/><path d="M90.13,227.79c.4,.22,.71,.56,.92,.97,.23,.48,.35,1.01,.33,1.54v3.88h-1.68v-3.66c.03-.44-.11-.88-.4-1.22-.28-.29-.67-.44-1.07-.42-.41-.02-.81,.13-1.1,.42-.28,.34-.43,.77-.4,1.22v3.66h-1.68v-8.85h1.68v3.05c.22-.29,.52-.52,.86-.67,.38-.17,.79-.25,1.2-.25,.47,0,.93,.11,1.33,.33Z"/><path d="M94.18,233.86c-.5-.28-.92-.7-1.2-1.2-.3-.55-.45-1.17-.44-1.79-.01-.63,.14-1.25,.45-1.79,.29-.51,.71-.93,1.23-1.2,.53-.28,1.13-.43,1.73-.42,.6,0,1.2,.14,1.73,.42,.51,.28,.94,.7,1.23,1.2,.61,1.12,.61,2.47,0,3.59-.3,.51-.73,.92-1.24,1.2-.54,.29-1.14,.43-1.75,.42-.61,.01-1.2-.13-1.73-.42Zm2.58-1.25c.27-.15,.5-.39,.64-.66,.17-.33,.25-.7,.24-1.07,.03-.53-.14-1.06-.5-1.46-.31-.33-.76-.52-1.22-.5-.45,0-.89,.17-1.2,.5-.64,.86-.64,2.04,0,2.91,.3,.33,.74,.52,1.19,.51,.29,0,.58-.08,.84-.22Z"/><path d="M102.26,225.33v8.85h-1.67v-8.85h1.67Z"/><path d="M103.88,229.06c.49-1,1.52-1.63,2.63-1.61,.43,0,.85,.1,1.23,.28,.37,.17,.69,.42,.93,.74v-3.14h1.7v8.85h-1.7v-.98c-.22,.34-.52,.61-.87,.79-.4,.21-.85,.31-1.3,.3-.54,0-1.07-.14-1.53-.43-.46-.3-.83-.72-1.07-1.22-.28-.56-.41-1.18-.4-1.8-.02-.62,.11-1.23,.38-1.79Zm4.57,.75c-.46-.84-1.52-1.15-2.36-.68h-.01c-.27,.17-.49,.4-.64,.67-.17,.32-.25,.67-.24,1.03-.01,.37,.07,.74,.24,1.07,.15,.28,.38,.52,.65,.69,.26,.16,.55,.24,.85,.24,.63,0,1.22-.35,1.52-.9,.17-.32,.25-.68,.24-1.04,.01-.37-.07-.74-.24-1.07h0Z"/><text class="bl" transform="translate(176.33 447.05)"><tspan class="bn" x="0" y="0">T</tspan><tspan x="6.48" y="0">oken Allocation</tspan></text><text class="bk" transform="translate(202.95 12.92)"><tspan class="bo" x="0" y="0">F</tspan><tspan x="7.59" y="0">unding</tspan></text><path class="aw" d="M341.03,363.59c0-2.79-.74-5.52-2.14-7.93l-23.02-39.89c-2.84-4.9-8.06-7.92-13.72-7.94H88.49c-5.67,.01-10.9,3.03-13.74,7.94l-23.02,39.89c-2.83,4.91-2.83,10.95,0,15.87l23.02,39.89c2.84,4.9,8.07,7.92,13.74,7.94h213.64c5.67,0,10.9-3.03,13.74-7.94l23.02-39.89c1.39-2.41,2.12-5.15,2.13-7.94Z"/><path class="bj" d="M178.99,367.62c.37,.28,.82,.42,1.28,.39,.62,.03,1.21-.31,1.5-.86,.38-.91,.54-1.9,.47-2.89-.27,.37-.65,.66-1.07,.83-.47,.21-.98,.31-1.49,.31-.67,0-1.33-.14-1.93-.44-.57-.29-1.05-.75-1.36-1.32-.36-.66-.53-1.4-.5-2.14-.05-1.09,.35-2.16,1.1-2.94,.81-.75,1.9-1.14,3-1.07,1.58,0,2.68,.5,3.35,1.52s.97,2.53,.97,4.57c.03,1.2-.1,2.39-.37,3.56-.34,1.76-1.96,2.98-3.75,2.82-.73,.02-1.45-.14-2.1-.47-.55-.29-1-.72-1.32-1.25-.31-.52-.49-1.11-.54-1.71h2.17c.06,.43,.26,.83,.59,1.12Zm2.53-4.67c.35-.39,.53-.91,.5-1.43,.03-.56-.16-1.11-.54-1.53-.38-.37-.9-.56-1.42-.54-.53-.03-1.05,.16-1.43,.54-.36,.4-.56,.93-.54,1.48-.02,.53,.16,1.05,.51,1.45,.41,.39,.96,.58,1.53,.54,.51,.04,1.02-.14,1.39-.5Z"/><path class="bj" d="M186.5,360.78c0-.58,.15-1.15,.46-1.64,.34-.52,.82-.93,1.39-1.18,1.45-.59,3.07-.59,4.52,0,.57,.25,1.05,.66,1.39,1.18,.3,.49,.46,1.06,.46,1.64,.01,.57-.15,1.13-.45,1.61-.3,.46-.71,.83-1.2,1.07,.58,.24,1.08,.65,1.43,1.17,.36,.54,.54,1.17,.54,1.82,.02,.7-.18,1.39-.57,1.98-.39,.57-.94,1.02-1.58,1.3-1.44,.6-3.06,.6-4.5,0-.63-.28-1.18-.73-1.57-1.3-.39-.58-.59-1.27-.57-1.98,0-.65,.18-1.29,.54-1.83,.35-.52,.85-.93,1.43-1.16-1.06-.46-1.74-1.52-1.71-2.68Zm2.56,4.19c-.4,.34-.62,.85-.59,1.38-.02,.52,.19,1.01,.57,1.36,.43,.37,.99,.56,1.56,.54,.57,.03,1.12-.16,1.55-.54,.38-.35,.58-.84,.57-1.35,.03-.52-.19-1.03-.58-1.38-.43-.34-.98-.52-1.53-.49-.56-.03-1.11,.14-1.55,.48h0Zm2.89-5.12c-.79-.61-1.89-.61-2.68,0-.34,.34-.53,.81-.49,1.29-.02,.46,.17,.9,.51,1.2,.37,.31,.83,.47,1.31,.45,.48,.02,.95-.14,1.32-.46,.35-.3,.55-.75,.54-1.21,.03-.48-.16-.94-.51-1.27h.01Z"/><path class="bj" d="M197.33,358.75c1.1-.96,2.73-.96,3.82,0,1.1,1.02,1.17,2.74,.15,3.84-.53,.57-1.28,.89-2.06,.87-1.55-.09-2.73-1.42-2.65-2.97,.04-.65,.3-1.26,.73-1.74Zm.98,1.99c0,.88,.31,1.32,.92,1.32,.27,.01,.54-.11,.7-.33,.19-.29,.28-.64,.25-.99,0-.87-.32-1.3-.95-1.3s-.92,.43-.92,1.3h0Zm9-2.51l-6.56,11.68h-2.27l6.54-11.68h2.29Zm-2.65,7.17c.52-.48,1.21-.73,1.91-.71,.7-.03,1.38,.23,1.9,.71,.96,1.16,.96,2.84,0,4-.51,.49-1.19,.74-1.9,.72-.71,.03-1.4-.23-1.92-.72-.51-.54-.78-1.26-.73-2-.05-.74,.23-1.47,.74-2h0Zm.94,2c0,.88,.32,1.32,.95,1.32s.93-.44,.93-1.32-.31-1.31-.93-1.31-.95,.44-.95,1.31h0Z"/><path d="M372.64,367.56c1.07-.89,1.92-1.63,2.55-2.23,.61-.55,1.15-1.18,1.61-1.86,.4-.56,.62-1.22,.64-1.9,.03-.48-.11-.95-.4-1.34-.32-.34-.77-.52-1.24-.48-.49-.03-.96,.17-1.29,.54-.32,.44-.49,.98-.47,1.53h-2.27c-.04-1.13,.39-2.24,1.19-3.04,.78-.7,1.81-1.07,2.86-1.03,1.07-.07,2.12,.29,2.92,1.01,.7,.71,1.07,1.68,1.02,2.68,0,.88-.24,1.74-.7,2.48-.44,.76-.98,1.45-1.61,2.06-.6,.58-1.39,1.29-2.35,2.12h4.92v1.93h-8.25v-1.73l.85-.73Z"/><path d="M381.96,359.03c1.1-.96,2.73-.96,3.82,0,1.1,1.02,1.17,2.74,.15,3.84-.53,.57-1.28,.89-2.06,.87-1.55-.09-2.73-1.42-2.65-2.97,.04-.65,.3-1.26,.73-1.74Zm.98,1.99c0,.88,.31,1.32,.92,1.32,.27,.01,.54-.11,.7-.33,.19-.29,.28-.64,.25-.99,0-.87-.32-1.3-.95-1.3s-.92,.43-.92,1.3h0Zm9-2.51l-6.56,11.68h-2.29l6.54-11.68h2.31Zm-2.65,7.17c.52-.48,1.21-.73,1.91-.71,.7-.03,1.38,.23,1.9,.71,.96,1.16,.96,2.84,0,4-.51,.49-1.19,.74-1.9,.72-.71,.03-1.4-.23-1.92-.72-.51-.54-.78-1.26-.73-2-.05-.74,.23-1.47,.74-2h0Zm.94,2c0,.88,.32,1.32,.95,1.32s.93-.44,.93-1.32-.31-1.3-.93-1.3-.95,.43-.95,1.3h0Z"/><path d="M174.44,207.17c.38-.32,.69-.59,.92-.8,.22-.2,.41-.42,.57-.67,.14-.2,.22-.44,.23-.68,.01-.17-.04-.34-.14-.48-.11-.13-.28-.19-.44-.18-.18-.01-.35,.06-.46,.2-.11,.15-.17,.34-.17,.54h-.82c0-.4,.15-.79,.43-1.07,.28-.25,.65-.39,1.03-.37,.39-.03,.78,.1,1.07,.36,.25,.26,.38,.6,.36,.96,0,.32-.09,.62-.25,.89-.16,.27-.35,.52-.58,.74-.21,.21-.5,.46-.85,.76h1.77v.7h-2.97v-.63l.3-.27Z"/><path d="M177.79,204.08c.19-.17,.44-.27,.69-.26,.25,0,.5,.08,.69,.26,.37,.41,.37,1.03,0,1.43-.18,.17-.43,.27-.69,.26-.56-.03-.99-.5-.96-1.05,.01-.24,.11-.47,.27-.64Zm.35,.72c0,.32,.11,.47,.33,.47,.1,0,.2-.04,.26-.12,.07-.11,.1-.23,.09-.35,0-.32-.11-.47-.34-.47s-.33,.16-.33,.47Zm3.21-.9l-2.36,4.2h-.81l2.35-4.2h.82Zm-.95,2.58c.39-.34,.98-.34,1.37,0,.34,.42,.34,1.02,0,1.43-.39,.34-.98,.34-1.37,0-.37-.41-.37-1.03,0-1.43Zm.34,.72c0,.32,.12,.47,.34,.47s.34-.16,.34-.47-.11-.47-.34-.47-.32,.16-.32,.47h-.02Z"/><path class="av" d="M175.36,187.25c1.64,0,3.17,.87,4,2.29l8.34,14.22c.77,1.32,.77,2.96,0,4.28l-8.34,14.22c-.83,1.42-2.35,2.29-4,2.29h-14.06l8.52-14.99c1.33-2.28,1.33-5.1,0-7.37l-8.52-14.94h14.06m0-1.54h-14.18c-.81,0-1.46,.66-1.45,1.47,0,.25,.07,.49,.19,.71l8.57,15.07c1.05,1.8,1.05,4.03,0,5.84l-8.57,15.07c-.41,.7-.17,1.6,.53,2.01,.22,.13,.48,.2,.74,.2h14.18c2.19,0,4.22-1.16,5.33-3.05l8.34-14.22c1.06-1.8,1.06-4.04,0-5.84l-8.34-14.2c-1.11-1.89-3.14-3.05-5.33-3.05Z"/><path d="M210.75,207.17c.38-.32,.69-.59,.92-.8,.22-.2,.41-.42,.57-.67,.14-.2,.22-.44,.22-.68,.01-.17-.04-.34-.14-.48-.11-.13-.28-.19-.44-.18-.18-.01-.35,.06-.46,.2-.11,.15-.17,.34-.17,.54h-.82c0-.4,.15-.79,.43-1.07,.28-.25,.65-.39,1.03-.37,.39-.03,.78,.1,1.07,.36,.25,.26,.38,.6,.36,.96,0,.32-.09,.62-.25,.89-.16,.27-.35,.52-.58,.74-.21,.21-.5,.46-.85,.76h1.77v.7h-2.97v-.63l.29-.27Z"/><path d="M214.1,204.08c.19-.17,.44-.27,.69-.26,.25,0,.5,.08,.69,.26,.37,.41,.37,1.03,0,1.43-.18,.17-.43,.27-.69,.26-.56-.03-.98-.51-.95-1.07,.01-.23,.11-.45,.26-.62Zm.35,.72c0,.32,.11,.47,.33,.47,.1,0,.19-.04,.25-.12,.07-.11,.1-.23,.09-.35,0-.32-.12-.47-.34-.47s-.33,.16-.33,.47Zm3.21-.9l-2.36,4.2h-.82l2.35-4.2h.82Zm-.95,2.58c.19-.17,.44-.27,.69-.26,.25,0,.5,.08,.68,.26,.35,.41,.35,1.02,0,1.43-.18,.17-.43,.27-.68,.26-.56-.03-.99-.5-.96-1.05,.01-.24,.11-.47,.27-.64Zm.34,.72c0,.32,.11,.47,.34,.47s.33-.16,.33-.47-.11-.47-.33-.47-.3,.16-.3,.47h-.04Z"/><path class="ax" d="M211.68,187.25c1.64,0,3.17,.87,4,2.29l8.34,14.22c.77,1.32,.77,2.96,0,4.28l-8.34,14.22c-.83,1.42-2.35,2.29-4,2.29h-14.06l8.52-14.99c1.33-2.28,1.33-5.1,0-7.37l-8.52-14.94h14.06m0-1.54h-14.19c-.81,0-1.46,.65-1.46,1.46,0,.25,.06,.5,.19,.72l8.57,15.07c1.05,1.8,1.05,4.03,0,5.84l-8.57,15.07c-.41,.7-.17,1.6,.53,2.01,.22,.13,.48,.2,.74,.2h14.19c2.19,0,4.22-1.16,5.32-3.05l8.34-14.22c1.05-1.8,1.05-4.03,0-5.84l-8.34-14.22c-1.11-1.89-3.13-3.05-5.32-3.05v.02Z"/><path d="M247.08,207.17c.39-.32,.69-.59,.92-.8,.22-.2,.41-.42,.57-.67,.14-.2,.22-.44,.22-.68,.01-.17-.04-.34-.14-.48-.11-.12-.27-.19-.44-.18-.18-.01-.35,.07-.47,.2-.11,.16-.17,.34-.17,.54h-.81c-.01-.4,.14-.79,.43-1.07,.6-.49,1.47-.49,2.08,0,.25,.26,.38,.6,.36,.96,0,.32-.09,.63-.25,.89-.16,.27-.35,.52-.57,.74-.22,.21-.5,.46-.85,.76h1.77v.7h-2.96v-.63l.31-.28Z"/><path d="M250.42,204.08c.39-.34,.98-.34,1.37,0,.37,.41,.37,1.03,0,1.43-.43,.34-1.06,.28-1.4-.15-.3-.38-.29-.92,.03-1.28Zm.35,.72c0,.32,.11,.47,.33,.47,.1,0,.19-.04,.25-.12,.07-.11,.1-.23,.09-.35,0-.32-.12-.47-.34-.47s-.33,.16-.33,.47Zm3.21-.9l-2.36,4.2h-.79l2.36-4.2h.79Zm-.95,2.58c.18-.17,.43-.27,.69-.26,.25-.01,.5,.08,.68,.26,.35,.41,.35,1.02,0,1.43-.18,.17-.43,.27-.68,.26-.49,.03-.92-.34-.95-.83,0-.05,0-.1,0-.15-.01-.27,.09-.53,.29-.72h-.02Zm.34,.72c0,.32,.11,.47,.34,.47s.33-.16,.33-.47-.11-.47-.33-.47-.32,.16-.32,.47h-.02Z"/><path class="an" d="M247.99,187.25c1.64,0,3.17,.87,4,2.29l8.34,14.22c.78,1.32,.78,2.96,0,4.28l-8.34,14.22c-.83,1.42-2.35,2.29-4,2.29h-14.06l8.52-14.99c1.33-2.28,1.33-5.09,0-7.37l-8.52-14.94h14.06m0-1.54h-14.19c-.81,0-1.46,.66-1.46,1.46,0,.26,.07,.51,.2,.74l8.57,15.07c1.05,1.8,1.05,4.03,0,5.84l-8.57,15.07c-.41,.69-.18,1.59,.51,2,.23,.13,.48,.2,.74,.2h14.19c2.19,0,4.22-1.16,5.32-3.05l8.34-14.22c1.05-1.8,1.05-4.03,0-5.84l-8.34-14.22c-1.11-1.89-3.13-3.05-5.32-3.05h0Z"/><path d="M283.38,207.17c.39-.32,.69-.59,.92-.8,.22-.2,.41-.42,.57-.67,.14-.2,.22-.43,.23-.67,.01-.17-.04-.34-.14-.48-.11-.13-.28-.19-.44-.18-.18-.01-.35,.06-.46,.2-.12,.15-.18,.34-.17,.54h-.81c-.01-.4,.14-.79,.43-1.07,.6-.49,1.47-.49,2.08,0,.25,.25,.38,.6,.36,.96,0,.32-.09,.63-.25,.89-.16,.27-.35,.52-.57,.74-.22,.21-.5,.46-.85,.76h1.77v.7h-2.96v-.63l.31-.29Z"/><path d="M286.73,204.08c.4-.36,1.01-.34,1.38,.06,.36,.4,.34,1.01-.06,1.38-.37,.34-.95,.34-1.32,0-.37-.41-.37-1.03,0-1.43Zm.35,.72c0,.32,.11,.47,.33,.47,.1,0,.19-.04,.25-.12,.07-.11,.1-.23,.09-.35,0-.32-.11-.47-.34-.47s-.33,.16-.33,.47Zm3.21-.9l-2.36,4.2h-.81l2.35-4.2h.82Zm-.91,2.58c.18-.17,.43-.27,.69-.26,.25-.01,.5,.08,.68,.26,.35,.41,.35,1.02,0,1.43-.18,.17-.43,.27-.68,.26-.56-.03-.98-.5-.95-1.06,.01-.24,.11-.46,.27-.64Zm.34,.72c0,.32,.11,.47,.34,.47s.34-.16,.34-.47-.11-.47-.34-.47-.36,.16-.36,.47h.02Z"/><path class="am" d="M284.31,187.25c1.64,0,3.17,.87,4,2.29l8.34,14.22c.78,1.32,.78,2.96,0,4.28l-8.33,14.22c-.83,1.42-2.35,2.29-4,2.29h-14.07l8.52-14.99c1.33-2.28,1.33-5.09,0-7.37l-8.52-14.94h14.06m0-1.54h-14.2c-.81,0-1.46,.66-1.46,1.46,0,.26,.07,.51,.2,.74l8.57,15.07c1.06,1.8,1.06,4.04,0,5.84l-8.57,15.07c-.41,.69-.18,1.59,.51,2,.23,.13,.48,.2,.74,.2h14.19c2.2,0,4.24-1.15,5.35-3.05l8.3-14.22c1.05-1.8,1.05-4.03,0-5.84l-8.34-14.22c-1.12-1.9-3.15-3.06-5.35-3.05h.05Z"/><path d="M174.44,256.18c.38-.32,.69-.59,.92-.8,.22-.2,.41-.42,.57-.67,.14-.2,.22-.44,.23-.68,.01-.17-.04-.34-.14-.48-.11-.13-.28-.19-.44-.18-.18-.01-.35,.06-.46,.2-.11,.15-.17,.34-.17,.54h-.82c0-.4,.15-.79,.43-1.07,.28-.25,.65-.39,1.03-.37,.39-.03,.78,.1,1.07,.36,.25,.26,.38,.6,.36,.96,0,.32-.09,.62-.25,.89-.16,.27-.35,.52-.58,.74-.21,.21-.5,.46-.85,.76h1.77v.7h-2.97v-.64l.3-.25Z"/><path d="M177.79,253.11c.19-.17,.44-.27,.69-.26,.25,0,.5,.08,.69,.26,.37,.41,.37,1.03,0,1.43-.18,.17-.43,.27-.69,.26-.56-.03-.99-.5-.96-1.05,.01-.24,.11-.47,.27-.64Zm.35,.72c0,.32,.11,.47,.33,.47,.1,0,.2-.04,.26-.12,.07-.11,.1-.23,.09-.35,0-.32-.11-.47-.34-.47s-.33,.16-.33,.47h0Zm3.21-.9l-2.36,4.2h-.81l2.35-4.2h.82Zm-.95,2.58c.39-.34,.98-.34,1.37,0,.34,.42,.34,1.02,0,1.43-.39,.34-.98,.34-1.37,0-.37-.41-.37-1.03,0-1.43Zm.34,.72c0,.32,.12,.47,.34,.47s.34-.16,.34-.47-.11-.47-.34-.47-.32,.14-.32,.47h-.02Z"/><path class="ap" d="M175.36,236.27c1.64,0,3.17,.87,4,2.29l8.34,14.22c.77,1.32,.77,2.96,0,4.28l-8.34,14.22c-.83,1.42-2.35,2.29-4,2.29h-14.06l8.52-14.97c1.33-2.28,1.33-5.1,0-7.37l-8.52-14.97h14.06m0-1.54h-14.18c-.81,0-1.46,.65-1.46,1.46,0,.26,.07,.52,.2,.74l8.57,15.07c1.05,1.8,1.05,4.03,0,5.84l-8.57,15.07c-.41,.7-.17,1.6,.53,2.01,.22,.13,.48,.2,.74,.2h14.18c2.19,0,4.22-1.16,5.33-3.05l8.34-14.22c1.06-1.8,1.06-4.04,0-5.84l-8.34-14.22c-1.11-1.89-3.14-3.05-5.33-3.05Z"/><path d="M210.75,256.18c.38-.32,.69-.59,.92-.8,.22-.2,.41-.42,.57-.67,.14-.2,.22-.44,.22-.68,.01-.17-.04-.34-.14-.48-.11-.13-.28-.19-.44-.18-.18-.01-.35,.06-.46,.2-.11,.15-.17,.34-.17,.54h-.82c0-.4,.15-.79,.43-1.07,.28-.25,.65-.39,1.03-.37,.39-.03,.78,.1,1.07,.36,.25,.26,.38,.6,.36,.96,0,.32-.09,.62-.25,.89-.16,.27-.35,.52-.58,.74-.21,.21-.5,.46-.85,.76h1.77v.7h-2.97v-.64l.29-.25Z"/><path d="M214.1,253.11c.19-.17,.44-.27,.69-.26,.25,0,.5,.08,.69,.26,.37,.41,.37,1.03,0,1.43-.18,.17-.43,.27-.69,.26-.56-.03-.98-.51-.95-1.07,.01-.23,.11-.45,.26-.62Zm.35,.72c0,.32,.11,.47,.33,.47,.1,0,.19-.04,.25-.12,.07-.11,.1-.23,.09-.35,0-.32-.12-.47-.34-.47s-.33,.16-.33,.47h0Zm3.21-.9l-2.36,4.2h-.82l2.35-4.2h.82Zm-.95,2.58c.19-.17,.44-.27,.69-.26,.25,0,.5,.08,.68,.26,.35,.41,.35,1.02,0,1.43-.18,.17-.43,.27-.68,.26-.56-.03-.99-.5-.96-1.05,.01-.24,.11-.47,.27-.64Zm.34,.72c0,.32,.11,.47,.34,.47s.33-.16,.33-.47-.11-.47-.33-.47-.3,.14-.3,.47h-.04Z"/><path class="aq" d="M211.68,236.27c1.64,0,3.17,.87,4,2.29l8.34,14.22c.77,1.32,.77,2.96,0,4.28l-8.34,14.22c-.83,1.42-2.35,2.29-4,2.29h-14.06l8.52-14.97c1.33-2.28,1.33-5.1,0-7.37l-8.52-14.97h14.06m0-1.54h-14.19c-.81,0-1.47,.64-1.47,1.45,0,.26,.07,.52,.2,.74l8.57,15.07c1.05,1.8,1.05,4.03,0,5.84l-8.57,15.07c-.41,.7-.17,1.6,.53,2.01,.22,.13,.48,.2,.74,.2h14.19c2.19,0,4.22-1.16,5.32-3.05l8.34-14.22c1.05-1.8,1.05-4.03,0-5.84l-8.34-14.22c-1.11-1.89-3.13-3.05-5.32-3.05h.01Z"/><path d="M247.08,256.18c.39-.32,.69-.59,.92-.8,.22-.2,.41-.42,.57-.67,.14-.2,.22-.44,.22-.68,.01-.17-.04-.34-.14-.48-.11-.12-.27-.19-.44-.18-.18-.01-.35,.07-.47,.2-.11,.16-.17,.34-.17,.54h-.81c-.01-.4,.14-.79,.43-1.07,.6-.49,1.47-.49,2.08,0,.25,.26,.38,.6,.36,.96,0,.32-.09,.62-.25,.89-.16,.27-.35,.52-.57,.74-.22,.21-.5,.46-.85,.76h1.77v.7h-2.96v-.65l.31-.25Z"/><path d="M250.42,253.11c.39-.34,.98-.34,1.37,0,.37,.41,.37,1.03,0,1.43-.43,.34-1.06,.28-1.4-.15-.3-.38-.29-.92,.03-1.28Zm.35,.72c0,.32,.11,.47,.33,.47,.1,0,.19-.04,.25-.12,.07-.11,.1-.23,.09-.35,0-.32-.12-.47-.34-.47s-.33,.16-.33,.47h0Zm3.21-.9l-2.36,4.2h-.79l2.36-4.2h.79Zm-.95,2.58c.18-.17,.43-.27,.69-.26,.25-.01,.5,.08,.68,.26,.35,.41,.35,1.02,0,1.43-.18,.17-.43,.27-.68,.26-.49,.03-.92-.34-.95-.83,0-.05,0-.1,0-.15-.01-.27,.09-.53,.29-.72h-.02Zm.34,.72c0,.32,.11,.47,.34,.47s.33-.16,.33-.47-.11-.47-.33-.47-.32,.14-.32,.47h-.02Z"/><path class="ao" d="M247.99,236.27c1.64,0,3.17,.87,4,2.29l8.34,14.22c.78,1.32,.78,2.96,0,4.28l-8.34,14.22c-.84,1.41-2.36,2.27-4,2.27h-14.06l8.52-14.97c1.33-2.28,1.33-5.09,0-7.37l-8.52-14.97h14.06m0-1.54h-14.19c-.81,0-1.46,.66-1.46,1.46,0,.26,.07,.51,.2,.74l8.57,15.07c1.05,1.8,1.05,4.03,0,5.84l-8.57,15.07c-.41,.69-.18,1.59,.51,2,.23,.13,.48,.2,.74,.2h14.19c2.19,0,4.22-1.16,5.32-3.05l8.34-14.22c1.05-1.8,1.05-4.03,0-5.84l-8.34-14.22c-1.11-1.89-3.13-3.05-5.32-3.05h0Z"/><path d="M283.38,256.18c.39-.32,.69-.59,.92-.8,.22-.2,.41-.42,.57-.67,.14-.2,.22-.44,.23-.68,.01-.17-.04-.34-.14-.48-.11-.13-.28-.19-.44-.18-.18-.01-.35,.06-.46,.2-.12,.15-.18,.34-.17,.54h-.81c-.01-.4,.14-.79,.43-1.07,.6-.49,1.47-.49,2.08,0,.25,.25,.38,.6,.36,.96,0,.32-.09,.62-.25,.89-.16,.27-.35,.52-.57,.74-.22,.21-.5,.46-.85,.76h1.77v.7h-2.96v-.65l.31-.25Z"/><path d="M286.73,253.11c.4-.36,1.01-.34,1.38,.06,.36,.4,.34,1.01-.06,1.38-.37,.34-.95,.34-1.32,0-.37-.41-.37-1.03,0-1.43Zm.35,.72c0,.32,.11,.47,.33,.47,.1,0,.19-.04,.25-.12,.07-.11,.1-.23,.09-.35,0-.32-.11-.47-.34-.47s-.33,.16-.33,.47h0Zm3.21-.9l-2.36,4.2h-.81l2.35-4.2h.82Zm-.91,2.58c.18-.17,.43-.27,.69-.26,.25-.01,.5,.08,.68,.26,.35,.41,.35,1.02,0,1.43-.18,.17-.43,.27-.68,.26-.56-.03-.98-.5-.95-1.06,.01-.24,.11-.46,.27-.64Zm.34,.72c0,.32,.11,.47,.34,.47s.34-.16,.34-.47-.11-.47-.34-.47-.36,.14-.36,.47h.02Z"/><path class="ag" d="M284.31,236.27c1.64,0,3.17,.87,4,2.29l8.34,14.22c.78,1.32,.78,2.96,0,4.28l-8.33,14.22c-.83,1.42-2.35,2.29-4,2.29h-14.07l8.52-14.97c1.33-2.28,1.33-5.09,0-7.37l-8.52-14.97h14.06m0-1.54h-14.2c-.81,0-1.46,.66-1.46,1.46,0,.26,.07,.51,.2,.74l8.57,15.07c1.06,1.8,1.06,4.04,0,5.84l-8.57,15.07c-.41,.69-.18,1.59,.51,2,.23,.13,.48,.2,.74,.2h14.19c2.2,0,4.24-1.15,5.35-3.05l8.3-14.22c1.05-1.8,1.05-4.03,0-5.84l-8.34-14.22c-1.11-1.9-3.15-3.06-5.35-3.05h.05Z"/><path class="af" d="M190.64,115.6c0-1.01-.26-2-.77-2.88l-8.36-14.49c-1.03-1.78-2.93-2.87-4.99-2.88H96.74c-2.06,0-3.96,1.1-4.99,2.88l-8.36,14.49c-1.03,1.78-1.03,3.98,0,5.76l8.36,14.49c1.03,1.78,2.93,2.88,4.99,2.88h79.78c2.06,0,3.96-1.1,4.99-2.88l8.36-14.49c.5-.88,.77-1.87,.77-2.88Z"/><path class="bj" d="M131.71,116.96c.13,.1,.3,.15,.46,.14,.22,.01,.43-.11,.54-.31,.14-.34,.2-.71,.17-1.07-.1,.13-.24,.24-.39,.3-.17,.07-.35,.11-.54,.11-.24,0-.48-.05-.7-.16-.21-.11-.38-.28-.5-.48-.13-.24-.19-.5-.18-.77-.02-.4,.13-.78,.4-1.07,.29-.27,.68-.41,1.07-.4,.47-.05,.94,.15,1.22,.54,.27,.51,.39,1.08,.35,1.66,.01,.43-.03,.87-.13,1.29-.07,.3-.23,.57-.47,.77-.26,.19-.58,.28-.9,.26-.26,0-.53-.05-.76-.18-.2-.1-.37-.26-.48-.46-.11-.19-.18-.4-.19-.62h.79c.02,.18,.11,.34,.25,.45Zm.92-1.7c.13-.15,.2-.34,.18-.54,0-.2-.06-.39-.19-.54-.14-.14-.34-.21-.54-.19-.2-.02-.4,.06-.54,.2-.13,.15-.2,.34-.19,.54,0,.2,.06,.39,.19,.54,.14,.14,.34,.21,.54,.2,.21,.02,.41-.06,.55-.21Z"/><path class="bj" d="M134.43,114.48c0-.21,.06-.42,.17-.59,.12-.19,.3-.34,.5-.43,.53-.21,1.11-.21,1.64,0,.21,.09,.38,.24,.5,.43,.11,.18,.17,.38,.17,.59,0,.21-.06,.41-.17,.58-.11,.17-.26,.3-.44,.39,.22,.09,.4,.24,.54,.43,.13,.2,.19,.43,.19,.66,0,.25-.07,.51-.21,.72-.14,.21-.34,.37-.57,.47-.26,.11-.54,.17-.82,.17-.28,0-.56-.05-.81-.17-.23-.1-.43-.26-.57-.47-.14-.21-.21-.46-.21-.72,0-.23,.06-.47,.19-.66,.13-.19,.32-.34,.54-.42-.39-.16-.64-.55-.63-.97Zm.93,1.52c-.15,.13-.23,.31-.21,.5,0,.19,.07,.37,.21,.5,.16,.13,.36,.2,.57,.19,.21,.01,.41-.06,.56-.19,.14-.13,.21-.31,.21-.49,.01-.19-.07-.38-.21-.5-.15-.12-.34-.18-.54-.18-.21-.02-.42,.05-.58,.17h0Zm1.07-1.86c-.13-.12-.31-.18-.49-.17-.18-.01-.35,.05-.48,.17-.12,.12-.19,.29-.18,.47,0,.16,.06,.32,.18,.43,.28,.22,.67,.22,.95,0,.13-.11,.2-.27,.19-.44,0-.18-.07-.34-.2-.46h.02Z"/><path class="bj" d="M138.39,113.74c.19-.18,.43-.27,.69-.26,.26,0,.51,.09,.7,.26,.19,.19,.28,.45,.27,.72,.02,.27-.08,.53-.27,.73-.19,.17-.44,.27-.7,.26-.56-.03-.99-.51-.96-1.07,.01-.24,.11-.46,.27-.64Zm.35,.72c0,.32,.11,.48,.33,.48,.1,0,.2-.04,.26-.12,.07-.11,.1-.23,.09-.36,0-.32-.12-.48-.35-.48s-.35,.16-.35,.48h.02Zm3.27-.91l-2.38,4.25h-.82l2.38-4.25h.83Zm-.97,2.59c.19-.18,.44-.27,.7-.26,.25,0,.5,.08,.69,.26,.35,.42,.35,1.03,0,1.45-.18,.18-.43,.27-.69,.26-.56-.02-1-.5-.97-1.06,.01-.24,.11-.47,.28-.65h0Zm.34,.73c0,.32,.11,.48,.34,.48s.34-.16,.34-.48-.11-.48-.34-.48-.34,.18-.34,.49v-.02Z"/><path class="ah" d="M190.64,66.56c0-1.01-.26-2-.77-2.88l-8.36-14.47c-1.03-1.78-2.93-2.87-4.99-2.88H96.74c-2.06,0-3.96,1.1-4.99,2.88l-8.37,14.46c-1.03,1.78-1.03,3.98,0,5.76l8.36,14.49c1.03,1.78,2.93,2.88,4.99,2.88h79.78c2.06,0,3.96-1.1,4.99-2.88l8.36-14.49c.5-.87,.77-1.86,.77-2.87Z"/><path class="bj" d="M131.71,67.95c.13,.1,.3,.15,.46,.14,.22,.01,.43-.11,.54-.31,.14-.34,.2-.71,.17-1.07-.1,.13-.24,.24-.39,.3-.17,.07-.35,.11-.54,.11-.24,0-.48-.05-.7-.16-.21-.11-.38-.28-.5-.48-.13-.24-.19-.5-.18-.77-.02-.4,.13-.78,.4-1.07,.29-.27,.68-.41,1.07-.4,.47-.05,.94,.15,1.22,.54,.27,.51,.39,1.08,.35,1.66,.01,.43-.03,.87-.13,1.29-.07,.3-.23,.57-.47,.77-.26,.19-.58,.28-.9,.26-.26,0-.53-.05-.76-.18-.2-.1-.37-.26-.48-.46-.11-.19-.18-.4-.19-.62h.79c.02,.18,.11,.34,.25,.45Zm.92-1.7c.13-.15,.2-.34,.18-.54,0-.2-.06-.39-.19-.54-.14-.14-.34-.21-.54-.19-.2-.02-.4,.06-.54,.2-.13,.15-.2,.34-.19,.54,0,.2,.06,.39,.19,.54,.14,.14,.34,.21,.54,.2,.21,.02,.42-.06,.55-.22h0Z"/><path class="bj" d="M134.43,65.45c0-.21,.06-.42,.17-.59,.12-.19,.3-.34,.5-.43,.53-.21,1.11-.21,1.64,0,.21,.09,.38,.24,.5,.43,.11,.18,.17,.38,.17,.59,0,.21-.06,.41-.17,.58-.11,.17-.26,.3-.44,.39,.22,.09,.4,.24,.54,.43,.13,.2,.19,.43,.19,.66,0,.26-.07,.51-.21,.72-.14,.21-.34,.37-.57,.47-.26,.11-.54,.17-.82,.17-.28,0-.56-.05-.81-.17-.23-.1-.43-.26-.57-.47-.14-.21-.22-.46-.21-.72,0-.23,.06-.47,.19-.66,.13-.19,.32-.34,.54-.42-.39-.16-.64-.55-.63-.97Zm.93,1.52c-.15,.13-.23,.31-.21,.5,0,.19,.07,.37,.21,.5,.16,.13,.36,.2,.57,.19,.21,.01,.41-.06,.56-.19,.14-.13,.21-.31,.21-.49,.01-.19-.07-.38-.21-.5-.15-.12-.34-.18-.54-.18-.21-.01-.42,.05-.58,.17Zm1.07-1.86c-.13-.12-.31-.18-.49-.17-.18-.01-.35,.05-.48,.17-.12,.12-.19,.29-.18,.47,0,.17,.06,.33,.18,.44,.13,.11,.3,.17,.48,.16,.17,0,.34-.05,.48-.17,.13-.11,.2-.27,.19-.44,0-.18-.07-.34-.2-.46h.02Z"/><path class="bj" d="M138.39,64.74c.19-.18,.43-.27,.69-.26,.26,0,.51,.09,.7,.26,.19,.19,.28,.45,.27,.72,.02,.27-.08,.53-.27,.73-.19,.17-.44,.27-.7,.26-.56-.03-.99-.51-.96-1.07,.01-.24,.11-.46,.27-.64Zm.35,.72c0,.32,.11,.48,.33,.48,.1,0,.2-.04,.26-.12,.07-.11,.1-.23,.09-.36,0-.32-.12-.47-.35-.47s-.35,.13-.35,.45l.02,.02Zm3.27-.91l-2.38,4.25h-.82l2.38-4.25h.83Zm-.96,2.6c.19-.18,.44-.27,.7-.26,.25,0,.5,.08,.69,.26,.35,.42,.35,1.03,0,1.45-.18,.18-.43,.27-.69,.26-.56-.02-1-.5-.97-1.06,.01-.24,.11-.47,.28-.65h0Zm.34,.73c0,.32,.11,.48,.34,.48s.34-.16,.34-.48-.11-.48-.34-.48-.36,.14-.36,.46l.02,.02Z"/><path d="M205.46,67.75c.39-.32,.69-.58,.92-.8,.21-.2,.4-.43,.57-.67,.14-.2,.22-.44,.23-.69,.01-.17-.04-.34-.14-.48-.11-.13-.28-.19-.44-.18-.18,0-.35,.07-.47,.2-.11,.16-.17,.34-.17,.54h-.81c0-.4,.15-.79,.43-1.07,.28-.25,.65-.38,1.03-.37,.39-.03,.78,.1,1.07,.36,.25,.25,.38,.6,.36,.95,0,.32-.09,.63-.25,.89-.16,.27-.35,.52-.57,.74-.22,.21-.5,.46-.85,.75h1.77v.7h-2.96v-.62l.29-.28Z"/><path d="M208.81,64.68c.39-.34,.98-.34,1.37,0,.37,.41,.37,1.03,0,1.43-.39,.34-.98,.34-1.37,0-.37-.41-.37-1.03,0-1.43Zm.35,.71c0,.32,.11,.48,.33,.48,.1,0,.19-.04,.25-.12,.07-.11,.1-.23,.09-.36,0-.31-.11-.47-.34-.47s-.33,.16-.33,.47h0Zm3.21-.9l-2.36,4.2h-.81l2.35-4.2h.82Zm-.95,2.58c.19-.17,.43-.26,.69-.25,.25-.01,.5,.08,.68,.25,.35,.42,.35,1.02,0,1.44-.18,.17-.43,.27-.68,.26-.5,.03-.92-.34-.96-.84,0-.05,0-.09,0-.14-.01-.27,.09-.53,.29-.72h-.02Zm.34,.72c0,.32,.11,.48,.34,.48s.34-.16,.34-.48-.11-.47-.34-.47-.32,.16-.32,.47h-.02Z"/><path class="bb" d="M206.39,47.84c1.64,0,3.17,.87,4,2.29l8.32,14.22c.78,1.32,.78,2.96,0,4.28l-8.34,14.22c-.83,1.42-2.35,2.29-4,2.29h-14.04l8.52-14.99c1.33-2.28,1.33-5.09,0-7.37l-8.52-14.99h14.07m0-1.54h-14.19c-.81,0-1.46,.65-1.46,1.46,0,.26,.07,.52,.2,.74l8.57,15.07c1.06,1.8,1.06,4.04,0,5.84l-8.57,15.07c-.41,.7-.17,1.59,.52,2,.22,.13,.48,.2,.74,.2h14.19c2.19,0,4.22-1.16,5.33-3.05l8.34-14.22c1.05-1.8,1.05-4.03,0-5.84l-8.34-14.22c-1.11-1.89-3.14-3.05-5.33-3.05Z"/><path d="M205.46,116.77c.39-.32,.69-.58,.92-.8,.21-.2,.4-.43,.57-.67,.14-.2,.22-.44,.23-.69,.01-.17-.04-.34-.14-.48-.11-.13-.28-.19-.44-.18-.18,0-.35,.07-.47,.2-.11,.16-.17,.34-.17,.54h-.81c0-.4,.15-.79,.43-1.07,.28-.25,.65-.38,1.03-.37,.39-.03,.78,.1,1.07,.36,.25,.25,.38,.6,.36,.95,0,.32-.09,.63-.25,.89-.16,.27-.35,.52-.57,.74-.22,.21-.5,.46-.85,.75h1.77v.7h-2.96v-.62l.29-.28Z"/><path d="M208.81,113.71c.39-.34,.98-.34,1.37,0,.19,.19,.28,.45,.27,.71,0,.54-.44,.98-.98,.98-.24,0-.48-.09-.66-.25-.19-.19-.28-.46-.27-.72-.01-.26,.08-.52,.27-.71Zm.35,.71c0,.32,.11,.48,.33,.48,.1,0,.19-.04,.25-.12,.07-.11,.1-.23,.09-.36,0-.31-.11-.47-.34-.47s-.33,.16-.33,.47h0Zm3.21-.9l-2.36,4.2h-.81l2.35-4.2h.82Zm-.95,2.58c.19-.17,.43-.26,.69-.25,.25-.01,.5,.08,.68,.25,.35,.42,.35,1.02,0,1.44-.18,.17-.43,.27-.68,.26-.5,.03-.92-.34-.96-.84,0-.05,0-.09,0-.14-.01-.27,.09-.53,.29-.72h-.02Zm.34,.72c0,.32,.11,.48,.34,.48s.34-.16,.34-.48-.11-.47-.34-.47-.32,.16-.32,.47h-.02Z"/><path class="ba" d="M206.39,96.86c1.64,0,3.17,.87,4,2.29l8.32,14.23c.78,1.32,.78,2.96,0,4.28l-8.32,14.22c-.83,1.42-2.35,2.29-4,2.29h-14.06l8.52-14.99c1.33-2.28,1.33-5.09,0-7.37l-8.52-14.99h14.07m0-1.54h-14.19c-.81,0-1.46,.65-1.46,1.46,0,.26,.07,.52,.2,.74l8.57,15.07c1.06,1.8,1.06,4.04,0,5.84l-8.57,15.07c-.41,.7-.17,1.59,.52,2,.22,.13,.48,.2,.74,.2h14.19c2.19,0,4.22-1.16,5.33-3.05l8.34-14.22c1.05-1.8,1.05-4.03,0-5.84l-8.34-14.22c-1.11-1.89-3.14-3.05-5.33-3.05h0Z"/><path class="bc" d="M348.54,115.6c0-1.01-.27-2-.77-2.88l-8.36-14.49c-1.03-1.78-2.93-2.88-4.99-2.88h-79.78c-2.06,0-3.96,1.1-4.99,2.88l-8.37,14.49c-1.02,1.78-1.02,3.98,0,5.76l8.37,14.49c1.03,1.78,2.93,2.88,4.99,2.88h79.78c2.06,0,3.96-1.1,4.99-2.88l8.34-14.51c.51-.87,.78-1.85,.79-2.86Z"/><path class="bj" d="M289.6,116.96c.13,.1,.3,.15,.47,.14,.22,.01,.43-.11,.54-.31,.14-.34,.19-.71,.17-1.07-.1,.14-.23,.24-.39,.3-.17,.07-.35,.11-.54,.11-.24,0-.48-.05-.7-.16-.21-.11-.38-.28-.49-.48-.13-.24-.19-.5-.18-.77-.02-.4,.13-.78,.4-1.07,.29-.27,.68-.41,1.07-.4,.47-.05,.94,.15,1.22,.54,.27,.51,.4,1.08,.36,1.66,0,.43-.04,.87-.14,1.29-.07,.3-.23,.57-.47,.77-.26,.19-.58,.28-.9,.26-.27,0-.53-.05-.77-.18-.2-.1-.37-.26-.48-.46-.11-.19-.17-.4-.19-.62h.81c.01,.17,.09,.33,.22,.45Zm.92-1.7c.13-.15,.19-.34,.18-.54,0-.2-.06-.39-.19-.54-.14-.14-.34-.21-.54-.19-.2-.02-.4,.06-.54,.2-.25,.31-.25,.76,0,1.07,.14,.14,.34,.21,.54,.2,.21,.02,.41-.06,.55-.21h0Z"/><path class="bj" d="M292.33,114.48c0-.21,.05-.42,.17-.59,.12-.19,.3-.34,.5-.43,.53-.21,1.12-.21,1.64,0,.21,.09,.38,.24,.5,.43,.11,.18,.17,.38,.17,.59,0,.21-.05,.41-.16,.58-.11,.17-.26,.3-.44,.39,.22,.09,.4,.24,.54,.43,.13,.19,.2,.42,.19,.66,0,.25-.07,.51-.21,.72-.14,.21-.34,.37-.57,.47-.51,.21-1.09,.21-1.61,0-.23-.1-.43-.26-.57-.47-.14-.21-.21-.46-.21-.72,0-.24,.06-.47,.19-.66,.13-.19,.32-.34,.54-.42-.4-.15-.67-.54-.66-.97Zm.93,1.52c-.15,.13-.23,.31-.21,.5,0,.19,.07,.37,.21,.5,.16,.13,.36,.2,.57,.19,.21,.01,.41-.06,.56-.19,.14-.13,.21-.31,.2-.49,.01-.19-.07-.37-.21-.5-.15-.12-.34-.18-.54-.18-.21-.02-.42,.05-.58,.17h0Zm1.07-1.86c-.13-.12-.31-.18-.49-.17-.18-.01-.35,.05-.48,.17-.13,.12-.19,.29-.18,.47,0,.17,.06,.33,.19,.43,.13,.12,.3,.17,.48,.17,.17,0,.34-.05,.48-.17,.12-.11,.19-.27,.19-.44,0-.18-.07-.34-.2-.46h.02Z"/><path class="bj" d="M296.26,113.74c.4-.47,1.11-.53,1.58-.13,.47,.4,.53,1.11,.13,1.58s-1.11,.53-1.58,.13c-.25-.21-.39-.53-.39-.85-.01-.27,.08-.53,.27-.72Zm.36,.72c0,.32,.11,.48,.33,.48,.1,0,.19-.04,.25-.12,.07-.11,.1-.23,.09-.36,0-.32-.11-.48-.34-.48s-.33,.16-.33,.48h0Zm3.27-.91l-2.38,4.25h-.82l2.38-4.25h.83Zm-.96,2.6c.19-.17,.44-.27,.7-.26,.26-.01,.5,.08,.69,.26,.35,.42,.35,1.03,0,1.45-.4,.34-.99,.34-1.39,0-.36-.42-.36-1.03,0-1.45h0Zm.34,.73c0,.32,.12,.48,.35,.48s.34-.16,.34-.48-.11-.48-.34-.48-.35,.16-.35,.48h0Z"/><path class="bh" d="M348.54,66.56c0-1.02-.28-2.01-.79-2.89l-8.34-14.46c-1.03-1.78-2.93-2.88-4.99-2.88h-79.78c-2.06,0-3.96,1.1-4.99,2.88l-8.37,14.46c-1.02,1.78-1.02,3.98,0,5.76l8.37,14.49c1.03,1.78,2.93,2.88,4.99,2.88h79.78c2.06,0,3.96-1.1,4.99-2.88l8.34-14.48c.51-.87,.79-1.87,.79-2.88Z"/><path class="bj" d="M289.6,67.95c.13,.1,.3,.15,.47,.14,.22,.01,.43-.11,.54-.31,.14-.34,.19-.71,.17-1.07-.1,.14-.23,.24-.39,.3-.17,.07-.35,.11-.54,.11-.24,0-.48-.05-.7-.16-.21-.11-.38-.28-.49-.48-.13-.24-.19-.5-.18-.77-.02-.4,.13-.78,.4-1.07,.29-.27,.68-.41,1.07-.4,.47-.05,.94,.15,1.22,.54,.27,.51,.4,1.08,.36,1.66,0,.43-.04,.87-.14,1.29-.07,.3-.23,.57-.47,.77-.26,.19-.58,.28-.9,.26-.27,0-.53-.05-.77-.18-.2-.1-.37-.26-.48-.46-.11-.19-.17-.4-.19-.62h.81c.01,.17,.09,.33,.22,.45Zm.92-1.7c.13-.15,.19-.34,.18-.54,0-.2-.06-.39-.19-.54-.14-.14-.34-.21-.54-.19-.2-.02-.4,.06-.54,.2-.25,.31-.25,.76,0,1.07,.14,.14,.34,.21,.54,.2,.21,.02,.41-.07,.55-.22h0Z"/><path class="bj" d="M292.33,65.45c0-.21,.05-.42,.17-.59,.12-.19,.3-.34,.5-.43,.53-.21,1.12-.21,1.64,0,.21,.09,.38,.24,.5,.43,.11,.18,.17,.38,.17,.59,0,.21-.05,.41-.16,.58-.11,.17-.26,.3-.44,.39,.22,.09,.4,.24,.54,.43,.13,.19,.2,.42,.19,.66,0,.26-.07,.51-.21,.72-.14,.21-.34,.37-.57,.47-.51,.21-1.09,.21-1.61,0-.23-.1-.43-.26-.57-.47-.14-.21-.22-.46-.21-.72,0-.24,.06-.47,.19-.66,.13-.19,.32-.34,.54-.42-.4-.15-.67-.54-.66-.97Zm.93,1.52c-.15,.13-.23,.31-.21,.5,0,.19,.07,.37,.21,.5,.16,.13,.36,.2,.57,.19,.21,.01,.41-.06,.56-.19,.14-.13,.21-.31,.2-.49,.01-.19-.07-.37-.21-.5-.15-.12-.34-.18-.54-.18-.21-.01-.42,.05-.58,.17Zm1.07-1.86c-.13-.12-.31-.18-.49-.17-.18-.01-.35,.05-.48,.17-.13,.12-.19,.29-.18,.47,0,.17,.06,.33,.19,.44,.13,.11,.3,.17,.48,.16,.17,0,.34-.05,.48-.17,.12-.11,.19-.27,.19-.44,0-.18-.07-.34-.2-.46h.02Z"/><path class="bj" d="M296.26,64.74c.4-.47,1.11-.53,1.58-.13,.47,.4,.53,1.11,.13,1.58s-1.11,.53-1.58,.13c-.25-.21-.39-.53-.39-.85-.01-.27,.08-.53,.27-.72Zm.36,.72c0,.32,.11,.48,.33,.48,.1,0,.19-.04,.25-.12,.07-.11,.1-.23,.09-.36,0-.32-.11-.47-.34-.47s-.33,.13-.33,.45v.02Zm3.27-.91l-2.38,4.25h-.82l2.38-4.25h.83Zm-.96,2.6c.19-.17,.44-.27,.7-.26,.26-.01,.5,.08,.69,.26,.35,.42,.35,1.03,0,1.45-.4,.34-.99,.34-1.39,0-.36-.42-.36-1.03,0-1.45h0Zm.34,.73c0,.32,.12,.48,.35,.48s.34-.16,.34-.48-.11-.48-.34-.48-.35,.14-.35,.46v.02Z"/><path d="M363.36,67.75c.38-.32,.69-.58,.92-.8,.22-.2,.41-.43,.57-.67,.14-.2,.22-.44,.22-.69,.01-.17-.04-.34-.14-.48-.11-.13-.28-.19-.44-.18-.18-.01-.35,.06-.46,.2-.11,.15-.17,.34-.17,.54h-.82c0-.4,.15-.78,.43-1.07,.28-.25,.65-.38,1.03-.37,.39-.03,.78,.1,1.07,.36,.25,.25,.38,.6,.36,.95,0,.32-.09,.62-.25,.89-.16,.27-.35,.52-.58,.74-.21,.21-.5,.46-.85,.75h1.77v.7h-2.97v-.62l.29-.28Z"/><path d="M366.7,64.68c.19-.17,.44-.27,.69-.26,.5-.03,.93,.35,.95,.85,0,.04,0,.08,0,.12,.02,.27-.08,.53-.27,.72-.18,.17-.43,.27-.69,.26-.56-.03-.98-.51-.95-1.07,.01-.23,.11-.45,.26-.62Zm.35,.71c0,.32,.11,.48,.33,.48,.1,0,.19-.04,.25-.12,.07-.11,.1-.23,.09-.36,0-.31-.11-.47-.34-.47s-.33,.16-.33,.47Zm3.21-.9l-2.36,4.2h-.82l2.35-4.2h.82Zm-.95,2.58c.19-.17,.44-.26,.69-.25,.25,0,.5,.08,.68,.25,.35,.42,.35,1.02,0,1.44-.18,.17-.43,.27-.68,.26-.26,.01-.5-.08-.69-.26-.36-.41-.36-1.03,0-1.44Zm.34,.72c0,.32,.11,.48,.34,.48s.34-.16,.34-.48-.11-.47-.34-.47-.29,.16-.29,.47h-.04Z"/><path class="bd" d="M364.28,47.84c1.64,0,3.17,.87,4,2.29l8.34,14.22c.77,1.32,.77,2.96,0,4.28l-8.34,14.22c-.83,1.42-2.35,2.29-4,2.29h-14.06l8.52-14.99c1.33-2.28,1.33-5.09,0-7.37l-8.52-14.99h14.06m0-1.54h-14.19c-.81-.02-1.48,.62-1.5,1.43,0,.29,.07,.57,.23,.82l8.57,15.07c1.05,1.8,1.05,4.03,0,5.84l-8.57,15.07c-.41,.7-.17,1.59,.52,2,.22,.13,.48,.2,.74,.2h14.19c2.19,0,4.22-1.16,5.32-3.05l8.34-14.22c1.05-1.8,1.05-4.03,0-5.84l-8.34-14.22c-1.11-1.89-3.13-3.05-5.32-3.05v-.04Z"/><path d="M363.36,116.77c.38-.32,.69-.58,.92-.8,.22-.2,.41-.43,.57-.67,.14-.2,.22-.44,.22-.69,.01-.17-.04-.34-.14-.48-.11-.13-.28-.19-.44-.18-.18-.01-.35,.06-.46,.2-.11,.15-.17,.34-.17,.54h-.82c0-.4,.15-.78,.43-1.07,.28-.25,.65-.38,1.03-.37,.39-.03,.78,.1,1.07,.36,.25,.25,.38,.6,.36,.95,0,.32-.09,.62-.25,.89-.16,.27-.35,.52-.58,.74-.21,.21-.5,.46-.85,.75h1.77v.7h-2.97v-.62l.29-.28Z"/><path d="M366.7,113.71c.19-.17,.44-.27,.69-.26,.5-.03,.93,.35,.95,.85,0,.04,0,.08,0,.12,.02,.27-.08,.53-.27,.72-.18,.17-.43,.27-.69,.26-.5,.03-.92-.34-.96-.84,0-.05,0-.09,0-.14-.02-.26,.08-.52,.26-.71Zm.35,.71c0,.32,.11,.48,.33,.48,.1,0,.19-.04,.25-.12,.07-.11,.1-.23,.09-.36,0-.31-.11-.47-.34-.47-.22,0-.33,.16-.33,.47h0Zm3.21-.9l-2.33,4.22h-.82l2.35-4.2,.8-.03Zm-.95,2.58c.19-.17,.44-.26,.69-.25,.25,0,.5,.08,.68,.25,.35,.42,.35,1.02,0,1.44-.18,.17-.43,.27-.68,.26-.26,.01-.5-.08-.69-.26-.36-.41-.36-1.03,0-1.44Zm.34,.72c0,.32,.11,.48,.34,.48s.34-.16,.34-.48-.11-.47-.34-.47-.29,.16-.29,.47h-.04Z"/><path class="be" d="M364.28,96.86c1.64,0,3.17,.87,4,2.29l8.34,14.22c.77,1.32,.77,2.96,0,4.28l-8.34,14.22c-.83,1.42-2.35,2.29-4,2.29h-14.06l8.52-14.99c1.33-2.28,1.33-5.1,0-7.37l-8.52-14.99h14.06m0-1.54h-14.19c-.81,0-1.47,.66-1.46,1.47,0,.26,.07,.51,.2,.74l8.57,15.07c1.05,1.8,1.05,4.03,0,5.84l-8.57,15.07c-.41,.7-.17,1.59,.52,2,.22,.13,.48,.2,.74,.2h14.19c2.19,0,4.22-1.16,5.32-3.05l8.34-14.17c1.05-1.8,1.05-4.03,0-5.84l-8.34-14.22c-1.11-1.89-3.13-3.05-5.32-3.05v-.05Z"/><path class="bm" d="M363.27,306.02v-43.87c0-19.81-16.06-31.65-35.87-31.65h-5.89"/><line class="bm" x1="92.85" y1="305.98" x2="92.85" y2="243.35"/><line class="bm" x1="92.85" y1="218.22" x2="92.85" y2="151.95"/><line class="bm" x1="116.46" y1="230.07" x2="135.64" y2="230.07"/><path class="bi" d="M407.14,31.65c3.57,.01,6.46,2.91,6.46,6.48v105.76c0,3.58-2.9,6.48-6.48,6.48H56.75c-3.58,0-6.48-2.91-6.48-6.48V38.13c0-3.58,2.9-6.47,6.48-6.48H407.14m0-.64H56.75c-3.93,0-7.12,3.19-7.12,7.12v105.76c0,3.93,3.19,7.12,7.12,7.12H407.14c3.93,0,7.12-3.19,7.12-7.12V38.13c0-3.93-3.18-7.12-7.12-7.13h0Z"/><path class="bf" d="M312.57,170.82c4.34,0,7.86,3.51,7.87,7.84h0v103.03c0,4.33-3.52,7.83-7.84,7.84H144.12c-4.33,0-7.83-3.51-7.84-7.84v-103.03c0-4.33,3.51-7.84,7.84-7.84h168.45m0-.64H144.12c-4.69,0-8.48,3.8-8.48,8.49v103.03c0,4.68,3.8,8.47,8.48,8.47h168.45c4.68,0,8.48-3.8,8.48-8.48h0v-103.01c0-4.69-3.8-8.48-8.48-8.49Z"/><path class="bg" d="M374.12,308.37c5.85,.02,11.27,3.12,14.24,8.16l23.02,39.27c2.82,4.81,2.82,10.76,0,15.57l-23.02,39.27c-2.98,5.04-8.39,8.14-14.24,8.16h-39.18c-1.94,0-3.5-1.58-3.5-3.52,0-.62,.17-1.23,.48-1.77l23.69-41.61c3.01-5.14,3.01-11.51,0-16.65l-23.7-41.62c-.98-1.67-.42-3.82,1.25-4.8,.54-.31,1.15-.48,1.77-.48h39.18m0-.54h-39.18c-2.23,0-4.04,1.81-4.04,4.04,0,.72,.19,1.43,.56,2.05l23.69,41.62c2.92,4.97,2.92,11.14,0,16.11l-23.69,41.61c-1.13,1.92-.49,4.4,1.44,5.53,.62,.36,1.33,.56,2.05,.56h39.18c6.05,0,11.65-3.21,14.7-8.43l23.02-39.27c2.92-4.97,2.92-11.14,0-16.11l-23.02-39.27c-3.06-5.22-8.65-8.43-14.7-8.43h0Z"/></svg>