<?xml version="1.0" encoding="UTF-8"?><svg id="a" xmlns="http://www.w3.org/2000/svg" viewBox="0 0 29.08 23.08"><path d="M29,23.08h-11.37c-.04-.25-.05-.46,.17-.67,.72-.67,1.41-1.36,2.11-2.03,.19-.18,.28-.38,.28-.64,0-4.36,0-8.72,0-13.09,0-.02,0-.04-.04-.08-.03,.06-.06,.13-.08,.19-.81,2.06-1.62,4.11-2.43,6.17-1.29,3.28-2.58,6.56-3.87,9.84-.08,.19-.17,.25-.38,.28-.47,.06-.69-.13-.88-.56-1.53-3.39-3.09-6.77-4.64-10.15-.86-1.88-1.72-3.75-2.58-5.63-.02-.05-.05-.09-.1-.2,0,.13-.01,.2-.01,.27,0,3.47,0,6.95,0,10.42,0,.17,0,.33-.01,.5-.01,.39,.11,.74,.35,1.04,.99,1.2,1.98,2.41,2.98,3.6,.18,.21,.16,.42,.15,.67H.02c-.04-.26-.03-.48,.16-.71,1-1.18,1.98-2.38,2.96-3.57,.26-.31,.36-.68,.32-1.09,0-.08-.01-.17-.01-.25,0-4.26,0-8.52,0-12.77,0-.28-.09-.53-.26-.75-.78-.94-1.56-1.87-2.34-2.81-.09-.11-.17-.24-.28-.33C.32,.55,.34,.3,.38,.02h.23c2.66,0,5.31,0,7.97,0,.17,0,.25,.06,.32,.21,1.17,2.59,2.36,5.17,3.53,7.75,.93,2.04,1.85,4.07,2.78,6.11,.03,.06,.06,.11,.1,.19,.21-.53,.42-1.03,.62-1.52,.45-1.11,.89-2.22,1.34-3.34,1.18-2.94,2.36-5.88,3.54-8.81,.08-.19,.12-.45,.26-.55,.14-.1,.39-.03,.59-.03,2.39,0,4.77,0,7.16,0h.24c.07,.3,.01,.52-.22,.73-.73,.66-1.43,1.35-2.13,2.04-.12,.12-.2,.33-.2,.5,0,5.44,0,10.89,0,16.33,0,.06,0,.11,0,.17-.02,.22,.07,.4,.23,.56,.7,.68,1.38,1.37,2.09,2.03,.22,.21,.24,.43,.2,.7Z"/></svg>