<svg xmlns="http://www.w3.org/2000/svg" xmlns:xlink="http://www.w3.org/1999/xlink" width="285.854" height="252.456" viewBox="0 0 285.854 252.456">
  <defs>
    <clipPath id="clip-path">
      <path id="Path_182" data-name="Path 182" d="M176.329,1916.013l-26.468-15.283a10.49,10.49,0,0,1-5.273-9.12v-30.566a10.559,10.559,0,0,1,5.273-9.119l26.468-15.283a10.886,10.886,0,0,1,5.273-1.39,10.168,10.168,0,0,1,5.272,1.39l26.469,15.283a10.487,10.487,0,0,1,5.272,9.119v30.566a10.564,10.564,0,0,1-5.272,9.12l-26.469,15.283a10.524,10.524,0,0,1-10.545,0m-.82-80.8L149.041,1850.5a12.165,12.165,0,0,0-6.092,10.545v30.566a12.161,12.161,0,0,0,6.092,10.545l26.468,15.283a12.2,12.2,0,0,0,6.093,1.638,11.842,11.842,0,0,0,6.092-1.638l26.468-15.283a12.163,12.163,0,0,0,6.092-10.545v-30.566a12.167,12.167,0,0,0-6.092-10.545l-26.468-15.282a12.2,12.2,0,0,0-12.185,0" fill="none"/>
    </clipPath>
    <linearGradient id="linear-gradient" x1="-5.805" y1="81.991" x2="-5.799" y2="81.991" gradientUnits="objectBoundingBox">
      <stop offset="0" stop-color="#fe8f90"/>
      <stop offset="0.52" stop-color="#956ec1"/>
      <stop offset="0.81" stop-color="#605dda"/>
      <stop offset="0.84" stop-color="#5d5ad5"/>
      <stop offset="0.87" stop-color="#5353c6"/>
      <stop offset="0.91" stop-color="#4347ad"/>
      <stop offset="0.95" stop-color="#2d368a"/>
      <stop offset="0.99" stop-color="#10215e"/>
      <stop offset="1" stop-color="#06194e"/>
      <stop offset="1" stop-color="#05184d"/>
      <stop offset="1" stop-color="#011546"/>
      <stop offset="1" stop-color="#001444"/>
    </linearGradient>
    <clipPath id="clip-path-2">
      <path id="Path_183" data-name="Path 183" d="M170.986,1860.688a19.09,19.09,0,0,0-5.2,26.469l1.39-.783a1.235,1.235,0,0,0,.32-.215,16.935,16.935,0,0,1-2.779-12.824,16.756,16.756,0,0,1,7.089-11.08,17.212,17.212,0,0,1,24.048,23.87,16.53,16.53,0,0,1-9.263,6.732,17.252,17.252,0,0,1-14.321-2.03l-1,1.745a19.087,19.087,0,1,0-.285-31.884" fill="none"/>
    </clipPath>
    <linearGradient id="linear-gradient-2" x1="-11.485" y1="166.67" x2="-11.475" y2="166.67" xlink:href="#linear-gradient"/>
    <clipPath id="clip-path-3">
      <path id="Path_184" data-name="Path 184" d="M179,1880.247l-5.486-5.487-1.461,1.425c2.031,1.995,4.026,3.954,6.056,5.914a1.166,1.166,0,0,0,1.96,0l10.758-10.759.321-.214c-.535-.569-1-1.033-1.5-1.531Z" fill="none"/>
    </clipPath>
    <linearGradient id="linear-gradient-3" x1="-28.846" y1="446.557" x2="-28.82" y2="446.557" xlink:href="#linear-gradient"/>
  </defs>
  <g id="Group_68" data-name="Group 68" transform="translate(-37.073 -1755.133)">
    <path id="Path_42" data-name="Path 42" d="M59.16,1809.389a6.659,6.659,0,0,1,3.278.891l15.318,8.834a6.582,6.582,0,0,1,3.278,5.7v17.706a6.582,6.582,0,0,1-3.278,5.7l-15.318,8.834a6.6,6.6,0,0,1-6.591,0l-15.318-8.834a6.582,6.582,0,0,1-3.278-5.7v-17.706a6.582,6.582,0,0,1,3.278-5.7l15.318-8.834a6.513,6.513,0,0,1,3.313-.891" fill="#fff"/>
    <path id="Path_43" data-name="Path 43" d="M59.16,1809.389a6.659,6.659,0,0,1,3.278.891l15.318,8.834a6.582,6.582,0,0,1,3.278,5.7v17.706a6.582,6.582,0,0,1-3.278,5.7l-15.318,8.834a6.6,6.6,0,0,1-6.591,0l-15.318-8.834a6.582,6.582,0,0,1-3.278-5.7v-17.706a6.582,6.582,0,0,1,3.278-5.7l15.318-8.834A6.513,6.513,0,0,1,59.16,1809.389Z" fill="none" stroke="#956ec1" stroke-miterlimit="10" stroke-width="0.356"/>
    <path id="Path_44" data-name="Path 44" d="M52.677,1832.972a1.476,1.476,0,0,1,.391,1.069V1836h-.855v-1.852a.967.967,0,0,0-.213-.6.786.786,0,0,0-.535-.215.725.725,0,0,0-.534.215.962.962,0,0,0-.214.6V1836h-.855v-1.852a.967.967,0,0,0-.213-.6.787.787,0,0,0-.535-.215.722.722,0,0,0-.534.215.962.962,0,0,0-.214.6V1836h-.855v-3.348h.855v.391a.976.976,0,0,1,.428-.32,1.478,1.478,0,0,1,.569-.107,1.257,1.257,0,0,1,.713.178,1.159,1.159,0,0,1,.463.463,1.159,1.159,0,0,1,.463-.463,1.4,1.4,0,0,1,1.675.178"/>
    <path id="Path_45" data-name="Path 45" d="M53.888,1832.117a.475.475,0,0,1,0-.712.516.516,0,0,1,.713,0,.476.476,0,0,1,0,.712.46.46,0,0,1-.357.143.745.745,0,0,1-.356-.143m.819,3.883h-.855v-3.349h.855Z"/>
    <path id="Path_46" data-name="Path 46" d="M56.061,1835.893a1.156,1.156,0,0,1-.534-.391,1.59,1.59,0,0,1-.214-.57h.855a.373.373,0,0,0,.178.32.774.774,0,0,0,.784.036.361.361,0,0,0,.142-.249.269.269,0,0,0-.178-.25,3.108,3.108,0,0,0-.534-.178,2.973,2.973,0,0,1-.606-.178,2.874,2.874,0,0,1-.427-.285.959.959,0,0,1-.178-.534.853.853,0,0,1,.178-.5,1.148,1.148,0,0,1,.463-.357,1.605,1.605,0,0,1,.712-.142,1.34,1.34,0,0,1,.962.285,1.062,1.062,0,0,1,.392.819h-.82a.428.428,0,0,0-.178-.321.724.724,0,0,0-.391-.106,1.278,1.278,0,0,0-.356.071.253.253,0,0,0-.072.392l.107.107a3.194,3.194,0,0,0,.534.178,3.962,3.962,0,0,1,.606.178,1.591,1.591,0,0,1,.392.285.96.96,0,0,1,.178.535,1.5,1.5,0,0,1-.142.534,1.156,1.156,0,0,1-.464.356,1.592,1.592,0,0,1-.712.143,2.351,2.351,0,0,1-.677-.179"/>
    <path id="Path_47" data-name="Path 47" d="M59.338,1835.893a.92.92,0,0,1-.5-.391,1.123,1.123,0,0,1-.214-.57h.855a.373.373,0,0,0,.178.32.768.768,0,0,0,.428.143.811.811,0,0,0,.391-.107.3.3,0,0,0,.143-.249.269.269,0,0,0-.178-.25,3.108,3.108,0,0,0-.534-.178,2.973,2.973,0,0,1-.606-.178,2.934,2.934,0,0,1-.428-.285.959.959,0,0,1-.178-.534,1.154,1.154,0,0,1,.143-.5.868.868,0,0,1,.5-.357,1.61,1.61,0,0,1,.713-.142,1.336,1.336,0,0,1,.961.285,1.063,1.063,0,0,1,.393.819h-.82a.376.376,0,0,0-.178-.321.517.517,0,0,0-.392-.106,1.292,1.292,0,0,0-.356.071.278.278,0,0,0-.107.25.27.27,0,0,0,.178.249,3.235,3.235,0,0,0,.535.178,4.029,4.029,0,0,1,.606.178,1.623,1.623,0,0,1,.391.285.874.874,0,0,1,.178.535,1.5,1.5,0,0,1-.142.534,1.163,1.163,0,0,1-.464.356,1.59,1.59,0,0,1-.712.143,2.777,2.777,0,0,1-.784-.179"/>
    <path id="Path_48" data-name="Path 48" d="M62.153,1832.117a.475.475,0,0,1,0-.712.514.514,0,0,1,.712,0,.475.475,0,0,1,0,.712.456.456,0,0,1-.356.143.626.626,0,0,1-.356-.143m.784,3.883h-.855v-3.349h.855Z"/>
    <path id="Path_49" data-name="Path 49" d="M64.4,1835.822a1.644,1.644,0,0,1-.606-.6,2.05,2.05,0,0,1-.213-.891,1.839,1.839,0,0,1,.213-.891,1.644,1.644,0,0,1,.606-.605,1.89,1.89,0,0,1,1.746,0,1.642,1.642,0,0,1,.605.605,2.04,2.04,0,0,1,.214.891,1.528,1.528,0,0,1-.25.891,1.5,1.5,0,0,1-.641.6,1.919,1.919,0,0,1-.89.214,1.731,1.731,0,0,1-.784-.214m1.283-.6a.7.7,0,0,0,.32-.321.961.961,0,0,0,.107-.534,1.117,1.117,0,0,0-.249-.748.858.858,0,0,0-1.211,0,1.227,1.227,0,0,0,0,1.46.733.733,0,0,0,.6.25.853.853,0,0,0,.428-.107"/>
    <path id="Path_50" data-name="Path 50" d="M70.453,1832.972a1.444,1.444,0,0,1,.356,1.069V1836H69.99v-1.852a.967.967,0,0,0-.213-.6.787.787,0,0,0-.535-.215.872.872,0,0,0-.57.215.968.968,0,0,0-.214.6V1836H67.6v-3.348h.855v.427a1.051,1.051,0,0,1,.428-.356,1.681,1.681,0,0,1,.57-.142,1.464,1.464,0,0,1,1,.391"/>
    <path id="Path_51" data-name="Path 51" d="M116.017,1796.03a6.3,6.3,0,0,1,3.278.891l15.318,8.834a6.583,6.583,0,0,1,3.277,5.7v17.706a6.583,6.583,0,0,1-3.277,5.7l-15.318,8.834a6.6,6.6,0,0,1-6.591,0l-15.319-8.834a6.583,6.583,0,0,1-3.277-5.7v-17.706a6.583,6.583,0,0,1,3.277-5.7l15.319-8.834a6.513,6.513,0,0,1,3.313-.891" fill="#fff"/>
    <path id="Path_52" data-name="Path 52" d="M116.017,1796.03a6.3,6.3,0,0,1,3.278.891l15.318,8.834a6.583,6.583,0,0,1,3.277,5.7v17.706a6.583,6.583,0,0,1-3.277,5.7l-15.318,8.834a6.6,6.6,0,0,1-6.591,0l-15.319-8.834a6.583,6.583,0,0,1-3.277-5.7v-17.706a6.583,6.583,0,0,1,3.277-5.7l15.319-8.834A6.513,6.513,0,0,1,116.017,1796.03Z" fill="none" stroke="#956ec1" stroke-miterlimit="10" stroke-width="0.356"/>
    <path id="Path_53" data-name="Path 53" d="M99.95,1819.364a1.508,1.508,0,0,1,1.319-.82,1.169,1.169,0,0,1,.605.143.986.986,0,0,1,.463.392v-1.568h.855v4.453h-.855v-.5a.9.9,0,0,1-.427.391,1.447,1.447,0,0,1-.677.143,1.521,1.521,0,0,1-.784-.214,1.558,1.558,0,0,1-.57-.6,2.074,2.074,0,0,1-.214-.927,4.317,4.317,0,0,1,.285-.89m2.316.392a.693.693,0,0,0-.321-.321.905.905,0,0,0-.854,0,.693.693,0,0,0-.321.321,1.306,1.306,0,0,0-.143.534,1.007,1.007,0,0,0,.143.535.782.782,0,0,0,.321.356.948.948,0,0,0,.427.107.849.849,0,0,0,.427-.107.92.92,0,0,0,.321-.321,1.481,1.481,0,0,0,0-1.1"/>
    <path id="Path_54" data-name="Path 54" d="M107.111,1820.54h-2.458a.836.836,0,0,0,.249.569.784.784,0,0,0,.535.214.668.668,0,0,0,.676-.392h.927a1.413,1.413,0,0,1-.571.784,1.671,1.671,0,0,1-1,.321,1.784,1.784,0,0,1-.855-.214,1.644,1.644,0,0,1-.6-.606,2.035,2.035,0,0,1-.215-.891,2.073,2.073,0,0,1,.215-.926,1.649,1.649,0,0,1,.6-.605,1.888,1.888,0,0,1,1.745,0,1.265,1.265,0,0,1,.571.57,1.794,1.794,0,0,1,.213.855,1.012,1.012,0,0,1-.035.321m-.82-.571a.642.642,0,0,0-.249-.534.81.81,0,0,0-.57-.214.964.964,0,0,0-.534.178.758.758,0,0,0-.25.535Z"/>
    <path id="Path_55" data-name="Path 55" d="M107.752,1819.364a1.333,1.333,0,0,1,.57-.606,1.483,1.483,0,0,1,1.39-.071.986.986,0,0,1,.463.392v-1.568h.854v4.453h-.854v-.5a.906.906,0,0,1-.428.391,1.4,1.4,0,0,1-.641.143,1.524,1.524,0,0,1-.784-.214,1.543,1.543,0,0,1-.57-.6,2.088,2.088,0,0,1-.214-.927,2.047,2.047,0,0,1,.214-.89m2.316.392a.693.693,0,0,0-.321-.321.954.954,0,0,0-.428-.107.848.848,0,0,0-.427.107.7.7,0,0,0-.32.321.953.953,0,0,0-.107.534,1.418,1.418,0,0,0,.107.535.785.785,0,0,0,.32.356.954.954,0,0,0,.427.107.834.834,0,0,0,.749-.463,1.394,1.394,0,0,0,0-1.069"/>
    <path id="Path_56" data-name="Path 56" d="M111.92,1818.081a.515.515,0,0,1,0-.712.588.588,0,0,1,.748,0,.515.515,0,0,1,0,.712.591.591,0,0,1-.748,0m.784,3.883h-.855v-3.349h.855Z"/>
    <path id="Path_57" data-name="Path 57" d="M113.523,1819.364a1.56,1.56,0,0,1,.57-.606,1.793,1.793,0,0,1,.855-.213,1.855,1.855,0,0,1,1.033.32,1.473,1.473,0,0,1,.535.855h-.891a.656.656,0,0,0-.249-.356.866.866,0,0,0-.428-.143.845.845,0,0,0-.57.249,1.418,1.418,0,0,0,0,1.5.62.62,0,0,0,.57.25.653.653,0,0,0,.677-.428h.926a1.419,1.419,0,0,1-.57.855,1.692,1.692,0,0,1-1.033.32,1.794,1.794,0,0,1-.855-.213,1.338,1.338,0,0,1-.57-.606,1.968,1.968,0,0,1,0-1.781"/>
    <path id="Path_58" data-name="Path 58" d="M117.157,1819.364a1.475,1.475,0,0,1,.534-.606,1.532,1.532,0,0,1,.784-.214,1.3,1.3,0,0,1,.641.143,1.6,1.6,0,0,1,.463.392v-.463h.855v3.348h-.855v-.5a1.242,1.242,0,0,1-.463.391,1.441,1.441,0,0,1-.676.143,1.519,1.519,0,0,1-.784-.214,1.254,1.254,0,0,1-.535-.6,2.088,2.088,0,0,1-.214-.927,2.809,2.809,0,0,1,.25-.89m2.28.392a.693.693,0,0,0-.321-.321.905.905,0,0,0-.854,0,.693.693,0,0,0-.321.321,1.306,1.306,0,0,0-.143.534,1.007,1.007,0,0,0,.143.535.782.782,0,0,0,.321.356.948.948,0,0,0,.427.107.849.849,0,0,0,.427-.107.92.92,0,0,0,.321-.321,1.206,1.206,0,0,0,0-1.1"/>
    <path id="Path_59" data-name="Path 59" d="M122.251,1819.292v1.6a.519.519,0,0,0,.071.249.387.387,0,0,0,.285.071H123v.713h-.535a.934.934,0,0,1-1.069-1.033v-1.6h-.427v-.676h.391v-.819h.856v.819h.747v.676Z"/>
    <path id="Path_60" data-name="Path 60" d="M123.641,1818.081a.515.515,0,1,1,.356.143.624.624,0,0,1-.356-.143m.784,3.883h-.855v-3.349h.855Z"/>
    <path id="Path_61" data-name="Path 61" d="M125.885,1821.786a1.643,1.643,0,0,1-.606-.6,2.05,2.05,0,0,1-.213-.891,1.839,1.839,0,0,1,.213-.891,1.644,1.644,0,0,1,.606-.605,1.89,1.89,0,0,1,1.746,0,1.642,1.642,0,0,1,.6.605,2.041,2.041,0,0,1,.214.891,1.826,1.826,0,0,1-.214.891,1.5,1.5,0,0,1-.641.6,1.927,1.927,0,0,1-.891.214,1.754,1.754,0,0,1-.819-.214m1.282-.641a.7.7,0,0,0,.321-.321,1.3,1.3,0,0,0-.143-1.282.858.858,0,0,0-1.211,0,1.119,1.119,0,0,0-.249.748,1.092,1.092,0,0,0,.249.713.735.735,0,0,0,.606.248.761.761,0,0,0,.427-.106"/>
    <path id="Path_62" data-name="Path 62" d="M131.941,1818.936a1.41,1.41,0,0,1,.356,1.033v1.96h-.855v-1.853a.97.97,0,0,0-.213-.605.786.786,0,0,0-.535-.214.725.725,0,0,0-.534.214.965.965,0,0,0-.214.605v1.853h-.855v-3.349h.855v.427a1.053,1.053,0,0,1,.428-.356,1.681,1.681,0,0,1,.57-.142,1.6,1.6,0,0,1,1,.427"/>
    <path id="Path_63" data-name="Path 63" d="M163.718,1755.311a6.308,6.308,0,0,1,3.278.89l15.318,8.836a6.581,6.581,0,0,1,3.277,5.7v17.7a6.58,6.58,0,0,1-3.277,5.7L167,1802.977a6.6,6.6,0,0,1-6.591,0l-15.319-8.836a6.58,6.58,0,0,1-3.277-5.7v-17.7a6.581,6.581,0,0,1,3.277-5.7L160.4,1756.2a6.522,6.522,0,0,1,3.313-.89" fill="#fff"/>
    <path id="Path_64" data-name="Path 64" d="M163.718,1755.311a6.308,6.308,0,0,1,3.278.89l15.318,8.836a6.581,6.581,0,0,1,3.277,5.7v17.7a6.58,6.58,0,0,1-3.277,5.7L167,1802.977a6.6,6.6,0,0,1-6.591,0l-15.319-8.836a6.58,6.58,0,0,1-3.277-5.7v-17.7a6.581,6.581,0,0,1,3.277-5.7L160.4,1756.2A6.522,6.522,0,0,1,163.718,1755.311Z" fill="none" stroke="#956ec1" stroke-miterlimit="10" stroke-width="0.356"/>
    <path id="Path_65" data-name="Path 65" d="M150.893,1778.645a1.467,1.467,0,0,1,.535-.6,1.519,1.519,0,0,1,.784-.215,1.18,1.18,0,0,1,.6.143.991.991,0,0,1,.463.392v-1.567h.855v4.453h-.855v-.5a.906.906,0,0,1-.427.392,1.447,1.447,0,0,1-.677.142,1.216,1.216,0,0,1-.784-.249,1.468,1.468,0,0,1-.534-.606,2.081,2.081,0,0,1,.035-1.781m2.316.392a.772.772,0,0,0-.321-.356.905.905,0,0,0-.854,0,.91.91,0,0,0-.321.32,1.482,1.482,0,0,0-.143.535,1,1,0,0,0,.143.534.777.777,0,0,0,.321.356.934.934,0,0,0,.427.107.838.838,0,0,0,.427-.107.918.918,0,0,0,.321-.32,1.394,1.394,0,0,0,0-1.069"/>
    <path id="Path_66" data-name="Path 66" d="M155.026,1777.362a.515.515,0,1,1,.356.143.509.509,0,0,1-.356-.143m.783,3.884h-.855V1777.9h.855Z"/>
    <path id="Path_67" data-name="Path 67" d="M158.054,1780.462l.855-2.565h.926l-1.247,3.349h-1.033l-1.247-3.349h.891Z"/>
    <path id="Path_68" data-name="Path 68" d="M163.362,1779.821H160.9a.84.84,0,0,0,.249.569.784.784,0,0,0,.535.214.761.761,0,0,0,.676-.392h.891a1.547,1.547,0,0,1-.535.784,1.662,1.662,0,0,1-1,.321,1.784,1.784,0,0,1-.855-.214,1.641,1.641,0,0,1-.6-.6,2.041,2.041,0,0,1-.214-.891,2.074,2.074,0,0,1,.214-.927,1.642,1.642,0,0,1,.6-.605,1.89,1.89,0,0,1,1.746,0,1.263,1.263,0,0,1,.57.57,1.8,1.8,0,0,1,.214.855c0,.107-.036.214-.036.321m-.855-.57a.641.641,0,0,0-.25-.535.81.81,0,0,0-.569-.214.967.967,0,0,0-.535.178.761.761,0,0,0-.249.535h1.6Z"/>
    <path id="Path_69" data-name="Path 69" d="M165.25,1778a1.17,1.17,0,0,1,.606-.143v.891h-.214a.935.935,0,0,0-.606.178,1.069,1.069,0,0,0-.214.641v1.674h-.855V1777.9h.855v.535a1.226,1.226,0,0,1,.428-.428"/>
    <path id="Path_70" data-name="Path 70" d="M166.96,1781.139a1.159,1.159,0,0,1-.534-.392,1.59,1.59,0,0,1-.214-.57h.855a.375.375,0,0,0,.178.321.562.562,0,0,0,.427.107.824.824,0,0,0,.392-.107.365.365,0,0,0,.143-.25.268.268,0,0,0-.178-.249,3.016,3.016,0,0,0-.535-.178,3.054,3.054,0,0,1-.6-.178,1.59,1.59,0,0,1-.392-.285.963.963,0,0,1-.178-.535.853.853,0,0,1,.178-.5,1.16,1.16,0,0,1,.463-.356,1.6,1.6,0,0,1,.712-.142,1.339,1.339,0,0,1,.962.285,1.061,1.061,0,0,1,.392.819h-.819a.429.429,0,0,0-.178-.321.722.722,0,0,0-.392-.107,1.041,1.041,0,0,0-.356.072.3.3,0,0,0-.143.249.27.27,0,0,0,.178.25,3.265,3.265,0,0,0,.535.178,3.888,3.888,0,0,1,.6.178,1.569,1.569,0,0,1,.392.285.957.957,0,0,1,.178.534.85.85,0,0,1-.178.5,1.16,1.16,0,0,1-.463.356,1.6,1.6,0,0,1-.713.143,1.041,1.041,0,0,1-.712-.107"/>
    <path id="Path_71" data-name="Path 71" d="M169.774,1777.362a.516.516,0,1,1,.356.143.454.454,0,0,1-.356-.143m.784,3.884H169.7V1777.9h.855Z"/>
    <path id="Path_72" data-name="Path 72" d="M172.375,1778.609v1.6a.651.651,0,0,0,.071.25.385.385,0,0,0,.285.071h.392v.713h-.535a.934.934,0,0,1-1.068-1.034v-1.6h-.392v-.676h.392v-.82h.855v.82h.748v.676Z"/>
    <path id="Path_73" data-name="Path 73" d="M176.935,1777.9l-2.066,4.916h-.891l.713-1.675-1.318-3.242h.926l.855,2.351.89-2.351Z"/>
    <path id="Path_74" data-name="Path 74" d="M232.224,1909.636a6.66,6.66,0,0,1,3.278.891l15.318,8.835a6.581,6.581,0,0,1,3.277,5.7v17.7a6.583,6.583,0,0,1-3.277,5.7L235.5,1957.3a6.6,6.6,0,0,1-6.591,0l-15.319-8.835a6.583,6.583,0,0,1-3.277-5.7v-17.7a6.581,6.581,0,0,1,3.277-5.7l15.319-8.835a6.515,6.515,0,0,1,3.313-.891" fill="#fff"/>
    <path id="Path_75" data-name="Path 75" d="M232.224,1909.636a6.66,6.66,0,0,1,3.278.891l15.318,8.835a6.581,6.581,0,0,1,3.277,5.7v17.7a6.583,6.583,0,0,1-3.277,5.7L235.5,1957.3a6.6,6.6,0,0,1-6.591,0l-15.319-8.835a6.583,6.583,0,0,1-3.277-5.7v-17.7a6.581,6.581,0,0,1,3.277-5.7l15.319-8.835A6.515,6.515,0,0,1,232.224,1909.636Z" fill="none" stroke="#956ec1" stroke-miterlimit="10" stroke-width="0.356"/>
    <path id="Path_76" data-name="Path 76" d="M218.758,1934.4H216.3a.84.84,0,0,0,.249.569.784.784,0,0,0,.535.214.761.761,0,0,0,.676-.392h.927a1.413,1.413,0,0,1-.571.784,1.668,1.668,0,0,1-1,.32,1.794,1.794,0,0,1-.855-.213,1.643,1.643,0,0,1-.605-.606,2.038,2.038,0,0,1-.214-.891,2.073,2.073,0,0,1,.214-.926,1.64,1.64,0,0,1,.605-.6,1.889,1.889,0,0,1,1.746,0,1.26,1.26,0,0,1,.57.569,1.8,1.8,0,0,1,.214.856.973.973,0,0,0-.036.321m-.855-.571a.64.64,0,0,0-.25-.534.653.653,0,0,0-.569-.178.959.959,0,0,0-.535.178.761.761,0,0,0-.249.534Z"/>
    <path id="Path_77" data-name="Path 77" d="M221.216,1935.82l-.677-1.033-.606,1.033h-.891l1.1-1.674-1.1-1.675H220l.677,1.033.605-1.033h.891l-1.1,1.675,1.1,1.674Z"/>
    <path id="Path_78" data-name="Path 78" d="M223.923,1932.578a1.41,1.41,0,0,1,.641-.142,1.518,1.518,0,0,1,.784.214,1.254,1.254,0,0,1,.535.6,2.041,2.041,0,0,1,.214.891,1.932,1.932,0,0,1-.214.891,1.467,1.467,0,0,1-.535.6,1.518,1.518,0,0,1-.784.214,1.307,1.307,0,0,1-.641-.143,1.608,1.608,0,0,1-.463-.391v2.066h-.819v-4.916h.855v.5a1.136,1.136,0,0,1,.427-.392m1.212,1.033a.886.886,0,0,0-.784-.463.83.83,0,0,0-.748.463.967.967,0,0,0-.107.535,1.434,1.434,0,0,0,.107.534.831.831,0,0,0,.748.464.862.862,0,0,0,.428-.107.783.783,0,0,0,.32-.357.962.962,0,0,0,.107-.534.858.858,0,0,0-.071-.535"/>
    <path id="Path_79" data-name="Path 79" d="M229.8,1934.4h-2.422a.837.837,0,0,0,.25.569.782.782,0,0,0,.534.214.761.761,0,0,0,.676-.392h.891a1.552,1.552,0,0,1-.534.784,1.671,1.671,0,0,1-1,.32,1.8,1.8,0,0,1-.855-.213,1.643,1.643,0,0,1-.6-.606,2.038,2.038,0,0,1-.214-.891,2.073,2.073,0,0,1,.214-.926,1.64,1.64,0,0,1,.6-.6,1.931,1.931,0,0,1,.891-.214,1.786,1.786,0,0,1,.855.214,1.551,1.551,0,0,1,.606.569,2.613,2.613,0,0,1,.106,1.177m-.854-.571a.64.64,0,0,0-.25-.534.654.654,0,0,0-.57-.178.956.956,0,0,0-.534.178.758.758,0,0,0-.25.534Z"/>
    <path id="Path_80" data-name="Path 80" d="M231.725,1932.578a1.169,1.169,0,0,1,.606-.142v.891h-.214a.928.928,0,0,0-.605.178,1.063,1.063,0,0,0-.214.641v1.674h-.855v-3.349h.855v.535a1.241,1.241,0,0,1,.427-.428"/>
    <path id="Path_81" data-name="Path 81" d="M232.936,1931.937a.5.5,0,1,1,.713,0,.456.456,0,0,1-.356.142.511.511,0,0,1-.357-.142m.784,3.883h-.855v-3.348h.855Z"/>
    <path id="Path_82" data-name="Path 82" d="M237.639,1934.4h-2.423a.837.837,0,0,0,.25.569.783.783,0,0,0,.534.214.763.763,0,0,0,.677-.392h.891a1.552,1.552,0,0,1-.534.784,1.675,1.675,0,0,1-1,.32,1.794,1.794,0,0,1-.855-.213,1.646,1.646,0,0,1-.606-.606,2.05,2.05,0,0,1-.213-.891,2.085,2.085,0,0,1,.213-.926,1.42,1.42,0,0,1,.606-.6,1.925,1.925,0,0,1,.891-.214,1.782,1.782,0,0,1,.854.214,1.544,1.544,0,0,1,.606.569,1.79,1.79,0,0,1,.214.856,1.134,1.134,0,0,0-.107.321m-.855-.571a.64.64,0,0,0-.25-.534.653.653,0,0,0-.569-.178.959.959,0,0,0-.535.178.761.761,0,0,0-.249.534Z"/>
    <path id="Path_83" data-name="Path 83" d="M241.094,1932.792a1.449,1.449,0,0,1,.357,1.069v1.959H240.6v-1.852a.968.968,0,0,0-.214-.6.783.783,0,0,0-.535-.215.725.725,0,0,0-.534.215.967.967,0,0,0-.213.6v1.852h-.856v-3.348h.856v.427a1.042,1.042,0,0,1,.427-.356,1.621,1.621,0,0,1,.57-.107,1.239,1.239,0,0,1,1,.356"/>
    <path id="Path_84" data-name="Path 84" d="M242.27,1933.22a1.56,1.56,0,0,1,.57-.606,1.783,1.783,0,0,1,.855-.214,1.856,1.856,0,0,1,1.033.321,1.454,1.454,0,0,1,.535.89h-.927a.649.649,0,0,0-.249-.356.875.875,0,0,0-.427-.142.843.843,0,0,0-.571.249,1.416,1.416,0,0,0,0,1.5.711.711,0,0,0,.571.25.654.654,0,0,0,.676-.463h.927a1.535,1.535,0,0,1-.535.854,1.689,1.689,0,0,1-1.033.321,1.783,1.783,0,0,1-.855-.214,1.331,1.331,0,0,1-.57-.6,1.961,1.961,0,0,1,0-1.781"/>
    <path id="Path_85" data-name="Path 85" d="M248.967,1934.4H246.51a.836.836,0,0,0,.249.569.782.782,0,0,0,.534.214.7.7,0,0,0,.677-.392h.926a1.416,1.416,0,0,1-.57.784,1.67,1.67,0,0,1-1,.32,1.8,1.8,0,0,1-.856-.213,1.651,1.651,0,0,1-.605-.606,2.052,2.052,0,0,1-.214-.891,2.086,2.086,0,0,1,.214-.926,1.648,1.648,0,0,1,.605-.6,1.931,1.931,0,0,1,.891-.214,1.783,1.783,0,0,1,.855.214,1.255,1.255,0,0,1,.57.569,1.79,1.79,0,0,1,.214.856.985.985,0,0,1-.036.321m-.819-.571a.64.64,0,0,0-.25-.534.652.652,0,0,0-.569-.178.956.956,0,0,0-.534.178.758.758,0,0,0-.25.534Z"/>
    <path id="Path_86" data-name="Path 86" d="M87.232,1858.836a6.659,6.659,0,0,1,3.278.89l15.319,8.835a6.583,6.583,0,0,1,3.277,5.7v17.706a6.58,6.58,0,0,1-3.277,5.7L90.51,1906.5a6.6,6.6,0,0,1-6.591,0L68.6,1897.666a6.578,6.578,0,0,1-3.277-5.7v-17.706a6.581,6.581,0,0,1,3.277-5.7l15.318-8.835a6.526,6.526,0,0,1,3.313-.89" fill="#fff"/>
    <path id="Path_87" data-name="Path 87" d="M87.232,1858.836a6.659,6.659,0,0,1,3.278.89l15.319,8.835a6.583,6.583,0,0,1,3.277,5.7v17.706a6.58,6.58,0,0,1-3.277,5.7L90.51,1906.5a6.6,6.6,0,0,1-6.591,0L68.6,1897.666a6.578,6.578,0,0,1-3.277-5.7v-17.706a6.581,6.581,0,0,1,3.277-5.7l15.318-8.835A6.526,6.526,0,0,1,87.232,1858.836Z" fill="none" stroke="#956ec1" stroke-miterlimit="10" stroke-width="0.356"/>
    <path id="Path_88" data-name="Path 88" d="M80.179,1884.663l.855-2.565h.891l-1.247,3.349H79.645l-1.211-3.349h.891Z"/>
    <path id="Path_89" data-name="Path 89" d="M82.458,1881.564a.5.5,0,0,1,.713-.712.5.5,0,0,1-.356.854.46.46,0,0,1-.357-.142m.784,3.883h-.854V1882.1h.854Z"/>
    <path id="Path_90" data-name="Path 90" d="M84.632,1885.34a.916.916,0,0,1-.5-.392,1.115,1.115,0,0,1-.213-.569h.854a.373.373,0,0,0,.178.32.768.768,0,0,0,.428.143.815.815,0,0,0,.392-.107.3.3,0,0,0,.142-.249.268.268,0,0,0-.178-.25,3.108,3.108,0,0,0-.534-.178,3.044,3.044,0,0,1-.606-.178,1.61,1.61,0,0,1-.392-.285.967.967,0,0,1-.178-.534.884.884,0,0,1,.606-.856,1.6,1.6,0,0,1,.712-.142,1.339,1.339,0,0,1,.962.285,1.065,1.065,0,0,1,.392.819h-.819a.431.431,0,0,0-.178-.321.8.8,0,0,0-.749-.035.291.291,0,0,0-.071.392l.107.107a3.174,3.174,0,0,0,.535.178,3.861,3.861,0,0,1,.6.178,1.584,1.584,0,0,1,.392.285.957.957,0,0,1,.178.535,1.477,1.477,0,0,1-.143.534,1.16,1.16,0,0,1-.463.356,1.589,1.589,0,0,1-.712.142,1.769,1.769,0,0,1-.748-.178"/>
    <path id="Path_91" data-name="Path 91" d="M87.41,1881.564a.517.517,0,0,1,0-.712.592.592,0,0,1,.749,0,.517.517,0,0,1,0,.712.592.592,0,0,1-.749,0m.784,3.883h-.855V1882.1h.855Z"/>
    <path id="Path_92" data-name="Path 92" d="M89.655,1885.305a1.647,1.647,0,0,1-.606-.606,2.049,2.049,0,0,1-.213-.89,1.834,1.834,0,0,1,.213-.891,1.646,1.646,0,0,1,.606-.606,1.887,1.887,0,0,1,1.745,0,1.638,1.638,0,0,1,.606.606,1.926,1.926,0,0,1,.214.891,1.822,1.822,0,0,1-.214.89,1.506,1.506,0,0,1-.641.606,1.938,1.938,0,0,1-.891.213,1.761,1.761,0,0,1-.819-.213m1.282-.642a.691.691,0,0,0,.321-.32.97.97,0,0,0,.107-.534.889.889,0,0,0-.25-.713.858.858,0,0,0-1.211,0,1.09,1.09,0,0,0-.249.713,1,1,0,0,0,.249.747.732.732,0,0,0,.606.25,1.174,1.174,0,0,0,.427-.143"/>
    <path id="Path_93" data-name="Path 93" d="M95.711,1882.419a1.444,1.444,0,0,1,.356,1.069v1.959h-.855v-1.853a.969.969,0,0,0-.213-.6.729.729,0,0,0-.535-.214.878.878,0,0,0-.57.214.97.97,0,0,0-.214.6v1.853h-.855V1882.1h.855v.428a1.051,1.051,0,0,1,.428-.356,1.66,1.66,0,0,1,.57-.143,1.429,1.429,0,0,1,1.033.392"/>
    <path id="Path_94" data-name="Path 94" d="M263.574,1857.09a6.659,6.659,0,0,1,3.277.891l15.319,8.835a6.581,6.581,0,0,1,3.277,5.7v17.7a6.583,6.583,0,0,1-3.277,5.7l-15.319,8.835a6.6,6.6,0,0,1-6.591,0l-15.318-8.835a6.581,6.581,0,0,1-3.277-5.7v-17.7a6.578,6.578,0,0,1,3.277-5.7l15.318-8.835a6.521,6.521,0,0,1,3.314-.891" fill="#fff"/>
    <path id="Path_95" data-name="Path 95" d="M263.574,1857.09a6.659,6.659,0,0,1,3.277.891l15.319,8.835a6.581,6.581,0,0,1,3.277,5.7v17.7a6.583,6.583,0,0,1-3.277,5.7l-15.319,8.835a6.6,6.6,0,0,1-6.591,0l-15.318-8.835a6.581,6.581,0,0,1-3.277-5.7v-17.7a6.578,6.578,0,0,1,3.277-5.7l15.318-8.835A6.521,6.521,0,0,1,263.574,1857.09Z" fill="none" stroke="#956ec1" stroke-miterlimit="10" stroke-width="0.356"/>
    <path id="Path_96" data-name="Path 96" d="M256.947,1876.612v1.6a.523.523,0,0,0,.071.25.387.387,0,0,0,.285.071h.393v.713h-.535a.934.934,0,0,1-1.068-1.034v-1.6H255.7v-.712h.393v-.784h.854v.82h.749v.712Z"/>
    <path id="Path_97" data-name="Path 97" d="M259.584,1876.042a1.167,1.167,0,0,1,.6-.142v.891h-.214a.719.719,0,0,0-.819.6v1.924H258.3v-3.349h.855v.535a.915.915,0,0,1,.428-.464"/>
    <path id="Path_98" data-name="Path 98" d="M260.723,1876.684a1.47,1.47,0,0,1,.535-.606,1.531,1.531,0,0,1,.784-.214,1.3,1.3,0,0,1,.641.143,1.6,1.6,0,0,1,.463.392v-.463H264v3.348h-.855v-.5a1.227,1.227,0,0,1-.463.392,1.4,1.4,0,0,1-.641.143,1.52,1.52,0,0,1-.784-.214,1.252,1.252,0,0,1-.535-.606,2.046,2.046,0,0,1-.213-.89,1.975,1.975,0,0,1,.213-.926m2.316.391a.885.885,0,0,0-.784-.463.949.949,0,0,0-.427.107.929.929,0,0,0-.321.321.9.9,0,0,0-.106.534,1.44,1.44,0,0,0,.106.535.794.794,0,0,0,.321.356.95.95,0,0,0,.427.107.93.93,0,0,0,.784-.463,1.068,1.068,0,0,0,0-1.034"/>
    <path id="Path_99" data-name="Path 99" d="M264.82,1876.684a1.639,1.639,0,0,1,.606-.606,1.819,1.819,0,0,1,1.888.107,1.444,1.444,0,0,1,.534.89h-.926a.513.513,0,0,0-.249-.356,1.019,1.019,0,0,0-.428-.143.846.846,0,0,0-.57.25,1.32,1.32,0,0,0-.213.748,1.4,1.4,0,0,0,.213.748.618.618,0,0,0,.57.25.654.654,0,0,0,.677-.463h.926a1.533,1.533,0,0,1-.534.854,1.689,1.689,0,0,1-1.033.321,1.783,1.783,0,0,1-.855-.214,1.643,1.643,0,0,1-.606-.6,1.961,1.961,0,0,1,0-1.781"/>
    <path id="Path_100" data-name="Path 100" d="M270.449,1879.249l-1.14-1.425v1.425h-.855V1874.8h.855v2.529l1.14-1.425h1.1l-1.461,1.71,1.5,1.674Z"/>
    <path id="Path_101" data-name="Path 101" d="M255.166,1883.274a1.169,1.169,0,0,1,.606-.142v.89h-.214a.721.721,0,0,0-.82.6v1.925h-.854V1883.2h.854v.5a.836.836,0,0,1,.428-.428"/>
    <path id="Path_102" data-name="Path 102" d="M259.4,1885.091h-2.422a.843.843,0,0,0,.249.57.79.79,0,0,0,.535.213.762.762,0,0,0,.676-.391h.891a1.419,1.419,0,0,1-.57.784,1.67,1.67,0,0,1-1,.32,1.792,1.792,0,0,1-.855-.213,1.654,1.654,0,0,1-.606-.606,2.05,2.05,0,0,1-.213-.891,1.83,1.83,0,0,1,.213-.89,1.647,1.647,0,0,1,.606-.606,1.922,1.922,0,0,1,.89-.214,1.784,1.784,0,0,1,.855.214,1.258,1.258,0,0,1,.57.57,1.783,1.783,0,0,1,.214.855.877.877,0,0,1-.036.285m-.855-.57a.639.639,0,0,0-.249-.534.654.654,0,0,0-.57-.178.956.956,0,0,0-.534.178.754.754,0,0,0-.25.534Z"/>
    <path id="Path_103" data-name="Path 103" d="M260.047,1883.915a1.543,1.543,0,0,1,.57-.6,1.819,1.819,0,0,1,1.888.107,1.445,1.445,0,0,1,.534.89h-.891a.81.81,0,0,0-.249-.356.64.64,0,0,0-.427-.107.708.708,0,0,0-.57.249,1.417,1.417,0,0,0,0,1.5.708.708,0,0,0,.57.249.653.653,0,0,0,.676-.463h.891a1.539,1.539,0,0,1-.534.855,1.7,1.7,0,0,1-1.033.321,1.8,1.8,0,0,1-.855-.214,1.333,1.333,0,0,1-.57-.606,2.038,2.038,0,0,1,0-1.817"/>
    <path id="Path_104" data-name="Path 104" d="M264.286,1886.338a1.654,1.654,0,0,1-.606-.606,2.05,2.05,0,0,1-.213-.89,1.834,1.834,0,0,1,.213-.891,1.654,1.654,0,0,1,.606-.606,1.968,1.968,0,0,1,1.781,0,1.654,1.654,0,0,1,.606.606,1.925,1.925,0,0,1,.214.891,1.523,1.523,0,0,1-.25.89,1.506,1.506,0,0,1-.641.606,1.938,1.938,0,0,1-.891.213,1.877,1.877,0,0,1-.819-.213m1.318-.641a.7.7,0,0,0,.321-.321.97.97,0,0,0,.107-.534,1.028,1.028,0,0,0-.25-.713.849.849,0,0,0-1.211,0,1.232,1.232,0,0,0,0,1.461.733.733,0,0,0,.6.249.689.689,0,0,0,.428-.142"/>
    <path id="Path_105" data-name="Path 105" d="M268.81,1883.274a1.169,1.169,0,0,1,.606-.142v.89H269.2a.933.933,0,0,0-.605.178,1.066,1.066,0,0,0-.214.642v1.674h-.855v-3.349h.855v.5a.906.906,0,0,1,.427-.392"/>
    <path id="Path_106" data-name="Path 106" d="M269.95,1883.916a1.464,1.464,0,0,1,.535-.606,1.518,1.518,0,0,1,.784-.214,1.178,1.178,0,0,1,.6.142.991.991,0,0,1,.463.392v-1.6h.855v4.489h-.819v-.5a.909.909,0,0,1-.428.392,1.393,1.393,0,0,1-.641.143,1.534,1.534,0,0,1-.784-.214,1.265,1.265,0,0,1-.534-.606,2.052,2.052,0,0,1-.214-.891,1.662,1.662,0,0,1,.178-.925m2.316.391a.777.777,0,0,0-.321-.356.95.95,0,0,0-.427-.107.83.83,0,0,0-.748.463.9.9,0,0,0-.107.534,1.414,1.414,0,0,0,.107.535.772.772,0,0,0,.321.356.948.948,0,0,0,.427.107.849.849,0,0,0,.427-.107.7.7,0,0,0,.321-.32,1.208,1.208,0,0,0,0-1.1"/>
    <path id="Path_107" data-name="Path 107" d="M78.184,1933.861a6.663,6.663,0,0,1,3.277.89l15.319,8.835a6.583,6.583,0,0,1,3.277,5.7v17.706a6.583,6.583,0,0,1-3.277,5.7l-15.319,8.834a6.6,6.6,0,0,1-6.59,0l-15.319-8.834a6.581,6.581,0,0,1-3.277-5.7v-17.706a6.581,6.581,0,0,1,3.277-5.7l15.319-8.835a6.523,6.523,0,0,1,3.313-.89" fill="#fff"/>
    <path id="Path_108" data-name="Path 108" d="M78.184,1933.861a6.663,6.663,0,0,1,3.277.89l15.319,8.835a6.583,6.583,0,0,1,3.277,5.7v17.706a6.583,6.583,0,0,1-3.277,5.7l-15.319,8.834a6.6,6.6,0,0,1-6.59,0l-15.319-8.834a6.581,6.581,0,0,1-3.277-5.7v-17.706a6.581,6.581,0,0,1,3.277-5.7l15.319-8.835A6.523,6.523,0,0,1,78.184,1933.861Z" fill="none" stroke="#956ec1" stroke-miterlimit="10" stroke-width="0.356"/>
    <path id="Path_109" data-name="Path 109" d="M68.779,1957.337a1.449,1.449,0,0,1,.356,1.069v1.96h-.819v-1.889a.965.965,0,0,0-.214-.605.783.783,0,0,0-.535-.214.87.87,0,0,0-.569.214.965.965,0,0,0-.214.605v1.853h-.855v-3.349h.855v.427a1.057,1.057,0,0,1,.427-.356,1.426,1.426,0,0,1,1.568.285"/>
    <path id="Path_110" data-name="Path 110" d="M73.018,1958.905H70.6a.843.843,0,0,0,.249.57.787.787,0,0,0,.534.213.762.762,0,0,0,.677-.391h.926a1.423,1.423,0,0,1-.569.784,1.671,1.671,0,0,1-1,.32,1.8,1.8,0,0,1-.855-.213,1.653,1.653,0,0,1-.606-.606,2.05,2.05,0,0,1-.213-.891,1.83,1.83,0,0,1,.213-.89,1.647,1.647,0,0,1,.606-.606,1.927,1.927,0,0,1,.891-.214,1.79,1.79,0,0,1,.855.214,1.261,1.261,0,0,1,.569.57,1.785,1.785,0,0,1,.215.855.664.664,0,0,0-.072.285m-.855-.57a.639.639,0,0,0-.249-.534.658.658,0,0,0-.57-.179.957.957,0,0,0-.534.179.754.754,0,0,0-.25.534Z"/>
    <path id="Path_111" data-name="Path 111" d="M74.657,1957.694v1.6a.652.652,0,0,0,.071.249.387.387,0,0,0,.285.071h.356v.713h-.534a.935.935,0,0,1-1.069-1.033v-1.6h-.392v-.713h.392v-.819h.891v.819h.712v.713Z"/>
    <path id="Path_112" data-name="Path 112" d="M80.642,1956.981l-1,3.349h-.926l-.606-2.315-.606,2.315h-.926l-1-3.349h.855l.605,2.565.641-2.565h.891l.641,2.529.606-2.529Z"/>
    <path id="Path_113" data-name="Path 113" d="M81.711,1960.187a1.636,1.636,0,0,1-.606-.6,2.038,2.038,0,0,1-.214-.891,1.819,1.819,0,0,1,.214-.89,1.632,1.632,0,0,1,.606-.606,1.888,1.888,0,0,1,1.745,0,1.647,1.647,0,0,1,.606.606,1.832,1.832,0,0,1,0,1.816,1.518,1.518,0,0,1-.641.606,1.941,1.941,0,0,1-.891.213,2.383,2.383,0,0,1-.819-.249m1.282-.641a.694.694,0,0,0,.321-.321.968.968,0,0,0,.107-.534,1.027,1.027,0,0,0-.25-.712.858.858,0,0,0-1.211,0,1.089,1.089,0,0,0-.249.712,1.184,1.184,0,0,0,.249.748.733.733,0,0,0,.605.25,2.055,2.055,0,0,0,.428-.143"/>
    <path id="Path_114" data-name="Path 114" d="M86.2,1957.088a1.169,1.169,0,0,1,.606-.142v.89h-.214a.72.72,0,0,0-.819.6v1.924h-.855v-3.349h.855v.535a1.087,1.087,0,0,1,.427-.463"/>
    <path id="Path_115" data-name="Path 115" d="M89.334,1960.33l-1.14-1.425v1.425h-.855v-4.453h.855v2.529l1.1-1.425h1.1l-1.461,1.674,1.5,1.675Z"/>
    <path id="Path_116" data-name="Path 116" d="M132.262,1908.924a6.3,6.3,0,0,1,3.277.891l15.319,8.834a6.583,6.583,0,0,1,3.277,5.7v17.706a6.583,6.583,0,0,1-3.277,5.7l-15.319,8.834a6.6,6.6,0,0,1-6.59,0l-15.319-8.834a6.581,6.581,0,0,1-3.277-5.7v-17.706a6.581,6.581,0,0,1,3.277-5.7l15.319-8.834a6.674,6.674,0,0,1,3.313-.891" fill="#fff"/>
    <path id="Path_117" data-name="Path 117" d="M132.262,1908.924a6.3,6.3,0,0,1,3.277.891l15.319,8.834a6.583,6.583,0,0,1,3.277,5.7v17.706a6.583,6.583,0,0,1-3.277,5.7l-15.319,8.834a6.6,6.6,0,0,1-6.59,0l-15.319-8.834a6.581,6.581,0,0,1-3.277-5.7v-17.706a6.581,6.581,0,0,1,3.277-5.7l15.319-8.834A6.674,6.674,0,0,1,132.262,1908.924Z" fill="none" stroke="#956ec1" stroke-miterlimit="10" stroke-width="0.356"/>
    <path id="Path_118" data-name="Path 118" d="M113.167,1931.9a1.558,1.558,0,0,1,.57-.6,1.783,1.783,0,0,1,.855-.214,1.856,1.856,0,0,1,1.033.321,1.47,1.47,0,0,1,.535.855h-.891a.83.83,0,0,0-.249-.357,1.032,1.032,0,0,0-.428-.142.837.837,0,0,0-.57.25,1.416,1.416,0,0,0,0,1.5.615.615,0,0,0,.57.249.654.654,0,0,0,.677-.463h.926a1.539,1.539,0,0,1-.534.855,1.7,1.7,0,0,1-1.034.32,1.779,1.779,0,0,1-.854-.213,1.341,1.341,0,0,1-.571-.606,1.789,1.789,0,0,1-.035-1.746"/>
    <path id="Path_119" data-name="Path 119" d="M117.406,1934.324a1.643,1.643,0,0,1-.6-.606,2.029,2.029,0,0,1,0-1.816,1.636,1.636,0,0,1,.6-.606,1.889,1.889,0,0,1,1.746,0,1.646,1.646,0,0,1,.606.606,1.838,1.838,0,0,1,0,1.816,1.514,1.514,0,0,1-.642.606,1.924,1.924,0,0,1-.89.214,1.757,1.757,0,0,1-.82-.214m1.283-.641a.7.7,0,0,0,.32-.321,1.3,1.3,0,0,0-.142-1.282.858.858,0,0,0-1.211,0,1.113,1.113,0,0,0-.25.748,1.083,1.083,0,0,0,.25.712.733.733,0,0,0,.605.25.764.764,0,0,0,.428-.107"/>
    <path id="Path_120" data-name="Path 120" d="M125.778,1931.474a1.477,1.477,0,0,1,.392,1.069v1.959h-.855v-1.853a.965.965,0,0,0-.214-.605.787.787,0,0,0-.534-.214.729.729,0,0,0-.535.214.97.97,0,0,0-.213.605v1.853h-.856v-1.853a.964.964,0,0,0-.213-.605.789.789,0,0,0-.534-.214.876.876,0,0,0-.57.214.965.965,0,0,0-.214.605v1.853h-.855v-3.349h.855v.392a.976.976,0,0,1,.427-.321,1.486,1.486,0,0,1,.57-.106,1.248,1.248,0,0,1,.713.178,1.158,1.158,0,0,1,.463.463,1.442,1.442,0,0,1,.463-.463,1.474,1.474,0,0,1,.677-.178,1.4,1.4,0,0,1,1.033.356"/>
    <path id="Path_121" data-name="Path 121" d="M128.272,1931.261a1.382,1.382,0,0,1,.641-.143,1.467,1.467,0,0,1,1.318.819,2.038,2.038,0,0,1,.214.891,1.823,1.823,0,0,1-.214.89,1.462,1.462,0,0,1-.534.606,1.523,1.523,0,0,1-.784.214,1.3,1.3,0,0,1-.641-.143,1.569,1.569,0,0,1-.463-.392v2.067h-.856v-4.917h.856v.5a.974.974,0,0,1,.463-.391m1.175,1.032a.7.7,0,0,0-.32-.32.907.907,0,0,0-.855,0,.777.777,0,0,0-.321.356,1.136,1.136,0,0,0,0,1.069.777.777,0,0,0,.321.356.911.911,0,0,0,.855,0,.78.78,0,0,0,.32-.356,1.5,1.5,0,0,0,.143-.534.906.906,0,0,0-.143-.571"/>
    <path id="Path_122" data-name="Path 122" d="M134.15,1933.077h-2.458a.841.841,0,0,0,.249.57.782.782,0,0,0,.534.214.723.723,0,0,0,.677-.392h.891a1.547,1.547,0,0,1-.535.784,1.668,1.668,0,0,1-1,.32,1.794,1.794,0,0,1-.855-.213,1.66,1.66,0,0,1-.606-.606,2.05,2.05,0,0,1-.213-.891,2.085,2.085,0,0,1,.213-.926,1.42,1.42,0,0,1,.606-.6,1.924,1.924,0,0,1,.89-.214,1.787,1.787,0,0,1,.856.214,1.26,1.26,0,0,1,.57.569,1.8,1.8,0,0,1,.214.856.97.97,0,0,0-.036.32m-.855-.57a.64.64,0,0,0-.25-.534.657.657,0,0,0-.57-.179.957.957,0,0,0-.534.179.76.76,0,0,0-.249.534Z"/>
    <path id="Path_123" data-name="Path 123" d="M135.753,1931.83v1.6a.515.515,0,0,0,.071.25.385.385,0,0,0,.285.071h.392v.713h-.535a.934.934,0,0,1-1.068-1.034v-1.6h-.392v-.712h.392v-.784h.855v.819h.748v.713Z"/>
    <path id="Path_124" data-name="Path 124" d="M140.206,1933.077h-2.458a.837.837,0,0,0,.25.57.78.78,0,0,0,.534.214.723.723,0,0,0,.676-.392h.927a1.413,1.413,0,0,1-.571.784,1.668,1.668,0,0,1-1,.32,1.794,1.794,0,0,1-.855-.213,1.65,1.65,0,0,1-.605-.606,2.038,2.038,0,0,1,0-1.817,1.64,1.64,0,0,1,.605-.6,1.928,1.928,0,0,1,.891-.214,1.786,1.786,0,0,1,.855.214,1.26,1.26,0,0,1,.57.569,1.8,1.8,0,0,1,.214.856c0,.106-.036.213-.036.32m-.855-.57a.64.64,0,0,0-.25-.534.656.656,0,0,0-.569-.179.955.955,0,0,0-.534.179.758.758,0,0,0-.25.534Z"/>
    <path id="Path_125" data-name="Path 125" d="M143.662,1931.474a1.452,1.452,0,0,1,.356,1.069v1.959h-.855v-1.853a.971.971,0,0,0-.214-.605.787.787,0,0,0-.534-.214.729.729,0,0,0-.535.214.97.97,0,0,0-.213.605v1.853h-.855v-3.349h.855v.428a1.052,1.052,0,0,1,.427-.357,1.681,1.681,0,0,1,.57-.142,1.463,1.463,0,0,1,1,.392"/>
    <path id="Path_126" data-name="Path 126" d="M144.8,1931.9a1.553,1.553,0,0,1,.571-.6,1.818,1.818,0,0,1,1.887.107,1.47,1.47,0,0,1,.535.855h-.926a.823.823,0,0,0-.25-.357,1.023,1.023,0,0,0-.427-.142.837.837,0,0,0-.57.25,1.416,1.416,0,0,0,0,1.5.615.615,0,0,0,.57.249.654.654,0,0,0,.677-.463h.926a1.541,1.541,0,0,1-.535.855,1.7,1.7,0,0,1-1.032.32,1.78,1.78,0,0,1-.855-.213,1.341,1.341,0,0,1-.571-.606,1.888,1.888,0,0,1,0-1.746"/>
    <path id="Path_127" data-name="Path 127" d="M151.534,1933.077h-2.458a.842.842,0,0,0,.25.57.782.782,0,0,0,.534.214.725.725,0,0,0,.677-.392h.926a1.416,1.416,0,0,1-.57.784,1.669,1.669,0,0,1-1,.32,1.794,1.794,0,0,1-.855-.213,1.653,1.653,0,0,1-.606-.606,2.05,2.05,0,0,1-.213-.891,2.085,2.085,0,0,1,.213-.926,1.643,1.643,0,0,1,.606-.6,1.924,1.924,0,0,1,.89-.214,1.79,1.79,0,0,1,.856.214,1.253,1.253,0,0,1,.569.569,1.791,1.791,0,0,1,.214.856c0,.106-.036.213-.036.32m-.854-.57a.64.64,0,0,0-.25-.534.657.657,0,0,0-.57-.179.957.957,0,0,0-.534.179.762.762,0,0,0-.25.534Z"/>
    <path id="Path_128" data-name="Path 128" d="M300.875,1933.469a6.309,6.309,0,0,1,3.278.89l15.318,8.836a6.58,6.58,0,0,1,3.278,5.7v17.7a6.579,6.579,0,0,1-3.278,5.7l-15.318,8.836a6.6,6.6,0,0,1-6.591,0l-15.318-8.836a6.579,6.579,0,0,1-3.278-5.7v-17.741a6.581,6.581,0,0,1,3.278-5.7l15.318-8.835a6.852,6.852,0,0,1,3.313-.855" fill="#fff"/>
    <path id="Path_129" data-name="Path 129" d="M300.875,1933.469a6.309,6.309,0,0,1,3.278.89l15.318,8.836a6.58,6.58,0,0,1,3.278,5.7v17.7a6.579,6.579,0,0,1-3.278,5.7l-15.318,8.836a6.6,6.6,0,0,1-6.591,0l-15.318-8.836a6.579,6.579,0,0,1-3.278-5.7v-17.741a6.581,6.581,0,0,1,3.278-5.7l15.318-8.835A6.852,6.852,0,0,1,300.875,1933.469Z" fill="none" stroke="#956ec1" stroke-miterlimit="10" stroke-width="0.356"/>
    <rect id="Rectangle_33" data-name="Rectangle 33" width="0.855" height="4.453" transform="translate(285.308 1951.815)"/>
    <path id="Path_130" data-name="Path 130" d="M287.623,1956.126a1.639,1.639,0,0,1-.606-.606,2.036,2.036,0,0,1,0-1.816,1.646,1.646,0,0,1,.606-.606,1.889,1.889,0,0,1,1.746,0,1.643,1.643,0,0,1,.605.606,1.833,1.833,0,0,1,0,1.816,1.5,1.5,0,0,1-.641.606,1.925,1.925,0,0,1-.891.214,1.753,1.753,0,0,1-.819-.214m1.282-.641a.7.7,0,0,0,.321-.321.961.961,0,0,0,.107-.534,1.025,1.025,0,0,0-.25-.713.859.859,0,0,0-1.21,0,1.087,1.087,0,0,0-.25.713,1.18,1.18,0,0,0,.25.748.733.733,0,0,0,.605.25.69.69,0,0,0,.427-.143"/>
    <path id="Path_131" data-name="Path 131" d="M293.643,1953.276a1.449,1.449,0,0,1,.357,1.069v1.959h-.855v-1.852a.968.968,0,0,0-.214-.6.772.772,0,0,0-1.069,0,.967.967,0,0,0-.213.6v1.852h-.856v-3.348h.856v.427a1.423,1.423,0,0,1,.427-.356,1.086,1.086,0,0,1,.57-.107,1.239,1.239,0,0,1,1,.356"/>
    <path id="Path_132" data-name="Path 132" d="M296.779,1953.062a.911.911,0,0,1,.427.392v-.463h.855v3.349a2.126,2.126,0,0,1-.178.819,1.459,1.459,0,0,1-.57.57,2.038,2.038,0,0,1-.891.214,1.956,1.956,0,0,1-1.176-.321,1.3,1.3,0,0,1-.534-.89h.82a.563.563,0,0,0,.285.356,1,1,0,0,0,.534.143.972.972,0,0,0,.606-.214.787.787,0,0,0,.213-.677v-.534a1.228,1.228,0,0,1-.463.391,1.4,1.4,0,0,1-.641.143,1.523,1.523,0,0,1-.784-.214,1.257,1.257,0,0,1-.534-.6,2.041,2.041,0,0,1-.214-.891,1.922,1.922,0,0,1,.214-.89,1.465,1.465,0,0,1,1.318-.82,1.073,1.073,0,0,1,.713.142m.356,1.033a.77.77,0,0,0-.321-.355.942.942,0,0,0-.428-.108.839.839,0,0,0-.427.108.694.694,0,0,0-.32.32.9.9,0,0,0-.107.534,1.422,1.422,0,0,0,.107.535.781.781,0,0,0,.32.356.952.952,0,0,0,.427.107.849.849,0,0,0,.428-.107.694.694,0,0,0,.321-.321,1.394,1.394,0,0,0,0-1.069"/>
    <rect id="Rectangle_34" data-name="Rectangle 34" width="2.565" height="0.712" transform="translate(298.916 1953.775)"/>
    <path id="Path_133" data-name="Path 133" d="M303.4,1953.632v1.639a.515.515,0,0,0,.071.25.384.384,0,0,0,.285.071h.392v.713h-.535a.934.934,0,0,1-1.068-1.034v-1.6h-.392v-.712h.392v-.82h.855v.82h.748v.676Z"/>
    <path id="Path_134" data-name="Path 134" d="M307.857,1954.88H305.4a.84.84,0,0,0,.249.569.782.782,0,0,0,.534.214.763.763,0,0,0,.677-.392h.891a1.416,1.416,0,0,1-.57.784,1.665,1.665,0,0,1-1,.321,1.8,1.8,0,0,1-.855-.214,1.65,1.65,0,0,1-.605-.606,2.034,2.034,0,0,1-.214-.891,1.822,1.822,0,0,1,.214-.89,1.641,1.641,0,0,1,.605-.6,1.811,1.811,0,0,1,1.71,0,1.255,1.255,0,0,1,.57.569,1.787,1.787,0,0,1,.214.856c.072.07.035.178.035.285m-.854-.571a.639.639,0,0,0-.25-.534.657.657,0,0,0-.57-.178.956.956,0,0,0-.534.178.759.759,0,0,0-.249.534Z"/>
    <path id="Path_135" data-name="Path 135" d="M309.781,1953.062a1.18,1.18,0,0,1,.606-.142v.891h-.214a.718.718,0,0,0-.819.6v1.924H308.5v-3.349h.855v.535a1.091,1.091,0,0,1,.427-.464"/>
    <path id="Path_136" data-name="Path 136" d="M316.087,1953.276a1.477,1.477,0,0,1,.392,1.069v1.959h-.855v-1.852a.962.962,0,0,0-.214-.6.817.817,0,0,0-1.1,0,.962.962,0,0,0-.214.6v1.852h-.855v-1.852a.962.962,0,0,0-.214-.6.783.783,0,0,0-.534-.215.726.726,0,0,0-.535.215.967.967,0,0,0-.213.6v1.852h-.855v-3.348h.855v.391a.967.967,0,0,1,.427-.32,1.489,1.489,0,0,1,.57-.107,1.251,1.251,0,0,1,.712.178.464.464,0,0,0,.927,0,1.448,1.448,0,0,1,1.71.178"/>
    <path id="Path_137" data-name="Path 137" d="M288.62,1959.653a.517.517,0,0,1,0-.712.588.588,0,0,1,.748,0,.515.515,0,0,1,0,.712.59.59,0,0,1-.748,0m.784,3.883h-.819v-3.348h.819Z"/>
    <path id="Path_138" data-name="Path 138" d="M290.224,1960.935a1.5,1.5,0,0,1,1.318-.819,1.409,1.409,0,0,1,.641.142,1.171,1.171,0,0,1,.463.357v-1.6h.855v4.453h-.855v-.5a.906.906,0,0,1-.427.392,1.4,1.4,0,0,1-.642.143,1.533,1.533,0,0,1-.784-.214,1.264,1.264,0,0,1-.534-.606,2,2,0,0,1-.035-1.746m2.315.392a.884.884,0,0,0-.784-.463.951.951,0,0,0-.427.107.93.93,0,0,0-.321.321.952.952,0,0,0-.106.534,1.44,1.44,0,0,0,.106.535.793.793,0,0,0,.321.356.949.949,0,0,0,.427.106.929.929,0,0,0,.784-.462,1.065,1.065,0,0,0,0-1.034"/>
    <path id="Path_139" data-name="Path 139" d="M297.419,1962.111H295a.84.84,0,0,0,.25.57.786.786,0,0,0,.534.213.724.724,0,0,0,.677-.391h.89a1.556,1.556,0,0,1-.534.784,1.671,1.671,0,0,1-1,.32,1.793,1.793,0,0,1-.854-.213,1.64,1.64,0,0,1-.606-.606,2.037,2.037,0,0,1-.214-.891,2.074,2.074,0,0,1,.214-.926,1.638,1.638,0,0,1,.606-.6,1.817,1.817,0,0,1,1.71,0,1.254,1.254,0,0,1,.569.569,1.791,1.791,0,0,1,.215.856.951.951,0,0,1-.037.32m-.854-.57a.638.638,0,0,0-.25-.534.806.806,0,0,0-.57-.214.957.957,0,0,0-.534.178.758.758,0,0,0-.249.535Z"/>
    <path id="Path_140" data-name="Path 140" d="M298.061,1960.935a1.464,1.464,0,0,1,1.318-.819,1.311,1.311,0,0,1,.641.142,1.616,1.616,0,0,1,.463.393v-.463h.855v3.348h-.855v-.5a1.235,1.235,0,0,1-.463.392,1.392,1.392,0,0,1-.641.143,1.524,1.524,0,0,1-.784-.214,1.26,1.26,0,0,1-.534-.606,2.037,2.037,0,0,1,0-1.817m2.28.392a1.01,1.01,0,0,0-.321-.356.908.908,0,0,0-.855,0,.918.918,0,0,0-.32.321.9.9,0,0,0-.107.534,1.422,1.422,0,0,0,.107.535.785.785,0,0,0,.32.356.953.953,0,0,0,.428.106.849.849,0,0,0,.427-.106.7.7,0,0,0,.321-.321,1.137,1.137,0,0,0,0-1.069"/>
    <path id="Path_141" data-name="Path 141" d="M303.12,1960.9v1.6a.516.516,0,0,0,.071.25.385.385,0,0,0,.285.071h.392v.712h-.535a.934.934,0,0,1-1.068-1.033v-1.6h-.392v-.713h.392v-.819h.855v.819h.748v.713Z"/>
    <path id="Path_142" data-name="Path 142" d="M304.544,1959.653a.5.5,0,1,1,.713,0,.518.518,0,0,1-.713,0m.784,3.883h-.855v-3.348h.855Z"/>
    <path id="Path_143" data-name="Path 143" d="M306.789,1963.358a1.647,1.647,0,0,1-.606-.606,2.037,2.037,0,0,1,0-1.817,1.651,1.651,0,0,1,.606-.605,1.89,1.89,0,0,1,1.746,0,1.649,1.649,0,0,1,.605.605,1.834,1.834,0,0,1,0,1.817,1.507,1.507,0,0,1-.641.606,1.927,1.927,0,0,1-.891.214,1.419,1.419,0,0,1-.819-.214m1.282-.606a.7.7,0,0,0,.321-.32,1.3,1.3,0,0,0-.143-1.283.859.859,0,0,0-1.21,0,1.117,1.117,0,0,0-.25.749,1,1,0,0,0,.25.747.732.732,0,0,0,.605.25,1.531,1.531,0,0,0,.427-.143"/>
    <path id="Path_144" data-name="Path 144" d="M312.845,1960.508a1.444,1.444,0,0,1,.356,1.069v1.959h-.855v-1.853a.969.969,0,0,0-.213-.6.791.791,0,0,0-.535-.214.728.728,0,0,0-.534.214.964.964,0,0,0-.214.6v1.853h-.855v-3.349h.855v.428a1.047,1.047,0,0,1,.428-.357,1.084,1.084,0,0,1,.57-.106,1.329,1.329,0,0,1,1,.356"/>
    <path id="Path_145" data-name="Path 145" d="M188.014,1958.8a6.309,6.309,0,0,1,3.278.89l15.318,8.836a6.581,6.581,0,0,1,3.277,5.7v17.7a6.581,6.581,0,0,1-3.277,5.7l-15.318,8.836a6.6,6.6,0,0,1-6.591,0l-15.319-8.836a6.581,6.581,0,0,1-3.277-5.7v-17.7a6.581,6.581,0,0,1,3.277-5.7l15.319-8.836a6.9,6.9,0,0,1,3.313-.89" fill="#fff"/>
    <path id="Path_146" data-name="Path 146" d="M188.014,1958.8a6.309,6.309,0,0,1,3.278.89l15.318,8.836a6.581,6.581,0,0,1,3.277,5.7v17.7a6.581,6.581,0,0,1-3.277,5.7l-15.318,8.836a6.6,6.6,0,0,1-6.591,0l-15.319-8.836a6.581,6.581,0,0,1-3.277-5.7v-17.7a6.581,6.581,0,0,1,3.277-5.7l15.319-8.836A6.9,6.9,0,0,1,188.014,1958.8Z" fill="none" stroke="#956ec1" stroke-miterlimit="10" stroke-width="0.356"/>
    <path id="Path_147" data-name="Path 147" d="M178.823,1975.577a1.464,1.464,0,0,1,1.318-.819,1.311,1.311,0,0,1,.641.142,1.614,1.614,0,0,1,.464.392v-.463h.854v3.349h-.854v-.5a1.255,1.255,0,0,1-.464.392,1.443,1.443,0,0,1-.676.142,1.53,1.53,0,0,1-.784-.213,1.261,1.261,0,0,1-.535-.606,2.164,2.164,0,0,1,.036-1.817m2.315.392a.871.871,0,0,0-.748-.463.94.94,0,0,0-.427.107.92.92,0,0,0-.321.321,1.5,1.5,0,0,0-.142.534,1,1,0,0,0,.142.534.79.79,0,0,0,.321.357.951.951,0,0,0,.427.106.849.849,0,0,0,.428-.106.782.782,0,0,0,.32-.357,1.294,1.294,0,0,0,0-1.033"/>
    <path id="Path_148" data-name="Path 148" d="M184.2,1974.936a1.4,1.4,0,0,1,.641-.142,1.53,1.53,0,0,1,.784.213,1.257,1.257,0,0,1,.535.606,2.049,2.049,0,0,1,.213.89,1.837,1.837,0,0,1-.213.891,1.787,1.787,0,0,1-.535.606,1.552,1.552,0,0,1-1.425.071,1.6,1.6,0,0,1-.463-.392v.463h-.855v-4.453h.855v1.6a1.467,1.467,0,0,1,.463-.356m1.211,1.033a.7.7,0,0,0-.32-.321.908.908,0,0,0-.855,0,.778.778,0,0,0-.321.356,1.5,1.5,0,0,0-.142.535,1,1,0,0,0,.142.534.775.775,0,0,0,.321.357.954.954,0,0,0,.427.107,1.013,1.013,0,0,0,.463-.143.782.782,0,0,0,.321-.356,1.505,1.505,0,0,0,.142-.535,1.878,1.878,0,0,0-.178-.534"/>
    <path id="Path_149" data-name="Path 149" d="M187.052,1974.294a.516.516,0,1,1,.357.143.506.506,0,0,1-.357-.143m.82,3.884h-.855v-3.349h.855Z"/>
    <rect id="Rectangle_35" data-name="Rectangle 35" width="0.855" height="4.453" transform="translate(188.691 1973.725)"/>
    <path id="Path_150" data-name="Path 150" d="M190.437,1974.294a.515.515,0,0,1,0-.712.589.589,0,0,1,.747,0,.515.515,0,0,1,0,.712.587.587,0,0,1-.747,0m.783,3.884h-.854v-3.349h.854Z"/>
    <path id="Path_151" data-name="Path 151" d="M193.037,1975.541v1.6a.67.67,0,0,0,.071.249.387.387,0,0,0,.285.071h.392v.713h-.534a.934.934,0,0,1-1.069-1.033v-1.6h-.392v-.712h.392v-.82h.855v.82h.748v.712Z"/>
    <path id="Path_152" data-name="Path 152" d="M197.561,1974.829l-2.066,4.916H194.6l.713-1.675L194,1974.829h.962l.855,2.316.891-2.316Z"/>
    <path id="Path_153" data-name="Path 153" d="M186.3,1982.773v1.6a.523.523,0,0,0,.071.25.387.387,0,0,0,.285.071h.392v.712h-.534a.934.934,0,0,1-1.069-1.033v-1.6h-.392v-.676h.392v-.82h.855v.82h.748v.676Z"/>
    <path id="Path_154" data-name="Path 154" d="M188.3,1985.267a1.646,1.646,0,0,1-.606-.606,2.036,2.036,0,0,1,0-1.816,1.639,1.639,0,0,1,.606-.606,1.889,1.889,0,0,1,1.746,0,1.636,1.636,0,0,1,.6.606,1.833,1.833,0,0,1,0,1.816,1.505,1.505,0,0,1-.641.606,1.925,1.925,0,0,1-.891.214,1.753,1.753,0,0,1-.819-.214m1.283-.641a.7.7,0,0,0,.32-.321,1.3,1.3,0,0,0-.142-1.282.858.858,0,0,0-1.211,0,1.224,1.224,0,0,0,0,1.46.733.733,0,0,0,.605.249.766.766,0,0,0,.428-.106"/>
    <path id="Path_155" data-name="Path 155" d="M179.321,1991.252H176.9a.84.84,0,0,0,.25.57.786.786,0,0,0,.534.213.765.765,0,0,0,.677-.391h.89a1.556,1.556,0,0,1-.534.784,1.671,1.671,0,0,1-1,.32,1.794,1.794,0,0,1-.854-.213,1.647,1.647,0,0,1-.606-.606,2.037,2.037,0,0,1,0-1.817,1.41,1.41,0,0,1,.606-.605,1.926,1.926,0,0,1,.89-.215,1.785,1.785,0,0,1,.855.215,1.261,1.261,0,0,1,.57.569,1.8,1.8,0,0,1,.214.855c-.036.107-.036.214-.072.321m-.854-.57a.638.638,0,0,0-.25-.534.654.654,0,0,0-.57-.178.957.957,0,0,0-.534.178.757.757,0,0,0-.249.534Z"/>
    <path id="Path_156" data-name="Path 156" d="M181.815,1992.641l-.677-1.033-.606,1.033h-.891l1.1-1.674-1.1-1.675h.962l.677,1.033.605-1.033h.891l-1.1,1.675,1.1,1.674Z"/>
    <path id="Path_157" data-name="Path 157" d="M186.3,1991.252h-2.458a.84.84,0,0,0,.25.57.786.786,0,0,0,.534.213.762.762,0,0,0,.676-.391h.891a1.419,1.419,0,0,1-.57.784,1.67,1.67,0,0,1-1,.32,1.8,1.8,0,0,1-.855-.213,1.654,1.654,0,0,1-.606-.606,2.051,2.051,0,0,1-.214-.891,1.831,1.831,0,0,1,.214-.89,1.647,1.647,0,0,1,.606-.606,1.923,1.923,0,0,1,.89-.214,1.784,1.784,0,0,1,.855.214,1.263,1.263,0,0,1,.57.57,1.783,1.783,0,0,1,.214.855c.036.071,0,.178,0,.285m-.855-.57a.638.638,0,0,0-.25-.534.653.653,0,0,0-.569-.178.957.957,0,0,0-.534.178.754.754,0,0,0-.25.534Z"/>
    <path id="Path_158" data-name="Path 158" d="M186.945,1990.076a1.554,1.554,0,0,1,.571-.605,1.817,1.817,0,0,1,1.887.107,1.451,1.451,0,0,1,.535.89h-.891a.659.659,0,0,0-.249-.356.649.649,0,0,0-.428-.107.711.711,0,0,0-.57.249,1.422,1.422,0,0,0,0,1.5.711.711,0,0,0,.57.249.683.683,0,0,0,.677-.463h.891a1.537,1.537,0,0,1-.535.855,1.693,1.693,0,0,1-1.033.321,1.792,1.792,0,0,1-.854-.214,1.338,1.338,0,0,1-.571-.6,2.039,2.039,0,0,1,0-1.818"/>
    <path id="Path_159" data-name="Path 159" d="M193.714,1989.293v3.348h-.855v-.427a1.045,1.045,0,0,1-.428.356,1.031,1.031,0,0,1-.57.107,1.328,1.328,0,0,1-.712-.178,1.05,1.05,0,0,1-.463-.5,1.943,1.943,0,0,1-.178-.784v-1.959h.855v1.852a.965.965,0,0,0,.214.606.82.82,0,0,0,1.1,0,.971.971,0,0,0,.214-.606v-1.852Z"/>
    <path id="Path_160" data-name="Path 160" d="M195.531,1990.005v1.6a.661.661,0,0,0,.071.25.385.385,0,0,0,.285.071h.392v.712h-.535a.934.934,0,0,1-1.068-1.033v-1.6h-.392v-.712h.392v-.82h.855v.82h.748v.712Z"/>
    <path id="Path_161" data-name="Path 161" d="M199.984,1991.252h-2.458a.843.843,0,0,0,.249.57.788.788,0,0,0,.535.213.762.762,0,0,0,.676-.391h.927a1.416,1.416,0,0,1-.571.784,1.668,1.668,0,0,1-1,.32,1.794,1.794,0,0,1-.855-.213,1.652,1.652,0,0,1-.605-.606,2.031,2.031,0,0,1,0-1.817,1.642,1.642,0,0,1,.605-.605,1.927,1.927,0,0,1,.891-.215,1.788,1.788,0,0,1,.855.215,1.261,1.261,0,0,1,.57.569,1.8,1.8,0,0,1,.214.855c0,.107-.036.214-.036.321m-.855-.57a.638.638,0,0,0-.25-.534.653.653,0,0,0-.569-.178.96.96,0,0,0-.535.178.757.757,0,0,0-.249.534Z"/>
    <path id="Path_162" data-name="Path 162" d="M296.885,1799.913a6.65,6.65,0,0,1,3.278.891l15.318,8.834a6.582,6.582,0,0,1,3.278,5.7v17.706a6.582,6.582,0,0,1-3.278,5.7l-15.318,8.834a6.6,6.6,0,0,1-6.591,0l-15.318-8.834a6.582,6.582,0,0,1-3.278-5.7v-17.706a6.582,6.582,0,0,1,3.278-5.7l15.318-8.834a6.883,6.883,0,0,1,3.313-.891" fill="#fff"/>
    <path id="Path_163" data-name="Path 163" d="M296.885,1799.913a6.65,6.65,0,0,1,3.278.891l15.318,8.834a6.582,6.582,0,0,1,3.278,5.7v17.706a6.582,6.582,0,0,1-3.278,5.7l-15.318,8.834a6.6,6.6,0,0,1-6.591,0l-15.318-8.834a6.582,6.582,0,0,1-3.278-5.7v-17.706a6.582,6.582,0,0,1,3.278-5.7l15.318-8.834A6.883,6.883,0,0,1,296.885,1799.913Z" fill="none" stroke="#956ec1" stroke-miterlimit="10" stroke-width="0.356"/>
    <path id="Path_164" data-name="Path 164" d="M282.671,1823.461a1.554,1.554,0,0,1,.57-.606,1.784,1.784,0,0,1,.855-.214,1.856,1.856,0,0,1,1.033.321,1.47,1.47,0,0,1,.535.855h-.927a.627.627,0,0,0-.676-.464.712.712,0,0,0-.571.25,1.416,1.416,0,0,0,0,1.5.619.619,0,0,0,.571.25.654.654,0,0,0,.676-.463h.927a1.535,1.535,0,0,1-.535.854,1.689,1.689,0,0,1-1.033.321,1.784,1.784,0,0,1-.855-.214,1.337,1.337,0,0,1-.57-.605,1.962,1.962,0,0,1,0-1.781"/>
    <path id="Path_165" data-name="Path 165" d="M288.87,1822.819a1.064,1.064,0,0,1,.463.5,1.943,1.943,0,0,1,.178.784v1.959h-.855v-1.852a.965.965,0,0,0-.214-.606.776.776,0,0,0-1.068,0,.965.965,0,0,0-.214.606v1.852H286.3v-4.453h.855v1.532a.968.968,0,0,1,.427-.321,1.685,1.685,0,0,1,.606-.142,1.165,1.165,0,0,1,.677.142"/>
    <path id="Path_166" data-name="Path 166" d="M290.259,1823.46a1.466,1.466,0,0,1,1.318-.819,1.3,1.3,0,0,1,.642.143,1.61,1.61,0,0,1,.463.392v-.463h.855v3.348h-.855v-.5a1.242,1.242,0,0,1-.463.391,1.067,1.067,0,0,1-.642.143,1.518,1.518,0,0,1-.783-.214,1.255,1.255,0,0,1-.535-.605,2.091,2.091,0,0,1-.214-.927,1.941,1.941,0,0,1,.214-.891m2.316.392a.777.777,0,0,0-.321-.356.952.952,0,0,0-.428-.107.849.849,0,0,0-.427.107.7.7,0,0,0-.32.321.9.9,0,0,0-.107.534,1.413,1.413,0,0,0,.107.534.778.778,0,0,0,.32.357.948.948,0,0,0,.427.106.849.849,0,0,0,.428-.106.7.7,0,0,0,.321-.321,1.136,1.136,0,0,0,0-1.069"/>
    <path id="Path_167" data-name="Path 167" d="M295.638,1822.819a1.17,1.17,0,0,1,.606-.142v.891h-.214a.928.928,0,0,0-.605.178,1.063,1.063,0,0,0-.214.641v1.674h-.855v-3.349h.855v.5a.906.906,0,0,1,.427-.392"/>
    <path id="Path_168" data-name="Path 168" d="M296.85,1822.178a.514.514,0,1,1,.356.143.755.755,0,0,1-.356-.143m.819,3.883h-.855v-3.349h.855Z"/>
    <path id="Path_169" data-name="Path 169" d="M299.023,1825.954a1.152,1.152,0,0,1-.534-.392,1.578,1.578,0,0,1-.214-.569h.855a.476.476,0,0,0,.178.32.774.774,0,0,0,.784.036.361.361,0,0,0,.142-.249.268.268,0,0,0-.178-.25,3.089,3.089,0,0,0-.535-.178,3.063,3.063,0,0,1-.605-.178,1.115,1.115,0,0,1-.392-.321.957.957,0,0,1-.178-.535.847.847,0,0,1,.178-.5,1.15,1.15,0,0,1,.463-.356,1.594,1.594,0,0,1,.713-.143,1.345,1.345,0,0,1,.961.285,1.065,1.065,0,0,1,.393.82h-.82a.423.423,0,0,0-.178-.321.719.719,0,0,0-.392-.107,1.065,1.065,0,0,0-.356.071.216.216,0,0,0-.107.249.267.267,0,0,0,.178.25,3.108,3.108,0,0,0,.535.178,3.984,3.984,0,0,1,.605.178,1.61,1.61,0,0,1,.392.285.959.959,0,0,1,.178.534,1,1,0,0,1-.143.535,1.151,1.151,0,0,1-.463.356,1.59,1.59,0,0,1-.712.143,1.854,1.854,0,0,1-.748-.143"/>
    <path id="Path_170" data-name="Path 170" d="M306.9,1823.033a1.624,1.624,0,0,1,.391,1.033v1.96h-.854v-1.853a.967.967,0,0,0-.214-.606.79.79,0,0,0-.535-.213.728.728,0,0,0-.534.213.972.972,0,0,0-.213.606v1.853h-.856v-1.853a.972.972,0,0,0-.213-.606.787.787,0,0,0-.534-.213.725.725,0,0,0-.535.213.967.967,0,0,0-.214.606v1.853h-.819v-3.349h.855v.392a.975.975,0,0,1,.427-.321,1.483,1.483,0,0,1,.57-.107,1.256,1.256,0,0,1,.713.178,1.173,1.173,0,0,1,.463.464,1.456,1.456,0,0,1,.463-.464,1.4,1.4,0,0,1,1.639.214"/>
    <path id="Path_171" data-name="Path 171" d="M308.071,1823.46a1.467,1.467,0,0,1,1.319-.819,1.334,1.334,0,0,1,1.1.535v-.463h.855v3.348h-.855v-.5a1.242,1.242,0,0,1-.463.391,1.064,1.064,0,0,1-.641.143,1.522,1.522,0,0,1-.784-.214,1.255,1.255,0,0,1-.535-.605,2.089,2.089,0,0,1-.213-.927,1.94,1.94,0,0,1,.213-.891m2.316.392a.777.777,0,0,0-.321-.356.951.951,0,0,0-.427-.107.83.83,0,0,0-.748.463.9.9,0,0,0-.107.535,1.414,1.414,0,0,0,.107.534.784.784,0,0,0,.321.357.959.959,0,0,0,.427.107.858.858,0,0,0,.427-.107.7.7,0,0,0,.321-.321,1.208,1.208,0,0,0,0-1.1"/>
    <path id="Path_172" data-name="Path 172" d="M229.16,1780.711a6.651,6.651,0,0,1,3.313.855l15.319,8.835a6.581,6.581,0,0,1,3.277,5.7v17.741a6.581,6.581,0,0,1-3.277,5.7l-15.319,8.835a6.6,6.6,0,0,1-6.59,0l-15.319-8.835a6.583,6.583,0,0,1-3.277-5.7v-17.705a6.581,6.581,0,0,1,3.277-5.7l15.319-8.835a6.3,6.3,0,0,1,3.277-.891" fill="#fff"/>
    <path id="Path_173" data-name="Path 173" d="M229.16,1780.711a6.651,6.651,0,0,1,3.313.855l15.319,8.835a6.581,6.581,0,0,1,3.277,5.7v17.741a6.581,6.581,0,0,1-3.277,5.7l-15.319,8.835a6.6,6.6,0,0,1-6.59,0l-15.319-8.835a6.583,6.583,0,0,1-3.277-5.7v-17.705a6.581,6.581,0,0,1,3.277-5.7l15.319-8.835A6.3,6.3,0,0,1,229.16,1780.711Z" fill="none" stroke="#956ec1" stroke-miterlimit="10" stroke-width="0.356"/>
    <path id="Path_174" data-name="Path 174" d="M217.333,1806.076h1.39v.641h-2.244v-4.2h.855Z"/>
    <path id="Path_175" data-name="Path 175" d="M219.862,1806.575a1.65,1.65,0,0,1-.6-.606,1.925,1.925,0,0,1-.214-.89,1.824,1.824,0,0,1,.214-.891,1.65,1.65,0,0,1,.6-.606,1.889,1.889,0,0,1,1.746,0,1.661,1.661,0,0,1,.606.606,2.05,2.05,0,0,1,.213.891,1.529,1.529,0,0,1-.249.89,1.508,1.508,0,0,1-.642.606,1.929,1.929,0,0,1-.89.213,1.743,1.743,0,0,1-.784-.213m1.283-.642a.7.7,0,0,0,.32-.32,1.3,1.3,0,0,0-.142-1.283.861.861,0,0,0-1.211,0,1.229,1.229,0,0,0,0,1.461.733.733,0,0,0,.6.249.764.764,0,0,0,.428-.107"/>
    <path id="Path_176" data-name="Path 176" d="M223.1,1804.152a1.567,1.567,0,0,1,.57-.606,1.8,1.8,0,0,1,.855-.213,1.862,1.862,0,0,1,1.033.32,1.476,1.476,0,0,1,.535.855h-.891a.7.7,0,0,0-.677-.463.71.71,0,0,0-.57.25,1.394,1.394,0,0,0-.214.748,1.408,1.408,0,0,0,.214.748.616.616,0,0,0,.57.249.654.654,0,0,0,.677-.463h.891a1.541,1.541,0,0,1-.535.855,1.7,1.7,0,0,1-1.033.321,1.783,1.783,0,0,1-.855-.214,1.338,1.338,0,0,1-.57-.606,1.961,1.961,0,0,1,0-1.781"/>
    <path id="Path_177" data-name="Path 177" d="M226.7,1804.152a1.467,1.467,0,0,1,.535-.6,1.518,1.518,0,0,1,.783-.214,1.305,1.305,0,0,1,.642.142,1.612,1.612,0,0,1,.463.392v-.463h.855v3.313h-.855v-.5a1.235,1.235,0,0,1-.463.392,1.45,1.45,0,0,1-1.425-.071,1.254,1.254,0,0,1-.535-.6,2.087,2.087,0,0,1-.214-.927,1.9,1.9,0,0,1,.214-.855m2.316.392a.7.7,0,0,0-.321-.321.95.95,0,0,0-.428-.107.848.848,0,0,0-.427.107.7.7,0,0,0-.32.321.9.9,0,0,0-.107.534,1.422,1.422,0,0,0,.107.535.786.786,0,0,0,.32.356.953.953,0,0,0,.427.107.849.849,0,0,0,.428-.107.927.927,0,0,0,.321-.32,1.208,1.208,0,0,0,0-1.105"/>
    <path id="Path_178" data-name="Path 178" d="M231.8,1804.081v1.6a.526.526,0,0,0,.071.25.388.388,0,0,0,.286.071h.392v.712h-.535a.934.934,0,0,1-1.068-1.033v-1.6h-.392v-.677h.392v-.819h.854v.819h.749v.677Z"/>
    <path id="Path_179" data-name="Path 179" d="M233.221,1802.834a.519.519,0,1,1,.356.142.338.338,0,0,1-.356-.142m.784.57v3.313h-.855v-3.348Z"/>
    <path id="Path_180" data-name="Path 180" d="M235.43,1806.575a1.65,1.65,0,0,1-.6-.606,2.031,2.031,0,0,1,0-1.817,1.641,1.641,0,0,1,.6-.6,1.884,1.884,0,0,1,1.746,0,1.64,1.64,0,0,1,.605.6,1.835,1.835,0,0,1,0,1.817,1.511,1.511,0,0,1-.641.606,1.935,1.935,0,0,1-.89.213,1.876,1.876,0,0,1-.82-.213m1.318-.642a.7.7,0,0,0,.321-.32,1.3,1.3,0,0,0-.143-1.283.861.861,0,0,0-1.211,0,1.229,1.229,0,0,0,0,1.461.735.735,0,0,0,.606.249.95.95,0,0,0,.427-.107"/>
    <path id="Path_181" data-name="Path 181" d="M241.486,1803.725a1.409,1.409,0,0,1,.356,1.033v1.959h-.819v-1.853a.969.969,0,0,0-.213-.6.775.775,0,0,0-1.069,0,.964.964,0,0,0-.214.6v1.853h-.855v-3.348h.855v.427a1.06,1.06,0,0,1,.427-.357,1.712,1.712,0,0,1,.57-.142,1.268,1.268,0,0,1,.962.428"/>
    <g id="Group_63" data-name="Group 63">
      <g id="Group_62" data-name="Group 62" clip-path="url(#clip-path)">
        <rect id="Rectangle_36" data-name="Rectangle 36" width="106.794" height="110.604" transform="translate(109.466 1849.762) rotate(-25.783)" fill="url(#linear-gradient)"/>
      </g>
    </g>
    <g id="Group_65" data-name="Group 65">
      <g id="Group_64" data-name="Group 64" clip-path="url(#clip-path-2)">
        <rect id="Rectangle_37" data-name="Rectangle 37" width="56.177" height="54.236" transform="translate(144.531 1864.876) rotate(-25.782)" fill="url(#linear-gradient-2)"/>
      </g>
    </g>
    <g id="Group_67" data-name="Group 67">
      <g id="Group_66" data-name="Group 66" clip-path="url(#clip-path-3)">
        <rect id="Rectangle_38" data-name="Rectangle 38" width="22.943" height="20.207" transform="matrix(0.9, -0.435, 0.435, 0.9, 166.877, 1872.095)" fill="url(#linear-gradient-3)"/>
      </g>
    </g>
  </g>
</svg>
