<?xml version="1.0" encoding="UTF-8"?><svg id="a" xmlns="http://www.w3.org/2000/svg" xmlns:xlink="http://www.w3.org/1999/xlink" viewBox="0 0 475.21 419.58"><defs><style>.k{fill:url(#e);}.l{fill:url(#g);}.m{fill:url(#c);}.n,.o,.p{fill:none;}.q{stroke:url(#j);}.q,.r,.s{fill:#fff;}.q,.r,.o{stroke-dasharray:0 2.05;stroke-width:.51px;}.q,.r,.o,.p{stroke-miterlimit:10;}.r,.o{stroke:url(#i);}.p{stroke:#956ec1;stroke-width:.59px;}.t{clip-path:url(#b);}.u{clip-path:url(#f);}.v{clip-path:url(#d);}.w{clip-path:url(#h);}</style><clipPath id="b"><path class="n" d="M231.5,267.45l-44-25.41c-5.45-3.14-8.77-8.88-8.77-15.16v-50.81c0-6.28,3.38-12.02,8.77-15.16l44-25.41c2.67-1.48,5.68-2.31,8.77-2.31,3.08-.06,6.1,.77,8.76,2.31l44,25.41c5.45,3.14,8.76,8.88,8.76,15.16v50.81c0,6.28-3.38,12.02-8.76,15.16l-44,25.41c-2.72,1.57-5.74,2.35-8.76,2.35s-6.04-.78-8.77-2.35m-1.36-134.32l-44,25.41c-6.28,3.61-10.13,10.31-10.13,17.53v50.81c0,7.23,3.85,13.92,10.13,17.53l44,25.41c3.08,1.78,6.57,2.72,10.13,2.72s7.05-.89,10.13-2.72l44-25.41c6.28-3.61,10.13-10.3,10.13-17.53v-50.81c0-7.22-3.85-13.92-10.13-17.53l-44-25.41c-3.14-1.81-6.63-2.71-10.13-2.71s-6.99,.9-10.13,2.71"/></clipPath><linearGradient id="c" x1="-693.12" y1="4092.33" x2="-692.12" y2="4092.33" gradientTransform="translate(181387.24 1070455.47) scale(261.53 -261.53)" gradientUnits="userSpaceOnUse"><stop offset="0" stop-color="#fe8f90"/><stop offset=".52" stop-color="#956ec1"/><stop offset=".81" stop-color="#605dda"/><stop offset=".84" stop-color="#5d5ad5"/><stop offset=".87" stop-color="#5353c6"/><stop offset=".91" stop-color="#4347ad"/><stop offset=".95" stop-color="#2d368a"/><stop offset=".99" stop-color="#10215e"/><stop offset="1" stop-color="#06194e"/><stop offset="1" stop-color="#05184d"/><stop offset="1" stop-color="#011546"/><stop offset="1" stop-color="#001444"/></linearGradient><clipPath id="d"><path class="n" d="M222.62,175.48c-14.51,9.77-18.42,29.49-8.65,44l2.31-1.3c.18-.06,.3-.18,.53-.36-4.32-6.51-6.04-13.62-4.62-21.32,1.24-7.46,5.51-14.16,11.78-18.42,11.31-7.88,26.77-6.63,36.3,2.84,10.13,10.07,11.67,25.11,3.67,36.84-3.61,5.45-9.12,9.42-15.4,11.19-8.41,2.43-16.29,1.19-23.81-3.38l-1.66,2.9c10.6,6.87,24.34,6.75,34.88-.35,14.51-9.77,18.42-29.49,8.65-44-6.13-9.1-16.17-14.03-26.39-14.03-6.07,0-12.21,1.74-17.61,5.39"/></clipPath><linearGradient id="e" x1="-693.12" y1="4092.33" x2="-692.12" y2="4092.33" gradientTransform="translate(181385.83 1070445.64) scale(261.52 -261.52)" xlink:href="#c"/><clipPath id="f"><path class="n" d="M235.95,207.99l-9.12-9.12-2.43,2.37c3.38,3.32,6.69,6.57,10.07,9.83,1.18,1.19,2.07,1.19,3.26,0,5.92-5.92,11.9-11.9,17.89-17.89l.53-.36c-.89-.95-1.66-1.72-2.49-2.54l-17.71,17.71Z"/></clipPath><linearGradient id="g" x1="-693.12" y1="4092.33" x2="-692.12" y2="4092.33" gradientTransform="translate(181389.66 1070454.71) scale(261.53 -261.53)" xlink:href="#c"/><linearGradient id="i" x1="494.2" y1="642.98" x2="849.08" y2="642.98" gradientTransform="matrix(1, 0, 0, 1, 0, 0)" gradientUnits="userSpaceOnUse"><stop offset="0" stop-color="#fe8f90"/><stop offset=".53" stop-color="#936dc1"/><stop offset=".81" stop-color="#605dda"/><stop offset=".84" stop-color="#5c5ad4"/><stop offset=".87" stop-color="#5253c5"/><stop offset=".91" stop-color="#4247ac"/><stop offset=".95" stop-color="#2c368a"/><stop offset=".99" stop-color="#10205d"/><stop offset="1" stop-color="#06194e"/><stop offset="1" stop-color="#05184c"/><stop offset="1" stop-color="#011445"/><stop offset="1" stop-color="#001444"/></linearGradient><clipPath id="h"><path class="r" d="M607.08,802.91h0Zm4.1,0h0Zm4.1,0h0Zm4.09,0h0Zm4.1,0h0Zm4.1,0h0Zm4.1,0h0Zm4.1,0h0Zm4.1,0h0Zm4.1,0h0Zm4.1,0h0Zm4.1,0h0Zm4.09,0h0Zm4.1,0h0Zm4.1,0h0Zm4.1,0h0Zm4.1,0h0Zm4.1,0h0Zm4.1,0h0Zm4.1,0h0Zm4.1,0h0Zm4.09,0h0Zm4.1,0h0Zm4.1,0h0Zm4.1,0h0Zm4.1,0h0Zm4.1,0h0Zm4.1,0h0Zm4.1,0h0Zm4.1,0h0Zm4.09,0h0Zm4.1,0h0Zm4.09-.04c.68-.03,1.36-.07,2.04-.13-.68,.06-1.36,.1-2.04,.13m-133.1,0c-.68-.03-1.37-.07-2.05-.13,.68,.06,1.36,.1,2.05,.13m137.18-.34c.68-.09,1.35-.19,2.02-.3-.67,.11-1.34,.21-2.02,.3m-141.26,0c-.68-.09-1.35-.19-2.03-.3,.67,.12,1.35,.22,2.03,.3m145.29-.68c.67-.14,1.33-.3,1.99-.47-.66,.17-1.32,.33-1.99,.47m-149.33-.01c-.67-.14-1.33-.3-1.99-.48,.66,.17,1.32,.33,1.99,.48m153.29-1.01c.65-.2,1.3-.41,1.94-.64-.64,.23-1.29,.44-1.94,.64m-157.25-.02c-.65-.2-1.3-.42-1.94-.64,.64,.23,1.29,.44,1.94,.64m161.11-1.33c.63-.25,1.26-.52,1.88-.8-.62,.28-1.25,.55-1.88,.8m-164.97-.04c-.63-.26-1.26-.53-1.88-.81,.62,.28,1.25,.55,1.88,.81m168.7-1.64c.61-.31,1.21-.63,1.81-.96-.6,.33-1.2,.65-1.81,.96m-172.43-.05c-.61-.31-1.21-.63-1.81-.96,.59,.33,1.2,.66,1.81,.96m176.01-1.94c.58-.36,1.16-.73,1.72-1.11-.57,.38-1.14,.75-1.72,1.11m-179.58-.07c-.58-.36-1.15-.73-1.72-1.11,.56,.38,1.14,.76,1.72,1.11m182.97-2.22c.55-.4,1.09-.82,1.62-1.25-.53,.43-1.07,.85-1.62,1.25m-186.35-.08c-.55-.41-1.09-.83-1.62-1.26,.53,.43,1.07,.85,1.62,1.26m189.54-2.49c.51-.45,1.02-.91,1.51-1.39-.49,.47-1,.93-1.51,1.39m-192.72-.09c-.51-.45-1.01-.91-1.5-1.39,.49,.47,.99,.94,1.5,1.39m195.68-2.74c.47-.49,.93-1,1.39-1.51-.45,.51-.91,1.02-1.39,1.51m-198.62-.1c-.47-.49-.93-1-1.38-1.51,.45,.51,.91,1.02,1.38,1.51m201.33-2.98c.43-.53,.85-1.07,1.25-1.62-.41,.55-.82,1.09-1.25,1.62m-204.02-.1c-.43-.53-.84-1.07-1.25-1.62,.4,.55,.82,1.09,1.25,1.62m206.46-3.19c.38-.56,.75-1.14,1.11-1.72-.36,.58-.73,1.16-1.11,1.72m-208.88-.1c-.38-.56-.75-1.14-1.1-1.72,.36,.58,.72,1.16,1.1,1.72m211.03-3.39l1.02-1.77-1.02,1.77Zm-213.17-.1l-1.02-1.77,1.02,1.77Zm215.22-3.45l1.02-1.77-1.02,1.77Zm-217.27-.1l-1.02-1.77,1.02,1.77Zm219.32-3.45l1.02-1.77-1.02,1.77Zm-221.36-.1l-1.02-1.77,1.02,1.77Zm223.41-3.45l1.02-1.77-1.02,1.77Zm-225.46-.1l-1.02-1.77,1.02,1.77Zm227.51-3.45l1.02-1.77-1.02,1.77Zm-229.55-.1l-1.02-1.77,1.02,1.77Zm231.6-3.45l1.02-1.77-1.02,1.77Zm-233.65-.1l-1.02-1.77,1.02,1.77Zm235.7-3.45l1.02-1.77-1.02,1.77Zm-237.74-.1l-1.02-1.77,1.02,1.77Zm239.79-3.45l1.02-1.77-1.02,1.77Zm-241.84-.1l-1.02-1.77,1.02,1.77Zm243.89-3.45l1.02-1.77-1.02,1.77Zm-245.94-.1l-1.02-1.77,1.02,1.77Zm247.98-3.45l1.02-1.77-1.02,1.77Zm-250.03-.1l-1.02-1.77,1.02,1.77Zm252.08-3.45l1.02-1.77-1.02,1.77Zm-254.13-.1l-1.02-1.77,1.02,1.77Zm256.17-3.45l1.02-1.77-1.02,1.77Zm-258.22-.1l-1.02-1.77,1.02,1.77Zm260.27-3.45l1.02-1.77-1.02,1.77Zm-262.32-.1l-1.02-1.77,1.02,1.77Zm264.36-3.45l1.02-1.77-1.02,1.77Zm-266.41-.1l-1.02-1.77,1.02,1.77Zm268.46-3.45l1.02-1.77-1.02,1.77Zm-270.51-.1l-1.02-1.77,1.02,1.77Zm272.55-3.45l1.02-1.77-1.02,1.77Zm-274.6-.1l-1.02-1.77,1.02,1.77Zm276.65-3.45l1.02-1.77-1.02,1.77Zm-278.7-.1l-1.02-1.77,1.02,1.77Zm280.75-3.45l1.02-1.77-1.02,1.77Zm-282.79-.1l-1.02-1.77,1.02,1.77Zm284.84-3.45l1.02-1.77-1.02,1.77Zm-286.89-.1l-1.02-1.77,1.02,1.77Zm288.94-3.45l1.02-1.77-1.02,1.77Zm-290.98-.1l-1.02-1.77,1.02,1.77Zm293.03-3.45l1.02-1.77-1.02,1.77Zm-295.08-.1l-1.02-1.77,1.02,1.77Zm297.13-3.45l1.02-1.77-1.02,1.77Zm-299.17-.1l-1.02-1.77,1.02,1.77Zm301.22-3.45l1.02-1.77-1.02,1.77Zm-303.27-.1l-1.02-1.77,1.02,1.77Zm305.32-3.45l1.02-1.77-1.02,1.77Zm-307.36-.1l-1.02-1.77,1.02,1.77Zm309.41-3.45l1.02-1.77-1.02,1.77Zm-311.46-.1l-1.02-1.77,1.02,1.77Zm313.51-3.45l1.02-1.77-1.02,1.77Zm-315.55-.1l-1.02-1.77,1.02,1.77Zm317.6-3.45l1.02-1.77-1.02,1.77Zm-319.65-.1l-1.02-1.77,1.02,1.77Zm321.7-3.45l1.02-1.77-1.02,1.77Zm-323.74-.1l-1.02-1.77,1.02,1.77Zm325.79-3.45l1.02-1.77-1.02,1.77Zm-327.84-.1l-1.02-1.77,1.02,1.77Zm329.89-3.45l1.02-1.77-1.02,1.77Zm-331.94-.1l-1.02-1.77,1.02,1.77Zm333.98-3.45l1.02-1.77-1.02,1.77Zm-336.03-.1l-1.02-1.77,1.02,1.77Zm338.82-4.74l-.74,1.29,.74-1.29c.09-.16,.18-.32,.28-.49-.09,.16-.18,.33-.28,.49m-341.56,0l.69,1.19-.69-1.19c-.11-.19-.22-.39-.33-.58,.11,.2,.22,.39,.33,.58m342.79-2.3c.31-.61,.6-1.23,.88-1.85-.28,.62-.58,1.24-.88,1.85m-344.08-.1c-.31-.61-.6-1.23-.88-1.85,.28,.62,.57,1.24,.88,1.85m345.77-3.63c.25-.63,.5-1.27,.72-1.92-.23,.64-.47,1.28-.72,1.92m-347.45-.1c-.25-.64-.49-1.27-.72-1.92,.23,.64,.47,1.28,.72,1.92m348.82-3.76c.2-.65,.39-1.31,.56-1.97-.17,.66-.36,1.32-.56,1.97m-350.18-.11c-.2-.65-.38-1.31-.55-1.97,.17,.66,.36,1.32,.55,1.97m351.21-3.86c.14-.67,.27-1.34,.39-2.01-.12,.67-.24,1.34-.39,2.01m-352.23-.11c-.14-.67-.27-1.34-.38-2.01,.11,.67,.24,1.34,.38,2.01m352.92-3.93c.09-.68,.16-1.36,.22-2.04-.06,.68-.13,1.36-.22,2.04m-353.6-.11c-.08-.68-.16-1.36-.21-2.04,.06,.68,.13,1.36,.21,2.04m-.38-6c0,.64,.01,1.28,.04,1.92-.03-.64-.04-1.28-.04-1.92m354.33,2.03c.03-.68,.04-1.36,.04-2.05,0,.68-.01,1.37-.04,2.05m-354.33-2.03s0-.09,0-.13c0,.04,0,.09,0,.13m354.33-1.84c-.03-.68-.07-1.36-.12-2.04,.05,.68,.1,1.36,.12,2.04m-354.29-.34c.03-.68,.08-1.36,.14-2.04-.06,.68-.1,1.36-.14,2.04m353.96-3.74c-.08-.68-.18-1.35-.29-2.03,.11,.67,.21,1.35,.29,2.03m-353.6-.34c.09-.68,.19-1.35,.31-2.02-.12,.67-.22,1.35-.31,2.02m352.92-3.7c-.14-.67-.3-1.33-.46-1.99,.17,.66,.32,1.33,.46,1.99m-352.22-.33c.15-.67,.31-1.33,.48-1.99-.17,.66-.33,1.32-.48,1.99m351.21-3.63c-.2-.65-.41-1.3-.63-1.95,.22,.65,.44,1.29,.63,1.95m-350.17-.32c.2-.65,.42-1.3,.65-1.94-.23,.64-.44,1.29-.65,1.94m348.82-3.54c-.25-.63-.52-1.26-.79-1.89,.28,.62,.54,1.25,.79,1.89m-347.45-.31c.25-.63,.52-1.26,.81-1.88-.28,.62-.55,1.25-.81,1.88m345.78-3.43c-.3-.61-.62-1.21-.95-1.81,.33,.6,.65,1.2,.95,1.81m-344.08-.3c.31-.61,.63-1.21,.96-1.81-.33,.6-.66,1.2-.96,1.81m342.12-3.29l-1.02-1.77,1.02,1.77Zm-340.13-.29l1.02-1.77-1.02,1.77Zm338.08-3.26l-1.02-1.77,1.02,1.77Zm-336.04-.29l1.02-1.77-1.02,1.77Zm333.99-3.26l-1.02-1.77,1.02,1.77Zm-331.94-.29l1.02-1.77-1.02,1.77Zm329.89-3.26l-1.02-1.77,1.02,1.77Zm-327.85-.29l1.02-1.77-1.02,1.77Zm325.8-3.26l-1.02-1.77,1.02,1.77Zm-323.75-.29l1.02-1.77-1.02,1.77Zm321.7-3.26l-1.02-1.77,1.02,1.77Zm-319.65-.29l1.02-1.77-1.02,1.77Zm317.61-3.26l-1.02-1.77,1.02,1.77Zm-315.56-.29l1.02-1.77-1.02,1.77Zm313.51-3.26l-1.02-1.77,1.02,1.77Zm-311.46-.29l1.02-1.77-1.02,1.77Zm309.42-3.26l-1.02-1.77,1.02,1.77Zm-307.37-.29l1.02-1.77-1.02,1.77Zm305.32-3.26l-1.02-1.77,1.02,1.77Zm-303.27-.29l1.02-1.77-1.02,1.77Zm301.23-3.26l-1.02-1.77,1.02,1.77Zm-299.18-.29l1.02-1.77-1.02,1.77Zm297.13-3.26l-1.02-1.77,1.02,1.77Zm-295.08-.29l1.02-1.77-1.02,1.77Zm293.04-3.26l-1.02-1.77,1.02,1.77Zm-290.99-.29l1.02-1.77-1.02,1.77Zm288.94-3.26l-1.02-1.77,1.02,1.77Zm-286.89-.29l1.02-1.77-1.02,1.77Zm284.85-3.26l-1.02-1.77,1.02,1.77Zm-282.8-.29l1.02-1.77-1.02,1.77Zm280.75-3.26l-1.02-1.77,1.02,1.77Zm-278.7-.29l1.02-1.77-1.02,1.77Zm276.66-3.26l-1.02-1.77,1.02,1.77Zm-274.61-.29l1.02-1.77-1.02,1.77Zm272.56-3.26l-1.02-1.77,1.02,1.77Zm-270.51-.29l1.02-1.77-1.02,1.77Zm268.47-3.26l-1.02-1.77,1.02,1.77Zm-266.42-.29l1.02-1.77-1.02,1.77Zm264.37-3.26l-1.02-1.77,1.02,1.77Zm-262.32-.29l1.02-1.77-1.02,1.77Zm260.27-3.26l-1.02-1.77,1.02,1.77Zm-258.23-.29l1.02-1.77-1.02,1.77Zm256.18-3.26l-1.02-1.77,1.02,1.77Zm-254.13-.29l1.02-1.77-1.02,1.77Zm252.08-3.26l-1.02-1.77,1.02,1.77Zm-250.04-.29l1.02-1.77-1.02,1.77Zm247.99-3.26l-1.02-1.77,1.02,1.77Zm-245.94-.29l1.02-1.77-1.02,1.77Zm243.89-3.26l-1.02-1.77,1.02,1.77Zm-241.85-.29l1.02-1.77-1.02,1.77Zm239.8-3.26l-1.02-1.77,1.02,1.77Zm-237.75-.29l1.02-1.77-1.02,1.77Zm235.7-3.26l-1.02-1.77,1.02,1.77Zm-233.66-.29l1.02-1.77-1.02,1.77Zm231.61-3.26l-1.02-1.77,1.02,1.77Zm-229.56-.29l1.02-1.77-1.02,1.77Zm227.51-3.26l-1.02-1.77,1.02,1.77Zm-225.47-.29l1.02-1.77-1.02,1.77Zm223.42-3.26l-1.02-1.77,1.02,1.77Zm-221.37-.29l1.02-1.77-1.02,1.77Zm219.32-3.26l-1.02-1.77,1.02,1.77Zm-217.28-.29l1.02-1.77-1.02,1.77Zm214.73-4.12l.5,.87-.5-.87c-.18-.3-.35-.6-.54-.9,.18,.3,.36,.6,.54,.9m-212.35,0l-.33,.58,.33-.58c.23-.4,.47-.8,.71-1.19-.24,.39-.48,.79-.71,1.19m210.71-2.63c-.38-.57-.77-1.13-1.17-1.68,.4,.55,.79,1.11,1.17,1.68m-208.89-.28c.38-.57,.78-1.12,1.19-1.67-.41,.55-.8,1.1-1.19,1.67m206.47-3.02c-.43-.53-.86-1.06-1.31-1.57,.45,.51,.88,1.04,1.31,1.57m-204.03-.27c.43-.53,.87-1.05,1.32-1.56-.45,.51-.89,1.03-1.32,1.56m201.34-2.81c-.47-.5-.95-.98-1.44-1.45,.49,.47,.97,.96,1.44,1.45m-198.63-.26c.47-.49,.96-.97,1.45-1.44-.49,.47-.98,.95-1.45,1.44m195.69-2.58c-.51-.45-1.03-.9-1.56-1.33,.53,.43,1.05,.87,1.56,1.33m-192.72-.24c.51-.45,1.04-.89,1.57-1.32-.53,.43-1.06,.87-1.57,1.32m189.55-2.34c-.55-.41-1.1-.8-1.67-1.19,.56,.38,1.12,.78,1.67,1.19m-186.36-.22c.55-.4,1.11-.8,1.68-1.18-.57,.38-1.13,.77-1.68,1.18m182.98-2.09c-.58-.36-1.17-.71-1.76-1.04,.59,.34,1.18,.68,1.76,1.04m-179.58-.19c.58-.36,1.17-.7,1.77-1.03-.6,.33-1.19,.67-1.77,1.03m176.01-1.82c-.61-.31-1.22-.61-1.84-.89,.62,.28,1.24,.58,1.84,.89m-172.43-.17c.61-.31,1.23-.6,1.85-.88-.62,.28-1.24,.57-1.85,.88m168.7-1.54c-.63-.26-1.27-.5-1.91-.73,.64,.23,1.28,.47,1.91,.73m-164.97-.14c.63-.25,1.27-.49,1.92-.72-.64,.23-1.28,.46-1.92,.72m161.11-1.24c-.65-.2-1.31-.39-1.97-.57,.66,.18,1.32,.36,1.97,.57m-157.25-.11c.65-.2,1.31-.38,1.97-.55-.66,.17-1.32,.35-1.97,.55m153.29-.94c-.67-.15-1.34-.28-2.01-.4,.67,.12,1.34,.25,2.01,.4m-149.33-.08c.67-.14,1.34-.27,2.01-.38-.67,.11-1.34,.24-2.01,.38m145.29-.63c-.68-.09-1.36-.16-2.04-.23,.68,.06,1.36,.14,2.04,.23m-141.26-.04c.68-.08,1.35-.15,2.03-.21-.68,.06-1.36,.13-2.03,.21m137.18-.32c-.68-.03-1.36-.05-2.05-.05,.69,0,1.37,.02,2.05,.05m-131.33-.05c-.59,0-1.19,.01-1.78,.04,.59-.02,1.18-.04,1.78-.04h0Zm2.32,0h0Zm4.09,0h0Zm4.1,0h0Zm4.1,0h0Zm4.1,0h0Zm4.1,0h0Zm4.1,0h0Zm4.1,0h0Zm4.1,0h0Zm4.1,0h0Zm4.09,0h0Zm4.1,0h0Zm4.1,0h0Zm4.1,0h0Zm4.1,0h0Zm4.1,0h0Zm4.1,0h0Zm4.1,0h0Zm4.1,0h0Zm4.09,0h0Zm4.1,0h0Zm4.1,0h0Zm4.1,0h0Zm4.1,0h0Zm4.1,0h0Zm4.1,0h0Zm4.1,0h0Zm4.1,0h0Zm4.09,0h0Zm4.1,0h0Zm4.1,0h0Z"/></clipPath><linearGradient id="j" x1="346.48" y1="642.99" x2="996.81" y2="642.99" gradientTransform="translate(834.08 -272.52) rotate(56.31)" xlink:href="#i"/></defs><g><path class="s" d="M36.72,90.2c1.89,0,3.79,.53,5.45,1.48l25.47,14.69c3.38,1.95,5.45,5.57,5.45,9.48v29.43c0,3.91-2.07,7.52-5.45,9.48l-25.47,14.69c-3.38,1.95-7.52,1.95-10.96,0l-25.47-14.69c-3.38-1.96-5.45-5.57-5.45-9.48v-29.43c0-3.91,2.07-7.52,5.45-9.48l25.47-14.69c1.72-1.01,3.61-1.48,5.51-1.48"/><path class="p" d="M36.72,90.2c1.89,0,3.79,.53,5.45,1.48l25.47,14.69c3.38,1.95,5.45,5.57,5.45,9.48v29.43c0,3.91-2.07,7.52-5.45,9.48l-25.47,14.69c-3.38,1.95-7.52,1.95-10.96,0l-25.47-14.69c-3.38-1.96-5.45-5.57-5.45-9.48v-29.43c0-3.91,2.07-7.52,5.45-9.48l25.47-14.69c1.72-1.01,3.61-1.48,5.51-1.48Z"/><path d="M25.94,129.4c.47,.47,.65,1.12,.65,1.78v3.26h-1.42v-3.08c0-.35-.12-.71-.35-1.01-.24-.24-.59-.36-.89-.36-.35,0-.65,.12-.89,.36-.24,.3-.35,.65-.35,1.01v3.08h-1.42v-3.08c0-.35-.12-.71-.36-1.01-.24-.24-.59-.36-.89-.36-.36,0-.65,.12-.89,.36-.24,.3-.35,.65-.35,1.01v3.08h-1.42v-5.57h1.42v.65c.18-.24,.41-.41,.71-.53,.3-.12,.59-.18,.95-.18,.42,0,.83,.06,1.18,.3,.36,.18,.59,.47,.77,.77,.18-.36,.47-.59,.77-.77,.95-.53,2.01-.42,2.78,.3"/><path d="M27.95,127.98c-.35-.3-.35-.83,0-1.18,.18-.18,.36-.24,.59-.24s.41,.06,.59,.24c.36,.3,.36,.83,0,1.18-.18,.18-.36,.24-.59,.24-.18,0-.41-.12-.59-.24m1.36,6.45h-1.42v-5.57h1.42v5.57Z"/><path d="M31.57,134.26c-.36-.12-.65-.35-.89-.65-.18-.3-.3-.59-.36-.95h1.42c0,.24,.12,.42,.3,.53,.41,.24,.89,.3,1.3,.06,.12-.12,.24-.24,.24-.41s-.12-.36-.3-.42c-.3-.12-.59-.24-.89-.3-.35-.06-.71-.18-1.01-.3-.24-.12-.47-.3-.71-.47-.18-.24-.3-.59-.3-.89s.12-.59,.3-.83c.18-.24,.47-.47,.77-.59,.36-.18,.77-.24,1.18-.24,.59-.06,1.12,.12,1.6,.47,.41,.36,.65,.83,.65,1.36h-1.36c0-.18-.12-.41-.3-.53-.18-.12-.41-.18-.65-.18-.18,0-.41,.06-.59,.12-.24,.12-.3,.42-.12,.65,.06,.06,.12,.12,.18,.18,.3,.12,.59,.24,.89,.3,.35,.06,.65,.18,1.01,.3,.24,.12,.47,.3,.65,.47,.18,.24,.3,.59,.3,.89s-.12,.59-.24,.89c-.18,.24-.47,.47-.77,.59-.36,.18-.77,.24-1.18,.24-.36-.06-.77-.12-1.12-.3"/><path d="M37.01,134.26c-.36-.12-.65-.35-.83-.65-.18-.3-.35-.59-.35-.95h1.42c0,.24,.12,.42,.3,.53,.18,.12,.42,.24,.71,.24,.24,0,.41-.06,.65-.18,.12-.06,.24-.24,.24-.41s-.12-.36-.3-.42c-.3-.12-.59-.24-.89-.3-.36-.06-.71-.18-1.01-.3-.24-.12-.47-.3-.71-.47-.18-.24-.3-.59-.3-.89s.12-.59,.24-.83c.18-.3,.47-.47,.83-.59,.35-.18,.77-.24,1.18-.24,.59-.06,1.13,.12,1.6,.47,.42,.36,.65,.83,.65,1.36h-1.36c0-.24-.12-.41-.3-.53-.18-.12-.41-.24-.65-.18-.18,0-.41,.06-.59,.12-.12,.06-.18,.24-.18,.42s.12,.35,.3,.41c.3,.12,.59,.24,.89,.3,.35,.06,.65,.18,1.01,.3,.24,.12,.47,.3,.65,.47,.18,.24,.3,.53,.3,.89,0,.3-.12,.59-.24,.89-.18,.24-.47,.47-.77,.59-.36,.18-.77,.24-1.18,.24-.47-.06-.89-.12-1.3-.3"/><path d="M41.69,127.98c-.35-.3-.35-.83,0-1.18,.18-.18,.35-.24,.59-.24s.42,.06,.59,.24c.36,.3,.36,.83,0,1.18-.18,.18-.36,.24-.59,.24s-.41-.12-.59-.24m1.3,6.45h-1.42v-5.57h1.42v5.57Z"/><path d="M45.42,134.14c-.42-.24-.77-.59-1.01-1.01-.24-.47-.35-1.01-.35-1.48,0-.53,.12-1.07,.35-1.48s.59-.77,1.01-1.01c.89-.47,2.01-.47,2.9,0,.41,.24,.77,.59,1.01,1.01,.24,.47,.35,1.01,.35,1.48,0,.53-.12,1.07-.41,1.48-.24,.42-.59,.77-1.07,1.01-.47,.24-.95,.35-1.48,.35-.35,0-.89-.12-1.3-.35m2.13-1.01c.24-.12,.41-.3,.53-.53,.12-.3,.24-.59,.18-.89,0-.47-.12-.89-.42-1.24-.24-.3-.65-.42-1.01-.42s-.77,.12-1.01,.42c-.53,.71-.53,1.72,0,2.43,.24,.3,.59,.42,1.01,.42,.24,0,.53-.06,.71-.18"/><path d="M55.49,129.4c.41,.47,.65,1.12,.59,1.78v3.26h-1.36v-3.08c0-.35-.12-.71-.35-1.01-.24-.24-.59-.36-.89-.36-.35,0-.65,.12-.95,.36-.24,.3-.36,.65-.36,1.01v3.08h-1.42v-5.57h1.42v.71c.18-.24,.41-.47,.71-.59,.3-.12,.65-.24,.95-.24,.65,0,1.18,.24,1.66,.65"/><path class="s" d="M131.24,67.99c1.89,0,3.79,.47,5.45,1.48l25.47,14.69c3.38,1.95,5.45,5.57,5.45,9.48v29.43c0,3.91-2.07,7.52-5.45,9.48l-25.47,14.69c-3.38,1.95-7.52,1.95-10.96,0l-25.47-14.69c-3.38-1.96-5.45-5.57-5.45-9.48v-29.43c0-3.91,2.07-7.52,5.45-9.48l25.47-14.69c1.72-1.01,3.61-1.48,5.51-1.48"/><path class="p" d="M131.24,67.99c1.89,0,3.79,.47,5.45,1.48l25.47,14.69c3.38,1.95,5.45,5.57,5.45,9.48v29.43c0,3.91-2.07,7.52-5.45,9.48l-25.47,14.69c-3.38,1.95-7.52,1.95-10.96,0l-25.47-14.69c-3.38-1.96-5.45-5.57-5.45-9.48v-29.43c0-3.91,2.07-7.52,5.45-9.48l25.47-14.69c1.72-1.01,3.61-1.48,5.51-1.48Z"/><path d="M104.53,106.78c.41-.83,1.3-1.36,2.19-1.36,.36,0,.71,.06,1.01,.24,.3,.12,.59,.36,.77,.65v-2.61h1.42v7.4h-1.42v-.83c-.18,.3-.41,.53-.71,.65-.36,.18-.71,.24-1.12,.24-.47,0-.89-.12-1.3-.35-.42-.24-.71-.59-.95-1.01-.24-.47-.36-1.01-.36-1.54,.12-.47,.24-1.01,.47-1.48m3.85,.65c-.12-.24-.3-.41-.53-.53-.24-.12-.47-.18-.71-.18s-.47,.06-.71,.18c-.24,.12-.42,.3-.53,.53-.12,.24-.24,.59-.24,.89s.06,.59,.24,.89c.12,.24,.3,.47,.53,.59,.24,.12,.47,.18,.71,.18s.53-.06,.71-.18c.24-.12,.42-.35,.53-.53,.24-.65,.24-1.3,0-1.84"/><path d="M116.43,108.73h-4.09c0,.35,.18,.71,.41,.95,.24,.24,.59,.36,.89,.36,.47,.06,.95-.24,1.12-.65h1.54c-.18,.53-.47,1.01-.95,1.3-.47,.35-1.07,.53-1.66,.53-.47,0-1.01-.12-1.42-.35-.42-.24-.77-.59-1.01-1.01-.24-.47-.36-1.01-.36-1.48,0-.53,.12-1.07,.36-1.54,.24-.41,.59-.77,1.01-1.01,.89-.47,1.95-.47,2.9,0,.42,.24,.77,.53,.95,.95,.24,.42,.36,.95,.36,1.42,0,.18,0,.35-.06,.53m-1.36-.95c0-.35-.12-.65-.42-.89-.24-.24-.59-.36-.95-.36-.3,0-.65,.12-.89,.3-.24,.24-.42,.53-.42,.89l2.67,.06Z"/><path d="M117.5,106.78c.18-.42,.53-.77,.95-1.01,.71-.42,1.6-.47,2.31-.12,.3,.12,.59,.36,.77,.65v-2.61h1.42v7.4h-1.42v-.83c-.18,.3-.42,.53-.71,.65-.35,.18-.71,.24-1.07,.24-.47,0-.89-.12-1.3-.35-.42-.24-.71-.59-.95-1.01-.24-.47-.36-1.01-.36-1.54,0-.47,.12-1.01,.36-1.48m3.85,.65c-.12-.24-.3-.41-.53-.53-.24-.12-.47-.18-.71-.18s-.53,.06-.71,.18c-.24,.12-.42,.3-.53,.53-.12,.3-.24,.59-.18,.89,0,.3,.06,.59,.18,.89,.12,.24,.3,.47,.53,.59,.24,.12,.47,.18,.71,.18,.53,0,1.01-.3,1.24-.77,.24-.59,.24-1.24,0-1.78"/><path d="M124.43,104.65c-.18-.18-.24-.36-.24-.59s.06-.42,.24-.59c.36-.3,.89-.3,1.24,0,.18,.18,.24,.35,.24,.59s-.06,.41-.24,.59c-.36,.3-.89,.3-1.24,0m1.3,6.45h-1.42v-5.57h1.42v5.57Z"/><path d="M127.09,106.78c.24-.41,.53-.77,.95-1.01,.41-.24,.95-.35,1.42-.35,.59,0,1.18,.18,1.72,.53,.47,.35,.77,.89,.89,1.42h-1.48c-.06-.24-.24-.47-.41-.59-.18-.12-.47-.24-.71-.24-.36,0-.71,.18-.95,.41-.47,.77-.47,1.72,0,2.49,.24,.3,.59,.47,.95,.42,.47,.06,.95-.24,1.12-.71h1.54c-.12,.59-.47,1.07-.95,1.42-.47,.36-1.07,.53-1.72,.53-.47,0-1.01-.12-1.42-.36-.42-.24-.77-.59-.95-1.01-.24-.47-.36-1.01-.36-1.48s.12-1.01,.36-1.48"/><path d="M133.13,106.78c.18-.42,.53-.77,.89-1.01,.41-.24,.83-.36,1.3-.36,.36,0,.77,.06,1.07,.24,.3,.18,.53,.36,.77,.65v-.77h1.42v5.57h-1.42v-.83c-.18,.3-.47,.47-.77,.65-.35,.18-.71,.24-1.12,.24-.47,0-.89-.12-1.3-.35-.41-.24-.71-.59-.89-1.01-.24-.47-.36-1.01-.36-1.54,.06-.47,.18-1.01,.42-1.48m3.79,.65c-.12-.24-.3-.41-.53-.53-.24-.12-.47-.18-.71-.18s-.47,.06-.71,.18c-.24,.12-.42,.3-.53,.53-.12,.24-.24,.59-.24,.89s.06,.59,.24,.89c.12,.24,.3,.47,.53,.59,.24,.12,.47,.18,.71,.18s.53-.06,.71-.18c.24-.12,.42-.35,.53-.53,.3-.65,.3-1.3,0-1.84"/><path d="M141.6,106.66v2.67c0,.18,.06,.3,.12,.42,.12,.12,.3,.12,.47,.12h.65v1.18h-.89c-1.18,0-1.78-.59-1.78-1.72v-2.67h-.71v-1.12h.65v-1.36h1.42v1.36h1.24v1.12h-1.18Z"/><path d="M143.91,104.65c-.18-.18-.24-.36-.24-.59s.06-.42,.24-.59c.18-.18,.36-.24,.59-.24s.41,.06,.59,.24c.18,.18,.24,.35,.24,.59s-.06,.41-.24,.59c-.18,.18-.36,.24-.59,.24s-.42-.12-.59-.24m1.3,6.45h-1.42v-5.57h1.42v5.57Z"/><path d="M147.64,110.81c-.42-.24-.77-.59-1.01-1.01-.24-.47-.36-1.01-.36-1.48,0-.53,.12-1.07,.36-1.48,.24-.42,.59-.77,1.01-1.01,.89-.47,2.01-.47,2.9,0,.41,.24,.77,.59,1.01,1.01,.24,.47,.36,1.01,.36,1.48,0,.53-.12,1.07-.36,1.48-.24,.42-.59,.77-1.07,1.01-.47,.24-.95,.35-1.48,.35-.41,0-.95-.12-1.36-.35m2.13-1.07c.24-.12,.41-.3,.53-.53,.12-.3,.24-.59,.18-.89,.06-.47-.12-.89-.42-1.24-.24-.3-.65-.42-1.01-.42s-.77,.12-1.01,.42c-.3,.35-.41,.77-.41,1.24,0,.41,.12,.83,.41,1.18,.24,.3,.59,.41,1.01,.41,.3,0,.53-.06,.71-.18"/><path d="M157.71,106.07c.41,.47,.65,1.12,.59,1.72v3.26h-1.42v-3.08c0-.35-.12-.71-.36-1.01-.24-.24-.59-.35-.89-.35-.35,0-.65,.12-.89,.35-.24,.3-.36,.65-.36,1.01v3.08h-1.42v-5.57h1.42v.71c.18-.24,.42-.47,.71-.59,.3-.12,.65-.24,.95-.24,.65,.06,1.24,.3,1.66,.71"/><path class="s" d="M210.54,.3c1.89,0,3.79,.47,5.45,1.48l25.47,14.69c3.38,1.95,5.45,5.57,5.45,9.48v29.43c0,3.91-2.07,7.52-5.45,9.48l-25.47,14.69c-3.38,1.95-7.52,1.95-10.96,0l-25.47-14.69c-3.38-1.95-5.45-5.57-5.45-9.48V25.94c0-3.91,2.07-7.52,5.45-9.48L205.03,1.78c1.72-1.01,3.61-1.48,5.51-1.48"/><path class="p" d="M210.54,.3c1.89,0,3.79,.47,5.45,1.48l25.47,14.69c3.38,1.95,5.45,5.57,5.45,9.48v29.43c0,3.91-2.07,7.52-5.45,9.48l-25.47,14.69c-3.38,1.95-7.52,1.95-10.96,0l-25.47-14.69c-3.38-1.95-5.45-5.57-5.45-9.48V25.94c0-3.91,2.07-7.52,5.45-9.48L205.03,1.78c1.72-1.01,3.61-1.48,5.51-1.48Z"/><path d="M189.22,39.09c.18-.41,.53-.77,.89-1.01,.41-.24,.83-.36,1.3-.36,.36,0,.71,.06,1.01,.24,.3,.12,.59,.36,.77,.65v-2.61h1.42v7.4h-1.42v-.83c-.18,.3-.41,.53-.71,.65-.36,.18-.71,.24-1.12,.24-.47,0-.95-.12-1.3-.42-.36-.24-.71-.59-.89-1.01-.41-.89-.41-1.95,.06-2.96m3.85,.65c-.12-.24-.3-.47-.53-.59-.24-.12-.47-.18-.71-.18s-.47,.06-.71,.18c-.24,.12-.42,.35-.53,.53-.12,.3-.24,.59-.24,.89s.06,.59,.24,.89c.12,.24,.3,.47,.53,.59,.24,.12,.47,.18,.71,.18s.53-.06,.71-.18c.24-.12,.42-.36,.53-.53,.24-.59,.24-1.24,0-1.78"/><path d="M196.09,36.95c-.18-.18-.24-.35-.24-.59s.06-.41,.24-.59c.18-.18,.35-.24,.59-.24s.41,.06,.59,.24,.24,.35,.24,.59-.06,.42-.24,.59c-.18,.18-.36,.24-.59,.24-.18,0-.41-.06-.59-.24m1.3,6.46h-1.42v-5.57h1.42v5.57Z"/><polygon points="201.12 42.11 202.54 37.84 204.08 37.84 202.01 43.41 200.29 43.41 198.22 37.84 199.7 37.84 201.12 42.11"/><path d="M209.95,41.04h-4.09c0,.35,.18,.71,.42,.95,.24,.24,.59,.35,.89,.35,.47,0,.89-.24,1.12-.65h1.48c-.18,.53-.47,1.01-.89,1.3-.47,.35-1.07,.53-1.66,.53-.47,0-1.01-.12-1.42-.35-.41-.24-.77-.59-1.01-1.01-.24-.47-.36-1.01-.36-1.48,0-.53,.12-1.07,.36-1.54,.24-.41,.59-.77,1.01-1.01,.89-.47,1.95-.47,2.9,0,.41,.24,.77,.53,.95,.95,.24,.42,.36,.95,.36,1.42,0,.18-.06,.35-.06,.53m-1.42-.95c0-.35-.12-.65-.42-.89-.24-.24-.59-.36-.95-.36-.3,0-.65,.12-.89,.3-.24,.24-.42,.53-.42,.89h2.67v.06Z"/><path d="M213.09,38.02c.3-.18,.65-.24,1.01-.24v1.48h-.36c-.35,0-.71,.06-1.01,.3-.24,.3-.36,.71-.36,1.07v2.78h-1.42v-5.57h1.42v.89c.18-.3,.42-.53,.71-.71"/><path d="M215.93,43.23c-.36-.12-.65-.35-.89-.65-.18-.3-.3-.59-.36-.95h1.42c0,.24,.12,.41,.3,.53,.18,.12,.41,.24,.71,.18,.24,0,.42-.06,.65-.18,.12-.12,.24-.24,.24-.42s-.12-.35-.3-.41c-.3-.12-.59-.24-.89-.3-.35-.06-.71-.18-1.01-.3-.24-.12-.47-.3-.65-.47-.18-.24-.3-.59-.3-.89s.12-.59,.3-.83c.18-.24,.47-.47,.77-.59,.35-.18,.77-.24,1.18-.24,.59-.06,1.13,.12,1.6,.47,.42,.35,.65,.83,.65,1.36h-1.36c0-.18-.12-.41-.3-.53-.18-.12-.41-.18-.65-.18s-.41,.06-.59,.12c-.12,.06-.24,.24-.24,.41s.12,.36,.3,.42c.3,.12,.59,.24,.89,.3,.36,.06,.65,.18,1.01,.3,.24,.12,.47,.3,.65,.47,.18,.24,.3,.59,.3,.89s-.12,.59-.3,.83c-.18,.24-.47,.47-.77,.59-.36,.18-.77,.24-1.18,.24-.36,.12-.77,0-1.18-.18"/><path d="M220.61,36.95c-.18-.18-.24-.35-.24-.59s.06-.41,.24-.59c.18-.18,.36-.24,.59-.24s.42,.06,.59,.24c.18,.18,.24,.35,.24,.59s-.06,.42-.24,.59-.36,.24-.59,.24-.41-.06-.59-.24m1.3,6.46h-1.42v-5.57h1.42v5.57Z"/><path d="M224.93,39.03v2.67c0,.12,.06,.3,.12,.42,.12,.12,.3,.12,.47,.12h.65v1.18h-.89c-1.18,0-1.78-.59-1.78-1.72v-2.67h-.65v-1.12h.65v-1.36h1.42v1.36h1.24v1.12h-1.24Z"/><polygon points="232.51 37.84 229.08 46.02 227.59 46.02 228.78 43.23 226.59 37.84 228.13 37.84 229.55 41.75 231.03 37.84 232.51 37.84"/><path class="s" d="M324.43,256.85c1.89,0,3.79,.53,5.45,1.48l25.47,14.69c3.38,1.95,5.45,5.57,5.45,9.48v29.43c0,3.91-2.07,7.52-5.45,9.48l-25.47,14.69c-3.38,1.95-7.52,1.95-10.96,0l-25.47-14.69c-3.38-1.95-5.45-5.57-5.45-9.48v-29.43c0-3.91,2.07-7.52,5.45-9.48l25.47-14.69c1.72-1.01,3.61-1.48,5.51-1.48"/><path class="p" d="M324.43,256.85c1.89,0,3.79,.53,5.45,1.48l25.47,14.69c3.38,1.95,5.45,5.57,5.45,9.48v29.43c0,3.91-2.07,7.52-5.45,9.48l-25.47,14.69c-3.38,1.95-7.52,1.95-10.96,0l-25.47-14.69c-3.38-1.95-5.45-5.57-5.45-9.48v-29.43c0-3.91,2.07-7.52,5.45-9.48l25.47-14.69c1.72-1.01,3.61-1.48,5.51-1.48Z"/><path d="M302.04,298.01h-4.09c0,.35,.18,.71,.42,.95,.24,.24,.59,.35,.89,.35,.47,0,.89-.24,1.12-.65h1.54c-.18,.53-.47,1.01-.95,1.3-.47,.35-1.07,.53-1.66,.53-.47,0-1.01-.12-1.42-.35-.41-.24-.77-.59-1.01-1.01-.24-.47-.36-1.01-.36-1.48,0-.53,.12-1.07,.36-1.54,.24-.41,.59-.77,1.01-1.01,.89-.47,1.95-.47,2.9,0,.41,.24,.77,.53,.95,.95,.24,.42,.36,.95,.36,1.42-.06,.18-.06,.35-.06,.53m-1.42-.95c0-.35-.12-.65-.42-.89-.24-.24-.59-.36-.95-.3-.3,0-.65,.12-.89,.3-.24,.24-.41,.53-.41,.89h2.67Z"/><polygon points="306.13 300.38 305 298.66 303.99 300.38 302.51 300.38 304.35 297.6 302.51 294.81 304.11 294.81 305.24 296.53 306.24 294.81 307.72 294.81 305.89 297.6 307.72 300.38 306.13 300.38"/><path d="M310.63,294.99c.36-.18,.71-.24,1.07-.24,.47,0,.89,.12,1.3,.35,.42,.24,.71,.59,.89,1.01,.24,.47,.36,1.01,.36,1.48,0,.53-.12,1.01-.36,1.48-.18,.41-.53,.77-.89,1.01-.41,.24-.83,.35-1.3,.35-.35,0-.77-.06-1.07-.24-.3-.18-.53-.35-.77-.65v3.44h-1.36v-8.17h1.42v.83c.18-.3,.41-.47,.71-.65m2.01,1.72c-.24-.47-.77-.77-1.3-.77s-1.01,.3-1.24,.77c-.12,.3-.24,.59-.18,.89,0,.3,.06,.59,.18,.89,.24,.47,.71,.77,1.24,.77,.24,0,.53-.06,.71-.18,.24-.12,.41-.35,.53-.59,.12-.3,.24-.59,.18-.89,.06-.35,0-.65-.12-.89"/><path d="M320.4,298.01h-4.03c0,.35,.18,.71,.42,.95,.24,.24,.59,.35,.89,.35,.47,0,.89-.24,1.12-.65h1.48c-.18,.53-.47,1.01-.89,1.3-.47,.35-1.07,.53-1.66,.53-.47,0-1.01-.12-1.42-.35s-.77-.59-1.01-1.01c-.24-.47-.35-1.01-.35-1.48,0-.53,.12-1.07,.35-1.54,.24-.41,.59-.77,1.01-1.01,.47-.24,.95-.36,1.48-.36,.47,0,1.01,.12,1.42,.36,.41,.24,.77,.53,1.01,.95,.18,.59,.3,1.3,.18,1.96m-1.42-.95c0-.35-.12-.65-.42-.89-.24-.24-.59-.36-.95-.3-.3,0-.65,.12-.89,.3-.24,.24-.42,.53-.42,.89h2.67Z"/><path d="M323.6,294.99c.3-.18,.65-.24,1.01-.24v1.48h-.36c-.35,0-.71,.06-1.01,.3-.24,.3-.36,.71-.36,1.07v2.78h-1.42v-5.57h1.42v.89c.18-.3,.42-.53,.71-.71"/><path d="M325.61,293.93c-.18-.18-.24-.35-.24-.59s.06-.41,.24-.59c.18-.18,.36-.24,.59-.24s.41,.06,.59,.24c.18,.18,.24,.35,.24,.59s-.06,.42-.24,.59c-.18,.18-.36,.24-.59,.24-.18,0-.42-.06-.59-.24m1.3,6.46h-1.42v-5.57h1.42v5.57Z"/><path d="M333.43,298.01h-4.03c0,.35,.18,.71,.42,.95,.24,.24,.59,.35,.89,.35,.47,0,.89-.24,1.12-.65h1.48c-.18,.53-.47,1.01-.89,1.3-.47,.35-1.07,.53-1.66,.53-.47,0-1.01-.12-1.42-.35s-.77-.59-1.01-1.01c-.24-.47-.35-1.01-.35-1.48,0-.53,.12-1.07,.35-1.54,.24-.41,.53-.77,1.01-1.01s.95-.36,1.48-.36c.47,0,1.01,.12,1.42,.36,.41,.24,.77,.53,1.01,.95,.24,.42,.36,.95,.36,1.42-.12,.18-.12,.35-.18,.53m-1.42-.95c0-.35-.12-.65-.42-.89-.24-.24-.59-.36-.95-.3-.3,0-.65,.12-.89,.3-.24,.24-.42,.53-.42,.89h2.67Z"/><path d="M339.17,295.35c.41,.47,.65,1.12,.59,1.78v3.26h-1.42v-3.08c0-.35-.12-.71-.36-1.01-.24-.24-.59-.36-.89-.36-.35,0-.65,.12-.89,.36-.24,.3-.35,.65-.35,1.01v3.08h-1.42v-5.57h1.42v.71c.18-.24,.41-.47,.71-.59,.3-.12,.65-.18,.95-.18,.65-.06,1.24,.18,1.66,.59"/><path d="M341.13,296.06c.24-.41,.53-.77,.95-1.01,.41-.24,.95-.35,1.42-.35,.59,0,1.18,.18,1.72,.53,.47,.35,.77,.89,.89,1.48h-1.54c-.06-.24-.24-.47-.42-.59-.18-.12-.47-.24-.71-.24-.36,0-.71,.18-.95,.42-.47,.77-.47,1.72,0,2.49,.24,.3,.59,.42,.95,.42,.53,.06,.95-.3,1.12-.77h1.54c-.12,.59-.47,1.07-.89,1.42-.47,.36-1.07,.53-1.72,.53-.47,0-1.01-.12-1.42-.36-.42-.24-.77-.59-.95-1.01-.47-.89-.47-2.01,0-2.96"/><path d="M352.26,298.01h-4.09c0,.35,.18,.71,.41,.95,.24,.24,.59,.35,.89,.35,.47,.06,.89-.24,1.12-.65h1.54c-.18,.53-.47,1.01-.95,1.3-.47,.35-1.07,.53-1.66,.53-.47,0-1.01-.12-1.42-.35-.41-.24-.77-.59-1.01-1.01-.24-.47-.36-1.01-.36-1.48,0-.53,.12-1.07,.36-1.54,.24-.41,.59-.77,1.01-1.01,.47-.24,.95-.36,1.48-.36,.47,0,1.01,.12,1.42,.36,.42,.24,.77,.53,.95,.95,.24,.42,.36,.95,.36,1.42,0,.18,0,.35-.06,.53m-1.36-.95c0-.35-.12-.65-.42-.89-.24-.24-.59-.36-.95-.3-.3,0-.65,.12-.89,.3-.24,.24-.42,.53-.42,.89h2.67Z"/><path class="s" d="M83.39,172.4c1.89,0,3.79,.53,5.45,1.48l25.47,14.69c3.38,1.95,5.45,5.57,5.45,9.48v29.43c0,3.91-2.07,7.52-5.45,9.48l-25.47,14.69c-3.38,1.95-7.58,1.95-10.96,0l-25.47-14.69c-3.38-1.95-5.45-5.57-5.45-9.48v-29.43c0-3.91,2.07-7.52,5.45-9.48l25.47-14.69c1.72-1.01,3.61-1.48,5.51-1.48"/><path class="p" d="M83.39,172.4c1.89,0,3.79,.53,5.45,1.48l25.47,14.69c3.38,1.95,5.45,5.57,5.45,9.48v29.43c0,3.91-2.07,7.52-5.45,9.48l-25.47,14.69c-3.38,1.95-7.58,1.95-10.96,0l-25.47-14.69c-3.38-1.95-5.45-5.57-5.45-9.48v-29.43c0-3.91,2.07-7.52,5.45-9.48l25.47-14.69c1.72-1.01,3.61-1.48,5.51-1.48Z"/><polygon points="71.66 215.34 73.08 211.07 74.56 211.07 72.49 216.64 70.77 216.64 68.76 211.07 70.24 211.07 71.66 215.34"/><path d="M75.45,210.18c-.18-.18-.24-.35-.24-.59s.06-.42,.24-.59c.18-.18,.36-.24,.59-.24s.41,.06,.59,.24c.18,.18,.24,.35,.24,.59s-.06,.42-.24,.59c-.18,.18-.36,.24-.59,.24s-.41-.06-.59-.24m1.3,6.46h-1.42v-5.57h1.42v5.57Z"/><path d="M79.06,216.46c-.36-.12-.65-.35-.83-.65-.18-.3-.35-.59-.35-.95h1.42c0,.24,.12,.41,.3,.53,.18,.12,.42,.24,.71,.24,.24,0,.41-.06,.65-.18,.12-.06,.24-.24,.24-.41s-.12-.36-.3-.42c-.3-.12-.59-.24-.89-.3-.36-.06-.71-.18-1.01-.3-.24-.12-.47-.3-.65-.47-.18-.24-.3-.59-.3-.89s.12-.59,.24-.83c.18-.24,.47-.47,.77-.59,.35-.18,.77-.24,1.18-.24,.59-.06,1.13,.12,1.6,.47,.42,.36,.65,.83,.65,1.36h-1.36c0-.18-.12-.41-.3-.53-.36-.24-.83-.24-1.24-.06-.24,.18-.24,.47-.12,.65,.06,.06,.12,.12,.18,.18,.3,.12,.59,.24,.89,.3,.36,.06,.65,.18,1.01,.3,.24,.12,.47,.3,.65,.47,.18,.24,.3,.59,.3,.89s-.12,.59-.24,.89c-.18,.24-.47,.47-.77,.59-.35,.18-.77,.24-1.18,.24s-.89-.12-1.24-.3"/><path d="M83.68,210.18c-.18-.18-.24-.35-.24-.59s.06-.42,.24-.59c.36-.3,.89-.3,1.24,0,.18,.18,.24,.35,.24,.59s-.06,.42-.24,.59c-.36,.3-.89,.3-1.24,0m1.3,6.46h-1.42v-5.57h1.42v5.57Z"/><path d="M87.41,216.4c-.42-.24-.77-.59-1.01-1.01-.24-.47-.35-1.01-.35-1.48,0-.53,.12-1.07,.35-1.48,.24-.42,.59-.77,1.01-1.01,.89-.47,2.01-.47,2.9,0,.41,.24,.77,.59,1.01,1.01,.24,.47,.35,.95,.35,1.48s-.12,1.07-.35,1.48c-.24,.42-.59,.77-1.07,1.01-.47,.24-.95,.35-1.48,.35-.41,0-.95-.12-1.36-.35m2.13-1.07c.24-.12,.41-.3,.53-.53,.12-.3,.24-.59,.18-.89,.06-.42-.12-.89-.42-1.19-.24-.3-.65-.42-1.01-.42s-.77,.12-1.01,.42c-.3,.36-.41,.77-.41,1.19-.06,.41,.12,.89,.41,1.24,.24,.3,.59,.42,1.01,.42,.3-.06,.53-.12,.71-.24"/><path d="M97.48,211.61c.41,.47,.65,1.12,.59,1.78v3.26h-1.42v-3.08c0-.35-.12-.71-.36-1.01-.24-.24-.53-.36-.89-.36s-.65,.12-.95,.36c-.24,.3-.36,.65-.36,1.01v3.08h-1.42v-5.57h1.42v.71c.18-.24,.41-.47,.71-.59,.3-.12,.65-.24,.95-.24,.71,0,1.3,.24,1.72,.65"/><path class="s" d="M376.54,169.5c1.89,0,3.79,.53,5.45,1.48l25.47,14.69c3.38,1.95,5.45,5.57,5.45,9.48v29.43c0,3.91-2.07,7.52-5.45,9.48l-25.47,14.69c-3.38,1.95-7.52,1.95-10.96,0l-25.47-14.69c-3.38-1.96-5.45-5.57-5.45-9.48v-29.43c0-3.91,2.07-7.52,5.45-9.48l25.47-14.69c1.72-1.01,3.61-1.48,5.51-1.48"/><path class="p" d="M376.54,169.5c1.89,0,3.79,.53,5.45,1.48l25.47,14.69c3.38,1.95,5.45,5.57,5.45,9.48v29.43c0,3.91-2.07,7.52-5.45,9.48l-25.47,14.69c-3.38,1.95-7.52,1.95-10.96,0l-25.47-14.69c-3.38-1.96-5.45-5.57-5.45-9.48v-29.43c0-3.91,2.07-7.52,5.45-9.48l25.47-14.69c1.72-1.01,3.61-1.48,5.51-1.48Z"/><path d="M365.53,201.95v2.67c0,.18,.06,.3,.12,.42,.12,.12,.3,.12,.47,.12h.65v1.18h-.89c-1.18,0-1.78-.59-1.78-1.72v-2.67h-.65v-1.18h.65v-1.3h1.42v1.36h1.24v1.18l-1.24-.06Z"/><path d="M369.91,201c.3-.18,.65-.24,1.01-.24v1.48h-.36c-.65-.12-1.24,.35-1.36,1.01v3.2h-1.42v-5.57h1.42v.89c.18-.35,.42-.65,.71-.77"/><path d="M371.8,202.07c.18-.42,.53-.77,.89-1.01,.41-.24,.83-.35,1.3-.35,.35,0,.77,.06,1.07,.24,.3,.18,.53,.36,.77,.65v-.77h1.42v5.57h-1.42v-.83c-.18,.3-.47,.47-.77,.65-.36,.18-.71,.24-1.07,.24-.47,0-.89-.12-1.3-.35-.41-.24-.71-.59-.89-1.01-.24-.47-.35-1.01-.35-1.48,0-.59,.12-1.06,.35-1.54m3.85,.65c-.24-.47-.77-.77-1.3-.77-.24,0-.47,.06-.71,.18-.24,.12-.41,.35-.53,.53-.12,.24-.24,.59-.18,.89,0,.3,.06,.59,.18,.89,.12,.24,.3,.47,.53,.59,.24,.12,.47,.18,.71,.18,.53,0,1.01-.3,1.3-.77,.3-.53,.3-1.18,0-1.72"/><path d="M378.62,202.07c.24-.41,.59-.77,1.01-1.01,.41-.24,.95-.35,1.42-.35,.59,0,1.24,.18,1.72,.53,.47,.35,.77,.89,.89,1.48h-1.54c-.06-.24-.18-.47-.41-.59-.24-.12-.47-.24-.71-.24-.35,0-.71,.18-.95,.42-.24,.35-.35,.77-.35,1.24,0,.41,.12,.89,.35,1.24,.24,.3,.59,.47,.95,.42,.53,.06,.95-.3,1.12-.77h1.54c-.12,.59-.47,1.07-.89,1.42-.47,.36-1.07,.53-1.72,.53-.47,0-1.01-.12-1.42-.36-.41-.24-.77-.59-1.01-1.01-.47-.89-.47-2.01,0-2.96"/><polygon points="387.97 206.33 386.08 203.97 386.08 206.33 384.66 206.33 384.66 198.93 386.08 198.93 386.08 203.14 387.97 200.77 389.81 200.77 387.38 203.61 389.87 206.39 387.97 206.33"/><path d="M362.57,213.03c.3-.18,.65-.24,1.01-.24v1.48h-.36c-.65-.12-1.24,.35-1.36,1.01v3.2h-1.42v-5.57h1.42v.83c.18-.36,.42-.59,.71-.71"/><path d="M369.61,216.05h-4.03c0,.35,.18,.71,.41,.95,.24,.24,.59,.35,.89,.35,.47,0,.89-.24,1.12-.65h1.48c-.18,.53-.47,1.01-.95,1.3-.47,.35-1.07,.53-1.66,.53-.47,0-1.01-.12-1.42-.35-.41-.24-.77-.59-1.01-1.01-.24-.47-.36-1.01-.36-1.48,0-.53,.12-1.07,.36-1.48,.24-.42,.59-.77,1.01-1.01,.47-.24,.95-.36,1.48-.36,.47,0,1.01,.12,1.42,.36,.41,.24,.77,.53,.95,.95,.24,.42,.36,.95,.36,1.42,0,.12,0,.3-.06,.47m-1.42-.95c0-.35-.12-.65-.42-.89-.24-.24-.59-.36-.95-.3-.3,0-.65,.12-.89,.3-.24,.24-.42,.53-.42,.89h2.67Z"/><path d="M370.68,214.09c.24-.41,.53-.77,.95-1.01,.41-.24,.95-.35,1.42-.35,.59,0,1.24,.18,1.72,.53,.47,.35,.77,.89,.89,1.48h-1.48c-.06-.24-.24-.41-.41-.59-.24-.12-.47-.24-.71-.18-.35,0-.71,.12-.95,.42-.47,.77-.47,1.72,0,2.49,.24,.3,.59,.42,.95,.42,.53,.06,.95-.3,1.12-.77h1.48c-.12,.59-.47,1.07-.89,1.42-.47,.36-1.07,.53-1.72,.53-.47,0-1.01-.12-1.42-.36-.42-.24-.77-.59-.95-1.01-.47-.95-.47-2.07,0-3.02"/><path d="M377.73,218.12c-.41-.24-.77-.59-1.01-1.01-.24-.47-.35-1.01-.35-1.48,0-.53,.12-1.07,.35-1.48,.24-.42,.59-.77,1.01-1.01,.47-.24,.95-.35,1.48-.35s1.01,.12,1.48,.35c.41,.24,.77,.59,1.01,1.01,.24,.47,.35,.95,.35,1.48s-.12,1.07-.41,1.48c-.24,.42-.59,.77-1.07,1.01-.47,.24-.95,.35-1.48,.35-.41,0-.89-.12-1.36-.35m2.19-1.07c.24-.12,.41-.3,.53-.53,.12-.3,.24-.59,.18-.89,0-.42-.12-.89-.42-1.19-.53-.53-1.42-.59-2.01,0-.53,.71-.53,1.72,0,2.43,.24,.3,.59,.42,1.01,.42,.24,0,.47-.06,.71-.24"/><path d="M385.25,213.03c.3-.18,.65-.24,1.01-.24v1.48h-.36c-.35,0-.71,.06-1.01,.3-.24,.3-.36,.71-.36,1.07v2.78h-1.42v-5.57h1.42v.83c.18-.3,.42-.53,.71-.65"/><path d="M387.14,214.09c.18-.42,.53-.77,.89-1.01,.41-.24,.83-.36,1.3-.36,.35,0,.71,.06,1.01,.24,.3,.12,.59,.36,.77,.65v-2.66h1.42v7.46h-1.36v-.83c-.18,.3-.42,.53-.71,.65-.35,.18-.71,.24-1.07,.24-.47,0-.89-.12-1.3-.35-.41-.24-.71-.59-.89-1.01-.24-.47-.36-1.01-.36-1.48-.06-.53,.06-1.07,.3-1.54m3.85,.65c-.12-.24-.3-.47-.53-.59-.24-.12-.47-.18-.71-.18-.53,0-1.01,.3-1.24,.77-.12,.24-.24,.59-.18,.89,0,.3,.06,.59,.18,.89,.12,.24,.3,.47,.53,.59,.24,.12,.47,.18,.71,.18s.53-.06,.71-.18c.24-.12,.41-.3,.53-.53,.3-.65,.3-1.3,0-1.84"/><path class="s" d="M68.34,297.12c1.89,0,3.79,.53,5.45,1.48l25.47,14.69c3.38,1.95,5.45,5.57,5.45,9.48v29.43c0,3.91-2.07,7.52-5.45,9.48l-25.47,14.69c-3.38,1.95-7.52,1.95-10.96,0l-25.47-14.69c-3.38-1.96-5.45-5.57-5.45-9.48v-29.43c0-3.91,2.07-7.52,5.45-9.48l25.47-14.69c1.72-1.01,3.61-1.48,5.51-1.48"/><path class="p" d="M68.34,297.12c1.89,0,3.79,.53,5.45,1.48l25.47,14.69c3.38,1.95,5.45,5.57,5.45,9.48v29.43c0,3.91-2.07,7.52-5.45,9.48l-25.47,14.69c-3.38,1.95-7.52,1.95-10.96,0l-25.47-14.69c-3.38-1.96-5.45-5.57-5.45-9.48v-29.43c0-3.91,2.07-7.52,5.45-9.48l25.47-14.69c1.72-1.01,3.61-1.48,5.51-1.48Z"/><path d="M52.71,336.15c.41,.47,.65,1.12,.59,1.78v3.26h-1.36v-3.14c0-.35-.12-.71-.35-1.01-.24-.24-.59-.35-.89-.35-.35,0-.65,.12-.95,.35-.24,.3-.36,.65-.36,1.01v3.08h-1.42v-5.57h1.42v.71c.18-.24,.41-.47,.71-.59,.89-.35,1.89-.24,2.61,.47"/><path d="M59.76,338.76h-4.03c0,.35,.18,.71,.41,.95,.24,.24,.59,.35,.89,.35,.47,0,.89-.24,1.12-.65h1.54c-.18,.53-.47,1.01-.95,1.3-.47,.35-1.07,.53-1.66,.53-.47,0-1.01-.12-1.42-.35-.41-.24-.77-.59-1.01-1.01-.24-.47-.35-1.01-.35-1.48,0-.53,.12-1.07,.35-1.48,.24-.42,.59-.77,1.01-1.01,.47-.24,.95-.36,1.48-.36,.47,0,1.01,.12,1.42,.36,.41,.24,.77,.53,.95,.95,.24,.42,.36,.95,.36,1.42-.06,.12-.12,.3-.12,.47m-1.42-.95c0-.35-.12-.65-.42-.89-.24-.24-.59-.36-.95-.3-.3,0-.65,.12-.89,.3-.24,.24-.42,.53-.42,.89h2.67Z"/><path d="M62.48,336.74v2.67c0,.12,.06,.3,.12,.42,.12,.12,.3,.12,.47,.12h.59v1.18h-.89c-1.18,0-1.78-.59-1.78-1.72v-2.67h-.65v-1.18h.65v-1.36h1.48v1.36h1.18v1.18h-1.18Z"/><polygon points="72.43 335.56 70.77 341.13 69.23 341.13 68.22 337.28 67.22 341.13 65.68 341.13 64.02 335.56 65.44 335.56 66.45 339.82 67.51 335.56 68.99 335.56 70.06 339.77 71.07 335.56 72.43 335.56"/><path d="M74.21,340.89c-.42-.24-.77-.59-1.01-1.01-.24-.47-.35-1.01-.35-1.48,0-.53,.12-1.07,.35-1.48,.24-.42,.59-.77,1.01-1.01,.89-.47,2.01-.47,2.9,0,.41,.24,.77,.59,1.01,1.01,.53,.95,.53,2.07,0,3.02-.24,.42-.59,.77-1.07,1.01-.47,.24-.95,.36-1.48,.36-.41-.06-.95-.18-1.36-.41m2.13-1.07c.24-.12,.41-.3,.53-.53,.12-.3,.24-.59,.18-.89,0-.42-.12-.89-.42-1.19-.24-.3-.65-.42-1.01-.42s-.77,.12-1.01,.42c-.3,.36-.41,.77-.41,1.19s.12,.89,.41,1.24c.24,.3,.59,.42,1.01,.42,.24-.06,.47-.12,.71-.24"/><path d="M81.67,335.74c.3-.18,.65-.24,1.01-.24v1.48h-.36c-.65-.12-1.24,.35-1.36,1.01v3.2h-1.42v-5.57h1.42v.89c.18-.35,.42-.59,.71-.77"/><polygon points="86.88 341.13 84.99 338.76 84.99 341.13 83.56 341.13 83.56 333.72 84.99 333.72 84.99 337.93 86.82 335.56 88.66 335.56 86.23 338.34 88.72 341.13 86.88 341.13"/><path class="s" d="M158.24,255.67c1.89,0,3.79,.47,5.45,1.48l25.47,14.69c3.38,1.95,5.45,5.57,5.45,9.48v29.43c0,3.91-2.07,7.52-5.45,9.48l-25.47,14.69c-3.38,1.95-7.52,1.95-10.96,0l-25.47-14.69c-3.38-1.96-5.45-5.57-5.45-9.48v-29.43c0-3.91,2.07-7.52,5.45-9.48l25.47-14.69c1.66-.95,3.55-1.48,5.51-1.48"/><path class="p" d="M158.24,255.67c1.89,0,3.79,.47,5.45,1.48l25.47,14.69c3.38,1.95,5.45,5.57,5.45,9.48v29.43c0,3.91-2.07,7.52-5.45,9.48l-25.47,14.69c-3.38,1.95-7.52,1.95-10.96,0l-25.47-14.69c-3.38-1.96-5.45-5.57-5.45-9.48v-29.43c0-3.91,2.07-7.52,5.45-9.48l25.47-14.69c1.66-.95,3.55-1.48,5.51-1.48Z"/><path d="M126.5,293.87c.24-.41,.53-.77,.95-1.01,.41-.24,.95-.35,1.42-.35,.59,0,1.18,.18,1.72,.53,.47,.35,.77,.89,.89,1.42h-1.48c-.06-.24-.24-.41-.41-.59-.24-.12-.47-.24-.71-.24-.36,0-.71,.18-.95,.42-.47,.77-.47,1.72,0,2.49,.24,.3,.59,.47,.95,.42,.53,.06,.95-.3,1.12-.77h1.54c-.12,.59-.47,1.07-.89,1.42-.47,.35-1.07,.53-1.72,.53-.47,0-1.01-.12-1.42-.35-.42-.24-.77-.59-.95-1.01-.53-.83-.53-1.95-.06-2.9"/><path d="M133.55,297.89c-.42-.24-.77-.59-1.01-1.01-.47-.95-.47-2.07,0-3.02,.24-.42,.59-.77,1.01-1.01,.89-.47,2.01-.47,2.9,0,.41,.24,.77,.59,1.01,1.01,.53,.95,.53,2.07,0,3.02-.24,.42-.59,.77-1.07,1.01-.47,.24-.95,.35-1.48,.35-.41,0-.95-.12-1.36-.35m2.13-1.07c.24-.12,.41-.3,.53-.53,.12-.3,.24-.59,.18-.89,.06-.47-.12-.89-.42-1.24-.24-.3-.65-.42-1.01-.42s-.77,.12-1.01,.42c-.3,.35-.42,.77-.42,1.24,0,.41,.12,.83,.42,1.18,.24,.3,.59,.42,1.01,.42,.3,0,.53-.06,.71-.18"/><path d="M147.47,293.16c.47,.47,.65,1.12,.65,1.78v3.26h-1.42v-3.08c0-.35-.12-.71-.35-1.01-.24-.24-.59-.36-.89-.36-.36,0-.65,.12-.89,.36-.24,.3-.36,.65-.36,1.01v3.08h-1.42v-3.08c0-.35-.12-.71-.36-1.01-.24-.24-.59-.36-.89-.36-.36,0-.65,.12-.95,.36-.24,.3-.35,.65-.35,1.01v3.08h-1.42v-5.57h1.42v.65c.18-.24,.41-.41,.71-.53,.3-.12,.59-.18,.95-.18,.42,0,.83,.06,1.18,.3,.36,.18,.59,.47,.77,.77,.18-.3,.47-.59,.77-.77,.36-.18,.71-.3,1.13-.3,.71,0,1.3,.18,1.72,.59"/><path d="M151.61,292.8c.35-.18,.71-.24,1.07-.24,.95,0,1.78,.53,2.19,1.36,.24,.47,.36,1.01,.36,1.48,0,.53-.12,1.07-.36,1.48-.18,.42-.53,.77-.89,1.01-.41,.24-.83,.35-1.3,.35-.36,0-.77-.06-1.07-.24-.3-.18-.53-.35-.77-.65v3.44h-1.42v-8.17h1.42v.83c.18-.3,.47-.53,.77-.65m1.95,1.72c-.12-.24-.3-.41-.53-.53-.24-.12-.47-.18-.71-.18s-.47,.06-.71,.18c-.24,.12-.42,.36-.53,.59-.3,.53-.3,1.19,0,1.78,.12,.24,.3,.47,.53,.59,.41,.24,1.01,.24,1.42,0,.24-.12,.42-.35,.53-.59,.12-.3,.24-.59,.24-.89,0-.42-.06-.71-.24-.95"/><path d="M161.38,295.82h-4.09c0,.35,.18,.71,.42,.95,.24,.24,.59,.35,.89,.35,.47,0,.95-.24,1.12-.65h1.48c-.18,.53-.47,1.01-.89,1.3-.47,.35-1.07,.53-1.66,.53-.47,0-1.01-.12-1.42-.35-.41-.24-.77-.59-1.01-1.01-.24-.47-.36-1.01-.36-1.48,0-.53,.12-1.07,.36-1.54,.24-.41,.53-.77,1.01-1.01,.47-.24,.95-.36,1.48-.36,.47,0,1.01,.12,1.42,.36,.41,.24,.77,.53,.95,.95,.24,.42,.36,.95,.36,1.42-.06,.18-.06,.35-.06,.53m-1.42-.95c0-.35-.12-.65-.42-.89-.24-.24-.59-.36-.95-.3-.3,0-.65,.12-.89,.3-.24,.24-.42,.53-.42,.89h2.67Z"/><path d="M164.05,293.75v2.67c0,.18,.06,.3,.12,.42,.12,.12,.3,.12,.47,.12h.65v1.18h-.89c-1.18,0-1.78-.59-1.78-1.72v-2.67h-.65v-1.18h.65v-1.3h1.42v1.36h1.24v1.18l-1.24-.06Z"/><path d="M171.45,295.82h-4.09c0,.35,.18,.71,.42,.95,.24,.24,.59,.35,.89,.35,.47,0,.95-.24,1.12-.65h1.54c-.18,.53-.47,1.01-.95,1.3-.47,.35-1.07,.53-1.66,.53-.47,0-1.01-.12-1.42-.35-.41-.24-.77-.59-1.01-1.01-.47-.95-.47-2.07,0-3.02,.24-.41,.59-.77,1.01-1.01,.47-.24,.95-.36,1.48-.36,.47,0,1.01,.12,1.42,.36,.41,.24,.77,.53,.95,.95,.24,.42,.36,.95,.36,1.42,0,.18-.06,.35-.06,.53m-1.42-.95c0-.35-.12-.65-.42-.89-.24-.24-.59-.36-.95-.3-.3,0-.65,.12-.89,.3-.24,.24-.42,.53-.42,.89h2.67Z"/><path d="M177.2,293.16c.41,.47,.65,1.12,.59,1.78v3.26h-1.42v-3.08c0-.35-.12-.71-.36-1.01-.24-.24-.59-.36-.89-.36-.35,0-.65,.12-.89,.36-.24,.3-.35,.65-.35,1.01v3.08h-1.42v-5.57h1.42v.71c.18-.24,.41-.47,.71-.59,.3-.12,.65-.24,.95-.24,.65,0,1.18,.24,1.66,.65"/><path d="M179.09,293.87c.24-.41,.53-.77,.95-1.01,.41-.24,.95-.35,1.42-.35,.59,0,1.24,.18,1.72,.53,.47,.35,.77,.89,.89,1.42h-1.54c-.06-.24-.24-.41-.42-.59-.24-.12-.47-.24-.71-.24-.36,0-.71,.18-.95,.42-.47,.77-.47,1.72,0,2.49,.24,.3,.59,.47,.95,.42,.53,.06,.95-.3,1.12-.77h1.54c-.12,.59-.47,1.07-.89,1.42-.47,.35-1.07,.53-1.72,.53-.47,0-1.01-.12-1.42-.35-.42-.24-.77-.59-.95-1.01-.47-.83-.47-1.95,0-2.9"/><path d="M190.28,295.82h-4.09c0,.35,.18,.71,.42,.95,.24,.24,.59,.35,.89,.35,.47,0,.95-.24,1.12-.65h1.54c-.18,.53-.47,1.01-.95,1.3-.47,.35-1.07,.53-1.66,.53-.47,0-1.01-.12-1.42-.35-.41-.24-.77-.59-1.01-1.01-.24-.47-.36-1.01-.36-1.48,0-.53,.12-1.07,.36-1.54,.24-.41,.59-.77,1.01-1.01,.47-.24,.95-.36,1.48-.36,.47,0,1.01,.12,1.42,.36,.41,.24,.77,.53,.95,.95,.24,.42,.36,.95,.36,1.42,0,.18-.06,.35-.06,.53m-1.42-.95c0-.35-.12-.65-.42-.89-.24-.24-.59-.36-.95-.3-.3,0-.65,.12-.89,.3-.24,.24-.42,.53-.42,.89h2.67Z"/><path class="s" d="M438.55,296.47c1.89,0,3.79,.47,5.45,1.48l25.47,14.69c3.38,1.95,5.45,5.57,5.45,9.48v29.43c0,3.91-2.07,7.52-5.45,9.48l-25.47,14.69c-3.38,1.95-7.52,1.95-10.96,0l-25.47-14.69c-3.38-1.95-5.45-5.57-5.45-9.48v-29.49c0-3.91,2.07-7.52,5.45-9.48l25.47-14.69c1.72-.95,3.61-1.42,5.51-1.42"/><path class="p" d="M438.55,296.47c1.89,0,3.79,.47,5.45,1.48l25.47,14.69c3.38,1.95,5.45,5.57,5.45,9.48v29.43c0,3.91-2.07,7.52-5.45,9.48l-25.47,14.69c-3.38,1.95-7.52,1.95-10.96,0l-25.47-14.69c-3.38-1.95-5.45-5.57-5.45-9.48v-29.49c0-3.91,2.07-7.52,5.45-9.48l25.47-14.69c1.72-.95,3.61-1.42,5.51-1.42Z"/><rect x="412.67" y="326.97" width="1.42" height="7.4"/><path d="M416.52,334.14c-.42-.24-.77-.59-1.01-1.01-.47-.95-.47-2.07,0-3.02,.24-.42,.59-.77,1.01-1.01,.89-.47,2.01-.47,2.9,0,.42,.24,.77,.59,1.01,1.01,.53,.95,.53,2.07,0,3.02-.24,.42-.59,.77-1.07,1.01s-.95,.35-1.48,.35c-.41,0-.95-.12-1.36-.35m2.13-1.07c.24-.12,.41-.3,.53-.53,.12-.3,.24-.59,.18-.89,0-.42-.12-.89-.42-1.19-.24-.3-.65-.42-1.01-.42s-.77,.12-1.01,.42c-.3,.35-.41,.77-.41,1.19s.12,.89,.41,1.24c.24,.3,.59,.42,1.01,.42,.24,0,.47-.06,.71-.24"/><path d="M426.53,329.4c.41,.47,.65,1.12,.59,1.78v3.26h-1.42v-3.08c0-.35-.12-.71-.35-1.01-.24-.24-.53-.36-.89-.36s-.65,.12-.89,.36c-.24,.3-.35,.65-.35,1.01v3.08h-1.42v-5.57h1.42v.71c.18-.24,.41-.42,.71-.59,.3-.12,.65-.24,.95-.18,.65-.06,1.24,.18,1.66,.59"/><path d="M431.74,329.05c.3,.12,.53,.36,.71,.65v-.77h1.42v5.57c0,.47-.12,.95-.3,1.36-.24,.42-.53,.71-.95,.95-.47,.24-1.01,.36-1.48,.36-.71,.06-1.36-.18-1.96-.53-.47-.35-.83-.89-.89-1.48h1.36c.06,.24,.24,.47,.47,.59,.3,.18,.59,.24,.89,.24,.35,0,.71-.12,1.01-.36,.3-.3,.41-.71,.35-1.12v-.89c-.18,.3-.47,.47-.77,.65-.35,.18-.71,.24-1.07,.24-.47,0-.89-.12-1.3-.35-.41-.24-.71-.59-.89-1.01-.24-.47-.36-1.01-.36-1.48,0-.53,.12-1.01,.36-1.48,.41-.83,1.24-1.36,2.19-1.36,.53-.06,.89,.06,1.18,.24m.59,1.72c-.12-.24-.3-.47-.53-.59-.24-.12-.47-.18-.71-.18s-.53,.06-.71,.18c-.24,.12-.41,.3-.53,.53-.12,.24-.24,.59-.18,.89,0,.3,.06,.59,.18,.89,.12,.24,.3,.47,.53,.59,.24,.12,.47,.18,.71,.18s.53-.06,.71-.18c.24-.12,.41-.3,.53-.53,.24-.59,.24-1.24,0-1.78"/><rect x="435.3" y="330.23" width="4.26" height="1.18"/><path d="M442.76,329.99v2.72c0,.18,.06,.3,.12,.42,.12,.12,.3,.12,.47,.12h.65v1.19h-.89c-1.18,0-1.78-.59-1.78-1.72v-2.67h-.65v-1.18h.65v-1.36h1.42v1.36h1.24v1.12h-1.24Z"/><path d="M450.16,332.07h-4.09c0,.35,.18,.71,.41,.95,.24,.24,.59,.35,.89,.35,.47,0,.89-.24,1.12-.65h1.48c-.18,.53-.47,1.01-.95,1.3-.47,.35-1.07,.53-1.66,.53-.47,0-1.01-.12-1.42-.35-.41-.24-.77-.59-1.01-1.01-.24-.47-.36-1.01-.36-1.48,0-.53,.12-1.07,.36-1.48,.24-.42,.59-.77,1.01-1.01,.89-.47,1.96-.47,2.84,0,.42,.24,.77,.53,.95,.95,.24,.42,.36,.95,.36,1.42,.12,.12,.06,.3,.06,.47m-1.42-.95c0-.35-.12-.65-.42-.89-.24-.24-.59-.36-.95-.3-.3,0-.65,.12-.89,.3-.24,.24-.42,.53-.42,.89h2.67Z"/><path d="M453.36,329.05c.3-.18,.65-.24,1.01-.24v1.48h-.36c-.65-.12-1.24,.35-1.36,1.01v3.2h-1.42v-5.57h1.42v.89c.18-.35,.42-.59,.71-.77"/><path d="M463.84,329.4c.47,.47,.65,1.12,.65,1.78v3.26h-1.42v-3.08c0-.35-.12-.71-.35-1.01-.53-.47-1.3-.47-1.84,0-.24,.3-.36,.65-.36,1.01v3.08h-1.42v-3.08c0-.35-.12-.71-.35-1.01-.24-.24-.59-.36-.89-.36-.35,0-.65,.12-.89,.36-.24,.3-.35,.65-.35,1.01v3.08h-1.42v-5.57h1.42v.65c.18-.24,.41-.41,.71-.53,.3-.12,.59-.18,.95-.18,.41,0,.83,.06,1.18,.3,0,.41,.36,.77,.77,.77s.77-.36,.77-.77c.95-.53,2.07-.42,2.84,.3"/><path d="M418.18,340c-.18-.18-.24-.36-.24-.59s.06-.41,.24-.59c.36-.3,.89-.3,1.24,0,.18,.18,.24,.35,.24,.59s-.06,.42-.24,.59c-.36,.3-.89,.3-1.24,0m1.3,6.46h-1.36v-5.57h1.36v5.57Z"/><path d="M420.85,342.13c.41-.83,1.3-1.36,2.19-1.36,.35,0,.71,.06,1.07,.24,.3,.12,.59,.36,.77,.59v-2.67h1.42v7.4h-1.42v-.83c-.18,.3-.42,.53-.71,.65-.35,.18-.71,.24-1.07,.24-.47,0-.89-.12-1.3-.36s-.71-.59-.89-1.01c-.47-.83-.47-1.95-.06-2.9m3.85,.65c-.24-.47-.77-.77-1.3-.77-.24,0-.47,.06-.71,.18-.24,.12-.41,.35-.53,.53-.12,.3-.24,.59-.18,.89,0,.3,.06,.59,.18,.89,.12,.24,.3,.47,.53,.59,.24,.12,.47,.18,.71,.18,.53,0,1.01-.3,1.3-.77,.3-.47,.3-1.13,0-1.72"/><path d="M432.81,344.09h-4.03c0,.35,.18,.71,.41,.95,.24,.24,.59,.35,.89,.35,.47,0,.95-.24,1.12-.65h1.48c-.18,.53-.47,1.01-.89,1.3-.47,.35-1.07,.53-1.66,.53-.47,0-1.01-.12-1.42-.35-.41-.24-.77-.59-1.01-1.01-.24-.47-.35-1.01-.35-1.48,0-.53,.12-1.07,.35-1.54,.24-.41,.59-.77,1.01-1.01,.89-.47,1.95-.47,2.84,0,.41,.24,.77,.53,.95,.95,.24,.42,.36,.95,.36,1.42,0,.18,0,.35-.06,.53m-1.42-.95c0-.35-.12-.65-.42-.89-.24-.24-.59-.36-.95-.36-.3,0-.65,.12-.89,.3-.24,.24-.42,.53-.42,.89l2.67,.06Z"/><path d="M433.88,342.13c.41-.83,1.24-1.36,2.19-1.36,.36,0,.77,.06,1.07,.24,.3,.18,.53,.36,.77,.65v-.77h1.42v5.57h-1.42v-.83c-.18,.3-.47,.47-.77,.65-.35,.18-.71,.24-1.07,.24-.47,0-.89-.12-1.3-.35-.41-.24-.71-.59-.89-1.01-.47-.95-.47-2.07,0-3.02m3.79,.65c-.12-.24-.3-.41-.53-.59-.24-.12-.47-.18-.71-.18s-.47,.06-.71,.18c-.24,.12-.41,.35-.53,.53-.12,.24-.24,.59-.18,.89,0,.3,.06,.59,.18,.89,.12,.24,.3,.47,.53,.59,.24,.12,.47,.18,.71,.18s.53-.06,.71-.18c.24-.12,.41-.3,.53-.53,.3-.53,.3-1.24,0-1.78"/><path d="M442.29,342.07v2.67c0,.18,.06,.3,.12,.42,.12,.12,.3,.12,.47,.12h.65v1.18h-.89c-1.18,0-1.78-.59-1.78-1.72v-2.67h-.65v-1.18h.65v-1.36h1.42v1.36h1.24v1.18h-1.24Z"/><path d="M444.65,340c-.18-.18-.24-.36-.24-.59s.06-.41,.24-.59c.18-.18,.36-.24,.59-.24s.41,.06,.59,.24c.18,.18,.24,.35,.24,.59s-.06,.42-.24,.59c-.18,.18-.36,.24-.59,.24s-.41-.06-.59-.24m1.3,6.46h-1.42v-5.57h1.42v5.57Z"/><path d="M448.39,346.16c-.42-.24-.77-.59-1.01-1.01-.47-.95-.47-2.07,0-3.02,.24-.41,.59-.77,1.01-1.01,.89-.47,2.01-.47,2.9,0,.41,.24,.77,.59,1.01,1.01,.53,.95,.53,2.07,0,3.02-.24,.42-.59,.77-1.07,1.01-.47,.24-.95,.35-1.48,.35-.41,.06-.95-.12-1.36-.35m2.13-1.01c.24-.12,.41-.3,.53-.53,.12-.3,.24-.59,.18-.89,.06-.47-.12-.89-.42-1.24-.24-.3-.65-.42-1.01-.42s-.77,.12-1.01,.42c-.3,.35-.41,.77-.41,1.24-.06,.41,.12,.89,.41,1.24,.24,.3,.59,.42,1.01,.42,.24-.06,.53-.12,.71-.24"/><path d="M458.45,341.42c.41,.47,.65,1.12,.59,1.78v3.26h-1.42v-3.08c0-.35-.12-.71-.35-1.01-.24-.24-.59-.36-.89-.36-.35,0-.65,.12-.89,.36-.24,.3-.35,.65-.35,1.01v3.08h-1.42v-5.57h1.42v.71c.18-.24,.41-.47,.71-.59,.3-.12,.65-.24,.95-.18,.59-.06,1.18,.18,1.66,.59"/><path class="s" d="M250.93,338.58c1.89,0,3.79,.47,5.45,1.48l25.47,14.69c3.38,1.95,5.45,5.57,5.45,9.48v29.43c0,3.91-2.07,7.52-5.45,9.48l-25.47,14.69c-3.38,1.95-7.52,1.95-10.96,0l-25.47-14.69c-3.38-1.95-5.45-5.57-5.45-9.48v-29.43c0-3.91,2.07-7.52,5.45-9.48l25.47-14.69c1.72-.95,3.61-1.48,5.51-1.48"/><path class="p" d="M250.93,338.58c1.89,0,3.79,.47,5.45,1.48l25.47,14.69c3.38,1.95,5.45,5.57,5.45,9.48v29.43c0,3.91-2.07,7.52-5.45,9.48l-25.47,14.69c-3.38,1.95-7.52,1.95-10.96,0l-25.47-14.69c-3.38-1.95-5.45-5.57-5.45-9.48v-29.43c0-3.91,2.07-7.52,5.45-9.48l25.47-14.69c1.72-.95,3.61-1.48,5.51-1.48Z"/><path d="M235.65,366.47c.41-.83,1.24-1.36,2.19-1.36,.36,0,.77,.06,1.07,.24,.3,.18,.53,.36,.77,.65v-.77h1.42v5.57h-1.42v-.83c-.18,.3-.47,.47-.77,.65-.36,.18-.71,.24-1.12,.24-.47,0-.89-.12-1.3-.35-.42-.24-.71-.59-.89-1.01-.41-.95-.41-2.01,.06-3.02m3.85,.65c-.24-.47-.77-.77-1.24-.77-.24,0-.47,.06-.71,.18-.24,.12-.42,.35-.53,.53-.12,.3-.24,.59-.24,.89s.06,.59,.24,.89c.12,.24,.3,.47,.53,.59,.24,.12,.47,.18,.71,.18s.53-.06,.71-.18c.24-.12,.42-.36,.53-.59,.24-.47,.24-1.13,0-1.72"/><path d="M244.59,365.41c.36-.18,.71-.24,1.07-.24,.47,0,.89,.12,1.3,.35,.42,.24,.71,.59,.89,1.01,.24,.47,.36,1.01,.36,1.48,0,.53-.12,1.07-.36,1.48-.24,.41-.53,.77-.89,1.01-.71,.41-1.6,.47-2.37,.12-.3-.18-.53-.35-.77-.65v.77h-1.42v-7.4h1.42v2.66c.24-.24,.47-.47,.77-.59m2.01,1.72c-.12-.24-.3-.41-.53-.53-.24-.12-.47-.18-.71-.18s-.47,.06-.71,.18c-.24,.12-.42,.35-.53,.59-.12,.3-.24,.59-.24,.89s.06,.59,.24,.89c.12,.24,.3,.47,.53,.59,.24,.12,.47,.18,.71,.18,.3,0,.53-.12,.77-.24,.24-.12,.42-.36,.53-.59,.12-.3,.24-.59,.24-.89-.06-.35-.18-.65-.3-.89"/><path d="M249.33,364.34c-.18-.18-.24-.35-.24-.59s.06-.41,.24-.59c.18-.18,.36-.24,.59-.24s.41,.06,.59,.24c.18,.18,.24,.35,.24,.59s-.06,.41-.24,.59c-.18,.18-.36,.24-.59,.24-.18,0-.42-.06-.59-.24m1.36,6.46h-1.42v-5.57h1.42v5.57Z"/><rect x="252.05" y="363.4" width="1.42" height="7.4"/><path d="M254.96,364.34c-.18-.18-.24-.35-.24-.59s.06-.41,.24-.59c.36-.3,.89-.3,1.24,0,.18,.18,.24,.35,.24,.59s-.06,.41-.24,.59c-.36,.3-.89,.3-1.24,0m1.3,6.46h-1.42v-5.57h1.42v5.57Z"/><path d="M259.28,366.42v2.67c0,.12,.06,.3,.12,.42,.12,.12,.3,.12,.47,.12h.65v1.18h-.89c-1.18,0-1.78-.59-1.78-1.72v-2.67h-.65v-1.18h.65v-1.36h1.42v1.36h1.24v1.18h-1.24Z"/><polygon points="266.8 365.23 263.37 373.4 261.89 373.4 263.07 370.62 260.88 365.23 262.48 365.23 263.9 369.08 265.38 365.23 266.8 365.23"/><path d="M248.09,378.44v2.67c0,.18,.06,.3,.12,.42,.12,.12,.3,.12,.47,.12h.65v1.18h-.89c-1.18,0-1.78-.59-1.78-1.72v-2.67h-.65v-1.12h.65v-1.36h1.42v1.36h1.24v1.12h-1.24Z"/><path d="M251.4,382.58c-.42-.24-.77-.59-1.01-1.01-.47-.95-.47-2.07,0-3.02,.24-.42,.59-.77,1.01-1.01,.89-.47,2.01-.47,2.9,0,.41,.24,.77,.59,1.01,1.01,.53,.95,.53,2.07,0,3.02-.24,.42-.59,.77-1.07,1.01-.47,.24-.95,.35-1.48,.35-.41,0-.95-.12-1.36-.35m2.13-1.07c.24-.12,.41-.3,.53-.53,.12-.3,.24-.59,.18-.89,.06-.47-.12-.89-.42-1.24-.24-.3-.65-.42-1.01-.42s-.77,.12-1.01,.42c-.53,.71-.53,1.72,0,2.43,.24,.3,.59,.41,1.01,.41,.3,0,.53-.06,.71-.18"/><path d="M236.48,392.53h-4.03c0,.35,.18,.71,.42,.95,.24,.24,.59,.35,.89,.35,.47,0,.89-.24,1.12-.65h1.48c-.18,.53-.47,1.01-.89,1.3-.47,.35-1.07,.53-1.66,.53-.47,0-1.01-.12-1.42-.35s-.77-.59-1.01-1.01c-.47-.95-.47-2.07,0-3.02,.24-.41,.53-.77,1.01-1.01,.47-.24,.95-.36,1.48-.36,.47,0,1.01,.12,1.42,.36,.41,.24,.77,.53,.95,.95,.24,.42,.36,.95,.36,1.42-.06,.18-.06,.35-.12,.53m-1.42-.95c0-.35-.12-.65-.42-.89-.24-.24-.59-.36-.95-.3-.3,0-.65,.12-.89,.3-.24,.24-.41,.53-.41,.89h2.67Z"/><polygon points="240.62 394.84 239.5 393.13 238.49 394.84 237.01 394.84 238.85 392.06 237.01 389.28 238.61 389.28 239.74 390.99 240.74 389.28 242.22 389.28 240.39 392.06 242.22 394.84 240.62 394.84"/><path d="M248.09,392.53h-4.09c0,.35,.18,.71,.42,.95,.24,.24,.59,.35,.89,.35,.47,0,.89-.24,1.12-.65h1.48c-.18,.53-.47,1.01-.95,1.3-.47,.35-1.07,.53-1.66,.53-.47,0-1.01-.12-1.42-.35-.42-.24-.77-.59-1.01-1.01-.24-.47-.36-1.01-.36-1.48,0-.53,.12-1.07,.36-1.48,.24-.42,.59-.77,1.01-1.01,.47-.24,.95-.36,1.48-.36,.47,0,1.01,.12,1.42,.36,.42,.24,.77,.53,.95,.95,.24,.42,.36,.95,.36,1.42,.06,.12,0,.3,0,.47m-1.42-.95c0-.35-.12-.65-.42-.89-.24-.24-.59-.36-.95-.3-.3,0-.65,.12-.89,.3-.24,.24-.42,.53-.42,.89h2.67Z"/><path d="M249.15,390.58c.24-.41,.53-.77,.95-1.01,.41-.24,.95-.35,1.42-.35,.59,0,1.24,.18,1.72,.53,.47,.35,.77,.89,.89,1.48h-1.48c-.06-.24-.24-.47-.41-.59-.24-.12-.47-.24-.71-.18-.36,0-.71,.12-.95,.41-.47,.77-.47,1.72,0,2.49,.24,.3,.59,.41,.95,.41,.47,.06,.95-.3,1.12-.77h1.48c-.12,.59-.47,1.07-.89,1.42-.47,.35-1.07,.53-1.72,.53-.47,0-1.01-.12-1.42-.36-.42-.24-.77-.59-.95-1.01-.47-1.01-.47-2.07,0-3.02"/><path d="M260.41,389.28v5.57h-1.42v-.71c-.18,.24-.42,.47-.71,.59-.3,.12-.59,.24-.95,.18-.41,0-.77-.06-1.18-.3-.36-.18-.59-.47-.77-.83-.18-.42-.3-.83-.3-1.3v-3.26h1.42v3.08c0,.35,.12,.71,.36,1.01,.53,.47,1.3,.47,1.84,0,.24-.3,.35-.65,.35-1.01v-3.08l1.36,.06Z"/><path d="M263.43,390.46v2.67c0,.12,.06,.3,.12,.42,.12,.12,.3,.12,.47,.12h.65v1.18h-.89c-1.18,0-1.78-.59-1.78-1.72v-2.67h-.65v-1.18h.65v-1.36h1.42v1.36h1.24v1.18h-1.24Z"/><path d="M270.83,392.53h-4.09c0,.35,.18,.71,.42,.95,.24,.24,.59,.35,.89,.35,.47,0,.89-.24,1.12-.65h1.54c-.18,.53-.47,1.01-.95,1.3-.47,.35-1.07,.53-1.66,.53-.47,0-1.01-.12-1.42-.35-.41-.24-.77-.59-1.01-1.01-.47-.95-.47-2.07,0-3.02,.24-.41,.59-.77,1.01-1.01,.47-.24,.95-.36,1.48-.36,.47,0,1.01,.12,1.42,.36,.41,.24,.77,.53,.95,.95,.24,.42,.36,.95,.36,1.42,0,.18-.06,.35-.06,.53m-1.42-.95c0-.35-.12-.65-.42-.89-.24-.24-.59-.36-.95-.3-.3,0-.65,.12-.89,.3-.24,.24-.42,.53-.42,.89h2.67Z"/><path class="s" d="M431.92,74.44c1.89,0,3.79,.53,5.45,1.48l25.47,14.69c3.38,1.95,5.45,5.57,5.45,9.48v29.43c0,3.91-2.07,7.52-5.45,9.48l-25.47,14.69c-3.38,1.95-7.52,1.95-10.96,0l-25.47-14.69c-3.38-1.96-5.45-5.57-5.45-9.48v-29.43c0-3.91,2.07-7.52,5.45-9.48l25.47-14.69c1.72-.95,3.61-1.48,5.51-1.48"/><path class="p" d="M431.92,74.44c1.89,0,3.79,.53,5.45,1.48l25.47,14.69c3.38,1.95,5.45,5.57,5.45,9.48v29.43c0,3.91-2.07,7.52-5.45,9.48l-25.47,14.69c-3.38,1.95-7.52,1.95-10.96,0l-25.47-14.69c-3.38-1.96-5.45-5.57-5.45-9.48v-29.43c0-3.91,2.07-7.52,5.45-9.48l25.47-14.69c1.72-.95,3.61-1.48,5.51-1.48Z"/><path d="M408.29,113.59c.24-.41,.53-.77,.95-1.01,.41-.24,.95-.35,1.42-.35,.59,0,1.18,.18,1.72,.53,.47,.35,.77,.89,.89,1.42h-1.54c-.06-.24-.24-.47-.42-.59-.24-.12-.47-.24-.71-.18-.36,0-.71,.12-.95,.42-.47,.77-.47,1.72,0,2.49,.24,.3,.59,.47,.95,.42,.53,.06,.95-.3,1.12-.77h1.54c-.12,.59-.47,1.07-.89,1.42-.47,.36-1.07,.53-1.72,.53-.47,0-1.01-.12-1.42-.36-.42-.24-.77-.59-.95-1.01-.47-.95-.47-2.01,0-2.96"/><path d="M418.6,112.52c.35,.18,.59,.47,.77,.83,.18,.42,.3,.83,.3,1.3v3.26h-1.42v-3.08c0-.36-.12-.71-.36-1.01-.24-.24-.53-.35-.89-.35s-.65,.12-.89,.35c-.24,.3-.36,.65-.36,1.01v3.08h-1.42v-7.4h1.42v2.55c.18-.24,.41-.42,.71-.53,.3-.12,.65-.24,1.01-.24,.35-.06,.77,.06,1.12,.24"/><path d="M420.91,113.59c.41-.83,1.24-1.36,2.19-1.36,.35,0,.77,.06,1.07,.24,.3,.18,.53,.36,.77,.65v-.77h1.42v5.57h-1.42v-.83c-.18,.3-.47,.47-.77,.65-.36,.18-.71,.3-1.07,.24-.47,0-.89-.12-1.3-.35-.41-.24-.71-.59-.89-1.01-.24-.47-.35-1.01-.35-1.54s.12-1.01,.35-1.48m3.85,.65c-.12-.24-.3-.47-.53-.59-.24-.12-.47-.18-.71-.18s-.53,.06-.71,.18c-.24,.12-.41,.3-.53,.53-.12,.24-.24,.59-.18,.89,0,.3,.06,.59,.18,.89,.12,.24,.3,.47,.53,.59,.24,.12,.47,.18,.71,.18s.53-.06,.71-.18c.24-.12,.41-.3,.53-.53,.3-.59,.3-1.24,0-1.78"/><path d="M429.85,112.52c.3-.18,.65-.24,1.01-.24v1.48h-.36c-.35,0-.71,.06-1.01,.3-.24,.3-.36,.71-.36,1.07v2.78h-1.42v-5.57h1.42v.83c.18-.3,.42-.53,.71-.65"/><path d="M431.86,111.46c-.18-.18-.24-.36-.24-.59s.06-.42,.24-.59c.18-.18,.35-.24,.59-.24s.41,.06,.59,.24c.18,.18,.24,.36,.24,.59s-.06,.41-.24,.59c-.18,.18-.36,.24-.59,.24-.18,0-.41-.12-.59-.24m1.36,6.46h-1.42v-5.57h1.42v5.57Z"/><path d="M435.47,117.74c-.36-.12-.65-.35-.89-.65-.18-.3-.3-.59-.36-.95h1.42c.06,.24,.12,.41,.3,.53,.41,.24,.89,.3,1.3,.06,.12-.12,.24-.24,.24-.41s-.12-.36-.3-.42c-.3-.12-.59-.24-.89-.3-.35-.06-.71-.18-1.01-.3-.24-.12-.47-.3-.65-.53-.18-.24-.3-.59-.3-.89s.12-.59,.3-.83c.18-.24,.47-.47,.77-.59,.35-.18,.77-.24,1.18-.24,.59-.06,1.13,.12,1.6,.47,.41,.35,.65,.83,.65,1.36h-1.36c0-.18-.12-.41-.3-.53-.18-.12-.41-.18-.65-.18s-.41,.06-.59,.12c-.12,.06-.24,.24-.18,.41,0,.18,.12,.36,.3,.42,.3,.12,.59,.24,.89,.3,.36,.06,.65,.18,1.01,.3,.24,.12,.47,.3,.65,.47,.18,.24,.3,.59,.3,.89s-.06,.59-.24,.89c-.18,.24-.47,.47-.77,.59-.35,.18-.77,.24-1.18,.24s-.83-.06-1.24-.24"/><path d="M448.56,112.88c.41,.47,.65,1.12,.65,1.72v3.26h-1.42v-3.08c0-.35-.12-.71-.35-1.01-.24-.24-.59-.35-.89-.35-.35,0-.65,.12-.89,.35-.24,.3-.35,.65-.35,1.01v3.08h-1.42v-3.08c0-.35-.12-.71-.36-1.01-.24-.24-.59-.35-.89-.35-.36,0-.65,.12-.89,.35-.24,.3-.35,.65-.35,1.01v3.08h-1.36v-5.57h1.42v.65c.18-.24,.42-.41,.71-.53,.3-.12,.59-.18,.95-.18,.41,0,.83,.06,1.18,.3,.35,.18,.59,.47,.77,.77,.18-.3,.47-.59,.77-.77,.89-.47,2.01-.36,2.72,.35"/><path d="M450.52,113.59c.41-.83,1.24-1.36,2.19-1.36,.71,0,1.42,.3,1.84,.89v-.77h1.42v5.57h-1.42v-.83c-.18,.3-.47,.47-.77,.65-.36,.18-.71,.3-1.07,.24-.47,0-.89-.12-1.3-.35-.41-.24-.71-.59-.89-1.01-.24-.47-.35-1.01-.35-1.54s.12-1.01,.35-1.48m3.85,.65c-.12-.24-.3-.47-.53-.59-.24-.12-.47-.18-.71-.18-.53,0-1.01,.3-1.24,.77-.12,.24-.24,.59-.18,.89,0,.3,.06,.59,.18,.89,.12,.24,.3,.47,.53,.59,.24,.12,.47,.18,.71,.18s.53-.06,.71-.18c.24-.12,.41-.3,.53-.53,.3-.65,.3-1.3,0-1.84"/><path class="s" d="M319.33,42.52c1.95,0,3.85,.47,5.51,1.42l25.47,14.69c3.38,1.95,5.45,5.57,5.45,9.48v29.49c0,3.91-2.07,7.52-5.45,9.48l-25.47,14.69c-3.38,1.95-7.52,1.95-10.96,0l-25.47-14.69c-3.38-1.96-5.45-5.57-5.45-9.48v-29.43c0-3.91,2.07-7.52,5.45-9.48l25.47-14.69c1.66-1.01,3.55-1.48,5.45-1.48"/><path class="p" d="M319.33,42.52c1.95,0,3.85,.47,5.51,1.42l25.47,14.69c3.38,1.95,5.45,5.57,5.45,9.48v29.49c0,3.91-2.07,7.52-5.45,9.48l-25.47,14.69c-3.38,1.95-7.52,1.95-10.96,0l-25.47-14.69c-3.38-1.96-5.45-5.57-5.45-9.48v-29.43c0-3.91,2.07-7.52,5.45-9.48l25.47-14.69c1.66-1.01,3.55-1.48,5.45-1.48Z"/><polygon points="299.67 84.69 301.98 84.69 301.98 85.76 298.25 85.76 298.25 78.77 299.67 78.77 299.67 84.69"/><path d="M303.88,85.52c-.42-.24-.77-.59-1.01-1.01-.24-.47-.36-.95-.36-1.48s.12-1.07,.36-1.48c.24-.41,.59-.77,1.01-1.01,.89-.47,2.01-.47,2.9,0,.41,.24,.77,.59,1.01,1.01,.24,.47,.36,1.01,.36,1.48,0,.53-.12,1.07-.42,1.48-.24,.42-.59,.77-1.07,1.01-.47,.24-.95,.35-1.48,.35-.36,0-.89-.12-1.3-.35m2.13-1.07c.24-.12,.41-.3,.53-.53,.12-.3,.24-.59,.18-.89,.06-.47-.12-.89-.42-1.24-.24-.3-.65-.42-1.01-.42s-.77,.12-1.01,.42c-.53,.71-.53,1.72,0,2.43,.24,.3,.59,.42,1.01,.42,.3,0,.53-.06,.71-.18"/><path d="M309.26,81.49c.24-.41,.53-.77,.95-1.01,.41-.24,.95-.35,1.42-.35,.59,0,1.18,.18,1.72,.53,.47,.35,.77,.89,.89,1.42h-1.48c-.18-.47-.59-.77-1.12-.77-.36,0-.71,.12-.95,.42-.24,.35-.36,.83-.36,1.24s.12,.89,.36,1.24c.24,.3,.59,.47,.95,.42,.53,.06,.95-.3,1.12-.77h1.48c-.12,.59-.47,1.07-.89,1.42-.47,.36-1.07,.53-1.72,.53-.47,0-1.01-.12-1.42-.36-.42-.24-.77-.59-.95-1.01-.47-.89-.47-2.01,0-2.96"/><path d="M315.25,81.49c.18-.41,.53-.77,.89-1.01,.41-.24,.83-.36,1.3-.36,.36,0,.77,.06,1.07,.24s.53,.36,.77,.65v-.77h1.42v5.51h-1.42v-.83c-.18,.3-.47,.47-.77,.65-.77,.35-1.66,.35-2.37-.12-.41-.24-.71-.59-.89-1.01-.24-.47-.36-1.01-.36-1.54,0-.47,.12-.95,.36-1.42m3.85,.65c-.12-.24-.3-.41-.53-.53-.24-.12-.47-.18-.71-.18s-.53,.06-.71,.18c-.24,.12-.42,.3-.53,.53-.12,.24-.24,.59-.18,.89,0,.3,.06,.59,.18,.89,.12,.24,.3,.47,.53,.59,.24,.12,.47,.18,.71,.18s.53-.06,.71-.18c.24-.12,.42-.36,.53-.53,.3-.65,.3-1.3,0-1.84"/><path d="M323.72,81.37v2.67c0,.18,.06,.3,.12,.42,.12,.12,.3,.12,.47,.12h.65v1.18h-.89c-1.18,0-1.78-.59-1.78-1.72v-2.67h-.65v-1.12h.65v-1.36h1.42v1.36h1.24v1.12h-1.24Z"/><path d="M326.08,79.3c-.18-.18-.24-.35-.24-.59s.06-.41,.24-.59,.35-.24,.59-.24,.42,.06,.59,.24c.18,.18,.24,.35,.24,.59s-.06,.41-.24,.59c-.18,.18-.36,.24-.59,.24-.24,.06-.47-.06-.59-.24m1.3,.95v5.51h-1.42v-5.57l1.42,.06Z"/><path d="M329.76,85.52c-.42-.24-.77-.59-1.01-1.01-.47-.95-.47-2.07,0-3.02,.24-.42,.59-.77,1.01-1.01,.89-.47,2.01-.47,2.9,0,.41,.24,.77,.59,1.01,1.01,.53,.95,.53,2.07,0,3.02-.24,.42-.59,.77-1.07,1.01-.47,.24-.95,.35-1.48,.35-.42,0-.89-.12-1.36-.35m2.19-1.07c.24-.12,.41-.3,.53-.53,.12-.3,.24-.59,.18-.89,.06-.47-.12-.89-.42-1.24-.24-.3-.65-.42-1.01-.42s-.77,.12-1.01,.42c-.53,.71-.53,1.72,0,2.43,.24,.3,.59,.42,1.01,.42,.24,0,.47-.06,.71-.18"/><path d="M339.82,80.78c.41,.47,.65,1.12,.59,1.72v3.26h-1.36v-3.08c0-.35-.12-.71-.35-1.01-.24-.24-.53-.35-.89-.35s-.65,.12-.89,.35c-.24,.3-.36,.65-.36,1.01v3.08h-1.42v-5.57h1.42v.71c.18-.24,.41-.47,.71-.59,.3-.12,.65-.24,.95-.24,.59,0,1.18,.24,1.6,.71"/><g class="t"><rect class="m" x="151.5" y="109.55" width="177.54" height="183.87" transform="translate(-63.72 124.57) rotate(-25.78)"/></g><g class="v"><rect class="k" x="193.6" y="157.64" width="93.39" height="90.16" transform="translate(-64.25 124.7) rotate(-25.78)"/></g><g class="u"><rect class="l" x="221.2" y="184.48" width="38.14" height="33.59" transform="translate(-63.63 124.55) rotate(-25.78)"/></g></g><g><path class="s" d="M607.08,802.91h0Zm4.1,0h0Zm4.1,0h0Zm4.09,0h0Zm4.1,0h0Zm4.1,0h0Zm4.1,0h0Zm4.1,0h0Zm4.1,0h0Zm4.1,0h0Zm4.1,0h0Zm4.1,0h0Zm4.09,0h0Zm4.1,0h0Zm4.1,0h0Zm4.1,0h0Zm4.1,0h0Zm4.1,0h0Zm4.1,0h0Zm4.1,0h0Zm4.1,0h0Zm4.09,0h0Zm4.1,0h0Zm4.1,0h0Zm4.1,0h0Zm4.1,0h0Zm4.1,0h0Zm4.1,0h0Zm4.1,0h0Zm4.1,0h0Zm4.09,0h0Zm4.1,0h0Zm4.09-.04c.68-.03,1.36-.07,2.04-.13-.68,.06-1.36,.1-2.04,.13m-133.1,0c-.68-.03-1.37-.07-2.05-.13,.68,.06,1.36,.1,2.05,.13m137.18-.34c.68-.09,1.35-.19,2.02-.3-.67,.11-1.34,.21-2.02,.3m-141.26,0c-.68-.09-1.35-.19-2.03-.3,.67,.12,1.35,.22,2.03,.3m145.29-.68c.67-.14,1.33-.3,1.99-.47-.66,.17-1.32,.33-1.99,.47m-149.33-.01c-.67-.14-1.33-.3-1.99-.48,.66,.17,1.32,.33,1.99,.48m153.29-1.01c.65-.2,1.3-.41,1.94-.64-.64,.23-1.29,.44-1.94,.64m-157.25-.02c-.65-.2-1.3-.42-1.94-.64,.64,.23,1.29,.44,1.94,.64m161.11-1.33c.63-.25,1.26-.52,1.88-.8-.62,.28-1.25,.55-1.88,.8m-164.97-.04c-.63-.26-1.26-.53-1.88-.81,.62,.28,1.25,.55,1.88,.81m168.7-1.64c.61-.31,1.21-.63,1.81-.96-.6,.33-1.2,.65-1.81,.96m-172.43-.05c-.61-.31-1.21-.63-1.81-.96,.59,.33,1.2,.66,1.81,.96m176.01-1.94c.58-.36,1.16-.73,1.72-1.11-.57,.38-1.14,.75-1.72,1.11m-179.58-.07c-.58-.36-1.15-.73-1.72-1.11,.56,.38,1.14,.76,1.72,1.11m182.97-2.22c.55-.4,1.09-.82,1.62-1.25-.53,.43-1.07,.85-1.62,1.25m-186.35-.08c-.55-.41-1.09-.83-1.62-1.26,.53,.43,1.07,.85,1.62,1.26m189.54-2.49c.51-.45,1.02-.91,1.51-1.39-.49,.47-1,.93-1.51,1.39m-192.72-.09c-.51-.45-1.01-.91-1.5-1.39,.49,.47,.99,.94,1.5,1.39m195.68-2.74c.47-.49,.93-1,1.39-1.51-.45,.51-.91,1.02-1.39,1.51m-198.62-.1c-.47-.49-.93-1-1.38-1.51,.45,.51,.91,1.02,1.38,1.51m201.33-2.98c.43-.53,.85-1.07,1.25-1.62-.41,.55-.82,1.09-1.25,1.62m-204.02-.1c-.43-.53-.84-1.07-1.25-1.62,.4,.55,.82,1.09,1.25,1.62m206.46-3.19c.38-.56,.75-1.14,1.11-1.72-.36,.58-.73,1.16-1.11,1.72m-208.88-.1c-.38-.56-.75-1.14-1.1-1.72,.36,.58,.72,1.16,1.1,1.72m211.03-3.39l1.02-1.77-1.02,1.77Zm-213.17-.1l-1.02-1.77,1.02,1.77Zm215.22-3.45l1.02-1.77-1.02,1.77Zm-217.27-.1l-1.02-1.77,1.02,1.77Zm219.32-3.45l1.02-1.77-1.02,1.77Zm-221.36-.1l-1.02-1.77,1.02,1.77Zm223.41-3.45l1.02-1.77-1.02,1.77Zm-225.46-.1l-1.02-1.77,1.02,1.77Zm227.51-3.45l1.02-1.77-1.02,1.77Zm-229.55-.1l-1.02-1.77,1.02,1.77Zm231.6-3.45l1.02-1.77-1.02,1.77Zm-233.65-.1l-1.02-1.77,1.02,1.77Zm235.7-3.45l1.02-1.77-1.02,1.77Zm-237.74-.1l-1.02-1.77,1.02,1.77Zm239.79-3.45l1.02-1.77-1.02,1.77Zm-241.84-.1l-1.02-1.77,1.02,1.77Zm243.89-3.45l1.02-1.77-1.02,1.77Zm-245.94-.1l-1.02-1.77,1.02,1.77Zm247.98-3.45l1.02-1.77-1.02,1.77Zm-250.03-.1l-1.02-1.77,1.02,1.77Zm252.08-3.45l1.02-1.77-1.02,1.77Zm-254.13-.1l-1.02-1.77,1.02,1.77Zm256.17-3.45l1.02-1.77-1.02,1.77Zm-258.22-.1l-1.02-1.77,1.02,1.77Zm260.27-3.45l1.02-1.77-1.02,1.77Zm-262.32-.1l-1.02-1.77,1.02,1.77Zm264.36-3.45l1.02-1.77-1.02,1.77Zm-266.41-.1l-1.02-1.77,1.02,1.77Zm268.46-3.45l1.02-1.77-1.02,1.77Zm-270.51-.1l-1.02-1.77,1.02,1.77Zm272.55-3.45l1.02-1.77-1.02,1.77Zm-274.6-.1l-1.02-1.77,1.02,1.77Zm276.65-3.45l1.02-1.77-1.02,1.77Zm-278.7-.1l-1.02-1.77,1.02,1.77Zm280.75-3.45l1.02-1.77-1.02,1.77Zm-282.79-.1l-1.02-1.77,1.02,1.77Zm284.84-3.45l1.02-1.77-1.02,1.77Zm-286.89-.1l-1.02-1.77,1.02,1.77Zm288.94-3.45l1.02-1.77-1.02,1.77Zm-290.98-.1l-1.02-1.77,1.02,1.77Zm293.03-3.45l1.02-1.77-1.02,1.77Zm-295.08-.1l-1.02-1.77,1.02,1.77Zm297.13-3.45l1.02-1.77-1.02,1.77Zm-299.17-.1l-1.02-1.77,1.02,1.77Zm301.22-3.45l1.02-1.77-1.02,1.77Zm-303.27-.1l-1.02-1.77,1.02,1.77Zm305.32-3.45l1.02-1.77-1.02,1.77Zm-307.36-.1l-1.02-1.77,1.02,1.77Zm309.41-3.45l1.02-1.77-1.02,1.77Zm-311.46-.1l-1.02-1.77,1.02,1.77Zm313.51-3.45l1.02-1.77-1.02,1.77Zm-315.55-.1l-1.02-1.77,1.02,1.77Zm317.6-3.45l1.02-1.77-1.02,1.77Zm-319.65-.1l-1.02-1.77,1.02,1.77Zm321.7-3.45l1.02-1.77-1.02,1.77Zm-323.74-.1l-1.02-1.77,1.02,1.77Zm325.79-3.45l1.02-1.77-1.02,1.77Zm-327.84-.1l-1.02-1.77,1.02,1.77Zm329.89-3.45l1.02-1.77-1.02,1.77Zm-331.94-.1l-1.02-1.77,1.02,1.77Zm333.98-3.45l1.02-1.77-1.02,1.77Zm-336.03-.1l-1.02-1.77,1.02,1.77Zm338.82-4.74l-.74,1.29,.74-1.29c.09-.16,.18-.32,.28-.49-.09,.16-.18,.33-.28,.49m-341.56,0l.69,1.19-.69-1.19c-.11-.19-.22-.39-.33-.58,.11,.2,.22,.39,.33,.58m342.79-2.3c.31-.61,.6-1.23,.88-1.85-.28,.62-.58,1.24-.88,1.85m-344.08-.1c-.31-.61-.6-1.23-.88-1.85,.28,.62,.57,1.24,.88,1.85m345.77-3.63c.25-.63,.5-1.27,.72-1.92-.23,.64-.47,1.28-.72,1.92m-347.45-.1c-.25-.64-.49-1.27-.72-1.92,.23,.64,.47,1.28,.72,1.92m348.82-3.76c.2-.65,.39-1.31,.56-1.97-.17,.66-.36,1.32-.56,1.97m-350.18-.11c-.2-.65-.38-1.31-.55-1.97,.17,.66,.36,1.32,.55,1.97m351.21-3.86c.14-.67,.27-1.34,.39-2.01-.12,.67-.24,1.34-.39,2.01m-352.23-.11c-.14-.67-.27-1.34-.38-2.01,.11,.67,.24,1.34,.38,2.01m352.92-3.93c.09-.68,.16-1.36,.22-2.04-.06,.68-.13,1.36-.22,2.04m-353.6-.11c-.08-.68-.16-1.36-.21-2.04,.06,.68,.13,1.36,.21,2.04m-.38-6c0,.64,.01,1.28,.04,1.92-.03-.64-.04-1.28-.04-1.92m354.33,2.03c.03-.68,.04-1.36,.04-2.05,0,.68-.01,1.37-.04,2.05m-354.33-2.03s0-.09,0-.13c0,.04,0,.09,0,.13m354.33-1.84c-.03-.68-.07-1.36-.12-2.04,.05,.68,.1,1.36,.12,2.04m-354.29-.34c.03-.68,.08-1.36,.14-2.04-.06,.68-.1,1.36-.14,2.04m353.96-3.74c-.08-.68-.18-1.35-.29-2.03,.11,.67,.21,1.35,.29,2.03m-353.6-.34c.09-.68,.19-1.35,.31-2.02-.12,.67-.22,1.35-.31,2.02m352.92-3.7c-.14-.67-.3-1.33-.46-1.99,.17,.66,.32,1.33,.46,1.99m-352.22-.33c.15-.67,.31-1.33,.48-1.99-.17,.66-.33,1.32-.48,1.99m351.21-3.63c-.2-.65-.41-1.3-.63-1.95,.22,.65,.44,1.29,.63,1.95m-350.17-.32c.2-.65,.42-1.3,.65-1.94-.23,.64-.44,1.29-.65,1.94m348.82-3.54c-.25-.63-.52-1.26-.79-1.89,.28,.62,.54,1.25,.79,1.89m-347.45-.31c.25-.63,.52-1.26,.81-1.88-.28,.62-.55,1.25-.81,1.88m345.78-3.43c-.3-.61-.62-1.21-.95-1.81,.33,.6,.65,1.2,.95,1.81m-344.08-.3c.31-.61,.63-1.21,.96-1.81-.33,.6-.66,1.2-.96,1.81m342.12-3.29l-1.02-1.77,1.02,1.77Zm-340.13-.29l1.02-1.77-1.02,1.77Zm338.08-3.26l-1.02-1.77,1.02,1.77Zm-336.04-.29l1.02-1.77-1.02,1.77Zm333.99-3.26l-1.02-1.77,1.02,1.77Zm-331.94-.29l1.02-1.77-1.02,1.77Zm329.89-3.26l-1.02-1.77,1.02,1.77Zm-327.85-.29l1.02-1.77-1.02,1.77Zm325.8-3.26l-1.02-1.77,1.02,1.77Zm-323.75-.29l1.02-1.77-1.02,1.77Zm321.7-3.26l-1.02-1.77,1.02,1.77Zm-319.65-.29l1.02-1.77-1.02,1.77Zm317.61-3.26l-1.02-1.77,1.02,1.77Zm-315.56-.29l1.02-1.77-1.02,1.77Zm313.51-3.26l-1.02-1.77,1.02,1.77Zm-311.46-.29l1.02-1.77-1.02,1.77Zm309.42-3.26l-1.02-1.77,1.02,1.77Zm-307.37-.29l1.02-1.77-1.02,1.77Zm305.32-3.26l-1.02-1.77,1.02,1.77Zm-303.27-.29l1.02-1.77-1.02,1.77Zm301.23-3.26l-1.02-1.77,1.02,1.77Zm-299.18-.29l1.02-1.77-1.02,1.77Zm297.13-3.26l-1.02-1.77,1.02,1.77Zm-295.08-.29l1.02-1.77-1.02,1.77Zm293.04-3.26l-1.02-1.77,1.02,1.77Zm-290.99-.29l1.02-1.77-1.02,1.77Zm288.94-3.26l-1.02-1.77,1.02,1.77Zm-286.89-.29l1.02-1.77-1.02,1.77Zm284.85-3.26l-1.02-1.77,1.02,1.77Zm-282.8-.29l1.02-1.77-1.02,1.77Zm280.75-3.26l-1.02-1.77,1.02,1.77Zm-278.7-.29l1.02-1.77-1.02,1.77Zm276.66-3.26l-1.02-1.77,1.02,1.77Zm-274.61-.29l1.02-1.77-1.02,1.77Zm272.56-3.26l-1.02-1.77,1.02,1.77Zm-270.51-.29l1.02-1.77-1.02,1.77Zm268.47-3.26l-1.02-1.77,1.02,1.77Zm-266.42-.29l1.02-1.77-1.02,1.77Zm264.37-3.26l-1.02-1.77,1.02,1.77Zm-262.32-.29l1.02-1.77-1.02,1.77Zm260.27-3.26l-1.02-1.77,1.02,1.77Zm-258.23-.29l1.02-1.77-1.02,1.77Zm256.18-3.26l-1.02-1.77,1.02,1.77Zm-254.13-.29l1.02-1.77-1.02,1.77Zm252.08-3.26l-1.02-1.77,1.02,1.77Zm-250.04-.29l1.02-1.77-1.02,1.77Zm247.99-3.26l-1.02-1.77,1.02,1.77Zm-245.94-.29l1.02-1.77-1.02,1.77Zm243.89-3.26l-1.02-1.77,1.02,1.77Zm-241.85-.29l1.02-1.77-1.02,1.77Zm239.8-3.26l-1.02-1.77,1.02,1.77Zm-237.75-.29l1.02-1.77-1.02,1.77Zm235.7-3.26l-1.02-1.77,1.02,1.77Zm-233.66-.29l1.02-1.77-1.02,1.77Zm231.61-3.26l-1.02-1.77,1.02,1.77Zm-229.56-.29l1.02-1.77-1.02,1.77Zm227.51-3.26l-1.02-1.77,1.02,1.77Zm-225.47-.29l1.02-1.77-1.02,1.77Zm223.42-3.26l-1.02-1.77,1.02,1.77Zm-221.37-.29l1.02-1.77-1.02,1.77Zm219.32-3.26l-1.02-1.77,1.02,1.77Zm-217.28-.29l1.02-1.77-1.02,1.77Zm214.73-4.12l.5,.87-.5-.87c-.18-.3-.35-.6-.54-.9,.18,.3,.36,.6,.54,.9m-212.35,0l-.33,.58,.33-.58c.23-.4,.47-.8,.71-1.19-.24,.39-.48,.79-.71,1.19m210.71-2.63c-.38-.57-.77-1.13-1.17-1.68,.4,.55,.79,1.11,1.17,1.68m-208.89-.28c.38-.57,.78-1.12,1.19-1.67-.41,.55-.8,1.1-1.19,1.67m206.47-3.02c-.43-.53-.86-1.06-1.31-1.57,.45,.51,.88,1.04,1.31,1.57m-204.03-.27c.43-.53,.87-1.05,1.32-1.56-.45,.51-.89,1.03-1.32,1.56m201.34-2.81c-.47-.5-.95-.98-1.44-1.45,.49,.47,.97,.96,1.44,1.45m-198.63-.26c.47-.49,.96-.97,1.45-1.44-.49,.47-.98,.95-1.45,1.44m195.69-2.58c-.51-.45-1.03-.9-1.56-1.33,.53,.43,1.05,.87,1.56,1.33m-192.72-.24c.51-.45,1.04-.89,1.57-1.32-.53,.43-1.06,.87-1.57,1.32m189.55-2.34c-.55-.41-1.1-.8-1.67-1.19,.56,.38,1.12,.78,1.67,1.19m-186.36-.22c.55-.4,1.11-.8,1.68-1.18-.57,.38-1.13,.77-1.68,1.18m182.98-2.09c-.58-.36-1.17-.71-1.76-1.04,.59,.34,1.18,.68,1.76,1.04m-179.58-.19c.58-.36,1.17-.7,1.77-1.03-.6,.33-1.19,.67-1.77,1.03m176.01-1.82c-.61-.31-1.22-.61-1.84-.89,.62,.28,1.24,.58,1.84,.89m-172.43-.17c.61-.31,1.23-.6,1.85-.88-.62,.28-1.24,.57-1.85,.88m168.7-1.54c-.63-.26-1.27-.5-1.91-.73,.64,.23,1.28,.47,1.91,.73m-164.97-.14c.63-.25,1.27-.49,1.92-.72-.64,.23-1.28,.46-1.92,.72m161.11-1.24c-.65-.2-1.31-.39-1.97-.57,.66,.18,1.32,.36,1.97,.57m-157.25-.11c.65-.2,1.31-.38,1.97-.55-.66,.17-1.32,.35-1.97,.55m153.29-.94c-.67-.15-1.34-.28-2.01-.4,.67,.12,1.34,.25,2.01,.4m-149.33-.08c.67-.14,1.34-.27,2.01-.38-.67,.11-1.34,.24-2.01,.38m145.29-.63c-.68-.09-1.36-.16-2.04-.23,.68,.06,1.36,.14,2.04,.23m-141.26-.04c.68-.08,1.35-.15,2.03-.21-.68,.06-1.36,.13-2.03,.21m137.18-.32c-.68-.03-1.36-.05-2.05-.05,.69,0,1.37,.02,2.05,.05m-131.33-.05c-.59,0-1.19,.01-1.78,.04,.59-.02,1.18-.04,1.78-.04h0Zm2.32,0h0Zm4.09,0h0Zm4.1,0h0Zm4.1,0h0Zm4.1,0h0Zm4.1,0h0Zm4.1,0h0Zm4.1,0h0Zm4.1,0h0Zm4.1,0h0Zm4.09,0h0Zm4.1,0h0Zm4.1,0h0Zm4.1,0h0Zm4.1,0h0Zm4.1,0h0Zm4.1,0h0Zm4.1,0h0Zm4.1,0h0Zm4.09,0h0Zm4.1,0h0Zm4.1,0h0Zm4.1,0h0Zm4.1,0h0Zm4.1,0h0Zm4.1,0h0Zm4.1,0h0Zm4.1,0h0Zm4.09,0h0Zm4.1,0h0Zm4.1,0h0Z"/><g class="w"><rect class="q" x="440.29" y="406.85" width="462.7" height="472.27" transform="translate(-235.91 845.16) rotate(-56.31)"/></g><path class="o" d="M607.08,802.91h0Zm4.1,0h0Zm4.1,0h0Zm4.09,0h0Zm4.1,0h0Zm4.1,0h0Zm4.1,0h0Zm4.1,0h0Zm4.1,0h0Zm4.1,0h0Zm4.1,0h0Zm4.1,0h0Zm4.09,0h0Zm4.1,0h0Zm4.1,0h0Zm4.1,0h0Zm4.1,0h0Zm4.1,0h0Zm4.1,0h0Zm4.1,0h0Zm4.1,0h0Zm4.09,0h0Zm4.1,0h0Zm4.1,0h0Zm4.1,0h0Zm4.1,0h0Zm4.1,0h0Zm4.1,0h0Zm4.1,0h0Zm4.1,0h0Zm4.09,0h0Zm4.1,0h0Zm4.09-.04c.68-.03,1.36-.07,2.04-.13-.68,.06-1.36,.1-2.04,.13m-133.1,0c-.68-.03-1.37-.07-2.05-.13,.68,.06,1.36,.1,2.05,.13m137.18-.34c.68-.09,1.35-.19,2.02-.3-.67,.11-1.34,.21-2.02,.3m-141.26,0c-.68-.09-1.35-.19-2.03-.3,.67,.12,1.35,.22,2.03,.3m145.29-.68c.67-.14,1.33-.3,1.99-.47-.66,.17-1.32,.33-1.99,.47m-149.33-.01c-.67-.14-1.33-.3-1.99-.48,.66,.17,1.32,.33,1.99,.48m153.29-1.01c.65-.2,1.3-.41,1.94-.64-.64,.23-1.29,.44-1.94,.64m-157.25-.02c-.65-.2-1.3-.42-1.94-.64,.64,.23,1.29,.44,1.94,.64m161.11-1.33c.63-.25,1.26-.52,1.88-.8-.62,.28-1.25,.55-1.88,.8m-164.97-.04c-.63-.26-1.26-.53-1.88-.81,.62,.28,1.25,.55,1.88,.81m168.7-1.64c.61-.31,1.21-.63,1.81-.96-.6,.33-1.2,.65-1.81,.96m-172.43-.05c-.61-.31-1.21-.63-1.81-.96,.59,.33,1.2,.66,1.81,.96m176.01-1.94c.58-.36,1.16-.73,1.72-1.11-.57,.38-1.14,.75-1.72,1.11m-179.58-.07c-.58-.36-1.15-.73-1.72-1.11,.56,.38,1.14,.76,1.72,1.11m182.97-2.22c.55-.4,1.09-.82,1.62-1.25-.53,.43-1.07,.85-1.62,1.25m-186.35-.08c-.55-.41-1.09-.83-1.62-1.26,.53,.43,1.07,.85,1.62,1.26m189.54-2.49c.51-.45,1.02-.91,1.51-1.39-.49,.47-1,.93-1.51,1.39m-192.72-.09c-.51-.45-1.01-.91-1.5-1.39,.49,.47,.99,.94,1.5,1.39m195.68-2.74c.47-.49,.93-1,1.39-1.51-.45,.51-.91,1.02-1.39,1.51m-198.62-.1c-.47-.49-.93-1-1.38-1.51,.45,.51,.91,1.02,1.38,1.51m201.33-2.98c.43-.53,.85-1.07,1.25-1.62-.41,.55-.82,1.09-1.25,1.62m-204.02-.1c-.43-.53-.84-1.07-1.25-1.62,.4,.55,.82,1.09,1.25,1.62m206.46-3.19c.38-.56,.75-1.14,1.11-1.72-.36,.58-.73,1.16-1.11,1.72m-208.88-.1c-.38-.56-.75-1.14-1.1-1.72,.36,.58,.72,1.16,1.1,1.72m211.03-3.39l1.02-1.77-1.02,1.77Zm-213.17-.1l-1.02-1.77,1.02,1.77Zm215.22-3.45l1.02-1.77-1.02,1.77Zm-217.27-.1l-1.02-1.77,1.02,1.77Zm219.32-3.45l1.02-1.77-1.02,1.77Zm-221.36-.1l-1.02-1.77,1.02,1.77Zm223.41-3.45l1.02-1.77-1.02,1.77Zm-225.46-.1l-1.02-1.77,1.02,1.77Zm227.51-3.45l1.02-1.77-1.02,1.77Zm-229.55-.1l-1.02-1.77,1.02,1.77Zm231.6-3.45l1.02-1.77-1.02,1.77Zm-233.65-.1l-1.02-1.77,1.02,1.77Zm235.7-3.45l1.02-1.77-1.02,1.77Zm-237.74-.1l-1.02-1.77,1.02,1.77Zm239.79-3.45l1.02-1.77-1.02,1.77Zm-241.84-.1l-1.02-1.77,1.02,1.77Zm243.89-3.45l1.02-1.77-1.02,1.77Zm-245.94-.1l-1.02-1.77,1.02,1.77Zm247.98-3.45l1.02-1.77-1.02,1.77Zm-250.03-.1l-1.02-1.77,1.02,1.77Zm252.08-3.45l1.02-1.77-1.02,1.77Zm-254.13-.1l-1.02-1.77,1.02,1.77Zm256.17-3.45l1.02-1.77-1.02,1.77Zm-258.22-.1l-1.02-1.77,1.02,1.77Zm260.27-3.45l1.02-1.77-1.02,1.77Zm-262.32-.1l-1.02-1.77,1.02,1.77Zm264.36-3.45l1.02-1.77-1.02,1.77Zm-266.41-.1l-1.02-1.77,1.02,1.77Zm268.46-3.45l1.02-1.77-1.02,1.77Zm-270.51-.1l-1.02-1.77,1.02,1.77Zm272.55-3.45l1.02-1.77-1.02,1.77Zm-274.6-.1l-1.02-1.77,1.02,1.77Zm276.65-3.45l1.02-1.77-1.02,1.77Zm-278.7-.1l-1.02-1.77,1.02,1.77Zm280.75-3.45l1.02-1.77-1.02,1.77Zm-282.79-.1l-1.02-1.77,1.02,1.77Zm284.84-3.45l1.02-1.77-1.02,1.77Zm-286.89-.1l-1.02-1.77,1.02,1.77Zm288.94-3.45l1.02-1.77-1.02,1.77Zm-290.98-.1l-1.02-1.77,1.02,1.77Zm293.03-3.45l1.02-1.77-1.02,1.77Zm-295.08-.1l-1.02-1.77,1.02,1.77Zm297.13-3.45l1.02-1.77-1.02,1.77Zm-299.17-.1l-1.02-1.77,1.02,1.77Zm301.22-3.45l1.02-1.77-1.02,1.77Zm-303.27-.1l-1.02-1.77,1.02,1.77Zm305.32-3.45l1.02-1.77-1.02,1.77Zm-307.36-.1l-1.02-1.77,1.02,1.77Zm309.41-3.45l1.02-1.77-1.02,1.77Zm-311.46-.1l-1.02-1.77,1.02,1.77Zm313.51-3.45l1.02-1.77-1.02,1.77Zm-315.55-.1l-1.02-1.77,1.02,1.77Zm317.6-3.45l1.02-1.77-1.02,1.77Zm-319.65-.1l-1.02-1.77,1.02,1.77Zm321.7-3.45l1.02-1.77-1.02,1.77Zm-323.74-.1l-1.02-1.77,1.02,1.77Zm325.79-3.45l1.02-1.77-1.02,1.77Zm-327.84-.1l-1.02-1.77,1.02,1.77Zm329.89-3.45l1.02-1.77-1.02,1.77Zm-331.94-.1l-1.02-1.77,1.02,1.77Zm333.98-3.45l1.02-1.77-1.02,1.77Zm-336.03-.1l-1.02-1.77,1.02,1.77Zm338.82-4.74l-.74,1.29,.74-1.29c.09-.16,.18-.32,.28-.49-.09,.16-.18,.33-.28,.49m-341.56,0l.69,1.19-.69-1.19c-.11-.19-.22-.39-.33-.58,.11,.2,.22,.39,.33,.58m342.79-2.3c.31-.61,.6-1.23,.88-1.85-.28,.62-.58,1.24-.88,1.85m-344.08-.1c-.31-.61-.6-1.23-.88-1.85,.28,.62,.57,1.24,.88,1.85m345.77-3.63c.25-.63,.5-1.27,.72-1.92-.23,.64-.47,1.28-.72,1.92m-347.45-.1c-.25-.64-.49-1.27-.72-1.92,.23,.64,.47,1.28,.72,1.92m348.82-3.76c.2-.65,.39-1.31,.56-1.97-.17,.66-.36,1.32-.56,1.97m-350.18-.11c-.2-.65-.38-1.31-.55-1.97,.17,.66,.36,1.32,.55,1.97m351.21-3.86c.14-.67,.27-1.34,.39-2.01-.12,.67-.24,1.34-.39,2.01m-352.23-.11c-.14-.67-.27-1.34-.38-2.01,.11,.67,.24,1.34,.38,2.01m352.92-3.93c.09-.68,.16-1.36,.22-2.04-.06,.68-.13,1.36-.22,2.04m-353.6-.11c-.08-.68-.16-1.36-.21-2.04,.06,.68,.13,1.36,.21,2.04m-.38-6c0,.64,.01,1.28,.04,1.92-.03-.64-.04-1.28-.04-1.92m354.33,2.03c.03-.68,.04-1.36,.04-2.05,0,.68-.01,1.37-.04,2.05m-354.33-2.03s0-.09,0-.13c0,.04,0,.09,0,.13m354.33-1.84c-.03-.68-.07-1.36-.12-2.04,.05,.68,.1,1.36,.12,2.04m-354.29-.34c.03-.68,.08-1.36,.14-2.04-.06,.68-.1,1.36-.14,2.04m353.96-3.74c-.08-.68-.18-1.35-.29-2.03,.11,.67,.21,1.35,.29,2.03m-353.6-.34c.09-.68,.19-1.35,.31-2.02-.12,.67-.22,1.35-.31,2.02m352.92-3.7c-.14-.67-.3-1.33-.46-1.99,.17,.66,.32,1.33,.46,1.99m-352.22-.33c.15-.67,.31-1.33,.48-1.99-.17,.66-.33,1.32-.48,1.99m351.21-3.63c-.2-.65-.41-1.3-.63-1.95,.22,.65,.44,1.29,.63,1.95m-350.17-.32c.2-.65,.42-1.3,.65-1.94-.23,.64-.44,1.29-.65,1.94m348.82-3.54c-.25-.63-.52-1.26-.79-1.89,.28,.62,.54,1.25,.79,1.89m-347.45-.31c.25-.63,.52-1.26,.81-1.88-.28,.62-.55,1.25-.81,1.88m345.78-3.43c-.3-.61-.62-1.21-.95-1.81,.33,.6,.65,1.2,.95,1.81m-344.08-.3c.31-.61,.63-1.21,.96-1.81-.33,.6-.66,1.2-.96,1.81m342.12-3.29l-1.02-1.77,1.02,1.77Zm-340.13-.29l1.02-1.77-1.02,1.77Zm338.08-3.26l-1.02-1.77,1.02,1.77Zm-336.04-.29l1.02-1.77-1.02,1.77Zm333.99-3.26l-1.02-1.77,1.02,1.77Zm-331.94-.29l1.02-1.77-1.02,1.77Zm329.89-3.26l-1.02-1.77,1.02,1.77Zm-327.85-.29l1.02-1.77-1.02,1.77Zm325.8-3.26l-1.02-1.77,1.02,1.77Zm-323.75-.29l1.02-1.77-1.02,1.77Zm321.7-3.26l-1.02-1.77,1.02,1.77Zm-319.65-.29l1.02-1.77-1.02,1.77Zm317.61-3.26l-1.02-1.77,1.02,1.77Zm-315.56-.29l1.02-1.77-1.02,1.77Zm313.51-3.26l-1.02-1.77,1.02,1.77Zm-311.46-.29l1.02-1.77-1.02,1.77Zm309.42-3.26l-1.02-1.77,1.02,1.77Zm-307.37-.29l1.02-1.77-1.02,1.77Zm305.32-3.26l-1.02-1.77,1.02,1.77Zm-303.27-.29l1.02-1.77-1.02,1.77Zm301.23-3.26l-1.02-1.77,1.02,1.77Zm-299.18-.29l1.02-1.77-1.02,1.77Zm297.13-3.26l-1.02-1.77,1.02,1.77Zm-295.08-.29l1.02-1.77-1.02,1.77Zm293.04-3.26l-1.02-1.77,1.02,1.77Zm-290.99-.29l1.02-1.77-1.02,1.77Zm288.94-3.26l-1.02-1.77,1.02,1.77Zm-286.89-.29l1.02-1.77-1.02,1.77Zm284.85-3.26l-1.02-1.77,1.02,1.77Zm-282.8-.29l1.02-1.77-1.02,1.77Zm280.75-3.26l-1.02-1.77,1.02,1.77Zm-278.7-.29l1.02-1.77-1.02,1.77Zm276.66-3.26l-1.02-1.77,1.02,1.77Zm-274.61-.29l1.02-1.77-1.02,1.77Zm272.56-3.26l-1.02-1.77,1.02,1.77Zm-270.51-.29l1.02-1.77-1.02,1.77Zm268.47-3.26l-1.02-1.77,1.02,1.77Zm-266.42-.29l1.02-1.77-1.02,1.77Zm264.37-3.26l-1.02-1.77,1.02,1.77Zm-262.32-.29l1.02-1.77-1.02,1.77Zm260.27-3.26l-1.02-1.77,1.02,1.77Zm-258.23-.29l1.02-1.77-1.02,1.77Zm256.18-3.26l-1.02-1.77,1.02,1.77Zm-254.13-.29l1.02-1.77-1.02,1.77Zm252.08-3.26l-1.02-1.77,1.02,1.77Zm-250.04-.29l1.02-1.77-1.02,1.77Zm247.99-3.26l-1.02-1.77,1.02,1.77Zm-245.94-.29l1.02-1.77-1.02,1.77Zm243.89-3.26l-1.02-1.77,1.02,1.77Zm-241.85-.29l1.02-1.77-1.02,1.77Zm239.8-3.26l-1.02-1.77,1.02,1.77Zm-237.75-.29l1.02-1.77-1.02,1.77Zm235.7-3.26l-1.02-1.77,1.02,1.77Zm-233.66-.29l1.02-1.77-1.02,1.77Zm231.61-3.26l-1.02-1.77,1.02,1.77Zm-229.56-.29l1.02-1.77-1.02,1.77Zm227.51-3.26l-1.02-1.77,1.02,1.77Zm-225.47-.29l1.02-1.77-1.02,1.77Zm223.42-3.26l-1.02-1.77,1.02,1.77Zm-221.37-.29l1.02-1.77-1.02,1.77Zm219.32-3.26l-1.02-1.77,1.02,1.77Zm-217.28-.29l1.02-1.77-1.02,1.77Zm214.73-4.12l.5,.87-.5-.87c-.18-.3-.35-.6-.54-.9,.18,.3,.36,.6,.54,.9m-212.35,0l-.33,.58,.33-.58c.23-.4,.47-.8,.71-1.19-.24,.39-.48,.79-.71,1.19m210.71-2.63c-.38-.57-.77-1.13-1.17-1.68,.4,.55,.79,1.11,1.17,1.68m-208.89-.28c.38-.57,.78-1.12,1.19-1.67-.41,.55-.8,1.1-1.19,1.67m206.47-3.02c-.43-.53-.86-1.06-1.31-1.57,.45,.51,.88,1.04,1.31,1.57m-204.03-.27c.43-.53,.87-1.05,1.32-1.56-.45,.51-.89,1.03-1.32,1.56m201.34-2.81c-.47-.5-.95-.98-1.44-1.45,.49,.47,.97,.96,1.44,1.45m-198.63-.26c.47-.49,.96-.97,1.45-1.44-.49,.47-.98,.95-1.45,1.44m195.69-2.58c-.51-.45-1.03-.9-1.56-1.33,.53,.43,1.05,.87,1.56,1.33m-192.72-.24c.51-.45,1.04-.89,1.57-1.32-.53,.43-1.06,.87-1.57,1.32m189.55-2.34c-.55-.41-1.1-.8-1.67-1.19,.56,.38,1.12,.78,1.67,1.19m-186.36-.22c.55-.4,1.11-.8,1.68-1.18-.57,.38-1.13,.77-1.68,1.18m182.98-2.09c-.58-.36-1.17-.71-1.76-1.04,.59,.34,1.18,.68,1.76,1.04m-179.58-.19c.58-.36,1.17-.7,1.77-1.03-.6,.33-1.19,.67-1.77,1.03m176.01-1.82c-.61-.31-1.22-.61-1.84-.89,.62,.28,1.24,.58,1.84,.89m-172.43-.17c.61-.31,1.23-.6,1.85-.88-.62,.28-1.24,.57-1.85,.88m168.7-1.54c-.63-.26-1.27-.5-1.91-.73,.64,.23,1.28,.47,1.91,.73m-164.97-.14c.63-.25,1.27-.49,1.92-.72-.64,.23-1.28,.46-1.92,.72m161.11-1.24c-.65-.2-1.31-.39-1.97-.57,.66,.18,1.32,.36,1.97,.57m-157.25-.11c.65-.2,1.31-.38,1.97-.55-.66,.17-1.32,.35-1.97,.55m153.29-.94c-.67-.15-1.34-.28-2.01-.4,.67,.12,1.34,.25,2.01,.4m-149.33-.08c.67-.14,1.34-.27,2.01-.38-.67,.11-1.34,.24-2.01,.38m145.29-.63c-.68-.09-1.36-.16-2.04-.23,.68,.06,1.36,.14,2.04,.23m-141.26-.04c.68-.08,1.35-.15,2.03-.21-.68,.06-1.36,.13-2.03,.21m137.18-.32c-.68-.03-1.36-.05-2.05-.05,.69,0,1.37,.02,2.05,.05m-131.33-.05c-.59,0-1.19,.01-1.78,.04,.59-.02,1.18-.04,1.78-.04h0Zm2.32,0h0Zm4.09,0h0Zm4.1,0h0Zm4.1,0h0Zm4.1,0h0Zm4.1,0h0Zm4.1,0h0Zm4.1,0h0Zm4.1,0h0Zm4.1,0h0Zm4.09,0h0Zm4.1,0h0Zm4.1,0h0Zm4.1,0h0Zm4.1,0h0Zm4.1,0h0Zm4.1,0h0Zm4.1,0h0Zm4.1,0h0Zm4.09,0h0Zm4.1,0h0Zm4.1,0h0Zm4.1,0h0Zm4.1,0h0Zm4.1,0h0Zm4.1,0h0Zm4.1,0h0Zm4.1,0h0Zm4.09,0h0Zm4.1,0h0Zm4.1,0h0Z"/></g></svg>