<?xml version="1.0" encoding="utf-8"?>
<!-- Generator: Adobe Illustrator 26.2.1, SVG Export Plug-In . SVG Version: 6.00 Build 0)  -->
<svg version="1.1" id="a" xmlns="http://www.w3.org/2000/svg" xmlns:xlink="http://www.w3.org/1999/xlink" x="0px" y="0px"
	 viewBox="0 0 386.3 479.7" style="enable-background:new 0 0 386.3 479.7;" xml:space="preserve">
<style type="text/css">
	.st0{fill:none;stroke:#000000;stroke-width:0.5966;stroke-miterlimit:10;stroke-dasharray:3.5796;}
	.st1{fill:#FFFFFF;}
	.st2{fill:url(#SVGID_1_);}
	.st3{fill:url(#SVGID_00000026141648817766090750000016217563445734551452_);}
	.st4{fill:url(#SVGID_00000141424420148846460650000012939403814959756731_);}
	.st5{fill:url(#SVGID_00000085241713703423336130000008011012008746703510_);}
	.st6{fill:url(#SVGID_00000129903520294177155660000017328159701508847280_);}
	.st7{enable-background:new    ;}
	.st8{fill:url(#SVGID_00000098918703390217960670000005033025448470039476_);}
	.st9{fill:url(#SVGID_00000181082970469370429240000013099604845891234990_);}
	.st10{fill:url(#SVGID_00000153694802933431112140000018266014517160292782_);}
	.st11{fill:url(#SVGID_00000139291165774077893100000018088741143802581434_);}
	.st12{fill:url(#SVGID_00000132801780777011173250000004251061028804213632_);}
	.st13{fill:url(#SVGID_00000093151002074512218140000004882795101328849070_);}
	.st14{fill:url(#SVGID_00000011031820555239739480000004991238889908184508_);}
	.st15{fill:url(#SVGID_00000117655022390650864510000011649846902122798769_);}
	.st16{fill:url(#SVGID_00000016077562567000002370000013800948502303243455_);}
	.st17{fill:url(#SVGID_00000062903441663052294290000000342423095961503386_);}
	.st18{fill:url(#SVGID_00000081647625477625699990000004971833273415219590_);}
	.st19{fill:url(#SVGID_00000033338011381198343170000015597351790085636752_);}
</style>
<g transform="translate(505.73 577.18)">
	<text transform="matrix(1 0 0 1 299.79 338)" style="font-family:'DarkerGrotesque-Bold'; font-size:15.6px; letter-spacing:-1;">T</text>
	<text transform="matrix(1 0 0 1 305.91 338)" style="font-family:'DarkerGrotesque-Bold'; font-size:15.6px;">oken</text>
	<text transform="matrix(1 0 0 1 299.79 353.86)" style="font-family:'DarkerGrotesque-Bold'; font-size:15.6px;">Allocation</text>
</g>
<g transform="translate(540.5 431.57)">
	<text transform="matrix(1 0 0 1 315.6899 251.13)" style="font-family:'Poppins-SemiBold'; font-size:11.25px;">Token</text>
	<text transform="matrix(1 0 0 1 311.1 261.77)" style="font-family:'Poppins-SemiBold'; font-size:11.25px;">Amount</text>
</g>
<g>
	<g>
		<g>
			<path class="st0" d="M193,347.3c-5.5,0-11.1-1.4-16-4.3l-74.6-43.1c-9.9-5.7-16-16.3-16-27.7v-43.1v-43.1c0-11.4,6.1-22,16-27.7
				l74.6-43.1c9.9-5.7,22.1-5.7,32,0l74.6,43.1c9.9,5.7,16,16.3,16,27.7v43.1v43.1c0,11.4-6.1,22-16,27.7L209,343
				C204.1,345.9,198.5,347.3,193,347.3z"/>
		</g>
		<polygon points="112.8,152.5 110,158 106.7,151.8 		"/>
		<polygon points="272.6,152.3 278.7,151.8 275.1,157.9 		"/>
		<polygon points="105.7,302.1 111.9,301.8 108.2,307.8 		"/>
		<polygon points="281,301.5 278.4,307.1 274.8,301 		"/>
	</g>
	<g>
		<path class="st1" d="M193,177.6c-4.2,0-8.4-1.1-12-3.2l-55.9-32.3c-7.4-4.3-12-12.2-12-20.8V56.8c0-8.6,4.6-16.5,12-20.8L181,3.7
			c7.4-4.3,16.6-4.3,24,0L260.9,36c7.4,4.3,12,12.2,12,20.8v64.6c0,8.6-4.6,16.5-12,20.8L205,174.4
			C201.4,176.5,197.2,177.6,193,177.6z"/>
		
			<linearGradient id="SVGID_1_" gradientUnits="userSpaceOnUse" x1="112.7568" y1="392.9568" x2="273.2432" y2="392.9568" gradientTransform="matrix(1 0 0 -1 0 482)">
			<stop  offset="0" style="stop-color:#FE8F90"/>
			<stop  offset="0.52" style="stop-color:#956EC1"/>
			<stop  offset="0.81" style="stop-color:#605DDA"/>
			<stop  offset="0.84" style="stop-color:#5D5AD5"/>
			<stop  offset="0.87" style="stop-color:#5353C6"/>
			<stop  offset="0.91" style="stop-color:#4347AD"/>
			<stop  offset="0.95" style="stop-color:#2D368A"/>
			<stop  offset="0.99" style="stop-color:#10215E"/>
			<stop  offset="1" style="stop-color:#06194E"/>
			<stop  offset="1" style="stop-color:#05184D"/>
			<stop  offset="1" style="stop-color:#011546"/>
			<stop  offset="1" style="stop-color:#001444"/>
		</linearGradient>
		<path class="st2" d="M193.1,177.9c0,0-0.1,0-0.1,0c-4.2,0-8.4-1.1-12.1-3.2l-55.9-32.3c-7.5-4.3-12.1-12.4-12.2-21V56.8
			c0-8.6,4.7-16.7,12.1-21l55.9-32.3c7.5-4.3,16.8-4.3,24.3,0l55.9,32.3c7.5,4.3,12.2,12.4,12.2,21v64.6c0,8.6-4.7,16.7-12.1,21
			l-55.9,32.3C201.5,176.8,197.3,177.9,193.1,177.9z M193,177.3L193,177.3c4.2,0,8.3-1.1,11.9-3.1l55.9-32.3
			c7.3-4.2,11.8-12.1,11.8-20.5V56.8c0-8.4-4.6-16.3-11.9-20.5L204.8,3.9c-7.3-4.2-16.4-4.2-23.7,0l-55.9,32.3
			c-7.3,4.2-11.8,12.1-11.8,20.5v64.6c0,8.4,4.6,16.3,11.9,20.5l55.9,32.3C184.7,176.2,188.8,177.3,193,177.3
			C193,177.3,193,177.3,193,177.3z"/>
	</g>
	<g>
		<path class="st1" d="M193,456.1c-4.2,0-8.3-1.1-12-3.2l-56-32.3c-7.4-4.3-12-12.2-12-20.8v-64.6c0-8.6,4.6-16.5,12-20.8l55.9-32.3
			c7.4-4.3,16.6-4.3,24,0l55.9,32.3c7.4,4.3,12,12.2,12,20.8v64.6c0,8.6-4.6,16.5-12,20.8L205,452.9
			C201.4,455,197.2,456.1,193,456.1z"/>
		
			<linearGradient id="SVGID_00000049943026351645366520000004290510001445930681_" gradientUnits="userSpaceOnUse" x1="112.7744" y1="114.4524" x2="273.2256" y2="114.4524" gradientTransform="matrix(1 0 0 -1 0 482)">
			<stop  offset="0" style="stop-color:#FE8F90"/>
			<stop  offset="0.52" style="stop-color:#956EC1"/>
			<stop  offset="0.81" style="stop-color:#605DDA"/>
			<stop  offset="0.84" style="stop-color:#5D5AD5"/>
			<stop  offset="0.87" style="stop-color:#5353C6"/>
			<stop  offset="0.91" style="stop-color:#4347AD"/>
			<stop  offset="0.95" style="stop-color:#2D368A"/>
			<stop  offset="0.99" style="stop-color:#10215E"/>
			<stop  offset="1" style="stop-color:#06194E"/>
			<stop  offset="1" style="stop-color:#05184D"/>
			<stop  offset="1" style="stop-color:#011546"/>
			<stop  offset="1" style="stop-color:#001444"/>
		</linearGradient>
		<path style="fill:url(#SVGID_00000049943026351645366520000004290510001445930681_);" d="M193,456.4c-4.2,0-8.4-1.1-12.1-3.2
			l-56-32.3c-7.5-4.3-12.1-12.4-12.1-21v-64.6c0-8.6,4.7-16.7,12.1-21l55.9-32.3c7.5-4.3,16.8-4.3,24.3,0l55.9,32.3
			c7.5,4.3,12.1,12.4,12.1,21v64.6c0,8.6-4.7,16.7-12.1,21l-55.9,32.3C201.5,455.3,197.3,456.4,193,456.4L193,456.4
			C193,456.4,193,456.4,193,456.4z M193,279.3c-4.1,0-8.2,1.1-11.8,3.2l-55.9,32.3c-7.3,4.2-11.8,12.1-11.8,20.5v64.6
			c0,8.4,4.5,16.3,11.8,20.5l56,32.3c3.6,2.1,7.7,3.2,11.8,3.2c0,0,0,0,0,0l0,0c4.1,0,8.2-1.1,11.8-3.2l55.9-32.3
			c7.3-4.2,11.8-12.1,11.8-20.5v-64.6c0-8.4-4.6-16.3-11.8-20.5l-55.9-32.3C201.2,280.3,197.1,279.3,193,279.3z"/>
	</g>
	<g>
		<path class="st1" d="M333.6,286.5c-2.8,0-5.5-0.7-7.8-2.1l-36.6-21.1c-4.8-2.8-7.8-8-7.8-13.6v-42.2c0-5.6,3-10.8,7.8-13.6
			l36.6-21.1c4.9-2.8,10.8-2.8,15.7,0l36.6,21.1c4.8,2.8,7.8,8,7.8,13.6v42.2c0,5.6-3,10.8-7.8,13.6l-36.6,21.1
			C339.1,285.8,336.4,286.5,333.6,286.5z"/>
		
			<linearGradient id="SVGID_00000038386564703504315250000004797837502947545243_" gradientUnits="userSpaceOnUse" x1="281.0957" y1="253.3824" x2="386.1572" y2="253.3824" gradientTransform="matrix(1 0 0 -1 0 482)">
			<stop  offset="0" style="stop-color:#FE8F90"/>
			<stop  offset="0.52" style="stop-color:#956EC1"/>
			<stop  offset="0.81" style="stop-color:#605DDA"/>
			<stop  offset="0.84" style="stop-color:#5D5AD5"/>
			<stop  offset="0.87" style="stop-color:#5353C6"/>
			<stop  offset="0.91" style="stop-color:#4347AD"/>
			<stop  offset="0.95" style="stop-color:#2D368A"/>
			<stop  offset="0.99" style="stop-color:#10215E"/>
			<stop  offset="1" style="stop-color:#06194E"/>
			<stop  offset="1" style="stop-color:#05184D"/>
			<stop  offset="1" style="stop-color:#011546"/>
			<stop  offset="1" style="stop-color:#001444"/>
		</linearGradient>
		<path style="fill:url(#SVGID_00000038386564703504315250000004797837502947545243_);" d="M333.6,286.8L333.6,286.8
			c-2.8,0-5.6-0.7-8-2.1l-36.6-21.1c-4.9-2.9-8-8.2-8-13.8v-42.2c0-5.7,3.1-11,8-13.8l36.6-21.1c4.9-2.8,11.1-2.8,16,0l36.6,21.1
			c4.9,2.8,8,8.2,8,13.8v42.2c0,5.7-3.1,11-8,13.8l-36.6,21.1C339.2,286.1,336.4,286.8,333.6,286.8z M333.6,171
			c-2.7,0-5.3,0.7-7.7,2l-36.6,21.1c-4.7,2.7-7.7,7.8-7.7,13.3v42.2c0,5.5,3,10.6,7.7,13.3l36.6,21.1c2.3,1.4,5,2.1,7.7,2.1
			c2.7,0,5.4-0.7,7.7-2.1l36.6-21.1c4.7-2.7,7.7-7.9,7.7-13.3v-42.2c0-5.5-3-10.6-7.7-13.3l-36.6-21.1
			C338.9,171.7,336.3,171,333.6,171z"/>
	</g>
	<g>
		<path class="st1" d="M52.4,286.5c-2.8,0-5.5-0.7-7.8-2.1L8,263.3c-4.8-2.8-7.8-8-7.8-13.6v-42.2c0-5.6,3-10.8,7.8-13.6l36.6-21.1
			c4.9-2.8,10.8-2.8,15.7,0l36.6,21.1c4.8,2.8,7.8,8,7.8,13.6v42.2c0,5.6-3,10.8-7.8,13.6l-36.6,21.1
			C57.8,285.8,55.1,286.5,52.4,286.5z"/>
		
			<linearGradient id="SVGID_00000121270837923710074030000014688551229610199473_" gradientUnits="userSpaceOnUse" x1="-0.1572" y1="253.3824" x2="104.9043" y2="253.3824" gradientTransform="matrix(1 0 0 -1 0 482)">
			<stop  offset="0" style="stop-color:#FE8F90"/>
			<stop  offset="0.52" style="stop-color:#956EC1"/>
			<stop  offset="0.81" style="stop-color:#605DDA"/>
			<stop  offset="0.84" style="stop-color:#5D5AD5"/>
			<stop  offset="0.87" style="stop-color:#5353C6"/>
			<stop  offset="0.91" style="stop-color:#4347AD"/>
			<stop  offset="0.95" style="stop-color:#2D368A"/>
			<stop  offset="0.99" style="stop-color:#10215E"/>
			<stop  offset="1" style="stop-color:#06194E"/>
			<stop  offset="1" style="stop-color:#05184D"/>
			<stop  offset="1" style="stop-color:#011546"/>
			<stop  offset="1" style="stop-color:#001444"/>
		</linearGradient>
		<path style="fill:url(#SVGID_00000121270837923710074030000014688551229610199473_);" d="M52.4,286.8L52.4,286.8
			c-2.8,0-5.6-0.7-8-2.1L7.8,263.6c-4.9-2.9-8-8.2-8-13.8v-42.2c0-5.7,3.1-11,8-13.8l36.6-21.1c4.9-2.8,11-2.8,16,0l36.6,21.1
			c4.9,2.9,8,8.2,8,13.8v42.2c0,5.7-3.1,11-8,13.8l-36.6,21.1C57.9,286.1,55.2,286.8,52.4,286.8z M52.4,171c-2.7,0-5.3,0.7-7.7,2
			L8.1,194.2c-4.7,2.7-7.7,7.8-7.7,13.3v42.2c0,5.5,3,10.6,7.7,13.3l36.6,21.1c2.3,1.4,5,2.1,7.7,2.1c2.7,0,5.4-0.7,7.7-2.1
			L96.6,263c4.7-2.7,7.7-7.9,7.7-13.3v-42.2c0-5.5-3-10.6-7.7-13.3l-36.6-21.1C57.7,171.7,55,171,52.4,171z"/>
	</g>
	
		<linearGradient id="SVGID_00000044170744890608645490000009124447797816672928_" gradientUnits="userSpaceOnUse" x1="172.9301" y1="342.0781" x2="213.0997" y2="342.0781" gradientTransform="matrix(1 0 0 -1 0 482)">
		<stop  offset="0" style="stop-color:#FE8F90"/>
		<stop  offset="0.52" style="stop-color:#956EC1"/>
		<stop  offset="0.81" style="stop-color:#605DDA"/>
		<stop  offset="0.84" style="stop-color:#5D5AD5"/>
		<stop  offset="0.87" style="stop-color:#5353C6"/>
		<stop  offset="0.91" style="stop-color:#4347AD"/>
		<stop  offset="0.95" style="stop-color:#2D368A"/>
		<stop  offset="0.99" style="stop-color:#10215E"/>
		<stop  offset="1" style="stop-color:#06194E"/>
		<stop  offset="1" style="stop-color:#05184D"/>
		<stop  offset="1" style="stop-color:#011546"/>
		<stop  offset="1" style="stop-color:#001444"/>
	</linearGradient>
	<path style="fill:url(#SVGID_00000044170744890608645490000009124447797816672928_);" d="M193,162.2c-1.1,0-2.1-0.3-3-0.8l-14-8.1
		c-1.9-1.1-3-3.1-3-5.2v-16.2c0-2.2,1.1-4.1,3-5.2l14.1-8.1c1.9-1.1,4.2-1.1,6,0l14,8.1c1.9,1.1,3,3.1,3,5.2V148
		c0,2.2-1.1,4.1-3,5.2l-14,8.1C195.1,161.9,194.1,162.2,193,162.2z"/>
	<g class="st7">
		<path d="M322,158.3l2.8-8.8h2.6l2.9,8.8h-1.7l-0.8-2.5h-3.4l-0.7,2.5H322z M326.1,150.2l-1.3,4.4h2.7L326.1,150.2z"/>
		<path d="M336.5,160.4c-0.2,0-0.5,0-0.8-0.1c-0.3-0.1-0.5-0.3-0.7-0.5c-0.2-0.3-0.3-0.6-0.3-1.1c-1.2-0.2-2.2-0.7-2.8-1.5
			c-0.6-0.8-1-1.9-1-3.2c0-0.9,0.2-1.7,0.5-2.4s0.8-1.2,1.5-1.5s1.5-0.5,2.4-0.5c1,0,1.8,0.2,2.4,0.5c0.6,0.3,1.1,0.8,1.5,1.5
			c0.3,0.7,0.5,1.5,0.5,2.4c0,1.2-0.3,2.2-0.9,3.1c-0.6,0.8-1.5,1.3-2.6,1.6c0,0.1,0.1,0.3,0.1,0.4c0.1,0.1,0.3,0.2,0.6,0.2
			c0.1-0.1,0.2-0.1,0.3-0.1c0.2,0,0.3,0,0.4,0l0,1.2c0-0.1-0.1-0.1-0.3-0.1c-0.2,0-0.4,0.1-0.6,0.1
			C336.7,160.4,336.6,160.4,336.5,160.4z M335.4,157.1c0.9,0,1.6-0.3,2.1-0.9c0.5-0.6,0.7-1.4,0.7-2.3c0-0.9-0.2-1.7-0.7-2.2
			c-0.5-0.5-1.2-0.8-2.1-0.8c-0.9,0-1.6,0.2-2.1,0.7s-0.7,1.2-0.7,2.2c0,0.9,0.2,1.7,0.7,2.3S334.4,157.1,335.4,157.1z"/>
		<path d="M345.1,156.9v1.4h-3.9v-1.4h1.2v-6.1h-1.2v-1.4h3.9v1.4h-1.2v6.1H345.1z"/>
	</g>
	
		<linearGradient id="SVGID_00000057127198201262915100000015749479140594274988_" gradientUnits="userSpaceOnUse" x1="43.7968" y1="253.4789" x2="61.7588" y2="253.4789" gradientTransform="matrix(1 0 0 -1 0 482)">
		<stop  offset="0" style="stop-color:#FE8F90"/>
		<stop  offset="0.52" style="stop-color:#956EC1"/>
		<stop  offset="0.81" style="stop-color:#605DDA"/>
		<stop  offset="0.84" style="stop-color:#5D5AD5"/>
		<stop  offset="0.87" style="stop-color:#5353C6"/>
		<stop  offset="0.91" style="stop-color:#4347AD"/>
		<stop  offset="0.95" style="stop-color:#2D368A"/>
		<stop  offset="0.99" style="stop-color:#10215E"/>
		<stop  offset="1" style="stop-color:#06194E"/>
		<stop  offset="1" style="stop-color:#05184D"/>
		<stop  offset="1" style="stop-color:#011546"/>
		<stop  offset="1" style="stop-color:#001444"/>
	</linearGradient>
	<path style="fill:url(#SVGID_00000057127198201262915100000015749479140594274988_);" d="M60.8,237.1c-0.7,1.1-1.6,2-2.7,2.6
		c-1.3,0.7-2.8,1.1-4.2,1.2v2.9h-2.2V241c-2.1-0.1-4-0.8-5.6-2.1c-1.4-1.2-2.2-3-2.2-4.9H49c0,1.5,1.1,2.8,2.6,3v-6.7
		c-1.4-0.3-2.7-0.7-4.1-1.3c-1-0.4-2-1.1-2.7-2c-0.8-1.1-1.2-2.5-1.1-3.8c-0.1-1.9,0.7-3.7,2.2-5c1.6-1.3,3.6-2.1,5.6-2.2v-2.8h2.2
		v2.8c2,0.1,3.8,0.8,5.4,2c1.4,1.2,2.2,3,2.3,4.8h-5.3c0-0.7-0.3-1.3-0.7-1.8c-0.4-0.5-1-0.9-1.6-1.1v6.6c1.4,0.3,2.8,0.8,4.1,1.3
		c1,0.4,1.9,1.1,2.6,2c0.8,1.1,1.2,2.5,1.1,3.8C61.8,234.9,61.4,236.1,60.8,237.1z M49.6,224.8c0.6,0.5,1.3,1,2,1.2V220
		c-0.8,0.1-1.5,0.4-2,0.9c-0.5,0.6-0.8,1.3-0.7,2.1C48.9,223.7,49.1,224.3,49.6,224.8z M56,236c0.5-0.6,0.8-1.3,0.7-2
		c0-0.7-0.2-1.4-0.7-1.8c-0.6-0.5-1.3-0.9-2.1-1.2v6.1C54.7,236.9,55.4,236.6,56,236z"/>
	
		<linearGradient id="SVGID_00000058577684406033053230000014299104842518520735_" gradientUnits="userSpaceOnUse" x1="182.507" y1="428.3864" x2="203.5054" y2="428.3864" gradientTransform="matrix(1 0 0 -1 0 482)">
		<stop  offset="0" style="stop-color:#FE8F90"/>
		<stop  offset="0.52" style="stop-color:#956EC1"/>
		<stop  offset="0.81" style="stop-color:#605DDA"/>
		<stop  offset="0.84" style="stop-color:#5D5AD5"/>
		<stop  offset="0.87" style="stop-color:#5353C6"/>
		<stop  offset="0.91" style="stop-color:#4347AD"/>
		<stop  offset="0.95" style="stop-color:#2D368A"/>
		<stop  offset="0.99" style="stop-color:#10215E"/>
		<stop  offset="1" style="stop-color:#06194E"/>
		<stop  offset="1" style="stop-color:#05184D"/>
		<stop  offset="1" style="stop-color:#011546"/>
		<stop  offset="1" style="stop-color:#001444"/>
	</linearGradient>
	<path style="fill:url(#SVGID_00000058577684406033053230000014299104842518520735_);" d="M202.4,63.7c-0.8,1.3-1.9,2.3-3.2,3.1
		c-1.5,0.8-3.2,1.3-5,1.4v3.3h-2.6v-3.3c-2.4-0.1-4.7-1-6.6-2.5c-1.7-1.4-2.6-3.5-2.6-5.7h6.1c0.2,2,1.2,3.1,3,3.6v-7.8
		c-1.6-0.4-3.2-0.9-4.7-1.5c-1.2-0.5-2.3-1.3-3.1-2.4c-0.9-1.3-1.4-2.9-1.3-4.4c-0.1-2.2,0.9-4.3,2.6-5.8c1.9-1.6,4.2-2.5,6.6-2.6
		v-3.3h2.6v3.3c2.3,0.1,4.5,0.9,6.3,2.4c1.6,1.4,2.5,3.5,2.6,5.6H197c-0.1-1.6-1.2-2.9-2.7-3.3v7.7c1.6,0.4,3.3,0.9,4.8,1.5
		c1.2,0.5,2.3,1.3,3.1,2.3c0.9,1.3,1.4,2.8,1.3,4.4C203.5,61.1,203.1,62.5,202.4,63.7z M189.3,49.3c0.7,0.6,1.5,1.1,2.4,1.4v-7.1
		c-0.9,0.1-1.7,0.5-2.3,1.1c-0.6,0.7-0.9,1.5-0.9,2.4C188.4,47.9,188.7,48.7,189.3,49.3z M196.7,62.3c0.6-0.7,0.9-1.5,0.9-2.4
		c0-0.8-0.3-1.6-0.9-2.2c-0.7-0.6-1.5-1.1-2.5-1.3v7.2C195.2,63.5,196.1,63,196.7,62.3z"/>
	
		<linearGradient id="SVGID_00000011718787425613031580000001962588167828221364_" gradientUnits="userSpaceOnUse" x1="148.4453" y1="428.3893" x2="167.2027" y2="428.3893" gradientTransform="matrix(1 0 0 -1 0 482)">
		<stop  offset="0" style="stop-color:#FE8F90"/>
		<stop  offset="0.52" style="stop-color:#956EC1"/>
		<stop  offset="0.81" style="stop-color:#605DDA"/>
		<stop  offset="0.84" style="stop-color:#5D5AD5"/>
		<stop  offset="0.87" style="stop-color:#5353C6"/>
		<stop  offset="0.91" style="stop-color:#4347AD"/>
		<stop  offset="0.95" style="stop-color:#2D368A"/>
		<stop  offset="0.99" style="stop-color:#10215E"/>
		<stop  offset="1" style="stop-color:#06194E"/>
		<stop  offset="1" style="stop-color:#05184D"/>
		<stop  offset="1" style="stop-color:#011546"/>
		<stop  offset="1" style="stop-color:#001444"/>
	</linearGradient>
	<path style="fill:url(#SVGID_00000011718787425613031580000001962588167828221364_);" d="M166.2,62.6c-0.7,1.2-1.7,2.1-2.8,2.7
		c-1.4,0.7-2.9,1.2-4.4,1.3v3h-2.4v-3c-2.1-0.1-4.2-0.9-5.9-2.2c-1.5-1.3-2.3-3.1-2.3-5.1h5.5c0,1.6,1.2,2.9,2.7,3.1v-7
		c-1.4-0.3-2.9-0.8-4.2-1.3c-1.1-0.5-2-1.2-2.8-2.1c-0.8-1.1-1.3-2.6-1.2-4c-0.1-2,0.8-3.9,2.3-5.2c1.7-1.4,3.7-2.2,5.9-2.3v-3h2.3
		v3c2,0.1,4,0.8,5.6,2.1c1.4,1.3,2.3,3.1,2.4,5h-5.5c-0.1-1.4-1.1-2.6-2.4-3v6.9c1.5,0.4,2.9,0.8,4.3,1.3c1.1,0.4,2,1.2,2.8,2.1
		c0.8,1.1,1.2,2.5,1.2,4C167.2,60.3,166.9,61.6,166.2,62.6z M154.5,49.8c0.6,0.6,1.3,1,2.1,1.2v-6.3c-0.8,0.1-1.5,0.4-2.1,1
		c-0.5,0.6-0.8,1.4-0.8,2.2C153.7,48.6,154,49.3,154.5,49.8z M161.1,61.4c0.5-0.6,0.8-1.3,0.8-2.1c0-0.7-0.2-1.4-0.8-1.9
		c-0.6-0.6-1.4-1-2.2-1.2v6.4C159.8,62.4,160.6,62,161.1,61.4z"/>
	
		<linearGradient id="SVGID_00000155859145099079844350000003289544511186995075_" gradientUnits="userSpaceOnUse" x1="218.7876" y1="428.3893" x2="237.5449" y2="428.3893" gradientTransform="matrix(1 0 0 -1 0 482)">
		<stop  offset="0" style="stop-color:#FE8F90"/>
		<stop  offset="0.52" style="stop-color:#956EC1"/>
		<stop  offset="0.81" style="stop-color:#605DDA"/>
		<stop  offset="0.84" style="stop-color:#5D5AD5"/>
		<stop  offset="0.87" style="stop-color:#5353C6"/>
		<stop  offset="0.91" style="stop-color:#4347AD"/>
		<stop  offset="0.95" style="stop-color:#2D368A"/>
		<stop  offset="0.99" style="stop-color:#10215E"/>
		<stop  offset="1" style="stop-color:#06194E"/>
		<stop  offset="1" style="stop-color:#05184D"/>
		<stop  offset="1" style="stop-color:#011546"/>
		<stop  offset="1" style="stop-color:#001444"/>
	</linearGradient>
	<path style="fill:url(#SVGID_00000155859145099079844350000003289544511186995075_);" d="M236.6,62.6c-0.7,1.2-1.7,2.1-2.8,2.7
		c-1.4,0.8-2.9,1.2-4.4,1.3v3H227v-3c-2.1-0.1-4.2-0.9-5.9-2.2c-1.5-1.3-2.3-3.1-2.3-5.1h5.5c0,1.6,1.1,2.9,2.7,3.2v-7
		c-1.4-0.3-2.9-0.8-4.2-1.3c-1.1-0.5-2-1.2-2.8-2.1c-0.8-1.2-1.2-2.6-1.2-4c-0.1-2,0.8-3.9,2.3-5.2c1.7-1.4,3.7-2.2,5.9-2.3v-3h2.3
		v3c2,0.1,4,0.8,5.6,2.1c1.4,1.3,2.3,3.1,2.4,5h-5.5c-0.1-1.4-1.1-2.6-2.4-3v6.9c1.5,0.4,2.9,0.8,4.3,1.3c1.1,0.4,2,1.2,2.8,2.1
		c0.8,1.1,1.3,2.5,1.2,4C237.6,60.3,237.2,61.6,236.6,62.6z M224.9,49.8c0.6,0.6,1.3,1,2.1,1.2v-6.3c-0.8,0.1-1.5,0.4-2.1,1
		c-0.5,0.6-0.8,1.4-0.8,2.2C224.1,48.6,224.4,49.3,224.9,49.8z M231.5,61.4c0.5-0.6,0.8-1.3,0.8-2.1c0-0.7-0.2-1.4-0.8-1.9
		c-0.6-0.6-1.4-1-2.2-1.2v6.4C230.1,62.4,230.9,62,231.5,61.4L231.5,61.4z"/>
	<g class="st7">
		<path d="M24.1,156.9v1.4h-3.9v-1.4h1.2v-6.1h-1.2v-1.4h3.9v1.4h-1.2v6.1H24.1z"/>
		<path d="M25.7,158.3v-6.4h1.4l0.3,1.4l0,0c0,0,0-0.1,0.1-0.3s0.2-0.3,0.3-0.5s0.4-0.3,0.7-0.5c0.3-0.1,0.6-0.2,1-0.2
			c0.6,0,1,0.1,1.3,0.3c0.3,0.2,0.5,0.5,0.7,0.9s0.2,0.7,0.2,1.1c0,0.4,0,0.7,0,1v3.1h-1.6v-3.1c0-0.3,0-0.7-0.1-0.9
			s-0.2-0.5-0.4-0.7c-0.2-0.2-0.5-0.3-0.9-0.3c-0.4,0-0.7,0.1-1,0.3c-0.2,0.2-0.4,0.4-0.5,0.7c-0.1,0.3-0.1,0.6-0.1,0.9v3.1H25.7z"
			/>
		<path d="M37.4,151.9H39v0.3l-2.2,6.1h-2.2l-2.2-6.1v-0.3h1.5l1.8,5.1h0L37.4,151.9z"/>
		<path d="M42.7,158.4c-0.7,0-1.3-0.2-1.8-0.5s-0.8-0.7-1-1.2s-0.3-1-0.4-1.6c0-0.6,0.1-1.2,0.4-1.7c0.3-0.5,0.6-0.9,1.1-1.2
			s1-0.4,1.7-0.4c0.6,0,1.1,0.1,1.5,0.4c0.5,0.2,0.8,0.6,1.1,1.1c0.3,0.5,0.4,1,0.4,1.6c0,0,0,0.1,0,0.4H41c0,0.6,0.1,1.1,0.4,1.4
			s0.7,0.5,1.2,0.5c0.4,0,0.7-0.1,1-0.3c0.3-0.2,0.4-0.5,0.5-0.8h1.5c-0.1,0.7-0.4,1.2-0.9,1.7S43.6,158.4,42.7,158.4z M41.1,154.5
			h3c0-0.1,0-0.2-0.1-0.3c0-0.2-0.1-0.3-0.2-0.5c-0.1-0.2-0.2-0.3-0.4-0.4c-0.2-0.1-0.5-0.2-0.8-0.2c-0.4,0-0.7,0.1-0.9,0.3
			c-0.2,0.2-0.4,0.4-0.5,0.6C41.1,154.2,41.1,154.4,41.1,154.5z"/>
		<path d="M49.6,158.4c-0.3,0-0.6,0-0.9-0.1c-0.3-0.1-0.6-0.2-0.9-0.4c-0.3-0.2-0.5-0.4-0.7-0.7c-0.2-0.3-0.3-0.6-0.3-1.1h1.5
			c0,0,0,0.1,0,0.2s0.1,0.3,0.1,0.4c0.1,0.2,0.2,0.3,0.4,0.4c0.2,0.1,0.5,0.2,0.8,0.2c0.4,0,0.7-0.1,0.9-0.2
			c0.2-0.2,0.3-0.3,0.3-0.5c0-0.2-0.1-0.4-0.3-0.5c-0.2-0.1-0.4-0.2-0.7-0.3c-0.3-0.1-0.6-0.2-1-0.3c-0.3-0.1-0.7-0.2-1-0.4
			c-0.3-0.1-0.5-0.3-0.7-0.6c-0.2-0.3-0.3-0.6-0.3-1c0-0.6,0.2-1,0.7-1.3c0.5-0.3,1.1-0.5,1.8-0.5c0.5,0,1,0.1,1.5,0.2
			s0.8,0.4,1.1,0.8c0.3,0.3,0.4,0.8,0.4,1.4h-1.5c0-0.3-0.1-0.6-0.2-0.7c-0.2-0.2-0.3-0.3-0.6-0.3s-0.4-0.1-0.6-0.1
			c-0.4,0-0.7,0.1-0.9,0.2s-0.3,0.3-0.3,0.5c0,0.2,0.1,0.4,0.3,0.6s0.4,0.2,0.7,0.3s0.6,0.2,1,0.3c0.3,0.1,0.7,0.2,1,0.4
			s0.6,0.3,0.7,0.6s0.3,0.6,0.3,1c0,0.6-0.3,1.1-0.8,1.4C51.1,158.3,50.4,158.4,49.6,158.4z"/>
		<path d="M55.5,158.3c-0.5,0-0.9-0.1-1.1-0.4c-0.3-0.2-0.4-0.7-0.4-1.2V153h-1v-1.1c0.3,0,0.5,0,0.7-0.1c0.2-0.1,0.3-0.2,0.4-0.4
			c0.1-0.2,0.1-0.6,0.1-1.1h1.3v1.6h1.5v1.1h-1.5v4h1.5v1.2H55.5z"/>
		<path d="M58.1,158.3v-6.4h1.4l0,1.4h0c0,0,0.1-0.1,0.1-0.3c0.1-0.1,0.2-0.3,0.3-0.5c0.1-0.2,0.3-0.3,0.6-0.5
			c0.2-0.1,0.5-0.2,0.9-0.2c0.5,0,0.9,0.1,1.2,0.4s0.4,0.6,0.6,1h0c0,0,0.1-0.1,0.1-0.3s0.2-0.3,0.4-0.5c0.2-0.2,0.4-0.3,0.6-0.5
			c0.2-0.1,0.6-0.2,0.9-0.2c0.4,0,0.7,0.1,1,0.3c0.2,0.2,0.4,0.4,0.6,0.7c0.1,0.3,0.2,0.5,0.3,0.9c0.1,0.3,0.1,0.6,0.1,0.9
			c0,0.3,0,0.5,0,0.7v3.1h-1.3v-3.1c0-0.2,0-0.3,0-0.6c0-0.2-0.1-0.4-0.1-0.6c-0.1-0.2-0.2-0.4-0.4-0.5c-0.2-0.1-0.4-0.2-0.7-0.2
			c-0.4,0-0.6,0.1-0.8,0.3s-0.3,0.4-0.4,0.7c-0.1,0.3-0.1,0.6-0.1,0.9v3.1H62v-3.1c0-0.2,0-0.3,0-0.6c0-0.2-0.1-0.4-0.1-0.6
			c-0.1-0.2-0.2-0.4-0.4-0.5c-0.2-0.1-0.4-0.2-0.7-0.2c-0.4,0-0.6,0.1-0.8,0.3s-0.3,0.4-0.4,0.7c-0.1,0.3-0.1,0.6-0.1,0.9v3.1H58.1z
			"/>
		<path d="M71.4,158.4c-0.7,0-1.3-0.2-1.8-0.5s-0.8-0.7-1-1.2s-0.3-1-0.4-1.6c0-0.6,0.1-1.2,0.4-1.7c0.3-0.5,0.6-0.9,1.1-1.2
			s1-0.4,1.7-0.4c0.6,0,1.1,0.1,1.5,0.4c0.5,0.2,0.8,0.6,1.1,1.1c0.3,0.5,0.4,1,0.4,1.6c0,0,0,0.1,0,0.4h-4.7c0,0.6,0.1,1.1,0.4,1.4
			s0.7,0.5,1.2,0.5c0.4,0,0.7-0.1,1-0.3c0.3-0.2,0.4-0.5,0.5-0.8h1.5c-0.1,0.7-0.4,1.2-0.9,1.7S72.3,158.4,71.4,158.4z M69.8,154.5
			h3c0-0.1,0-0.2-0.1-0.3c0-0.2-0.1-0.3-0.2-0.5c-0.1-0.2-0.2-0.3-0.4-0.4c-0.2-0.1-0.5-0.2-0.8-0.2c-0.4,0-0.7,0.1-0.9,0.3
			c-0.2,0.2-0.4,0.4-0.5,0.6C69.8,154.2,69.8,154.4,69.8,154.5z"/>
		<path d="M75.6,158.3v-6.4H77l0.3,1.4l0,0c0,0,0-0.1,0.1-0.3s0.2-0.3,0.3-0.5s0.4-0.3,0.7-0.5c0.3-0.1,0.6-0.2,1-0.2
			c0.6,0,1,0.1,1.3,0.3c0.3,0.2,0.5,0.5,0.7,0.9s0.2,0.7,0.2,1.1c0,0.4,0,0.7,0,1v3.1h-1.6v-3.1c0-0.3,0-0.7-0.1-0.9
			s-0.2-0.5-0.4-0.7c-0.2-0.2-0.5-0.3-0.9-0.3c-0.4,0-0.7,0.1-1,0.3c-0.2,0.2-0.4,0.4-0.5,0.7c-0.1,0.3-0.1,0.6-0.1,0.9v3.1H75.6z"
			/>
		<path d="M85,158.3c-0.5,0-0.9-0.1-1.1-0.4c-0.3-0.2-0.4-0.7-0.4-1.2V153h-1v-1.1c0.3,0,0.5,0,0.7-0.1c0.2-0.1,0.3-0.2,0.4-0.4
			c0.1-0.2,0.1-0.6,0.1-1.1H85v1.6h1.5v1.1H85v4h1.5v1.2H85z"/>
	</g>
	<g class="st7">
		<path d="M152.2,475.3h-1.6v-8.8h3.5c1,0,1.7,0.2,2.3,0.7c0.5,0.5,0.8,1.2,0.8,2.2c0,0.9-0.3,1.5-0.8,2c-0.6,0.5-1.3,0.7-2.3,0.7
			h-1.9V475.3z M153.9,467.8h-1.7v3.2h1.7c0.6,0,1-0.1,1.4-0.4c0.3-0.3,0.5-0.7,0.5-1.2c0-0.6-0.2-1-0.5-1.2
			C155,467.9,154.5,467.8,153.9,467.8z"/>
		<path d="M158.2,475.3v-6.4h1.5l0.1,1.8c0.1-0.3,0.2-0.5,0.4-0.8c0.2-0.3,0.4-0.5,0.8-0.7c0.3-0.2,0.8-0.3,1.3-0.3h0.2v1.8h-0.2
			c-0.9,0-1.5,0.1-1.9,0.4c-0.4,0.3-0.5,0.8-0.5,1.4v2.8H158.2z"/>
		<path d="M166.3,475.4c-0.7,0-1.3-0.1-1.8-0.4c-0.5-0.3-0.8-0.7-1.1-1.2c-0.2-0.5-0.4-1.1-0.4-1.7c0-1,0.3-1.7,0.8-2.4
			s1.4-0.9,2.4-0.9c1.1,0,1.8,0.3,2.4,0.9s0.8,1.4,0.8,2.4c0,0.6-0.1,1.2-0.3,1.7c-0.2,0.5-0.6,0.9-1.1,1.2
			C167.7,475.3,167.1,475.4,166.3,475.4z M166.3,474.1c0.5,0,0.8-0.1,1.1-0.3c0.2-0.2,0.4-0.5,0.5-0.8s0.1-0.6,0.1-0.9
			c0-0.3,0-0.6-0.1-1c-0.1-0.3-0.2-0.6-0.5-0.8c-0.2-0.2-0.6-0.3-1.1-0.3c-0.5,0-0.8,0.1-1.1,0.3s-0.4,0.5-0.5,0.8
			c-0.1,0.3-0.1,0.6-0.1,0.9c0,0.3,0,0.6,0.1,0.9c0.1,0.3,0.3,0.6,0.5,0.8C165.5,474,165.9,474.1,166.3,474.1z"/>
		<path d="M174.7,475.4c-0.4,0-0.7-0.1-1-0.2c-0.3-0.1-0.5-0.3-0.6-0.4s-0.3-0.3-0.4-0.5c-0.1-0.1-0.1-0.2-0.1-0.2h0v4h-1.6v-9.3
			h1.4l0.3,1.4h0c0,0,0-0.1,0.1-0.3c0.1-0.1,0.2-0.3,0.3-0.5c0.2-0.2,0.4-0.3,0.6-0.5c0.3-0.1,0.6-0.2,1-0.2c1,0,1.6,0.3,2.1,0.9
			s0.6,1.4,0.6,2.4s-0.2,1.8-0.6,2.4C176.3,475.1,175.6,475.4,174.7,475.4z M174.2,474.1c0.4,0,0.8-0.1,1-0.3
			c0.2-0.2,0.4-0.4,0.5-0.7c0.1-0.3,0.1-0.6,0.1-0.9s0-0.6-0.1-0.9s-0.3-0.5-0.5-0.7c-0.2-0.2-0.6-0.3-1-0.3c-0.6,0-1,0.2-1.2,0.5
			c-0.2,0.4-0.4,0.8-0.4,1.3c0,0.6,0.1,1,0.4,1.4C173.2,473.9,173.6,474.1,174.2,474.1z"/>
		<path d="M181.4,475.4c-0.7,0-1.3-0.2-1.8-0.5s-0.8-0.7-1-1.2s-0.3-1-0.4-1.6c0-0.6,0.1-1.2,0.4-1.7c0.3-0.5,0.6-0.9,1.1-1.2
			s1-0.4,1.7-0.4c0.6,0,1.1,0.1,1.5,0.4c0.5,0.2,0.8,0.6,1.1,1.1s0.4,1,0.4,1.6c0,0,0,0.1,0,0.4h-4.7c0,0.6,0.1,1.1,0.4,1.4
			s0.7,0.5,1.2,0.5c0.4,0,0.7-0.1,1-0.3c0.3-0.2,0.4-0.5,0.5-0.8h1.5c-0.1,0.7-0.4,1.2-0.9,1.7S182.2,475.4,181.4,475.4z
			 M179.7,471.5h3c0-0.1,0-0.2-0.1-0.3c0-0.2-0.1-0.3-0.2-0.5c-0.1-0.2-0.2-0.3-0.4-0.4c-0.2-0.1-0.5-0.2-0.8-0.2
			c-0.4,0-0.7,0.1-0.9,0.3s-0.4,0.4-0.5,0.6C179.8,471.2,179.7,471.4,179.7,471.5z"/>
		<path d="M185.6,475.3v-6.4h1.5l0.1,1.8c0.1-0.3,0.2-0.5,0.4-0.8c0.2-0.3,0.4-0.5,0.8-0.7c0.3-0.2,0.8-0.3,1.3-0.3h0.2v1.8h-0.2
			c-0.9,0-1.5,0.1-1.9,0.4c-0.4,0.3-0.5,0.8-0.5,1.4v2.8H185.6z"/>
		<path d="M193.1,475.3c-0.5,0-0.9-0.1-1.1-0.4c-0.3-0.2-0.4-0.7-0.4-1.2V470h-1v-1.1c0.3,0,0.5,0,0.7-0.1c0.2-0.1,0.3-0.2,0.4-0.4
			c0.1-0.2,0.1-0.6,0.1-1.1h1.3v1.6h1.5v1.1h-1.5v4h1.5v1.2H193.1z"/>
		<path d="M195.2,478.1v-1.2h1c0.2,0,0.3,0,0.4,0c0.1,0,0.2,0,0.3-0.2c0.1-0.1,0.2-0.3,0.4-0.6l0.4-1l-2.5-6.2h1.6l1.6,4.6l1.8-4.6
			h1.6l-3.2,7.4c-0.2,0.6-0.5,1-0.7,1.3c-0.2,0.3-0.4,0.5-0.7,0.5c-0.3,0-0.6,0.1-1,0.1H195.2z"/>
		<path d="M212.3,466.5h1.7l-2.9,8.8h-2.7l-2.9-8.8h1.7l2.5,8.1L212.3,466.5z"/>
		<path d="M217,475.4c-0.9,0-1.5-0.3-1.9-0.9c-0.4-0.6-0.6-1.4-0.6-2.4c0-1,0.2-1.8,0.6-2.4c0.4-0.6,1-0.9,1.9-0.9
			c0.5,0,0.9,0.1,1.2,0.2s0.5,0.4,0.7,0.6c0.1,0.2,0.2,0.4,0.3,0.5l0,0v-1.3h1.6v6.4h-1.4l-0.3-1h0c0,0.1-0.1,0.2-0.3,0.4
			c-0.2,0.2-0.4,0.4-0.7,0.5S217.4,475.4,217,475.4z M217.6,474.1c0.6,0,1-0.2,1.2-0.6s0.3-0.8,0.3-1.4c0-0.6-0.1-1-0.3-1.4
			c-0.2-0.3-0.6-0.5-1.2-0.5c-0.4,0-0.7,0.1-0.9,0.3c-0.2,0.2-0.4,0.4-0.5,0.7c-0.1,0.3-0.1,0.6-0.1,1s0,0.7,0.1,1
			c0.1,0.3,0.2,0.5,0.5,0.7C216.9,474,217.2,474.1,217.6,474.1z"/>
		<path d="M224.1,475.4c-0.6,0-1-0.1-1.3-0.3c-0.3-0.2-0.5-0.5-0.7-0.8c-0.1-0.3-0.2-0.7-0.3-1.1c0-0.4,0-0.7,0-1v-3.3h1.5v3.3
			c0,0.3,0,0.6,0.1,0.9s0.2,0.5,0.4,0.7s0.5,0.3,0.9,0.3c0.4,0,0.7-0.1,0.9-0.3c0.2-0.2,0.3-0.4,0.4-0.7c0.1-0.3,0.1-0.6,0.1-0.9
			l0-3.3h1.6v6.4h-1.4l-0.3-1.2l0,0c0,0.1-0.1,0.2-0.2,0.3s-0.2,0.3-0.4,0.5c-0.2,0.2-0.4,0.3-0.6,0.4S224.4,475.4,224.1,475.4z"/>
		<path d="M229.2,475.3v-8.8h1.6v8.8H229.2z"/>
		<path d="M234.2,475.3c-0.5,0-0.9-0.1-1.1-0.4c-0.3-0.2-0.4-0.7-0.4-1.2V470h-1v-1.1c0.3,0,0.5,0,0.7-0.1s0.3-0.2,0.4-0.4
			c0.1-0.2,0.1-0.6,0.1-1.1h1.3v1.6h1.5v1.1h-1.5v4h1.5v1.2H234.2z"/>
	</g>
	<g class="st7">
		<path d="M299.8,330.8v-1.4h6.8v1.4H304v7.4h-1.6v-7.4H299.8z"/>
		<path d="M309.3,338.3c-0.7,0-1.3-0.1-1.8-0.4c-0.5-0.3-0.8-0.7-1.1-1.2c-0.2-0.5-0.4-1.1-0.4-1.7c0-1,0.3-1.7,0.8-2.4
			c0.5-0.6,1.4-0.9,2.4-0.9c1.1,0,1.8,0.3,2.4,0.9c0.5,0.6,0.8,1.4,0.8,2.4c0,0.6-0.1,1.2-0.3,1.7c-0.2,0.5-0.6,0.9-1.1,1.2
			C310.7,338.2,310.1,338.3,309.3,338.3z M309.3,337c0.5,0,0.8-0.1,1.1-0.3c0.2-0.2,0.4-0.5,0.5-0.8c0.1-0.3,0.1-0.6,0.1-0.9
			c0-0.3,0-0.6-0.1-1c-0.1-0.3-0.2-0.6-0.5-0.8c-0.2-0.2-0.6-0.3-1.1-0.3c-0.5,0-0.8,0.1-1.1,0.3s-0.4,0.5-0.5,0.8
			c-0.1,0.3-0.1,0.6-0.1,0.9c0,0.3,0,0.6,0.1,0.9c0.1,0.3,0.3,0.6,0.5,0.8C308.5,336.9,308.9,337,309.3,337z"/>
		<path d="M315.4,338.2h-1.6v-8.8h1.6v5.4l2.7-3.1h1.9l-2.6,2.7l2.7,3.7h-1.9l-1.9-2.5l-0.9,1V338.2z"/>
		<path d="M323.7,338.3c-0.7,0-1.3-0.2-1.8-0.5s-0.8-0.7-1-1.2c-0.2-0.5-0.3-1-0.4-1.6c0-0.6,0.1-1.2,0.4-1.7
			c0.3-0.5,0.6-0.9,1.1-1.2c0.5-0.3,1-0.4,1.7-0.4c0.6,0,1.1,0.1,1.5,0.4c0.5,0.2,0.8,0.6,1.1,1.1c0.3,0.5,0.4,1,0.4,1.6
			c0,0,0,0.1,0,0.4H322c0,0.6,0.1,1.1,0.4,1.4s0.7,0.5,1.2,0.5c0.4,0,0.7-0.1,1-0.3c0.3-0.2,0.4-0.5,0.5-0.8h1.5
			c-0.1,0.7-0.4,1.2-0.9,1.7S324.6,338.3,323.7,338.3z M322.1,334.5h3c0-0.1,0-0.2-0.1-0.3c0-0.2-0.1-0.3-0.2-0.5
			c-0.1-0.2-0.2-0.3-0.4-0.4s-0.5-0.2-0.8-0.2c-0.4,0-0.7,0.1-0.9,0.3s-0.4,0.4-0.5,0.6C322.1,334.1,322.1,334.3,322.1,334.5z"/>
		<path d="M327.9,338.2v-6.4h1.4l0.3,1.4l0,0c0,0,0-0.1,0.1-0.3c0.1-0.1,0.2-0.3,0.3-0.5c0.2-0.2,0.4-0.3,0.7-0.5
			c0.3-0.1,0.6-0.2,1-0.2c0.6,0,1,0.1,1.3,0.3s0.5,0.5,0.7,0.9c0.1,0.3,0.2,0.7,0.2,1.1c0,0.4,0,0.7,0,1v3.1h-1.6v-3.1
			c0-0.3,0-0.7-0.1-0.9s-0.2-0.5-0.4-0.7c-0.2-0.2-0.5-0.3-0.9-0.3c-0.4,0-0.7,0.1-1,0.3c-0.2,0.2-0.4,0.4-0.5,0.7
			c-0.1,0.3-0.1,0.6-0.1,0.9v3.1H327.9z"/>
	</g>
	<g class="st7">
		<path d="M299.9,354l2.8-8.8h2.6l2.9,8.8h-1.7l-0.8-2.5h-3.4l-0.7,2.5H299.9z M304.1,345.9l-1.3,4.4h2.7L304.1,345.9z"/>
		<path d="M309.2,354v-8.8h1.6v8.8H309.2z"/>
		<path d="M312.3,354v-8.8h1.6v8.8H312.3z"/>
		<path d="M318.2,354.2c-0.7,0-1.3-0.1-1.8-0.4c-0.5-0.3-0.8-0.7-1.1-1.2c-0.2-0.5-0.4-1.1-0.4-1.7c0-1,0.3-1.7,0.8-2.4
			c0.5-0.6,1.4-0.9,2.4-0.9c1.1,0,1.8,0.3,2.4,0.9c0.5,0.6,0.8,1.4,0.8,2.4c0,0.6-0.1,1.2-0.3,1.7c-0.2,0.5-0.6,0.9-1.1,1.2
			C319.5,354.1,318.9,354.2,318.2,354.2z M318.2,352.9c0.5,0,0.8-0.1,1.1-0.3c0.2-0.2,0.4-0.5,0.5-0.8c0.1-0.3,0.1-0.6,0.1-0.9
			c0-0.3,0-0.6-0.1-1c-0.1-0.3-0.2-0.6-0.5-0.8s-0.6-0.3-1.1-0.3c-0.5,0-0.8,0.1-1.1,0.3s-0.4,0.5-0.5,0.8s-0.1,0.6-0.1,0.9
			c0,0.3,0,0.6,0.1,0.9s0.3,0.6,0.5,0.8C317.4,352.8,317.7,352.9,318.2,352.9z"/>
		<path d="M325.6,354.2c-0.6,0-1.2-0.1-1.6-0.4c-0.5-0.2-0.9-0.6-1.2-1.1c-0.3-0.5-0.4-1.1-0.4-1.8c0-0.7,0.2-1.3,0.5-1.8
			s0.7-0.9,1.2-1.1c0.5-0.3,1-0.4,1.7-0.4c0.6,0,1.2,0.1,1.6,0.4c0.5,0.2,0.8,0.6,1.1,0.9c0.2,0.4,0.4,0.8,0.4,1.2h-1.5
			c-0.2-0.8-0.7-1.1-1.6-1.1c-0.6,0-1,0.2-1.3,0.5c-0.3,0.3-0.5,0.8-0.5,1.3c0,0.6,0.1,1.1,0.4,1.4c0.3,0.4,0.7,0.5,1.3,0.5
			c0.4,0,0.7-0.1,1-0.3s0.5-0.5,0.6-0.9h1.5c0,0.4-0.2,0.9-0.4,1.3c-0.3,0.4-0.6,0.7-1.1,1C326.8,354.1,326.3,354.2,325.6,354.2z"/>
		<path d="M332,354.2c-0.9,0-1.5-0.3-1.9-0.9c-0.4-0.6-0.6-1.4-0.6-2.4c0-1,0.2-1.8,0.6-2.4s1-0.9,1.9-0.9c0.5,0,0.9,0.1,1.2,0.2
			s0.5,0.4,0.7,0.6c0.1,0.2,0.2,0.4,0.3,0.5l0,0v-1.3h1.6v6.4h-1.4l-0.3-1h0c0,0.1-0.1,0.2-0.3,0.4s-0.4,0.4-0.7,0.5
			C332.9,354.1,332.5,354.2,332,354.2z M332.7,352.9c0.6,0,1-0.2,1.2-0.6s0.3-0.8,0.3-1.4c0-0.6-0.1-1-0.3-1.4
			c-0.2-0.3-0.6-0.5-1.2-0.5c-0.4,0-0.7,0.1-0.9,0.3c-0.2,0.2-0.4,0.4-0.5,0.7s-0.1,0.6-0.1,1s0,0.7,0.1,1s0.2,0.5,0.5,0.7
			C332,352.8,332.3,352.9,332.7,352.9z"/>
		<path d="M339,354c-0.5,0-0.9-0.1-1.1-0.4c-0.3-0.2-0.4-0.7-0.4-1.2v-3.7h-1v-1.1c0.3,0,0.5,0,0.7-0.1c0.2-0.1,0.3-0.2,0.4-0.4
			s0.1-0.6,0.1-1.1h1.3v1.6h1.5v1.1H339v4h1.5v1.2H339z"/>
		<path d="M342.7,346.9c-0.3,0-0.6-0.1-0.7-0.2c-0.1-0.2-0.2-0.4-0.2-0.6c0-0.2,0.1-0.4,0.2-0.6c0.1-0.2,0.3-0.2,0.7-0.2
			c0.3,0,0.5,0.1,0.6,0.2c0.1,0.2,0.2,0.4,0.2,0.6c0,0.2-0.1,0.4-0.2,0.6C343.3,346.9,343,346.9,342.7,346.9z M341.9,354v-6.4h1.6
			v6.4H341.9z"/>
		<path d="M347.9,354.2c-0.7,0-1.3-0.1-1.8-0.4c-0.5-0.3-0.8-0.7-1.1-1.2c-0.2-0.5-0.4-1.1-0.4-1.7c0-1,0.3-1.7,0.8-2.4
			c0.5-0.6,1.4-0.9,2.4-0.9c1.1,0,1.8,0.3,2.4,0.9c0.5,0.6,0.8,1.4,0.8,2.4c0,0.6-0.1,1.2-0.3,1.7c-0.2,0.5-0.6,0.9-1.1,1.2
			C349.2,354.1,348.6,354.2,347.9,354.2z M347.9,352.9c0.5,0,0.8-0.1,1.1-0.3c0.2-0.2,0.4-0.5,0.5-0.8c0.1-0.3,0.1-0.6,0.1-0.9
			c0-0.3,0-0.6-0.1-1c-0.1-0.3-0.2-0.6-0.5-0.8s-0.6-0.3-1.1-0.3c-0.5,0-0.8,0.1-1.1,0.3s-0.4,0.5-0.5,0.8s-0.1,0.6-0.1,0.9
			c0,0.3,0,0.6,0.1,0.9s0.3,0.6,0.5,0.8C347.1,352.8,347.4,352.9,347.9,352.9z"/>
		<path d="M352.3,354v-6.4h1.4l0.3,1.4l0,0c0,0,0-0.1,0.1-0.3c0.1-0.1,0.2-0.3,0.3-0.5c0.2-0.2,0.4-0.3,0.7-0.5
			c0.3-0.1,0.6-0.2,1-0.2c0.6,0,1,0.1,1.3,0.3s0.5,0.5,0.7,0.9c0.1,0.3,0.2,0.7,0.2,1.1c0,0.4,0,0.7,0,1v3.1h-1.6v-3.1
			c0-0.3,0-0.7-0.1-0.9s-0.2-0.5-0.4-0.7c-0.2-0.2-0.5-0.3-0.9-0.3c-0.4,0-0.7,0.1-1,0.3c-0.2,0.2-0.4,0.4-0.5,0.7
			c-0.1,0.3-0.1,0.6-0.1,0.9v3.1H352.3z"/>
	</g>
	<path class="st1" d="M184.4,136v1.3h-2.2v6.9h-1.6v-6.9h-2.2V136H184.4z"/>
	<path class="st1" d="M189.9,144.2l-1.8-3.2h-0.8v3.2h-1.6V136h3.1c0.6,0,1.1,0.1,1.6,0.3c0.4,0.2,0.8,0.5,1,0.9
		c0.2,0.4,0.3,0.8,0.3,1.3c0,0.5-0.2,1-0.5,1.5c-0.3,0.5-0.8,0.8-1.4,0.9l2,3.3H189.9z M187.3,139.8h1.4c0.4,0,0.7-0.1,1-0.3
		c0.2-0.2,0.4-0.6,0.3-0.9c0-0.3-0.1-0.6-0.3-0.9c-0.3-0.2-0.6-0.3-1-0.3h-1.4V139.8z"/>
	<path class="st1" d="M199.7,136l-2.8,5.4v2.8h-1.6v-2.9l-2.8-5.4h1.9l1.8,3.8l1.7-3.8L199.7,136z"/>
	<path class="st1" d="M205.6,144.2l-1.8-2.8l-1.6,2.8h-1.9l2.6-4.1l-2.6-4.1h1.9l1.8,2.8l1.6-2.8h1.9l-2.6,4.1l2.6,4.1L205.6,144.2z
		"/>
	
		<linearGradient id="SVGID_00000001654369694084644310000016051379371427204499_" gradientUnits="userSpaceOnUse" x1="129.5925" y1="363.1556" x2="166.3734" y2="363.1556" gradientTransform="matrix(1 0 0 -1 0 482)">
		<stop  offset="0" style="stop-color:#FE8F90"/>
		<stop  offset="0.52" style="stop-color:#956EC1"/>
		<stop  offset="0.81" style="stop-color:#605DDA"/>
		<stop  offset="0.84" style="stop-color:#5D5AD5"/>
		<stop  offset="0.87" style="stop-color:#5353C6"/>
		<stop  offset="0.91" style="stop-color:#4347AD"/>
		<stop  offset="0.95" style="stop-color:#2D368A"/>
		<stop  offset="0.99" style="stop-color:#10215E"/>
		<stop  offset="1" style="stop-color:#06194E"/>
		<stop  offset="1" style="stop-color:#05184D"/>
		<stop  offset="1" style="stop-color:#011546"/>
		<stop  offset="1" style="stop-color:#001444"/>
	</linearGradient>
	<path style="fill:url(#SVGID_00000001654369694084644310000016051379371427204499_);" d="M148,139.2c-1,0-1.9-0.3-2.8-0.7
		l-12.9-7.4c-1.7-1-2.8-2.8-2.8-4.8v-14.9c0-2,1.1-3.8,2.8-4.8l12.9-7.4c1.7-1,3.8-1,5.5,0l12.9,7.4c1.7,1,2.8,2.8,2.8,4.8v14.9
		c0,2-1.1,3.8-2.8,4.8l-12.9,7.4C149.9,139,148.9,139.2,148,139.2z"/>
	<path class="st1" d="M140.1,115.2v1.2h-2v6.3h-1.5v-6.3h-2v-1.2L140.1,115.2z"/>
	<path class="st1" d="M145.1,122.8l-1.6-2.9h-0.7v2.9h-1.5v-7.5h2.8c0.5,0,1,0.1,1.5,0.3c0.4,0.2,0.7,0.5,0.9,0.8
		c0.6,1,0.3,2.4-0.7,3.1c-0.2,0.1-0.4,0.2-0.7,0.3l1.8,3H145.1z M142.7,118.7h1.3c0.3,0,0.7-0.1,0.9-0.3c0.2-0.2,0.3-0.5,0.3-0.8
		c0-0.3-0.1-0.6-0.3-0.8c-0.3-0.2-0.6-0.3-0.9-0.3h-1.3V118.7z"/>
	<path class="st1" d="M154.1,115.2l-2.5,4.9v2.6h-1.5v-2.6l-2.6-4.9h1.7l1.6,3.4l1.6-3.4H154.1z"/>
	<path class="st1" d="M159.5,122.8l-1.6-2.5l-1.5,2.5h-1.7l2.4-3.8l-2.4-3.7h1.7l1.6,2.5l1.5-2.5h1.7l-2.4,3.8l2.4,3.7H159.5z"/>
	
		<linearGradient id="SVGID_00000159444451839944126570000011502957966776861610_" gradientUnits="userSpaceOnUse" x1="219.6266" y1="363.1556" x2="256.4074" y2="363.1556" gradientTransform="matrix(1 0 0 -1 0 482)">
		<stop  offset="0" style="stop-color:#FE8F90"/>
		<stop  offset="0.52" style="stop-color:#956EC1"/>
		<stop  offset="0.81" style="stop-color:#605DDA"/>
		<stop  offset="0.84" style="stop-color:#5D5AD5"/>
		<stop  offset="0.87" style="stop-color:#5353C6"/>
		<stop  offset="0.91" style="stop-color:#4347AD"/>
		<stop  offset="0.95" style="stop-color:#2D368A"/>
		<stop  offset="0.99" style="stop-color:#10215E"/>
		<stop  offset="1" style="stop-color:#06194E"/>
		<stop  offset="1" style="stop-color:#05184D"/>
		<stop  offset="1" style="stop-color:#011546"/>
		<stop  offset="1" style="stop-color:#001444"/>
	</linearGradient>
	<path style="fill:url(#SVGID_00000159444451839944126570000011502957966776861610_);" d="M238,139.2c-1,0-1.9-0.3-2.8-0.7
		l-12.9-7.4c-1.7-1-2.8-2.8-2.8-4.8v-14.9c0-2,1.1-3.8,2.8-4.8l12.9-7.4c1.7-1,3.8-1,5.5,0l12.9,7.4c1.7,1,2.8,2.8,2.8,4.8v14.9
		c0,2-1.1,3.8-2.8,4.8l-12.9,7.4C239.9,139,239,139.2,238,139.2z"/>
	<path class="st1" d="M230.2,115.2v1.2h-2v6.3h-1.5v-6.3h-2v-1.2L230.2,115.2z"/>
	<path class="st1" d="M235.2,122.8l-1.7-2.9h-0.7v2.9h-1.5v-7.5h2.8c0.5,0,1,0.1,1.5,0.3c0.4,0.2,0.7,0.5,0.9,0.8
		c0.6,1,0.3,2.4-0.7,3.1c-0.2,0.1-0.4,0.2-0.7,0.3l1.8,3H235.2z M232.8,118.7h1.3c0.3,0,0.7-0.1,0.9-0.3c0.2-0.2,0.3-0.5,0.3-0.8
		c0-0.3-0.1-0.6-0.3-0.8c-0.3-0.2-0.6-0.3-0.9-0.3h-1.3V118.7z"/>
	<path class="st1" d="M244.2,115.2l-2.5,4.9v2.6h-1.5v-2.6l-2.6-4.9h1.7l1.6,3.4l1.6-3.4H244.2z"/>
	<path class="st1" d="M249.5,122.8l-1.6-2.5l-1.5,2.5h-1.7l2.4-3.8l-2.4-3.7h1.7l1.6,2.5l1.5-2.5h1.7l-2.4,3.8l2.4,3.7H249.5z"/>
	<line class="st0" x1="116.3" y1="89" x2="269.7" y2="89"/>
	
		<linearGradient id="SVGID_00000174567287994470992670000008567185451552648116_" gradientUnits="userSpaceOnUse" x1="170.4482" y1="72.6218" x2="215.5517" y2="72.6218" gradientTransform="matrix(1 0 0 -1 0 482)">
		<stop  offset="0" style="stop-color:#FE8F90"/>
		<stop  offset="0.52" style="stop-color:#956EC1"/>
		<stop  offset="0.81" style="stop-color:#605DDA"/>
		<stop  offset="0.84" style="stop-color:#5D5AD5"/>
		<stop  offset="0.87" style="stop-color:#5353C6"/>
		<stop  offset="0.91" style="stop-color:#4347AD"/>
		<stop  offset="0.95" style="stop-color:#2D368A"/>
		<stop  offset="0.99" style="stop-color:#10215E"/>
		<stop  offset="1" style="stop-color:#06194E"/>
		<stop  offset="1" style="stop-color:#05184D"/>
		<stop  offset="1" style="stop-color:#011546"/>
		<stop  offset="1" style="stop-color:#001444"/>
	</linearGradient>
	<path style="fill:url(#SVGID_00000174567287994470992670000008567185451552648116_);" d="M193,434.4c-1.2,0-2.4-0.3-3.4-0.9
		l-15.8-9.1c-2.1-1.2-3.4-3.4-3.4-5.9v-18.2c0-2.4,1.3-4.7,3.4-5.9l15.8-9.1c2.1-1.2,4.7-1.2,6.8,0l15.8,9.1
		c2.1,1.2,3.4,3.4,3.4,5.9v18.2c0,2.4-1.3,4.7-3.4,5.9l-15.8,9.1C195.4,434.1,194.2,434.4,193,434.4z"/>
	
		<linearGradient id="SVGID_00000010996549425345489620000011564568227033014455_" gradientUnits="userSpaceOnUse" x1="184.0059" y1="151.9065" x2="201.9758" y2="151.9065" gradientTransform="matrix(1 0 0 -1 0 482)">
		<stop  offset="0" style="stop-color:#FE8F90"/>
		<stop  offset="0.52" style="stop-color:#956EC1"/>
		<stop  offset="0.81" style="stop-color:#605DDA"/>
		<stop  offset="0.84" style="stop-color:#5D5AD5"/>
		<stop  offset="0.87" style="stop-color:#5353C6"/>
		<stop  offset="0.91" style="stop-color:#4347AD"/>
		<stop  offset="0.95" style="stop-color:#2D368A"/>
		<stop  offset="0.99" style="stop-color:#10215E"/>
		<stop  offset="1" style="stop-color:#06194E"/>
		<stop  offset="1" style="stop-color:#05184D"/>
		<stop  offset="1" style="stop-color:#011546"/>
		<stop  offset="1" style="stop-color:#001444"/>
	</linearGradient>
	<path style="fill:url(#SVGID_00000010996549425345489620000011564568227033014455_);" d="M201.1,338.7c-0.7,1.1-1.6,2-2.7,2.6
		c-1.3,0.7-2.8,1.1-4.2,1.2v2.8h-2.2v-2.9c-2.1-0.1-4-0.8-5.6-2.1c-1.4-1.2-2.2-3-2.2-4.9h5.2c0,1.5,1.1,2.8,2.6,3v-6.7
		c-1.4-0.3-2.7-0.7-4.1-1.3c-1-0.4-2-1.1-2.7-2c-0.8-1.1-1.2-2.5-1.1-3.8c-0.1-1.9,0.7-3.7,2.2-5c1.6-1.3,3.6-2.1,5.6-2.2v-2.8h2.2
		v2.8c2,0.1,3.8,0.8,5.4,2c1.4,1.2,2.2,3,2.3,4.8h-5.3c-0.1-1.3-1-2.5-2.3-2.8v6.6c1.4,0.3,2.8,0.8,4.1,1.3c1,0.4,1.9,1.1,2.6,2
		c0.8,1.1,1.2,2.4,1.1,3.8C202,336.5,201.7,337.7,201.1,338.7z M189.8,326.4c0.6,0.6,1.3,1,2,1.2v-6.1c-0.8,0.1-1.5,0.4-2,0.9
		c-0.5,0.6-0.8,1.3-0.7,2.1C189.1,325.2,189.3,325.9,189.8,326.4z M196.2,337.6c0.5-0.6,0.8-1.3,0.8-2c0-0.7-0.2-1.4-0.7-1.8
		c-0.6-0.5-1.3-0.9-2.1-1.2v6.1C194.9,338.5,195.6,338.1,196.2,337.6L196.2,337.6z"/>
	<path class="st1" d="M183.4,404.8v1.5h-2.5v7.8h-1.8v-7.8h-2.5v-1.5H183.4z"/>
	<path class="st1" d="M189.5,414l-2-3.6h-0.9v3.6h-1.8v-9.2h3.5c0.6,0,1.3,0.1,1.8,0.4c0.5,0.2,0.9,0.6,1.1,1
		c0.3,0.4,0.4,0.9,0.4,1.4c0,1.3-0.8,2.4-2.1,2.7l2.2,3.7L189.5,414z M186.6,409h1.5c0.4,0,0.8-0.1,1.1-0.4c0.3-0.3,0.4-0.6,0.4-1
		c0-0.4-0.1-0.7-0.4-1c-0.3-0.3-0.7-0.4-1.1-0.3h-1.5V409z"/>
	<path class="st1" d="M200.5,404.8l-3.1,6v3.2h-1.8v-3.2l-3.1-6h2.1l2,4.2l2-4.2H200.5z"/>
	<path class="st1" d="M207.1,414l-2-3.1l-1.8,3.1h-2.1l2.9-4.7l-2.9-4.6h2.1l2,3.1l1.8-3.1h2.1l-2.9,4.6l2.9,4.6L207.1,414z"/>
	<line class="st0" x1="116.3" y1="367.5" x2="269.7" y2="367.5"/>
	<g>
		<path class="st1" d="M281.4,327.5L281.4,327.5c7.6,0,13.8,6.2,13.8,13.8v0c0,7.6-6.2,13.8-13.8,13.8l0,0
			c-7.6,0-13.8-6.2-13.8-13.8v0C267.6,333.7,273.8,327.5,281.4,327.5z"/>
		
			<linearGradient id="SVGID_00000146479832728480312510000009445297322652271268_" gradientUnits="userSpaceOnUse" x1="267.2725" y1="140.6426" x2="295.5088" y2="140.6426" gradientTransform="matrix(1 0 0 -1 0 482)">
			<stop  offset="0" style="stop-color:#FE8F90"/>
			<stop  offset="0.52" style="stop-color:#956EC1"/>
			<stop  offset="0.81" style="stop-color:#605DDA"/>
			<stop  offset="0.84" style="stop-color:#5D5AD5"/>
			<stop  offset="0.87" style="stop-color:#5353C6"/>
			<stop  offset="0.91" style="stop-color:#4347AD"/>
			<stop  offset="0.95" style="stop-color:#2D368A"/>
			<stop  offset="0.99" style="stop-color:#10215E"/>
			<stop  offset="1" style="stop-color:#06194E"/>
			<stop  offset="1" style="stop-color:#05184D"/>
			<stop  offset="1" style="stop-color:#011546"/>
			<stop  offset="1" style="stop-color:#001444"/>
		</linearGradient>
		<path style="fill:url(#SVGID_00000146479832728480312510000009445297322652271268_);" d="M281.4,355.5c-7.8,0-14.1-6.3-14.1-14.1
			s6.3-14.1,14.1-14.1s14.1,6.3,14.1,14.1S289.2,355.5,281.4,355.5z M281.4,327.8c-7.5,0-13.5,6.1-13.5,13.5
			c0,7.5,6.1,13.5,13.5,13.5s13.5-6.1,13.5-13.5C294.9,333.9,288.8,327.8,281.4,327.8z"/>
	</g>
	<g>
		
			<linearGradient id="SVGID_00000039838486664366154910000007098744763363924867_" gradientUnits="userSpaceOnUse" x1="281.0957" y1="144.042" x2="285.9062" y2="144.042" gradientTransform="matrix(1 0 0 -1 0 482)">
			<stop  offset="0" style="stop-color:#FE8F90"/>
			<stop  offset="0.52" style="stop-color:#956EC1"/>
			<stop  offset="0.81" style="stop-color:#605DDA"/>
			<stop  offset="0.84" style="stop-color:#5D5AD5"/>
			<stop  offset="0.87" style="stop-color:#5353C6"/>
			<stop  offset="0.91" style="stop-color:#4347AD"/>
			<stop  offset="0.95" style="stop-color:#2D368A"/>
			<stop  offset="0.99" style="stop-color:#10215E"/>
			<stop  offset="1" style="stop-color:#06194E"/>
			<stop  offset="1" style="stop-color:#05184D"/>
			<stop  offset="1" style="stop-color:#011546"/>
			<stop  offset="1" style="stop-color:#001444"/>
		</linearGradient>
		<polygon style="fill:url(#SVGID_00000039838486664366154910000007098744763363924867_);" points="285.5,345.9 281.1,341.5 
			281.1,330.1 281.7,330.1 281.7,341.2 285.9,345.4 		"/>
	</g>
	<g>
		<path class="st1" d="M334,189.9L334,189.9c7.6,0,13.8,6.2,13.8,13.8l0,0c0,7.6-6.2,13.8-13.8,13.8h0c-7.6,0-13.8-6.2-13.8-13.8
			l0,0C320.2,196.1,326.4,189.9,334,189.9z"/>
		
			<linearGradient id="SVGID_00000135688456578099930400000014367310558532893094_" gradientUnits="userSpaceOnUse" x1="319.8984" y1="278.3157" x2="348.1357" y2="278.3157" gradientTransform="matrix(1 0 0 -1 0 482)">
			<stop  offset="0" style="stop-color:#FE8F90"/>
			<stop  offset="0.52" style="stop-color:#956EC1"/>
			<stop  offset="0.81" style="stop-color:#605DDA"/>
			<stop  offset="0.84" style="stop-color:#5D5AD5"/>
			<stop  offset="0.87" style="stop-color:#5353C6"/>
			<stop  offset="0.91" style="stop-color:#4347AD"/>
			<stop  offset="0.95" style="stop-color:#2D368A"/>
			<stop  offset="0.99" style="stop-color:#10215E"/>
			<stop  offset="1" style="stop-color:#06194E"/>
			<stop  offset="1" style="stop-color:#05184D"/>
			<stop  offset="1" style="stop-color:#011546"/>
			<stop  offset="1" style="stop-color:#001444"/>
		</linearGradient>
		<path style="fill:url(#SVGID_00000135688456578099930400000014367310558532893094_);" d="M334,217.8c-7.8,0-14.1-6.3-14.1-14.1
			s6.3-14.1,14.1-14.1s14.1,6.3,14.1,14.1S341.8,217.8,334,217.8z M334,190.2c-7.5,0-13.5,6.1-13.5,13.5s6.1,13.5,13.5,13.5
			c7.5,0,13.5-6.1,13.5-13.5S341.5,190.2,334,190.2z"/>
	</g>
	<g>
		
			<linearGradient id="SVGID_00000055669366450918034000000003583519285926753174_" gradientUnits="userSpaceOnUse" x1="333.7227" y1="281.7122" x2="338.5322" y2="281.7122" gradientTransform="matrix(1 0 0 -1 0 482)">
			<stop  offset="0" style="stop-color:#FE8F90"/>
			<stop  offset="0.52" style="stop-color:#956EC1"/>
			<stop  offset="0.81" style="stop-color:#605DDA"/>
			<stop  offset="0.84" style="stop-color:#5D5AD5"/>
			<stop  offset="0.87" style="stop-color:#5353C6"/>
			<stop  offset="0.91" style="stop-color:#4347AD"/>
			<stop  offset="0.95" style="stop-color:#2D368A"/>
			<stop  offset="0.99" style="stop-color:#10215E"/>
			<stop  offset="1" style="stop-color:#06194E"/>
			<stop  offset="1" style="stop-color:#05184D"/>
			<stop  offset="1" style="stop-color:#011546"/>
			<stop  offset="1" style="stop-color:#001444"/>
		</linearGradient>
		<polygon style="fill:url(#SVGID_00000055669366450918034000000003583519285926753174_);" points="338.1,208.2 333.7,203.8 
			333.7,192.4 334.3,192.4 334.3,203.6 338.5,207.8 		"/>
	</g>
	<g class="st7">
		<path d="M321.7,243.5v1.3h-2.1v6.6H318v-6.6h-2.1v-1.3H321.7z"/>
		<path d="M323.9,251c-0.5-0.3-0.9-0.6-1.1-1.1s-0.4-1-0.4-1.7s0.1-1.2,0.4-1.7c0.3-0.5,0.7-0.9,1.2-1.1c0.5-0.3,1-0.4,1.6-0.4
			c0.6,0,1.1,0.1,1.6,0.4c0.5,0.3,0.9,0.6,1.2,1.1c0.3,0.5,0.4,1.1,0.4,1.7s-0.1,1.2-0.4,1.7c-0.3,0.5-0.7,0.9-1.2,1.1
			c-0.5,0.3-1,0.4-1.6,0.4C325,251.4,324.4,251.3,323.9,251z M326.4,249.8c0.3-0.1,0.5-0.3,0.6-0.6c0.1-0.3,0.2-0.6,0.2-1
			c0-0.6-0.2-1-0.5-1.4c-0.3-0.3-0.7-0.5-1.1-0.5s-0.8,0.2-1.1,0.5c-0.3,0.3-0.5,0.8-0.5,1.4s0.1,1,0.4,1.4c0.3,0.3,0.7,0.5,1.1,0.5
			C325.9,250,326.1,250,326.4,249.8z"/>
		<path d="M333.7,251.3l-2.1-2.7v2.7H330V243h1.6v4.7l2.1-2.6h2l-2.7,3.1l2.8,3.1H333.7z"/>
		<path d="M342.3,248.7h-4.6c0,0.4,0.2,0.8,0.5,1.1s0.6,0.4,1,0.4c0.6,0,1-0.3,1.2-0.8h1.7c-0.2,0.6-0.5,1.1-1,1.5
			c-0.5,0.4-1.1,0.6-1.9,0.6c-0.6,0-1.1-0.1-1.6-0.4s-0.8-0.6-1.1-1.1c-0.3-0.5-0.4-1-0.4-1.7c0-0.6,0.1-1.2,0.4-1.7
			c0.3-0.5,0.6-0.9,1.1-1.1s1-0.4,1.6-0.4c0.6,0,1.1,0.1,1.6,0.4s0.8,0.6,1.1,1.1c0.3,0.5,0.4,1,0.4,1.6
			C342.3,248.3,342.3,248.5,342.3,248.7z M340.7,247.6c0-0.4-0.2-0.7-0.4-1s-0.6-0.4-1-0.4c-0.4,0-0.7,0.1-1,0.4
			c-0.3,0.2-0.4,0.6-0.5,1H340.7z"/>
		<path d="M348.7,245.7c0.5,0.5,0.7,1.1,0.7,2v3.7h-1.6v-3.4c0-0.5-0.1-0.9-0.4-1.1s-0.6-0.4-1-0.4c-0.4,0-0.8,0.1-1,0.4
			c-0.2,0.3-0.4,0.6-0.4,1.1v3.4h-1.6v-6.2h1.6v0.8c0.2-0.3,0.5-0.5,0.8-0.6c0.3-0.2,0.7-0.2,1.1-0.2
			C347.7,245,348.3,245.2,348.7,245.7z"/>
	</g>
	<g class="st7">
		<path d="M316.5,260.5h-3.1l-0.5,1.5h-1.7l2.8-7.9h1.8l2.8,7.9h-1.7L316.5,260.5z M316.1,259.2l-1.1-3.3l-1.1,3.3H316.1z"/>
		<path d="M329.4,256.3c0.5,0.5,0.7,1.1,0.7,2v3.7h-1.6v-3.4c0-0.5-0.1-0.9-0.4-1.1s-0.6-0.4-1-0.4c-0.4,0-0.8,0.1-1,0.4
			s-0.4,0.6-0.4,1.1v3.4h-1.6v-3.4c0-0.5-0.1-0.9-0.4-1.1c-0.2-0.3-0.6-0.4-1-0.4c-0.4,0-0.8,0.1-1,0.4c-0.3,0.3-0.4,0.6-0.4,1.1
			v3.4h-1.6v-6.2h1.6v0.8c0.2-0.3,0.5-0.5,0.8-0.6s0.7-0.2,1.1-0.2c0.5,0,0.9,0.1,1.3,0.3c0.4,0.2,0.7,0.5,0.9,0.9
			c0.2-0.4,0.5-0.6,0.9-0.9c0.4-0.2,0.8-0.3,1.3-0.3C328.3,255.6,328.9,255.9,329.4,256.3z"/>
		<path d="M332.7,261.7c-0.5-0.3-0.9-0.6-1.1-1.1c-0.3-0.5-0.4-1-0.4-1.7s0.1-1.2,0.4-1.7s0.7-0.9,1.2-1.1c0.5-0.3,1-0.4,1.6-0.4
			s1.1,0.1,1.6,0.4c0.5,0.3,0.9,0.6,1.2,1.1s0.4,1,0.4,1.7s-0.1,1.2-0.4,1.7c-0.3,0.5-0.7,0.9-1.2,1.1c-0.5,0.3-1,0.4-1.6,0.4
			C333.7,262.1,333.2,261.9,332.7,261.7z M335.1,260.5c0.3-0.1,0.5-0.3,0.6-0.6s0.2-0.6,0.2-1c0-0.6-0.2-1-0.5-1.4
			c-0.3-0.3-0.7-0.5-1.1-0.5c-0.4,0-0.8,0.2-1.1,0.5c-0.3,0.3-0.5,0.8-0.5,1.4s0.1,1,0.4,1.4c0.3,0.3,0.7,0.5,1.1,0.5
			C334.6,260.7,334.9,260.6,335.1,260.5z"/>
		<path d="M344.6,255.7v6.2H343v-0.8c-0.2,0.3-0.5,0.5-0.8,0.6c-0.3,0.2-0.7,0.2-1.1,0.2c-0.5,0-0.9-0.1-1.3-0.3
			c-0.4-0.2-0.7-0.5-0.9-0.9c-0.2-0.4-0.3-0.9-0.3-1.4v-3.7h1.6v3.4c0,0.5,0.1,0.9,0.4,1.1c0.2,0.3,0.6,0.4,1,0.4
			c0.4,0,0.8-0.1,1-0.4c0.2-0.3,0.4-0.6,0.4-1.1v-3.4H344.6z"/>
		<path d="M351.4,256.3c0.5,0.5,0.7,1.1,0.7,2v3.7h-1.6v-3.4c0-0.5-0.1-0.9-0.4-1.1c-0.2-0.3-0.6-0.4-1-0.4c-0.4,0-0.8,0.1-1,0.4
			c-0.3,0.3-0.4,0.6-0.4,1.1v3.4h-1.6v-6.2h1.6v0.8c0.2-0.3,0.5-0.5,0.8-0.6c0.3-0.2,0.7-0.2,1.1-0.2
			C350.4,255.6,351,255.9,351.4,256.3z"/>
		<path d="M355.5,257v3c0,0.2,0.1,0.4,0.2,0.5s0.3,0.1,0.5,0.1h0.7v1.3h-1c-1.3,0-2-0.6-2-1.9v-3h-0.7v-1.3h0.7v-1.5h1.6v1.5h1.4
			v1.3H355.5z"/>
	</g>
	<path d="M337.4,232.6h-2.5v2.6h-1.7v-2.6h-2.5V231h2.5v-2.6h1.7v2.6h2.5V232.6z"/>
</g>
</svg>
