<?xml version="1.0" encoding="UTF-8"?><svg id="a" xmlns="http://www.w3.org/2000/svg" viewBox="0 0 30.03 24.91"><path d="M30.03,2.29c0-1.92-.7-2.53-2.1-2.22-.69,.15-1.38,.37-2.04,.64-6.08,2.5-12.16,5.01-18.24,7.53-2.05,.85-4.09,1.73-6.11,2.64C.87,11.21-.06,11.49,0,12.41c.06,.92,.97,1.15,1.73,1.39,.42,.13,.86,.2,1.29,.32,.97,.26,1.92,.56,2.89,.81,1.62,.42,3.07,.04,4.44-.9,3.01-2.07,6.03-4.11,9.06-6.15,.78-.53,1.59-1.03,2.41-1.5,.17-.09,.45,.02,.68,.03-.02,.21,.04,.48-.07,.62-.34,.44-.72,.86-1.13,1.24-2.43,2.32-4.87,4.63-7.29,6.96-.35,.34-.65,.76-.9,1.19-.28,.48-.22,.99,.19,1.38,.41,.4,.85,.79,1.32,1.12,2.35,1.62,4.73,3.21,7.08,4.82,.93,.63,1.9,1.08,3.04,1.15,.65,.04,1.12-.2,1.37-.76,.31-.72,.65-1.46,.78-2.22,.83-4.71,1.63-9.43,2.39-14.15,.32-1.98,.53-3.98,.73-5.48Z"/></svg>