<?xml version="1.0" encoding="UTF-8"?><svg id="a" xmlns="http://www.w3.org/2000/svg" viewBox="0 0 29.96 24.44"><path d="M0,21.72c3.37,.24,6.38-.51,9.02-2.59-1.29-.08-2.48-.43-3.52-1.21-1.03-.77-1.76-1.76-2.17-3.02,.91,.04,1.78,.08,2.7-.13-3.12-.9-4.71-2.95-4.92-6.17,.89,.44,1.76,.74,2.71,.76-1.64-1.21-2.49-2.85-2.66-4.85-.1-1.2,.26-2.31,.84-3.37,3.36,3.9,7.55,6.08,12.72,6.45-.02-.19-.04-.35-.05-.5-.24-2.47,.53-4.52,2.58-6,2.34-1.68,5.74-1.38,7.81,.66,.15,.15,.27,.17,.47,.13,1.26-.27,2.45-.73,3.64-1.39-.53,1.43-1.39,2.52-2.61,3.34,1.17-.1,2.26-.45,3.39-.91-.09,.13-.13,.21-.19,.28-.76,1.03-1.64,1.95-2.66,2.72-.15,.11-.21,.23-.2,.43,.14,2.66-.45,5.17-1.5,7.6-1.75,4.04-4.62,7.02-8.58,8.93-1.61,.78-3.34,1.19-5.11,1.41-1.44,.18-2.88,.21-4.32,.05-2.61-.29-5.04-1.11-7.27-2.5-.02-.01-.04-.04-.12-.12Z"/></svg>